<svg width="373" height="308" viewBox="0 0 373 308" fill="none" xmlns="http://www.w3.org/2000/svg">
<path d="M106.28 125.569L259.795 125.569C263.565 125.569 266.621 122.532 266.621 118.784V7.06407C266.621 3.31691 263.565 0.279228 259.795 0.279228L106.28 0.279228C102.51 0.279228 99.4537 3.31691 99.4537 7.06407L99.4537 118.784C99.4537 122.532 102.51 125.569 106.28 125.569Z" fill="white"/>
<path d="M259.806 125.849H106.291C104.406 125.847 102.6 125.102 101.267 123.778C99.9349 122.454 99.1854 120.658 99.1833 118.785V7.06451C99.1854 5.19152 99.9349 3.39584 101.267 2.07143C102.6 0.747025 104.406 0.00206628 106.291 0L259.806 0C261.69 0.00206611 263.497 0.747014 264.829 2.07141C266.161 3.39581 266.911 5.19149 266.913 7.06451V118.785C266.911 120.658 266.161 122.454 264.829 123.778C263.497 125.102 261.69 125.847 259.806 125.849ZM106.291 0.55935C104.556 0.561327 102.892 1.24733 101.665 2.46685C100.438 3.68638 99.7481 5.33984 99.7461 7.06451V118.785C99.7481 120.51 100.438 122.163 101.665 123.383C102.892 124.602 104.556 125.288 106.291 125.29H259.806C261.541 125.288 263.204 124.602 264.431 123.383C265.658 122.163 266.348 120.51 266.35 118.785V7.06451C266.348 5.33981 265.658 3.68635 264.431 2.46683C263.204 1.24731 261.541 0.561327 259.806 0.55935H106.291Z" fill="#292A2E"/>
<path d="M119.358 10.8046L108.386 11.8388C107.253 11.9456 106.422 12.9454 106.529 14.0718L107.57 24.9777C107.677 26.1041 108.683 26.9306 109.816 26.8238L120.788 25.7897C121.921 25.6828 122.753 24.6831 122.645 23.5567L121.605 12.6508C121.497 11.5244 120.492 10.6978 119.358 10.8046Z" fill="#292A2E"/>
<path d="M150.603 34.4628L139.645 33.2909C138.514 33.1699 137.497 33.9837 137.376 35.1087L136.197 46.0007C136.075 47.1257 136.894 48.1358 138.025 48.2568L148.983 49.4287C150.115 49.5497 151.131 48.7359 151.253 47.6109L152.432 36.7189C152.554 35.594 151.735 34.5839 150.603 34.4628Z" fill="white"/>
<path d="M149.208 49.7803C149.121 49.7803 149.033 49.7756 148.947 49.7664L137.989 48.5944C137.356 48.526 136.776 48.2106 136.376 47.7176C135.976 47.2245 135.79 46.594 135.857 45.9643L137.036 35.073C137.07 34.7611 137.165 34.4589 137.316 34.1836C137.468 33.9083 137.672 33.6653 137.918 33.4685C138.163 33.2717 138.446 33.1249 138.749 33.0366C139.051 32.9483 139.369 32.9201 139.682 32.9537L150.64 34.1257C151.274 34.1936 151.854 34.5088 152.254 35.002C152.654 35.4952 152.84 36.126 152.772 36.7558L151.593 47.6471C151.529 48.2322 151.251 48.7735 150.811 49.1672C150.371 49.5609 149.8 49.7792 149.208 49.7803ZM149.019 49.0913C149.473 49.1398 149.927 49.0073 150.282 48.7229C150.637 48.4385 150.864 48.0256 150.913 47.5748L152.093 36.6831C152.141 36.2323 152.008 35.7808 151.722 35.4277C151.436 35.0747 151.02 34.849 150.567 34.8004L139.609 33.6288C139.384 33.6047 139.157 33.6249 138.94 33.6882C138.724 33.7514 138.522 33.8564 138.346 33.9973C138.17 34.1381 138.024 34.312 137.915 34.5091C137.807 34.7061 137.739 34.9224 137.715 35.1456L136.536 46.037C136.488 46.4877 136.621 46.939 136.907 47.292C137.194 47.6449 137.609 47.8706 138.062 47.9197L149.019 49.0913Z" fill="#292A2E"/>
<path d="M199.227 51.7316C199.17 51.7317 199.115 51.718 199.066 51.6919C199.016 51.6657 198.974 51.6278 198.943 51.5816C191.99 41.3022 181.443 39.4307 173.816 39.6683C168.659 39.8634 163.568 40.8841 158.738 42.6911C158.654 42.7247 158.561 42.7241 158.478 42.6896C158.394 42.6551 158.328 42.5893 158.294 42.5067C158.259 42.424 158.259 42.3311 158.293 42.2482C158.327 42.1654 158.393 42.0992 158.476 42.0642C163.382 40.2273 168.555 39.1892 173.795 38.9898C181.59 38.7461 192.382 40.6658 199.51 51.2025C199.544 51.2535 199.564 51.313 199.567 51.3744C199.57 51.4358 199.557 51.497 199.528 51.5513C199.499 51.6056 199.455 51.6511 199.402 51.6828C199.349 51.7145 199.288 51.7312 199.227 51.7313V51.7316Z" fill="#292A2E"/>
<path d="M199.353 51.8704C199.321 51.8703 199.29 51.8659 199.26 51.8575L192.263 49.8933C192.176 49.8689 192.102 49.811 192.058 49.7325C192.014 49.6539 192.003 49.5611 192.027 49.4745C192.052 49.3878 192.11 49.3144 192.189 49.2705C192.268 49.2265 192.361 49.2155 192.448 49.2399L199.117 51.1115L201 44.4834C201.026 44.3988 201.085 44.3277 201.163 44.2853C201.241 44.243 201.333 44.2328 201.419 44.2569C201.505 44.2811 201.578 44.3376 201.622 44.4144C201.667 44.4912 201.679 44.5822 201.657 44.6681L199.681 51.6226C199.661 51.6938 199.618 51.7565 199.559 51.8012C199.5 51.846 199.427 51.8702 199.353 51.8704Z" fill="#292A2E"/>
<path d="M210.327 54.915L199.355 55.9492C198.221 56.056 197.39 57.0557 197.497 58.1821L198.538 69.088C198.645 70.2145 199.651 71.041 200.784 70.9342L211.756 69.9C212.889 69.7932 213.721 68.7935 213.613 67.6671L212.573 56.7611C212.466 55.6347 211.46 54.8082 210.327 54.915Z" fill="#571BB1"/>
<path d="M246.186 21.3876L235.187 20.6847C234.051 20.6121 233.071 21.4686 232.998 22.5977L232.291 33.53C232.218 34.6591 233.08 35.6333 234.216 35.7059L245.214 36.4088C246.35 36.4814 247.33 35.6249 247.403 34.4958L248.11 23.5635C248.183 22.4344 247.322 21.4602 246.186 21.3876Z" fill="#292A2E"/>
<path d="M252.4 57.0629L241.442 55.891C240.31 55.77 239.294 56.5838 239.172 57.7088L237.993 68.6008C237.872 69.7258 238.69 70.7359 239.822 70.8569L250.78 72.0288C251.912 72.1498 252.928 71.336 253.05 70.211L254.229 59.319C254.351 58.1941 253.532 57.184 252.4 57.0629Z" fill="#65C0A7"/>
<path d="M192.248 92.5439L181.276 93.5781C180.143 93.6849 179.311 94.6846 179.419 95.811L180.459 106.717C180.567 107.843 181.573 108.67 182.706 108.563L193.678 107.529C194.811 107.422 195.643 106.422 195.535 105.296L194.495 94.39C194.387 93.2636 193.381 92.4371 192.248 92.5439Z" fill="white"/>
<path d="M182.51 108.912C181.913 108.911 181.337 108.689 180.895 108.289C180.453 107.889 180.177 107.34 180.12 106.749L179.079 95.8431C179.02 95.2127 179.215 94.5846 179.621 94.0967C180.026 93.6087 180.61 93.3007 181.245 93.2402L192.216 92.206C192.53 92.1764 192.847 92.2085 193.148 92.3007C193.45 92.3928 193.731 92.5431 193.974 92.743C194.217 92.9428 194.418 93.1883 194.566 93.4655C194.713 93.7426 194.805 94.046 194.835 94.3582L195.875 105.264C195.934 105.894 195.74 106.522 195.334 107.01C194.928 107.498 194.344 107.806 193.71 107.867L182.739 108.901C182.662 108.908 182.585 108.912 182.51 108.912ZM192.447 92.8739C192.392 92.8739 192.337 92.8767 192.282 92.8818L181.309 93.9149C180.855 93.9582 180.437 94.1786 180.146 94.528C179.855 94.8773 179.716 95.327 179.758 95.7783L180.799 106.684C180.843 107.135 181.065 107.55 181.416 107.839C181.768 108.128 182.22 108.266 182.674 108.224L193.645 107.19C194.099 107.147 194.517 106.926 194.808 106.577C195.098 106.228 195.238 105.778 195.195 105.327L194.155 94.421C194.114 93.998 193.917 93.6051 193.601 93.319C193.285 93.0328 192.873 92.8738 192.445 92.8729L192.447 92.8739Z" fill="#292A2E"/>
<path d="M121.502 88.8554L110.53 89.8896C109.397 89.9964 108.565 90.9961 108.673 92.1225L109.713 103.028C109.821 104.155 110.827 104.981 111.96 104.875L122.932 103.84C124.065 103.734 124.896 102.734 124.789 101.607L123.749 90.7016C123.641 89.5751 122.635 88.7486 121.502 88.8554Z" fill="#571BB1"/>
<path d="M209.285 49.3588C209.272 49.3588 209.258 49.3581 209.245 49.3568C209.201 49.3517 209.158 49.3379 209.119 49.3162C209.079 49.2946 209.045 49.2655 209.017 49.2305C208.989 49.1956 208.968 49.1556 208.956 49.1127C208.944 49.0698 208.94 49.025 208.945 48.9807C209.458 45.554 210.524 42.2321 212.102 39.1429C215.516 32.564 220.871 28.7908 227.584 28.2287C227.674 28.2212 227.764 28.2496 227.833 28.3076C227.902 28.3657 227.945 28.4487 227.953 28.5385C227.96 28.6282 227.932 28.7172 227.873 28.786C227.815 28.8547 227.731 28.8976 227.641 28.9052C211.985 30.214 209.646 48.8701 209.623 49.0584C209.614 49.1411 209.574 49.2173 209.512 49.2727C209.449 49.328 209.368 49.3587 209.285 49.3588Z" fill="#292A2E"/>
<path d="M224.336 32.2691C224.269 32.2692 224.203 32.2493 224.147 32.2121C224.091 32.1749 224.047 32.1219 224.021 32.06C223.995 31.998 223.988 31.9298 224.001 31.864C224.014 31.7981 224.047 31.7376 224.094 31.6901L227.249 28.54L224.081 25.4038C224.048 25.3726 224.022 25.3352 224.004 25.2938C223.986 25.2525 223.976 25.2079 223.976 25.1629C223.975 25.1178 223.984 25.0731 224.001 25.0314C224.018 24.9896 224.043 24.9517 224.075 24.9197C224.107 24.8878 224.146 24.8625 224.187 24.8454C224.229 24.8282 224.274 24.8195 224.32 24.8198C224.365 24.8201 224.41 24.8294 224.452 24.8471C224.493 24.8648 224.531 24.8905 224.563 24.9229L227.973 28.2987C228.037 28.3623 228.073 28.4486 228.073 28.5386C228.073 28.6286 228.037 28.715 227.973 28.7786L224.577 32.169C224.546 32.2006 224.508 32.2258 224.467 32.243C224.426 32.2602 224.381 32.269 224.336 32.2691Z" fill="#292A2E"/>
<path d="M187.085 87.4744C187.012 87.4744 186.941 87.4511 186.882 87.4079C186.824 87.3647 186.78 87.3039 186.759 87.2345C186.708 87.0685 181.797 70.5846 194.51 63.7472C194.55 63.7249 194.593 63.7108 194.638 63.7055C194.684 63.7002 194.729 63.7039 194.773 63.7163C194.817 63.7288 194.857 63.7498 194.893 63.7781C194.928 63.8064 194.957 63.8414 194.979 63.8811C195 63.9208 195.014 63.9644 195.018 64.0093C195.023 64.0542 195.018 64.0996 195.005 64.1427C194.991 64.1858 194.969 64.2258 194.94 64.2604C194.911 64.295 194.875 64.3235 194.835 64.3442C182.618 70.9142 187.364 86.8737 187.413 87.0342C187.429 87.085 187.432 87.1386 187.423 87.191C187.414 87.2433 187.393 87.2928 187.361 87.3354C187.329 87.3781 187.288 87.4128 187.24 87.4367C187.193 87.4606 187.14 87.4731 187.086 87.4731L187.085 87.4744Z" fill="#292A2E"/>
<path d="M193.212 68.275C193.156 68.2749 193.101 68.2614 193.052 68.2357C193.003 68.2099 192.961 68.1726 192.93 68.127C192.899 68.0814 192.879 68.029 192.873 67.9741C192.866 67.9193 192.874 67.8638 192.894 67.8124L194.318 64.1749L190.659 62.7575C190.576 62.7238 190.51 62.6591 190.475 62.5774C190.439 62.4957 190.438 62.4034 190.47 62.3205C190.502 62.2376 190.566 62.1707 190.648 62.1341C190.729 62.0975 190.822 62.0942 190.906 62.1248L194.884 63.6637C194.926 63.6799 194.964 63.7041 194.996 63.735C195.029 63.7658 195.055 63.8027 195.073 63.8435C195.091 63.8843 195.101 63.9283 195.102 63.9728C195.103 64.0174 195.095 64.0617 195.078 64.1033L193.53 68.0571C193.505 68.1211 193.462 68.1762 193.405 68.2151C193.348 68.254 193.281 68.2749 193.212 68.275Z" fill="#292A2E"/>
<path d="M144.616 31.4097C144.526 31.4097 144.439 31.3739 144.375 31.3103C144.311 31.2466 144.275 31.1603 144.275 31.0703C144.275 25.9143 142.744 21.9785 139.724 19.3725C134.363 14.7473 126.024 15.8623 125.941 15.8742C125.851 15.8869 125.76 15.8637 125.688 15.8097C125.615 15.7557 125.567 15.6753 125.554 15.5862C125.542 15.497 125.565 15.4065 125.619 15.3345C125.674 15.2625 125.755 15.2149 125.844 15.2021C126.198 15.1515 134.569 14.0291 140.168 18.8569C143.347 21.5977 144.958 25.7069 144.958 31.0703C144.958 31.1149 144.949 31.159 144.932 31.2002C144.915 31.2414 144.889 31.2788 144.858 31.3103C144.826 31.3418 144.788 31.3668 144.747 31.3839C144.706 31.4009 144.661 31.4097 144.616 31.4097Z" fill="#292A2E"/>
<path d="M144.633 31.5317C144.622 31.5317 144.611 31.5317 144.601 31.5317C144.556 31.5276 144.512 31.5147 144.473 31.4938C144.433 31.473 144.398 31.4446 144.369 31.4102L141.299 27.7245C141.241 27.6552 141.213 27.5658 141.222 27.4762C141.23 27.3865 141.274 27.3039 141.344 27.2465C141.414 27.189 141.503 27.1615 141.594 27.17C141.684 27.1784 141.767 27.2221 141.825 27.2914L144.679 30.7171L148.124 27.8824C148.158 27.8539 148.198 27.8326 148.241 27.8195C148.284 27.8064 148.329 27.8018 148.374 27.806C148.418 27.8102 148.462 27.823 148.501 27.8439C148.541 27.8648 148.576 27.8932 148.605 27.9275C148.633 27.9618 148.655 28.0014 148.668 28.0441C148.681 28.0867 148.686 28.1314 148.681 28.1758C148.677 28.2202 148.664 28.2633 148.643 28.3027C148.622 28.3421 148.594 28.377 148.559 28.4054L144.85 31.455C144.789 31.5048 144.712 31.5319 144.633 31.5317Z" fill="#292A2E"/>
<path d="M152.182 68.8521H141.161C140.023 68.8521 139.1 69.7693 139.1 70.9007V81.8556C139.1 82.9871 140.023 83.9043 141.161 83.9043H152.182C153.321 83.9043 154.244 82.9871 154.244 81.8556V70.9007C154.244 69.7693 153.321 68.8521 152.182 68.8521Z" fill="#65C0A7"/>
<path d="M180.252 88.8725C180.176 88.8723 180.102 88.847 180.042 88.8004C179.982 88.7539 179.94 88.6888 179.921 88.6155C176.114 73.4778 157.499 74.5395 157.314 74.552C157.27 74.555 157.225 74.5492 157.182 74.535C157.139 74.5207 157.1 74.4982 157.066 74.4688C157.032 74.4394 157.005 74.4037 156.985 74.3637C156.965 74.3236 156.953 74.2801 156.95 74.2355C156.947 74.1909 156.953 74.1462 156.967 74.1039C156.981 74.0616 157.004 74.0225 157.034 73.9888C157.063 73.9552 157.099 73.9276 157.139 73.9078C157.18 73.888 157.223 73.8762 157.268 73.8732C160.697 73.7579 164.121 74.2058 167.403 75.1989C172.276 76.7124 178.519 80.2399 180.583 88.4492C180.594 88.4925 180.596 88.5375 180.59 88.5816C180.583 88.6257 180.568 88.668 180.545 88.7063C180.522 88.7445 180.491 88.7779 180.455 88.8044C180.419 88.8309 180.378 88.8501 180.335 88.8609C180.308 88.8683 180.28 88.8721 180.252 88.8725Z" fill="#292A2E"/>
<path d="M180.299 88.987C180.228 88.987 180.159 88.9651 180.101 88.9243L176.237 86.1984C176.163 86.1463 176.113 86.0671 176.098 85.9783C176.083 85.8896 176.104 85.7985 176.157 85.7251C176.209 85.6518 176.289 85.6021 176.378 85.5871C176.467 85.5721 176.559 85.593 176.633 85.6452L180.214 88.1718L182.768 84.4919C182.819 84.4185 182.898 84.3684 182.987 84.3525C183.076 84.3367 183.167 84.3563 183.241 84.4072C183.315 84.4581 183.366 84.5361 183.383 84.6242C183.399 84.7123 183.38 84.8033 183.33 84.8774L180.58 88.8404C180.554 88.8774 180.522 88.909 180.484 88.9333C180.446 88.9576 180.403 88.9741 180.358 88.982C180.339 88.9853 180.319 88.987 180.299 88.987Z" fill="#292A2E"/>
<path d="M348.171 307.254L348.842 307.126L338.36 203.595L337.689 203.723L348.171 307.254Z" fill="#494949"/>
<path d="M309.142 307.254L309.813 307.126L299.332 203.595L298.661 203.723L309.142 307.254Z" fill="#494949"/>
<path d="M222.871 307.254L222.201 307.126L232.682 203.595L233.353 203.723L222.871 307.254Z" fill="#494949"/>
<path d="M261.9 307.254L261.23 307.126L271.711 203.595L272.382 203.723L261.9 307.254Z" fill="#494949"/>
<path d="M275.797 158.028L269.674 203.612L270.351 203.702L276.474 158.118L275.797 158.028Z" fill="#494949"/>
<path d="M346.078 158.027L339.955 203.612L340.632 203.702L346.755 158.117L346.078 158.027Z" fill="#494949"/>
<path d="M269.736 206.997H338.48C340.335 206.997 341.838 205.503 341.838 203.659V203.659C341.838 201.815 340.335 200.32 338.48 200.32H269.736C267.881 200.32 266.378 201.815 266.378 203.659V203.659C266.378 205.503 267.881 206.997 269.736 206.997Z" fill="#292A2E"/>
<path opacity="0.8" d="M269.736 206.997H338.48C340.335 206.997 341.838 205.503 341.838 203.659V203.659C341.838 201.815 340.335 200.32 338.48 200.32H269.736C267.881 200.32 266.378 201.815 266.378 203.659V203.659C266.378 205.503 267.881 206.997 269.736 206.997Z" fill="#E9DAFF"/>
<path d="M266.036 203.659C266.037 202.684 266.427 201.749 267.121 201.06C267.815 200.37 268.755 199.983 269.736 199.981H338.48C339.461 199.981 340.402 200.369 341.096 201.059C341.79 201.748 342.18 202.684 342.18 203.659C342.18 204.634 341.79 205.57 341.096 206.259C340.402 206.949 339.461 207.336 338.48 207.336H269.736C268.755 207.335 267.815 206.947 267.121 206.258C266.427 205.568 266.037 204.634 266.036 203.659ZM269.736 200.66C268.936 200.66 268.168 200.976 267.603 201.538C267.037 202.101 266.719 202.863 266.719 203.659C266.719 204.454 267.037 205.217 267.603 205.779C268.168 206.341 268.936 206.657 269.736 206.657H338.48C339.28 206.657 340.047 206.341 340.613 205.779C341.179 205.217 341.497 204.454 341.497 203.659C341.497 202.863 341.179 202.101 340.613 201.538C340.047 200.976 339.28 200.66 338.48 200.66H269.736Z" fill="#292A2E"/>
<path d="M232.006 206.997H300.75C302.604 206.997 304.108 205.503 304.108 203.659V203.659C304.108 201.815 302.604 200.32 300.75 200.32H232.006C230.151 200.32 228.647 201.815 228.647 203.659V203.659C228.647 205.503 230.151 206.997 232.006 206.997Z" fill="#E9DAFF"/>
<path d="M228.304 203.659C228.305 202.683 228.696 201.749 229.39 201.059C230.084 200.37 231.025 199.982 232.006 199.981H300.75C301.731 199.981 302.672 200.369 303.366 201.059C304.06 201.748 304.449 202.684 304.449 203.659C304.449 204.634 304.06 205.57 303.366 206.259C302.672 206.949 301.731 207.336 300.75 207.336H232.006C231.024 207.336 230.084 206.948 229.39 206.258C228.696 205.569 228.305 204.634 228.304 203.659ZM232.006 200.66C231.61 200.66 231.217 200.738 230.851 200.889C230.485 201.039 230.153 201.26 229.872 201.539C229.592 201.817 229.37 202.148 229.218 202.511C229.067 202.875 228.989 203.265 228.989 203.659C228.989 204.053 229.067 204.443 229.218 204.807C229.37 205.17 229.592 205.501 229.872 205.779C230.153 206.058 230.485 206.279 230.851 206.429C231.217 206.58 231.61 206.658 232.006 206.658H300.75C301.55 206.658 302.317 206.342 302.883 205.779C303.449 205.217 303.766 204.454 303.766 203.659C303.766 202.864 303.449 202.101 302.883 201.539C302.317 200.976 301.55 200.66 300.75 200.66H232.006Z" fill="#292A2E"/>
<path d="M279.566 158.074H346.237C347.327 158.074 348.38 157.68 349.199 156.965C350.018 156.25 350.547 155.263 350.688 154.189L355.097 120.525C355.18 119.896 355.126 119.257 354.94 118.65C354.755 118.043 354.44 117.482 354.019 117.005C353.598 116.528 353.079 116.146 352.498 115.885C351.916 115.623 351.285 115.488 350.647 115.488H283.977C282.886 115.487 281.833 115.882 281.013 116.597C280.194 117.312 279.665 118.299 279.524 119.374L275.114 153.037C275.032 153.666 275.085 154.306 275.271 154.913C275.457 155.52 275.772 156.081 276.193 156.558C276.614 157.034 277.133 157.416 277.715 157.678C278.297 157.939 278.928 158.075 279.566 158.074Z" fill="#292A2E"/>
<path opacity="0.8" d="M279.566 158.074H346.237C347.327 158.074 348.38 157.68 349.199 156.965C350.018 156.25 350.547 155.263 350.688 154.189L355.097 120.525C355.18 119.896 355.126 119.257 354.94 118.65C354.755 118.043 354.44 117.482 354.019 117.005C353.598 116.528 353.079 116.146 352.498 115.885C351.916 115.623 351.285 115.488 350.647 115.488H283.977C282.886 115.487 281.833 115.882 281.013 116.597C280.194 117.312 279.665 118.299 279.524 119.374L275.114 153.037C275.032 153.666 275.085 154.306 275.271 154.913C275.457 155.52 275.772 156.081 276.193 156.558C276.614 157.034 277.133 157.416 277.715 157.678C278.297 157.939 278.928 158.075 279.566 158.074Z" fill="#E9DAFF"/>
<path d="M275.939 156.781C275.485 156.268 275.147 155.665 274.947 155.011C274.747 154.358 274.689 153.67 274.778 152.993L279.188 119.33C279.342 118.175 279.912 117.115 280.793 116.346C281.673 115.577 282.805 115.152 283.977 115.149H350.647C351.334 115.149 352.013 115.295 352.639 115.576C353.265 115.858 353.823 116.269 354.277 116.782C354.73 117.295 355.068 117.898 355.268 118.551C355.468 119.205 355.526 119.893 355.437 120.57L351.027 154.233C350.873 155.388 350.303 156.448 349.422 157.217C348.542 157.986 347.41 158.411 346.238 158.414H279.566C278.88 158.413 278.201 158.268 277.575 157.986C276.95 157.705 276.392 157.294 275.939 156.781ZM283.977 115.828C282.97 115.83 281.999 116.195 281.243 116.856C280.487 117.516 279.998 118.426 279.866 119.418L275.456 153.081C275.379 153.662 275.429 154.253 275.601 154.814C275.773 155.374 276.063 155.892 276.452 156.333C276.841 156.773 277.32 157.126 277.858 157.368C278.395 157.61 278.978 157.735 279.568 157.735H346.238C347.245 157.733 348.216 157.368 348.972 156.707C349.729 156.047 350.218 155.137 350.35 154.145L354.76 120.482C354.836 119.901 354.787 119.31 354.615 118.749C354.443 118.188 354.153 117.67 353.764 117.23C353.375 116.789 352.896 116.436 352.358 116.195C351.821 115.953 351.238 115.828 350.648 115.828H283.977Z" fill="#292A2E"/>
<path d="M275.796 158.074H342.467C343.557 158.074 344.609 157.68 345.428 156.965C346.247 156.25 346.777 155.263 346.918 154.189L351.328 120.525C351.41 119.896 351.356 119.257 351.17 118.65C350.984 118.043 350.67 117.482 350.249 117.005C349.828 116.528 349.309 116.146 348.728 115.885C348.146 115.623 347.515 115.488 346.877 115.488H280.207C279.117 115.488 278.064 115.882 277.245 116.597C276.426 117.312 275.897 118.299 275.756 119.373L271.346 153.036C271.264 153.665 271.317 154.305 271.503 154.912C271.689 155.519 272.003 156.08 272.424 156.556C272.845 157.033 273.364 157.415 273.945 157.677C274.527 157.939 275.158 158.074 275.796 158.074Z" fill="#E9DAFF"/>
<path d="M272.167 156.781C271.714 156.268 271.376 155.665 271.176 155.011C270.975 154.358 270.918 153.67 271.006 152.993L275.416 119.33C275.57 118.175 276.141 117.114 277.022 116.345C277.903 115.576 279.035 115.151 280.207 115.149H346.877C347.564 115.149 348.243 115.295 348.869 115.576C349.495 115.858 350.053 116.269 350.506 116.782C350.96 117.295 351.298 117.898 351.498 118.551C351.698 119.205 351.755 119.893 351.667 120.57L347.257 154.233C347.103 155.388 346.533 156.448 345.652 157.217C344.771 157.986 343.639 158.411 342.467 158.414H275.796C275.109 158.414 274.43 158.268 273.805 157.986C273.179 157.705 272.621 157.294 272.167 156.781ZM280.207 115.828C279.201 115.83 278.229 116.195 277.473 116.855C276.717 117.516 276.227 118.426 276.095 119.418L271.685 153.081C271.609 153.662 271.658 154.253 271.83 154.814C272.002 155.374 272.292 155.892 272.681 156.333C273.07 156.773 273.55 157.126 274.087 157.368C274.624 157.61 275.207 157.735 275.797 157.735H342.467C343.473 157.733 344.445 157.368 345.201 156.707C345.957 156.047 346.447 155.137 346.579 154.145L350.989 120.482C351.065 119.901 351.015 119.31 350.844 118.749C350.672 118.189 350.382 117.671 349.993 117.23C349.603 116.789 349.124 116.437 348.587 116.195C348.049 115.953 347.466 115.828 346.877 115.828H280.207Z" fill="#292A2E"/>
<path d="M225.408 289.32C225.408 289.32 223.578 298.753 214.692 299.279C205.806 299.805 207.733 306.841 207.733 306.841H241.69V289.978L225.408 289.32Z" fill="#571BB1"/>
<path d="M255.876 283.364C255.876 283.364 258.423 292.632 250.683 297.003C242.943 301.373 247.796 306.841 247.796 306.841L278.266 291.941L270.777 276.811L255.876 283.364Z" fill="#571BB1"/>
<path d="M274.748 280.746L249.053 200.173H295.629C304.986 200.173 308.885 192.287 308.885 182.987C308.885 173.688 299.688 165.536 290.333 165.536H227.472C221.766 165.536 215.367 169.005 212.236 173.747C209.104 178.488 209.95 185.836 212.219 191.04L253.366 290.374" fill="#262626"/>
<path opacity="0.8" d="M274.748 280.746L249.053 200.173H295.629C304.986 200.173 308.885 192.287 308.885 182.987C308.885 173.688 299.688 165.536 290.333 165.536H227.472C221.766 165.536 215.367 169.005 212.236 173.747C209.104 178.488 209.95 185.836 212.219 191.04L253.366 290.374" fill="#0A0A0A"/>
<path d="M244.344 296.082L252.471 200.173L308.884 200.169C322.103 199.139 328.157 191.938 327.965 182.641C327.774 173.462 323.099 164.396 313.905 164.396H237.872C231.07 164.534 223.195 170.93 223.195 178.286L219.244 294.968" fill="#262626"/>
<path d="M331.814 164.508C331.814 164.508 334.319 180.747 330.348 189.776C325.39 201.048 306.805 200.17 306.805 200.17L307.852 164.396L331.814 164.508Z" fill="#262626"/>
<path d="M334.575 162.673L334.647 162.677C334.647 162.677 334.595 161.293 334.575 162.673Z" fill="#333333"/>
<path d="M334.484 162.673L334.556 162.677C334.556 162.677 334.504 161.293 334.484 162.673Z" fill="#333333"/>
<path d="M213.542 96.8342C213.674 96.5725 213.886 96.3583 214.146 96.2212C214.407 96.084 214.704 96.0307 214.997 96.0685C214.994 96.0427 215 96.0167 215.013 95.9942C215.027 95.9768 215.044 95.9633 215.065 95.955C215.085 95.9467 215.108 95.944 215.13 95.947L214.143 95.2438C213.848 95.0428 213.636 94.7426 213.547 94.3987C213.457 94.0547 213.496 93.6902 213.655 93.3722C213.823 93.0632 214.101 92.8272 214.434 92.71C214.768 92.5928 215.133 92.6027 215.459 92.7379C215.457 92.724 215.466 92.7107 215.468 92.6965L215.062 92.4076C214.785 92.2173 214.583 91.9378 214.489 91.6162C214.395 91.2946 214.416 90.9507 214.548 90.6427C214.635 90.4511 214.764 90.2811 214.925 90.145C215.086 90.0088 215.275 89.9099 215.48 89.8553C215.684 89.8007 215.898 89.7919 216.106 89.8294C216.314 89.8669 216.511 89.9498 216.683 90.0721L217.619 90.7387C217.621 90.7333 217.619 90.7269 217.622 90.7218C217.626 90.7167 217.636 90.7146 217.642 90.7092C217.427 90.4689 217.3 90.1632 217.283 89.8421C217.266 89.5211 217.359 89.2038 217.547 88.9422C217.989 88.2359 219.009 88.3802 219.614 88.8112L225.122 92.5929L224.138 90.942C223.94 90.625 223.87 90.245 223.943 89.8787C224.016 89.5125 224.226 89.1874 224.53 88.969C224.691 88.8618 224.873 88.7884 225.064 88.7532C225.254 88.718 225.45 88.7218 225.639 88.7644C225.829 88.8069 226.007 88.8874 226.164 89.0008C226.321 89.1141 226.453 89.2581 226.552 89.4239L231.927 98.4183C232.558 99.4736 232.75 100.732 232.462 101.925C232.174 103.119 231.43 104.154 230.386 104.811C229.177 105.572 227.765 105.957 226.334 105.917C224.902 105.876 223.516 105.411 222.352 104.581L214.034 98.6552C213.757 98.451 213.559 98.1602 213.469 97.8297C213.38 97.4992 213.405 97.1485 213.542 96.8342Z" fill="#E98862"/>
<g opacity="0.25">
<path d="M223.07 94.4731C223.049 94.5008 223.019 94.5194 222.985 94.5252C222.951 94.5309 222.916 94.5231 222.888 94.5036L217.655 90.9008C217.626 90.8809 217.607 90.8506 217.601 90.8166C217.595 90.7826 217.602 90.7475 217.622 90.7191C217.642 90.6907 217.672 90.6712 217.706 90.6648C217.74 90.6585 217.776 90.6658 217.805 90.6853L223.038 94.2888C223.052 94.2985 223.065 94.3109 223.074 94.3253C223.084 94.3398 223.09 94.3559 223.093 94.3729C223.097 94.3898 223.096 94.4072 223.093 94.424C223.089 94.4409 223.082 94.4569 223.072 94.4711L223.07 94.4731Z" fill="#0C0C0C"/>
</g>
<g opacity="0.25">
<path d="M221.535 96.811C221.514 96.8386 221.484 96.8573 221.45 96.863C221.416 96.8687 221.381 96.861 221.353 96.8415L215.514 92.8205C215.485 92.8008 215.465 92.7705 215.459 92.7364C215.453 92.7022 215.46 92.6669 215.48 92.6382C215.5 92.6105 215.531 92.5916 215.565 92.5853C215.599 92.579 215.634 92.5858 215.663 92.6043L221.504 96.6253C221.518 96.635 221.53 96.6475 221.54 96.6619C221.549 96.6763 221.556 96.6925 221.559 96.7094C221.562 96.7263 221.562 96.7437 221.558 96.7605C221.555 96.7774 221.548 96.7934 221.538 96.8076L221.535 96.811Z" fill="#0C0C0C"/>
</g>
<g opacity="0.25">
<path d="M219.887 99.353C219.866 99.3806 219.836 99.3993 219.802 99.405C219.768 99.4107 219.733 99.403 219.705 99.3835L215.046 96.1761C215.018 96.1558 215 96.1257 214.994 96.092C214.988 96.0584 214.996 96.0238 215.016 95.9958C215.035 95.9677 215.065 95.9484 215.099 95.9419C215.133 95.9353 215.168 95.9422 215.196 95.9609L219.855 99.1683C219.87 99.178 219.882 99.1905 219.891 99.2049C219.901 99.2193 219.907 99.2355 219.91 99.2524C219.914 99.2693 219.913 99.2867 219.91 99.3036C219.906 99.3204 219.899 99.3364 219.889 99.3506L219.887 99.353Z" fill="#0C0C0C"/>
</g>
<path d="M235.099 96.3706L250.886 123.096L270.149 97.9815L286.146 112.317L258.825 147.486L258.647 147.736C257.553 149.225 256.096 150.412 254.413 151.186C252.73 151.961 250.877 152.296 249.028 152.162C247.178 152.027 245.393 151.427 243.842 150.417C242.29 149.408 241.023 148.022 240.159 146.391L217.71 105.982L235.099 96.3706Z" fill="#571BB1"/>
<path d="M252.432 126.309C252.467 126.309 252.501 126.301 252.531 126.284C252.56 126.267 252.586 126.243 252.604 126.214C252.621 126.185 252.632 126.152 252.633 126.118C252.634 126.084 252.627 126.05 252.611 126.02L251.064 123.005C251.038 122.96 250.996 122.926 250.947 122.911C250.897 122.896 250.843 122.901 250.797 122.924C250.75 122.948 250.715 122.988 250.698 123.037C250.681 123.086 250.684 123.14 250.706 123.186L252.254 126.201C252.271 126.234 252.296 126.261 252.328 126.28C252.359 126.299 252.396 126.309 252.432 126.309Z" fill="#0C0C0C"/>
<path d="M271.258 122.944L270.858 122.966L271.34 131.407L271.74 131.385L271.258 122.944Z" fill="#0C0C0C"/>
<path d="M322.127 61.8545C322.127 61.8545 322.867 71.2501 325.035 74.6371C331.277 84.3874 333.18 95.4156 327.112 101.258C321.043 107.1 281.91 107.631 278.79 94.3905C276.164 83.2419 281.507 81.9786 282.702 72.7429C283.244 68.5644 284.764 59.7974 284.764 59.7974" fill="#0A0A0A"/>
<path d="M288.753 92.2721C288.821 92.2633 289.57 104.627 304.021 103.55C314.026 102.805 317.592 92.2545 317.822 92.2545C316.743 92.0267 314.927 91.6954 314.448 91.4399C312.872 90.5985 310.923 89.7231 310.416 86.6823C310.123 84.9296 310.62 75.9634 310.466 74.1899L295.11 77.597C295.324 81.342 296.826 90.0242 291.563 91.5607C290.687 91.8163 289.743 92.0501 288.753 92.2721Z" fill="#E98862"/>
<path opacity="0.52" d="M294.894 88.0143C295.135 87.2437 295.29 86.4493 295.356 85.6452C295.525 83.8104 295.492 81.9627 295.256 80.1352C298.377 79.7165 301.318 78.4359 303.744 76.439C304.029 77.4857 305.597 82.0596 305.163 83.0544C304.342 84.9351 300.485 88.0143 294.894 88.0143Z" fill="#0C0C0C"/>
<path d="M296.93 84.1227C302.991 84.6352 310.796 82.1378 312.325 74.1056L313.705 66.8578C315.235 58.8253 312.23 51.5164 304.622 50.0841C297.014 48.6528 290.087 54.0946 288.557 62.1271L287.946 65.3356C287.359 68.4178 286.116 83.208 296.93 84.1227Z" fill="#E98862"/>
<path d="M290.114 65.6855C290.641 65.6855 291.068 65.2611 291.068 64.7375C291.068 64.214 290.641 63.7896 290.114 63.7896C289.587 63.7896 289.16 64.214 289.16 64.7375C289.16 65.2611 289.587 65.6855 290.114 65.6855Z" fill="#0C0C0C"/>
<path d="M299.885 66.9829C300.412 66.9829 300.839 66.5584 300.839 66.0349C300.839 65.5113 300.412 65.0869 299.885 65.0869C299.359 65.0869 298.932 65.5113 298.932 66.0349C298.932 66.5584 299.359 66.9829 299.885 66.9829Z" fill="#0C0C0C"/>
<path d="M294.523 72.9856C294.518 72.9853 294.513 72.9846 294.508 72.9836C294.2 72.9231 293.896 72.846 293.596 72.7524C293.148 72.6095 292.562 72.3726 292.64 71.9718C292.727 71.5143 294.928 66.8127 295.179 66.2788C295.201 66.2321 295.24 66.1959 295.289 66.1783C295.338 66.1606 295.392 66.1629 295.439 66.1846C295.486 66.2064 295.522 66.2458 295.54 66.2942C295.558 66.3426 295.555 66.396 295.533 66.4428C294.594 68.4453 293.082 71.7376 293.024 72.0431C293.074 72.1859 293.817 72.4571 294.582 72.6014C294.632 72.6102 294.676 72.6382 294.706 72.6792C294.736 72.7203 294.748 72.7712 294.741 72.8212C294.733 72.8712 294.706 72.9163 294.666 72.947C294.625 72.9776 294.574 72.9913 294.524 72.9853L294.523 72.9856Z" fill="#0C0C0C"/>
<path d="M295.65 76.4535C294.409 76.2932 293.223 75.8454 292.188 75.1461C292.144 75.1179 292.114 75.0738 292.103 75.0234C292.092 74.973 292.102 74.9204 292.131 74.8773C292.159 74.8341 292.203 74.8039 292.254 74.7932C292.305 74.7826 292.358 74.7924 292.401 74.8206C294.641 76.2712 296.867 76.5058 298.837 75.4994C298.877 75.4777 298.918 75.4583 298.96 75.4414C299.009 75.4239 299.062 75.4263 299.109 75.4482C299.156 75.47 299.192 75.5095 299.21 75.5579C299.228 75.6064 299.225 75.6598 299.203 75.7064C299.181 75.753 299.141 75.7891 299.093 75.8066C299.077 75.813 299.051 75.8266 299.016 75.8449C297.98 76.3761 296.808 76.588 295.65 76.4535Z" fill="#0C0C0C"/>
<path d="M319.792 69.3837L312.971 68.1407C307.806 66.0629 306.244 57.1743 306.244 57.1743C306.244 57.1743 299.97 63.2532 284.766 59.796C284.766 59.796 287.815 38.7185 310.279 44.8469C317.522 46.8233 322.721 54.0789 322.073 63.7752C321.617 70.5706 319.792 69.3837 319.792 69.3837Z" fill="#0A0A0A"/>
<path d="M311.387 76.4641C313.699 76.8988 316.041 74.7928 316.479 72.4929C316.917 70.1931 315.284 68.5744 312.971 68.1396L311.487 69.4555L309.399 76.0887L311.387 76.4641Z" fill="#E98862"/>
<path d="M293.785 62.436C293.11 62.003 292.331 61.7585 291.529 61.728C291.134 61.7105 290.739 61.7521 290.356 61.8512C289.977 61.9479 289.612 62.0917 289.269 62.2792C289.225 62.3054 289.193 62.3469 289.178 62.3956C289.164 62.4443 289.168 62.4966 289.19 62.5424C289.212 62.5882 289.251 62.624 289.299 62.6429C289.346 62.6617 289.399 62.6623 289.447 62.6444L289.461 62.638C289.778 62.4839 290.113 62.3698 290.459 62.2986C290.8 62.2259 291.151 62.2051 291.498 62.2368C292.188 62.2939 292.851 62.5318 293.418 62.9261L293.436 62.9394C293.469 62.9662 293.506 62.9861 293.547 62.9979C293.587 63.0097 293.63 63.0131 293.671 63.0079C293.713 63.0027 293.753 62.9891 293.79 62.9678C293.826 62.9465 293.857 62.918 293.882 62.8841C293.907 62.8502 293.924 62.8116 293.933 62.7707C293.942 62.7299 293.943 62.6876 293.935 62.6465C293.927 62.6054 293.91 62.5664 293.887 62.5319C293.863 62.4973 293.832 62.4681 293.796 62.4459L293.785 62.436Z" fill="#0C0C0C"/>
<path d="M299.868 63.8597C300.54 63.6962 301.244 63.7123 301.908 63.9062C302.244 64.0017 302.563 64.1471 302.855 64.3376C303.152 64.5284 303.422 64.7556 303.661 65.0137L303.672 65.0245C303.71 65.0584 303.76 65.0769 303.811 65.0763C303.862 65.0758 303.911 65.0563 303.949 65.0216C303.986 64.987 304.009 64.9397 304.013 64.889C304.017 64.8384 304.002 64.7881 303.971 64.7479C303.719 64.4502 303.431 64.1851 303.113 63.9588C302.792 63.7289 302.439 63.5481 302.064 63.4225C301.305 63.1629 300.489 63.1112 299.703 63.2728C299.628 63.2941 299.564 63.3429 299.524 63.4093C299.484 63.4758 299.471 63.5549 299.487 63.6307C299.503 63.7065 299.548 63.7732 299.612 63.8174C299.676 63.8617 299.755 63.88 299.832 63.8688L299.844 63.8658L299.868 63.8597Z" fill="#0C0C0C"/>
<path d="M295.386 78.277C295.161 78.2515 294.939 78.2071 294.721 78.1443C294.672 78.13 294.63 78.0967 294.604 78.0516C294.579 78.0065 294.573 77.9533 294.588 77.9038C294.602 77.8543 294.636 77.8125 294.681 77.7876C294.726 77.7627 294.78 77.7567 294.83 77.771C296.137 78.1443 296.881 77.6494 296.913 77.6281C296.955 77.5984 297.008 77.5868 297.059 77.5957C297.11 77.6046 297.155 77.6332 297.185 77.6754C297.215 77.7176 297.226 77.7698 297.217 77.8206C297.209 77.8713 297.18 77.9165 297.137 77.9461C296.609 78.2542 295.991 78.3711 295.386 78.277Z" fill="#0C0C0C"/>
<path d="M312.957 68.0546L313.025 67.8669C304.383 64.7833 306.497 56.3537 306.519 56.2688L306.325 56.2183C306.302 56.3048 304.14 64.9082 312.957 68.0546Z" fill="#0C0C0C"/>
<path opacity="0.1" d="M302.604 72.4521C302.682 71.7247 301.938 71.0485 300.94 70.9418C299.942 70.8351 299.069 71.3383 298.991 72.0657C298.912 72.7931 299.657 73.4693 300.655 73.576C301.652 73.6827 302.525 73.1795 302.604 72.4521Z" fill="#0C0C0C"/>
<path opacity="0.1" d="M290.095 70.7938C290.014 71.5202 289.142 72.0228 288.144 71.9173C287.971 71.899 287.801 71.8628 287.636 71.8094C287.58 70.9449 287.568 70.1123 287.584 69.3425C287.86 69.2706 288.147 69.2505 288.43 69.2835C289.427 69.3887 290.172 70.0648 290.095 70.7938Z" fill="#0C0C0C"/>
<path d="M270.798 119.493C271.253 124.809 273.468 157.847 273.906 164.395L331.813 164.518C332.155 158.612 336.091 132.792 337.383 121.245C338.616 110.226 341.036 104.709 339.261 101.452C336.362 96.1276 328.443 93.0512 323.041 92.3241C319.744 91.8805 314.784 91.5625 314.784 91.5625C314.784 91.5625 314.364 100.007 304.35 100.477C290.718 101.116 291.629 91.5625 291.561 91.5625C289.353 91.5625 276.737 92.9517 273.651 94.7703C265.242 99.7192 269.832 108.229 270.798 119.493Z" fill="#571BB1"/>
<path d="M233.21 123.207L238.792 150.174C238.906 150.722 239.204 151.214 239.639 151.569C240.073 151.924 240.617 152.121 241.18 152.125L279.615 152.451C279.982 152.454 280.345 152.375 280.677 152.221C281.009 152.067 281.302 151.841 281.535 151.559C281.768 151.278 281.935 150.948 282.023 150.594C282.111 150.24 282.118 149.871 282.044 149.514L276.463 122.547C276.349 121.999 276.05 121.507 275.616 121.152C275.181 120.797 274.638 120.601 274.075 120.596L235.64 120.271C235.273 120.267 234.91 120.346 234.578 120.5C234.246 120.654 233.952 120.881 233.72 121.162C233.487 121.444 233.32 121.773 233.232 122.127C233.144 122.481 233.136 122.85 233.21 123.207Z" fill="#292A2E"/>
<path d="M269.051 142.362C269.031 142.717 269.14 143.067 269.359 143.349C269.578 143.63 269.891 143.823 270.242 143.893L271.426 144.152C271.404 144.159 271.385 144.171 271.37 144.187C271.354 144.203 271.343 144.222 271.337 144.244C271.334 144.269 271.34 144.294 271.353 144.315C271.069 144.395 270.816 144.56 270.631 144.789C270.445 145.017 270.336 145.298 270.318 145.591C270.317 145.933 270.431 146.265 270.643 146.534C270.855 146.803 271.152 146.994 271.486 147.074L281.477 149.28C281.988 149.394 282.51 149.451 283.033 149.45C284.199 149.45 285.348 149.168 286.38 148.628C287.412 148.089 288.297 147.307 288.957 146.352C289.658 145.342 289.934 144.099 289.728 142.889C289.521 141.68 288.847 140.598 287.85 139.874L279.351 133.696C279.164 133.56 278.947 133.471 278.718 133.437L279.499 137.213L279.291 137.165L279.247 137.157L272.729 135.839C272.003 135.68 271.008 135.941 270.88 136.764C270.811 137.079 270.851 137.407 270.994 137.696C271.136 137.985 271.373 138.217 271.665 138.355C271.661 138.359 271.653 138.363 271.653 138.371C271.653 138.379 271.657 138.383 271.657 138.391L270.53 138.144C270.324 138.098 270.111 138.099 269.905 138.146C269.699 138.192 269.506 138.284 269.34 138.413C269.174 138.543 269.039 138.707 268.945 138.895C268.85 139.082 268.799 139.288 268.794 139.498C268.794 139.833 268.911 140.158 269.124 140.417C269.338 140.677 269.635 140.855 269.965 140.921L270.451 141.029C270.455 141.045 270.451 141.061 270.459 141.073C270.105 141.076 269.765 141.209 269.505 141.447C269.244 141.686 269.083 142.012 269.051 142.362Z" fill="#E98862"/>
<g opacity="0.25">
<path d="M278.147 139.7C278.139 139.733 278.118 139.762 278.09 139.781C278.061 139.799 278.026 139.806 277.992 139.799L271.755 138.528C271.738 138.525 271.722 138.518 271.707 138.509C271.692 138.499 271.679 138.487 271.669 138.472C271.659 138.458 271.653 138.441 271.649 138.424C271.646 138.407 271.646 138.389 271.649 138.372C271.653 138.355 271.66 138.339 271.67 138.324C271.68 138.31 271.692 138.298 271.707 138.288C271.722 138.279 271.739 138.272 271.756 138.269C271.773 138.267 271.791 138.267 271.808 138.271L278.045 139.542C278.062 139.546 278.078 139.553 278.092 139.562C278.107 139.572 278.119 139.584 278.128 139.599C278.138 139.613 278.144 139.629 278.148 139.646C278.151 139.663 278.151 139.68 278.147 139.697L278.147 139.7Z" fill="#0C0C0C"/>
</g>
<g opacity="0.25">
<path d="M277.659 142.449C277.651 142.483 277.63 142.511 277.601 142.53C277.572 142.548 277.537 142.555 277.504 142.548L270.544 141.129C270.527 141.126 270.511 141.119 270.496 141.11C270.482 141.1 270.47 141.088 270.46 141.073C270.451 141.059 270.444 141.043 270.441 141.026C270.438 141.009 270.438 140.992 270.441 140.975C270.449 140.941 270.47 140.912 270.499 140.893C270.528 140.875 270.563 140.867 270.597 140.873L277.557 142.292C277.591 142.299 277.621 142.319 277.64 142.348C277.659 142.377 277.666 142.413 277.659 142.447L277.659 142.449Z" fill="#0C0C0C"/>
</g>
<g opacity="0.25">
<path d="M277.147 145.43C277.139 145.463 277.119 145.492 277.09 145.51C277.061 145.529 277.026 145.536 276.992 145.529L271.44 144.397C271.406 144.39 271.377 144.369 271.358 144.34C271.339 144.312 271.333 144.276 271.34 144.243C271.347 144.209 271.367 144.179 271.396 144.16C271.424 144.141 271.46 144.134 271.494 144.141L277.045 145.272C277.079 145.279 277.109 145.299 277.128 145.328C277.148 145.357 277.155 145.393 277.148 145.427L277.147 145.43Z" fill="#0C0C0C"/>
</g>
<path d="M282.096 153.209L336.302 162.946C337.994 163.129 339.705 162.92 341.302 162.335C342.898 161.75 344.337 160.806 345.504 159.575C346.672 158.345 347.537 156.863 348.031 155.244C348.526 153.626 348.636 151.916 348.354 150.248L340.765 105.412C340.529 103.991 340.013 102.63 339.247 101.408C338.481 100.185 337.48 99.1253 336.3 98.2882C335.121 97.4512 333.788 96.8536 332.376 96.5298C330.964 96.206 329.502 96.1623 328.073 96.4012C326.644 96.6401 325.277 97.1569 324.049 97.9221C322.822 98.6872 321.758 99.6856 320.92 100.86C320.081 102.034 319.484 103.362 319.162 104.766C318.841 106.17 318.801 107.624 319.046 109.043L324.222 139.909L284.479 134.948L282.096 153.209Z" fill="#571BB1"/>
<path d="M336.303 163.145C336.353 163.144 336.4 163.125 336.437 163.092C336.473 163.058 336.496 163.012 336.5 162.963C336.504 162.913 336.49 162.864 336.46 162.825C336.43 162.785 336.386 162.758 336.337 162.749L282.317 153.046L284.65 135.17L324.192 140.107C324.223 140.111 324.255 140.108 324.285 140.098C324.314 140.087 324.341 140.07 324.363 140.047C324.384 140.025 324.4 139.998 324.409 139.969C324.419 139.939 324.421 139.908 324.416 139.877L321.129 120.152C321.125 120.126 321.115 120.101 321.102 120.079C321.088 120.056 321.07 120.037 321.048 120.022C321.027 120.006 321.002 119.996 320.977 119.99C320.951 119.984 320.924 119.983 320.898 119.988C320.846 119.997 320.799 120.026 320.768 120.069C320.737 120.112 320.725 120.165 320.733 120.217L323.977 139.679L284.504 134.752C284.451 134.746 284.398 134.76 284.356 134.793C284.314 134.825 284.287 134.872 284.28 134.924L281.897 153.184C281.89 153.235 281.903 153.286 281.934 153.328C281.964 153.369 282.009 153.397 282.06 153.406L336.267 163.142C336.279 163.144 336.291 163.145 336.303 163.145Z" fill="#0C0C0C"/>
<path d="M324.254 139.714L324.19 140.108L327.677 140.663L327.74 140.269L324.254 139.714Z" fill="#0C0C0C"/>
<path d="M372.581 307.053H0.239026C0.175633 307.053 0.114835 307.028 0.0700092 306.983C0.0251831 306.939 0 306.878 0 306.815C0 306.752 0.0251831 306.692 0.0700092 306.647C0.114835 306.603 0.175633 306.578 0.239026 306.578H372.58C372.644 306.578 372.705 306.603 372.749 306.647C372.794 306.692 372.819 306.752 372.819 306.815C372.819 306.878 372.794 306.939 372.749 306.983C372.705 307.028 372.644 307.053 372.58 307.053H372.581Z" fill="#292A2E"/>
<g opacity="0.65">
<path d="M372.581 307.053H0.239026C0.175633 307.053 0.114835 307.028 0.0700092 306.983C0.0251831 306.939 0 306.878 0 306.815C0 306.752 0.0251831 306.692 0.0700092 306.647C0.114835 306.603 0.175633 306.578 0.239026 306.578H372.58C372.644 306.578 372.705 306.603 372.749 306.647C372.794 306.692 372.819 306.752 372.819 306.815C372.819 306.878 372.794 306.939 372.749 306.983C372.705 307.028 372.644 307.053 372.58 307.053H372.581Z" fill="#292A2E"/>
</g>
<path d="M23.1361 307.254L22.4655 307.126L32.9471 203.595L33.6177 203.723L23.1361 307.254Z" fill="#494949"/>
<path d="M62.1649 307.254L61.4943 307.126L71.9756 203.595L72.6462 203.723L62.1649 307.254Z" fill="#494949"/>
<path d="M148.436 307.254L149.106 307.126L138.625 203.595L137.954 203.723L148.436 307.254Z" fill="#494949"/>
<path d="M109.407 307.254L110.077 307.126L99.5961 203.595L98.9254 203.723L109.407 307.254Z" fill="#494949"/>
<path d="M95.5065 158.03L94.8296 158.12L100.953 203.705L101.63 203.615L95.5065 158.03Z" fill="#494949"/>
<path d="M25.2243 158.03L24.5474 158.12L30.6705 203.704L31.3474 203.614L25.2243 158.03Z" fill="#494949"/>
<path d="M101.571 200.321H32.8272C30.9724 200.321 29.4689 201.815 29.4689 203.659V203.659C29.4689 205.503 30.9724 206.997 32.8272 206.997H101.571C103.426 206.997 104.929 205.503 104.929 203.659V203.659C104.929 201.815 103.426 200.321 101.571 200.321Z" fill="#292A2E"/>
<path opacity="0.8" d="M101.571 200.321H32.8272C30.9724 200.321 29.4689 201.815 29.4689 203.659V203.659C29.4689 205.503 30.9724 206.997 32.8272 206.997H101.571C103.426 206.997 104.929 205.503 104.929 203.659V203.659C104.929 201.815 103.426 200.321 101.571 200.321Z" fill="#E9DAFF"/>
<path d="M101.571 207.337H32.8272C32.3414 207.337 31.8603 207.241 31.4114 207.057C30.9625 206.872 30.5546 206.601 30.2111 206.259C29.8675 205.918 29.595 205.512 29.4091 205.066C29.2231 204.62 29.1274 204.142 29.1274 203.659C29.1274 203.176 29.2231 202.698 29.4091 202.252C29.595 201.805 29.8675 201.4 30.2111 201.059C30.5546 200.717 30.9625 200.446 31.4114 200.261C31.8603 200.077 32.3414 199.981 32.8272 199.981H101.571C102.552 199.981 103.493 200.369 104.187 201.059C104.881 201.748 105.271 202.684 105.271 203.659C105.271 204.634 104.881 205.57 104.187 206.259C103.493 206.949 102.552 207.337 101.571 207.337ZM32.8272 200.661C32.431 200.661 32.0387 200.738 31.6727 200.889C31.3067 201.04 30.9741 201.26 30.694 201.539C30.4138 201.817 30.1916 202.148 30.04 202.512C29.8884 202.876 29.8104 203.266 29.8104 203.659C29.8104 204.053 29.8884 204.443 30.04 204.807C30.1916 205.171 30.4138 205.501 30.694 205.78C30.9741 206.058 31.3067 206.279 31.6727 206.43C32.0387 206.58 32.431 206.658 32.8272 206.658H101.571C102.371 206.658 103.139 206.342 103.704 205.78C104.27 205.217 104.588 204.455 104.588 203.659C104.588 202.864 104.27 202.101 103.704 201.539C103.139 200.977 102.371 200.661 101.571 200.661H32.8272Z" fill="#292A2E"/>
<path d="M139.301 200.321H70.5575C68.7028 200.321 67.1992 201.815 67.1992 203.659V203.659C67.1992 205.503 68.7028 206.997 70.5575 206.997H139.301C141.156 206.997 142.66 205.503 142.66 203.659V203.659C142.66 201.815 141.156 200.321 139.301 200.321Z" fill="#E9DAFF"/>
<path d="M139.302 207.337H70.5576C70.0717 207.337 69.5906 207.241 69.1417 207.057C68.6928 206.872 68.285 206.601 67.9414 206.259C67.5979 205.918 67.3253 205.512 67.1394 205.066C66.9535 204.62 66.8578 204.142 66.8578 203.659C66.8578 203.176 66.9535 202.698 67.1394 202.252C67.3253 201.805 67.5979 201.4 67.9414 201.059C68.285 200.717 68.6928 200.446 69.1417 200.261C69.5906 200.077 70.0717 199.981 70.5576 199.981H139.302C139.787 199.981 140.268 200.077 140.717 200.261C141.166 200.446 141.574 200.717 141.918 201.059C142.261 201.4 142.534 201.805 142.72 202.252C142.906 202.698 143.001 203.176 143.001 203.659C143.001 204.142 142.906 204.62 142.72 205.066C142.534 205.512 142.261 205.918 141.918 206.259C141.574 206.601 141.166 206.872 140.717 207.057C140.268 207.241 139.787 207.337 139.302 207.337ZM70.5576 200.661C70.1614 200.661 69.7691 200.738 69.4031 200.889C69.037 201.04 68.7045 201.26 68.4243 201.539C68.1442 201.817 67.922 202.148 67.7704 202.512C67.6188 202.876 67.5407 203.266 67.5407 203.659C67.5407 204.053 67.6188 204.443 67.7704 204.807C67.922 205.171 68.1442 205.501 68.4243 205.78C68.7045 206.058 69.037 206.279 69.4031 206.43C69.7691 206.58 70.1614 206.658 70.5576 206.658H139.302C139.698 206.658 140.09 206.58 140.456 206.43C140.822 206.279 141.155 206.058 141.435 205.78C141.715 205.501 141.937 205.171 142.089 204.807C142.24 204.443 142.318 204.053 142.318 203.659C142.318 203.266 142.24 202.876 142.089 202.512C141.937 202.148 141.715 201.817 141.435 201.539C141.155 201.26 140.822 201.04 140.456 200.889C140.09 200.738 139.698 200.661 139.302 200.661H70.5576Z" fill="#292A2E"/>
<path d="M91.7408 158.074H25.0706C23.9805 158.074 22.9278 157.68 22.1087 156.965C21.2897 156.25 20.7604 155.263 20.6196 154.189L16.2096 120.525C16.1271 119.896 16.1807 119.257 16.3667 118.65C16.5527 118.043 16.8668 117.482 17.288 117.005C17.7093 116.528 18.228 116.146 18.8096 115.885C19.3911 115.623 20.0222 115.488 20.6606 115.488H87.3308C88.4208 115.488 89.4736 115.882 90.2926 116.597C91.1117 117.312 91.641 118.299 91.7818 119.373L96.1915 153.036C96.2741 153.665 96.2207 154.305 96.0349 154.912C95.849 155.519 95.535 156.08 95.1137 156.557C94.6925 157.034 94.1737 157.416 93.5921 157.677C93.0104 157.939 92.3793 158.074 91.7408 158.074Z" fill="#292A2E"/>
<path opacity="0.8" d="M91.7408 158.074H25.0706C23.9805 158.074 22.9278 157.68 22.1087 156.965C21.2897 156.25 20.7604 155.263 20.6196 154.189L16.2096 120.525C16.1271 119.896 16.1807 119.257 16.3667 118.65C16.5527 118.043 16.8668 117.482 17.288 117.005C17.7093 116.528 18.228 116.146 18.8096 115.885C19.3911 115.623 20.0222 115.488 20.6606 115.488H87.3308C88.4208 115.488 89.4736 115.882 90.2926 116.597C91.1117 117.312 91.641 118.299 91.7818 119.373L96.1915 153.036C96.2741 153.665 96.2207 154.305 96.0349 154.912C95.849 155.519 95.535 156.08 95.1137 156.557C94.6925 157.034 94.1737 157.416 93.5921 157.677C93.0104 157.939 92.3793 158.074 91.7408 158.074Z" fill="#E9DAFF"/>
<path d="M91.7407 158.414H25.0705C23.8982 158.411 22.7667 157.986 21.8859 157.217C21.0051 156.448 20.4348 155.388 20.2808 154.233L15.8711 120.57C15.7823 119.893 15.8398 119.205 16.0399 118.551C16.24 117.898 16.5779 117.295 17.0312 116.782C17.4845 116.269 18.0427 115.858 18.6686 115.576C19.2944 115.295 19.9735 115.149 20.6605 115.149H87.3307C88.503 115.152 89.6345 115.577 90.5153 116.346C91.396 117.115 91.9663 118.175 92.1201 119.33L96.5301 152.993C96.6189 153.67 96.5613 154.358 96.3612 155.011C96.1611 155.665 95.8231 156.268 95.3698 156.781C94.9165 157.294 94.3584 157.705 93.7325 157.987C93.1067 158.268 92.4277 158.414 91.7407 158.414ZM20.6605 115.828C20.0707 115.828 19.4876 115.953 18.9503 116.195C18.413 116.436 17.9338 116.789 17.5446 117.23C17.1554 117.67 16.8652 118.188 16.6934 118.749C16.5215 119.31 16.4721 119.901 16.5482 120.482L20.9582 154.145C21.0903 155.137 21.58 156.047 22.3362 156.707C23.0925 157.368 24.064 157.733 25.0705 157.735H91.7407C92.3306 157.735 92.9136 157.61 93.4509 157.368C93.9882 157.126 94.4675 156.773 94.8567 156.333C95.2459 155.892 95.5361 155.374 95.7079 154.814C95.8797 154.253 95.9292 153.662 95.853 153.081L91.4447 119.418C91.3125 118.426 90.8229 117.515 90.0666 116.855C89.3104 116.195 88.3389 115.83 87.3324 115.828H20.6605Z" fill="#292A2E"/>
<path d="M95.5106 158.074H28.8404C27.7504 158.074 26.6976 157.68 25.8787 156.965C25.0597 156.25 24.5305 155.263 24.3897 154.189L19.9797 120.525C19.8973 119.896 19.9509 119.257 20.1368 118.65C20.3228 118.043 20.6369 117.482 21.0582 117.005C21.4794 116.528 21.9981 116.146 22.5797 115.885C23.1613 115.623 23.7923 115.488 24.4307 115.488H91.1009C92.1909 115.488 93.2437 115.882 94.0626 116.597C94.8816 117.312 95.4109 118.299 95.5516 119.373L99.9616 153.036C100.044 153.665 99.9908 154.305 99.8049 154.912C99.619 155.519 99.3049 156.08 98.8836 156.557C98.4623 157.034 97.9435 157.416 97.3619 157.677C96.7802 157.939 96.1491 158.074 95.5106 158.074Z" fill="#E9DAFF"/>
<path d="M95.5105 158.414H28.8403C27.6681 158.411 26.5366 157.986 25.6558 157.217C24.7751 156.448 24.2048 155.388 24.0509 154.233L19.6409 120.57C19.5522 119.893 19.6098 119.205 19.81 118.552C20.0101 117.898 20.3481 117.295 20.8014 116.782C21.2547 116.269 21.8129 115.858 22.4388 115.576C23.0646 115.295 23.7436 115.149 24.4306 115.149H91.1005C92.2728 115.152 93.4043 115.577 94.2851 116.346C95.1659 117.115 95.7363 118.175 95.8902 119.33L100.3 152.993C100.389 153.67 100.331 154.358 100.131 155.011C99.9309 155.665 99.5929 156.268 99.1396 156.781C98.6863 157.294 98.1281 157.705 97.5023 157.986C96.8765 158.268 96.1975 158.414 95.5105 158.414ZM24.4306 115.828C23.8407 115.828 23.2576 115.953 22.7201 116.194C22.1827 116.436 21.7033 116.789 21.314 117.23C20.9247 117.67 20.6344 118.188 20.4625 118.749C20.2907 119.31 20.2412 119.901 20.3173 120.482L24.727 154.145C24.8593 155.137 25.3491 156.047 26.1055 156.708C26.862 157.368 27.8337 157.733 28.8403 157.735H95.5105C96.1003 157.735 96.6834 157.61 97.2207 157.368C97.758 157.126 98.2373 156.773 98.6265 156.333C99.0157 155.892 99.3059 155.374 99.4777 154.814C99.6495 154.253 99.699 153.662 99.6228 153.081L95.2128 119.418C95.0807 118.426 94.5911 117.515 93.8348 116.855C93.0786 116.195 92.107 115.83 91.1005 115.828H24.4306Z" fill="#292A2E"/>
<path d="M88.1618 63.5513C88.1618 63.5513 92.5924 60.2275 93.6902 52.5765C94.5401 46.6524 89.0425 50.4904 89.0425 50.4904C89.0425 50.4904 89.6127 46.2189 86.4815 46.6429C83.3502 47.0668 81.5985 51.5538 81.5985 51.5538" fill="#0C0C0C"/>
<path d="M70.2993 47.1445C70.2993 47.1445 54.7647 48.8002 60.3804 69.7242L61.7548 69.8155L64.5453 70.0015" fill="#0C0C0C"/>
<path d="M85.5598 91.5738C85.4915 91.565 84.7338 104.064 70.1238 102.976C60.0096 102.222 56.403 91.5561 56.1715 91.5561C57.2618 91.3257 58.6096 90.9761 59.145 90.8559C60.3123 90.5867 61.3695 89.9705 62.1759 89.0894C62.9822 88.2084 63.4996 87.1041 63.6592 85.9236C63.9549 84.1519 63.4543 75.0869 63.6076 73.2944L79.133 76.7415C78.9159 80.5276 77.3977 89.3052 82.7184 90.8586C83.6049 91.1139 84.5586 91.3505 85.5598 91.5738Z" fill="#E98862"/>
<path opacity="0.52" d="M79.3506 87.2696C79.1074 86.4907 78.9508 85.6876 78.8838 84.8747C78.7134 83.0197 78.7477 81.1516 78.9862 79.304C75.8307 78.8806 72.8579 77.5861 70.4055 75.5674C70.117 76.6257 68.5315 81.2495 68.9714 82.2555C69.7994 84.1565 73.6986 87.2696 79.3506 87.2696Z" fill="#0C0C0C"/>
<path d="M76.147 84.7954C70.0221 84.2496 62.6912 80.4027 62.5853 72.1387L62.4884 64.6818C62.3825 56.4175 66.6638 49.6629 74.4919 49.5641C82.32 49.465 88.2571 56.0906 88.363 64.3546L88.405 67.6561C88.3997 68.7897 88.3166 69.9217 88.1564 71.0441C87.7548 74.0139 87.132 78.5291 85.1043 81.5838C83.1908 84.4675 80.0595 85.1443 76.147 84.7954Z" fill="#E98862"/>
<path d="M78.988 77.2411C80.2521 77.298 81.5119 77.0589 82.6659 76.5429C82.6898 76.5328 82.7114 76.5181 82.7295 76.4997C82.7477 76.4813 82.762 76.4595 82.7717 76.4356C82.7813 76.4116 82.7862 76.3861 82.7859 76.3603C82.7856 76.3345 82.7802 76.309 82.7701 76.2853C82.7599 76.2616 82.7451 76.2401 82.7266 76.2221C82.708 76.204 82.6861 76.1898 82.662 76.1802C82.638 76.1706 82.6122 76.1658 82.5863 76.1661C82.5604 76.1663 82.5347 76.1717 82.5109 76.1818C80.0247 77.234 77.7672 77.0812 75.9827 75.7358C75.9468 75.7074 75.9094 75.6809 75.8707 75.6564C75.8259 75.6354 75.7747 75.632 75.7273 75.6467C75.68 75.6615 75.64 75.6934 75.6153 75.7361C75.5905 75.7788 75.5828 75.8293 75.5937 75.8774C75.6046 75.9255 75.6333 75.9677 75.6741 75.9958C75.6884 76.005 75.7116 76.023 75.7423 76.0474C76.6804 76.7578 77.8106 77.1735 78.988 77.2411Z" fill="#0C0C0C"/>
<path d="M78.9293 79.1031C79.1576 79.117 79.3868 79.1115 79.6143 79.0868C79.6653 79.08 79.7116 79.0536 79.7434 79.0134C79.7751 78.9731 79.7899 78.9221 79.7844 78.8712C79.7789 78.8203 79.7537 78.7736 79.7141 78.7409C79.6745 78.7082 79.6236 78.6922 79.5723 78.6962C78.2043 78.8408 77.5511 78.2176 77.5235 78.1911C77.4861 78.1559 77.4364 78.1366 77.385 78.1372C77.3335 78.1379 77.2843 78.1584 77.2479 78.1945C77.2114 78.2306 77.1905 78.2794 77.1897 78.3306C77.1889 78.3817 77.2082 78.4312 77.2435 78.4684C77.7148 78.8671 78.3105 79.0914 78.9293 79.1031Z" fill="#0C0C0C"/>
<path d="M85.7786 69.2451C86.3112 69.2451 86.7429 68.816 86.7429 68.2866C86.7429 67.7573 86.3112 67.3281 85.7786 67.3281C85.2461 67.3281 84.8143 67.7573 84.8143 68.2866C84.8143 68.816 85.2461 69.2451 85.7786 69.2451Z" fill="#0C0C0C"/>
<path d="M76.358 68.6577C76.8905 68.6577 77.3223 68.2286 77.3223 67.6992C77.3223 67.1699 76.8905 66.7407 76.358 66.7407C75.8254 66.7407 75.3937 67.1699 75.3937 67.6992C75.3937 68.2286 75.8254 68.6577 76.358 68.6577Z" fill="#0C0C0C"/>
<path d="M63.103 74.6499C60.7243 74.6801 58.7633 72.1746 58.7322 69.8103C58.7011 67.4459 60.614 66.1171 62.993 66.0869L64.239 67.656L65.1476 74.6241L63.103 74.6499Z" fill="#E98862"/>
<path d="M65.4699 70.8502C65.4699 70.8502 66.2731 59.1565 69.8407 58.4345C72.2166 57.9536 77.9782 61.3033 83.315 60.2918C85.6496 59.8506 87.866 60.4235 88.0914 61.5198C88.1809 61.9539 89.6352 55.7159 85.9791 50.9828C83.0681 47.2153 73.5422 46.1495 69.2083 47.385C57.2078 50.8066 62.5033 66.6015 62.5033 66.6015L63.0384 70.633L65.4699 70.8502Z" fill="#0C0C0C"/>
<path d="M80.4262 74.4818H80.4412C81.2078 74.474 82.4931 74.3763 82.488 73.8061C82.4829 73.3339 81.1303 68.2482 80.976 67.6698C80.9627 67.6201 80.9301 67.5776 80.8853 67.5517C80.8405 67.5258 80.7872 67.5187 80.7371 67.5319C80.687 67.5451 80.6443 67.5775 80.6182 67.622C80.5922 67.6665 80.585 67.7195 80.5983 67.7693C81.1993 70.0216 82.0939 73.489 82.0973 73.8108C82.0232 73.9466 81.2314 74.0861 80.4378 74.0942C80.387 74.0942 80.3382 74.1139 80.3017 74.149C80.2653 74.1842 80.244 74.2321 80.2425 74.2826C80.241 74.3331 80.2593 74.3822 80.2936 74.4194C80.3279 74.4567 80.3755 74.4792 80.4262 74.4822V74.4818Z" fill="#0C0C0C"/>
<path d="M83.0417 63.0894C83.8474 62.8693 84.698 62.8693 85.5037 63.0894C85.8994 63.1954 86.2769 63.3597 86.6237 63.5768C86.9663 63.7897 87.2806 64.0447 87.559 64.3358C87.6103 64.3876 87.6396 64.4572 87.6406 64.5299C87.6417 64.6027 87.6145 64.673 87.5647 64.7264C87.515 64.7797 87.4464 64.8119 87.3733 64.8163C87.3003 64.8207 87.2283 64.7969 87.1724 64.7498L87.1554 64.7349C86.8975 64.4978 86.6107 64.2938 86.3017 64.1277C85.9985 63.9627 85.6719 63.8443 85.333 63.7764C84.6658 63.6375 83.9736 63.6759 83.3262 63.8877L83.2992 63.8972C83.2463 63.9158 83.1902 63.9239 83.1342 63.9209C83.0782 63.918 83.0233 63.9041 82.9727 63.8801C82.9221 63.856 82.8767 63.8223 82.8392 63.7809C82.8017 63.7394 82.7727 63.691 82.754 63.6384C82.7353 63.5859 82.7272 63.5301 82.7302 63.4745C82.7332 63.4188 82.7471 63.3642 82.7713 63.3139C82.7955 63.2636 82.8294 63.2185 82.8711 63.1812C82.9128 63.1439 82.9615 63.1152 83.0144 63.0966C83.0236 63.0945 83.0332 63.0918 83.0417 63.0894Z" fill="#0C0C0C"/>
<path d="M77.3366 63.5719C76.7234 63.2758 76.0424 63.1459 75.3626 63.1955C75.0176 63.2178 74.6781 63.2919 74.3556 63.4154C74.0274 63.5393 73.7162 63.7036 73.4292 63.9045L73.4107 63.9164C73.3492 63.9578 73.2738 63.9736 73.2006 63.9603C73.1275 63.9471 73.0625 63.9059 73.0196 63.8456C72.9767 63.7853 72.9592 63.7107 72.971 63.6378C72.9828 63.5648 73.0228 63.4994 73.0826 63.4555C73.3975 63.2037 73.7432 62.9925 74.1114 62.8269C74.4842 62.6576 74.8804 62.5448 75.2868 62.4922C76.1147 62.3804 76.9577 62.4927 77.7269 62.8174C77.831 62.8624 77.9129 62.9467 77.9545 63.0517C77.9962 63.1567 77.9941 63.2739 77.9488 63.3774C77.9035 63.4809 77.8187 63.5623 77.7131 63.6037C77.6074 63.6451 77.4895 63.643 77.3854 63.598C77.3772 63.5946 77.3694 63.5909 77.3615 63.5868L77.3366 63.5719Z" fill="#0C0C0C"/>
<path d="M81.8951 55.0392C83.656 54.6735 84.6445 52.2886 84.103 49.7124C83.5615 47.1362 81.695 45.3442 79.9341 45.7099C78.1732 46.0756 77.1847 48.4605 77.7262 51.0367C78.2677 53.6129 80.1342 55.4049 81.8951 55.0392Z" fill="#0C0C0C"/>
<path d="M180.106 289.32C180.106 289.32 181.937 298.753 190.823 299.279C199.709 299.805 197.782 306.841 197.782 306.841H163.825V289.978L180.106 289.32Z" fill="#571BB1"/>
<path d="M115.505 283.364C115.505 283.364 112.957 292.632 120.698 297.003C128.439 301.373 123.584 306.841 123.584 306.841L93.1147 291.941L100.603 276.81L115.505 283.364Z" fill="#571BB1"/>
<path d="M96.6325 280.746L122.328 200.173H75.7515C66.3954 200.173 62.4955 192.287 62.4955 182.987C62.4955 173.688 71.6929 165.536 81.0484 165.536H143.909C149.615 165.536 156.013 169.005 159.145 173.747C162.277 178.488 161.431 185.836 159.162 191.04L118.015 290.374" fill="#262626"/>
<path opacity="0.8" d="M96.6325 280.746L122.328 200.173H75.7515C66.3954 200.173 62.4955 192.287 62.4955 182.987C62.4955 173.688 71.6929 165.536 81.0484 165.536H143.909C149.615 165.536 156.013 169.005 159.145 173.747C162.277 178.488 161.431 185.836 159.162 191.04L118.015 290.374" fill="#0A0A0A"/>
<path d="M161.872 298.08L118.909 200.173L62.4959 200.169C49.2771 199.139 43.2236 191.938 43.4158 182.641C43.6057 173.462 48.2817 164.396 57.4753 164.396H133.509C140.311 164.534 145.662 172.006 148.186 178.286L183.903 292.086" fill="#262626"/>
<path d="M39.5674 164.508C39.5674 164.508 37.0621 180.747 41.0333 189.776C45.9911 201.048 64.5764 200.17 64.5764 200.17L63.5291 164.396L39.5674 164.508Z" fill="#262626"/>
<path d="M149.801 164.188L109.952 155.98C108.292 155.638 106.745 154.886 105.455 153.792C104.164 152.698 103.172 151.299 102.571 149.723L86.8974 108.67C86.4276 107.439 86.2063 106.128 86.246 104.813C86.2857 103.497 86.5857 102.202 87.129 101.002C87.6722 99.8016 88.4479 98.7193 89.4119 97.817C90.3759 96.9146 91.5093 96.2098 92.7473 95.7429C93.9853 95.2759 95.3037 95.0558 96.6273 95.0953C97.9509 95.1348 99.2536 95.433 100.461 95.973C101.669 96.5129 102.758 97.284 103.665 98.2422C104.573 99.2004 105.282 100.327 105.752 101.557L119.463 137.467L153.894 144.559C153.894 144.559 150.493 164.33 149.801 164.188Z" fill="#571BB1"/>
<path d="M103.712 119.095C103.252 124.468 99.9898 157.995 99.5459 164.614H39.5934C39.2488 158.644 38.1305 133.298 36.8244 121.623C35.5774 110.484 35.1253 104.126 36.5615 100.664C39.0945 94.5587 45.4331 92.3617 50.8928 91.6269C54.2269 91.1782 59.2413 90.8564 59.2413 90.8564C59.2413 90.8564 59.6658 99.3937 69.7896 99.8688C83.5711 100.514 82.6509 90.8564 82.7188 90.8564C84.9517 90.8564 97.1044 92.4703 100.143 94.4393C104.435 97.2197 105.704 101.009 105.754 104.491C105.811 108.499 104.235 113 103.712 119.095Z" fill="#571BB1"/>
<path d="M101.355 146.491C101.35 146.491 101.345 146.491 101.34 146.491C101.295 146.487 101.253 146.466 101.224 146.431C101.195 146.397 101.181 146.352 101.184 146.308L102.741 127.723C102.742 127.701 102.748 127.679 102.758 127.659C102.768 127.639 102.782 127.621 102.799 127.606C102.817 127.592 102.837 127.581 102.858 127.575C102.88 127.568 102.903 127.566 102.925 127.568C102.97 127.572 103.012 127.594 103.041 127.628C103.07 127.662 103.084 127.707 103.081 127.751L101.525 146.336C101.521 146.378 101.501 146.417 101.47 146.446C101.438 146.475 101.397 146.491 101.355 146.491Z" fill="#0C0C0C"/>
<path d="M129.909 157.643L143.064 117.449C143.296 116.743 143.746 116.127 144.35 115.691C144.955 115.254 145.683 115.019 146.43 115.019H200.024C200.583 115.019 201.133 115.151 201.631 115.403C202.129 115.655 202.559 116.021 202.888 116.47C203.216 116.919 203.433 117.439 203.52 117.988C203.607 118.536 203.563 119.097 203.39 119.626L190.235 159.82C190.004 160.526 189.554 161.141 188.949 161.578C188.344 162.014 187.616 162.25 186.869 162.25H133.274C132.716 162.249 132.165 162.118 131.667 161.866C131.17 161.613 130.739 161.248 130.411 160.798C130.083 160.349 129.866 159.829 129.779 159.281C129.692 158.732 129.737 158.171 129.909 157.643Z" fill="#292A2E"/>
<path d="M129.909 157.643L143.064 117.449C143.296 116.743 143.746 116.127 144.35 115.691C144.955 115.254 145.683 115.019 146.43 115.019H200.024C200.583 115.019 201.133 115.151 201.631 115.403C202.129 115.655 202.559 116.021 202.888 116.47C203.216 116.919 203.433 117.439 203.52 117.988C203.607 118.536 203.563 119.097 203.39 119.626L190.235 159.82C190.004 160.526 189.554 161.141 188.949 161.578C188.344 162.014 187.616 162.25 186.869 162.25H133.274C132.716 162.249 132.165 162.118 131.667 161.866C131.17 161.613 130.739 161.248 130.411 160.798C130.083 160.349 129.866 159.829 129.779 159.281C129.692 158.732 129.737 158.171 129.909 157.643Z" fill="#292A2E"/>
<path d="M140.641 158.99H104.765C103.871 158.99 103.146 159.711 103.146 160.599V160.64C103.146 161.529 103.871 162.249 104.765 162.249H140.641C141.535 162.249 142.259 161.529 142.259 160.64V160.599C142.259 159.711 141.535 158.99 140.641 158.99Z" fill="#292A2E"/>
<path d="M140.641 158.99H104.765C103.871 158.99 103.146 159.711 103.146 160.599V160.64C103.146 161.529 103.871 162.249 104.765 162.249H140.641C141.535 162.249 142.259 161.529 142.259 160.64V160.599C142.259 159.711 141.535 158.99 140.641 158.99Z" fill="#292A2E"/>
<path d="M166.649 146.182C169.754 146.182 172.27 143.681 172.27 140.595C172.27 137.509 169.754 135.008 166.649 135.008C163.545 135.008 161.029 137.509 161.029 140.595C161.029 143.681 163.545 146.182 166.649 146.182Z" fill="white"/>
<path d="M126.911 148.227L117.957 145.108L119.243 145.019C119.657 144.983 120.042 144.791 120.319 144.483C120.597 144.175 120.747 143.774 120.738 143.361C120.726 143.148 120.671 142.939 120.575 142.748C120.479 142.557 120.345 142.387 120.182 142.249C120.018 142.111 119.827 142.007 119.622 141.945C119.417 141.882 119.201 141.862 118.987 141.885L103.146 143.558L103.556 148.618C103.684 150.19 104.281 151.688 105.271 152.92C106.261 154.152 107.598 155.062 109.112 155.534L115.971 157.658C116.326 157.775 116.71 157.767 117.059 157.635C117.408 157.503 117.7 157.255 117.887 156.933C118.049 156.64 118.112 156.302 118.068 155.97C118.023 155.638 117.873 155.328 117.639 155.087C117.654 155.076 117.666 155.063 117.676 155.047C117.686 155.031 117.692 155.013 117.695 154.995C117.697 154.977 117.696 154.958 117.691 154.94C117.686 154.923 117.677 154.906 117.666 154.892L118.929 155.286C119.324 155.417 119.754 155.395 120.132 155.224C120.511 155.052 120.81 154.745 120.969 154.362C121.099 154.016 121.101 153.635 120.977 153.286C120.852 152.938 120.607 152.644 120.286 152.458C120.301 152.45 120.314 152.439 120.325 152.426L120.845 152.589C121.199 152.706 121.583 152.698 121.932 152.566C122.281 152.434 122.573 152.186 122.76 151.864C122.957 151.508 123.007 151.089 122.9 150.696C122.793 150.304 122.537 149.968 122.186 149.758C122.189 149.748 122.19 149.737 122.191 149.726L125.919 151.026C126.293 151.156 126.703 151.133 127.059 150.963C127.416 150.792 127.69 150.488 127.821 150.117C127.951 149.746 127.929 149.338 127.757 148.984C127.586 148.629 127.28 148.357 126.906 148.227H126.911Z" fill="#E98862"/>
<path opacity="0.2" d="M122.049 149.872C122.032 149.872 122.014 149.869 121.998 149.863L118.391 148.561C118.354 148.547 118.324 148.52 118.307 148.484C118.291 148.449 118.289 148.408 118.303 148.371C118.316 148.334 118.344 148.305 118.38 148.288C118.416 148.272 118.457 148.27 118.494 148.283L122.1 149.587C122.133 149.599 122.161 149.622 122.178 149.652C122.196 149.682 122.202 149.717 122.196 149.751C122.19 149.785 122.172 149.816 122.145 149.839C122.118 149.861 122.084 149.873 122.05 149.873L122.049 149.872Z" fill="#0A0A0A"/>
<path opacity="0.2" d="M120.225 152.478C120.209 152.478 120.192 152.475 120.176 152.47L117.333 151.467C117.314 151.461 117.298 151.45 117.283 151.438C117.269 151.425 117.257 151.409 117.248 151.391C117.24 151.374 117.235 151.355 117.234 151.335C117.233 151.316 117.236 151.297 117.243 151.278C117.249 151.26 117.259 151.243 117.272 151.229C117.285 151.215 117.301 151.203 117.319 151.195C117.336 151.186 117.355 151.181 117.375 151.18C117.394 151.179 117.414 151.182 117.432 151.189L120.275 152.191C120.308 152.203 120.336 152.226 120.354 152.256C120.372 152.286 120.378 152.321 120.372 152.356C120.366 152.39 120.348 152.421 120.321 152.443C120.294 152.466 120.26 152.478 120.225 152.478Z" fill="#0A0A0A"/>
<path opacity="0.2" d="M117.549 155.123C117.53 155.123 117.512 155.119 117.495 155.113L116.164 154.608C116.145 154.602 116.127 154.592 116.112 154.579C116.097 154.565 116.085 154.549 116.076 154.531C116.068 154.513 116.063 154.494 116.062 154.474C116.061 154.454 116.065 154.434 116.072 154.415C116.079 154.397 116.09 154.38 116.104 154.365C116.118 154.351 116.134 154.34 116.153 154.332C116.171 154.324 116.191 154.32 116.211 154.32C116.231 154.32 116.251 154.325 116.27 154.332L117.601 154.837C117.634 154.85 117.661 154.873 117.678 154.903C117.694 154.933 117.7 154.968 117.694 155.002C117.688 155.036 117.67 155.066 117.643 155.088C117.617 155.11 117.583 155.123 117.548 155.123H117.549Z" fill="#0A0A0A"/>
<path d="M110.157 140.564L72.5958 140.539L58.3864 106.084L37.1888 114.943L54.9181 155.835L55.0916 156.242C55.9589 158.23 57.4199 159.905 59.2767 161.039C61.1335 162.174 63.2963 162.714 65.4721 162.587L110.726 159.929L110.157 140.564Z" fill="#571BB1"/>
<path d="M64.8493 162.774C62.7435 162.77 60.6845 162.157 58.9238 161.009C57.163 159.861 55.7769 158.228 54.9348 156.309L54.761 155.902L39.6545 121.058L39.968 120.924L55.2486 156.175C56.1062 158.128 57.5446 159.773 59.3705 160.888C61.1965 162.004 63.3223 162.537 65.4622 162.417L110.55 159.769L109.992 140.734L72.4821 140.709L61.5552 114.217L61.871 114.088L72.7105 140.37L110.323 140.395L110.901 160.089L110.735 160.098L65.4817 162.756C65.2704 162.768 65.0596 162.774 64.8493 162.774Z" fill="#0C0C0C"/>
<path d="M290.587 165.502L289.907 165.57L304.303 307.224L304.982 307.155L290.587 165.502Z" fill="#494949"/>
<path d="M23.0702 165.504L8.66492 307.156L9.34439 307.225L23.7496 165.572L23.0702 165.504Z" fill="#494949"/>
<path d="M82.5871 165.504L68.1819 307.156L68.8614 307.224L83.2666 165.572L82.5871 165.504Z" fill="#494949"/>
<path d="M350.104 165.502L349.424 165.57L363.82 307.223L364.499 307.155L350.104 165.502Z" fill="#494949"/>
<path d="M363.085 162.755H11.0325C9.48719 162.755 8.2345 164 8.2345 165.536C8.2345 167.072 9.48719 168.317 11.0325 168.317H363.085C364.63 168.317 365.883 167.072 365.883 165.536C365.883 164 364.63 162.755 363.085 162.755Z" fill="#292A2E"/>
<path opacity="0.8" d="M363.085 162.755H11.0325C9.48719 162.755 8.2345 164 8.2345 165.536C8.2345 167.072 9.48719 168.317 11.0325 168.317H363.085C364.63 168.317 365.883 167.072 365.883 165.536C365.883 164 364.63 162.755 363.085 162.755Z" fill="#E9DAFF"/>
<path d="M363.085 168.657H11.0339C10.6189 168.661 10.2071 168.584 9.82245 168.429C9.43778 168.274 9.08782 168.045 8.79282 167.755C8.49782 167.464 8.26364 167.119 8.10381 166.738C7.94399 166.358 7.86169 165.949 7.86169 165.537C7.86169 165.124 7.94399 164.716 8.10381 164.335C8.26364 163.954 8.49782 163.609 8.79282 163.319C9.08782 163.028 9.43778 162.799 9.82245 162.644C10.2071 162.489 10.6189 162.412 11.0339 162.416H363.085C363.912 162.425 364.702 162.757 365.284 163.342C365.866 163.926 366.192 164.715 366.192 165.537C366.192 166.359 365.866 167.147 365.284 167.732C364.702 168.316 363.912 168.648 363.085 168.657ZM11.0339 163.095C10.7089 163.091 10.3863 163.152 10.085 163.273C9.78358 163.394 9.50935 163.573 9.27817 163.8C9.04699 164.027 8.86345 164.297 8.73818 164.596C8.61291 164.894 8.54841 165.213 8.54841 165.537C8.54841 165.86 8.61291 166.18 8.73818 166.478C8.86345 166.776 9.04699 167.046 9.27817 167.273C9.50935 167.5 9.78358 167.68 10.085 167.801C10.3863 167.922 10.7089 167.982 11.0339 167.978H363.085C363.732 167.971 364.349 167.71 364.804 167.253C365.258 166.796 365.513 166.179 365.513 165.537C365.513 164.894 365.258 164.277 364.804 163.82C364.349 163.363 363.732 163.103 363.085 163.095H11.0339Z" fill="#292A2E"/>
<path d="M363.085 162.755H72.8245C71.2792 162.755 70.0265 164 70.0265 165.536C70.0265 167.072 71.2792 168.317 72.8245 168.317H363.085C364.63 168.317 365.883 167.072 365.883 165.536C365.883 164 364.63 162.755 363.085 162.755Z" fill="#E9DAFF"/>
<path d="M363.085 168.657H72.8242C71.9973 168.648 71.2072 168.316 70.6255 167.731C70.0438 167.147 69.7175 166.358 69.7175 165.536C69.7175 164.714 70.0438 163.926 70.6255 163.341C71.2072 162.757 71.9973 162.425 72.8242 162.416H363.085C363.912 162.425 364.702 162.757 365.284 163.341C365.866 163.926 366.192 164.714 366.192 165.536C366.192 166.358 365.866 167.147 365.284 167.731C364.702 168.316 363.912 168.648 363.085 168.657ZM72.8242 163.095C72.1778 163.102 71.5604 163.363 71.106 163.82C70.6515 164.277 70.3967 164.894 70.3967 165.536C70.3967 166.179 70.6515 166.796 71.106 167.253C71.5604 167.71 72.1778 167.97 72.8242 167.978H363.085C363.732 167.97 364.349 167.71 364.804 167.253C365.258 166.796 365.513 166.179 365.513 165.536C365.513 164.894 365.258 164.277 364.804 163.82C364.349 163.363 363.732 163.102 363.085 163.095H72.8242Z" fill="#292A2E"/>
<path d="M220.51 156.737H201.198V161.811H220.51V156.737Z" fill="#783DD0"/>
<path d="M213.92 156.737H193.498V161.811H213.92V156.737Z" fill="#E9DAFF"/>
<path opacity="0.62" d="M212.252 156.737H211.261V161.811H212.252V156.737Z" fill="#783DD0"/>
<path opacity="0.62" d="M210.27 156.737H209.279V161.811H210.27V156.737Z" fill="#783DD0"/>
<path d="M195.839 160.91C196.618 160.91 197.249 160.178 197.249 159.274C197.249 158.37 196.618 157.638 195.839 157.638C195.06 157.638 194.429 158.37 194.429 159.274C194.429 160.178 195.06 160.91 195.839 160.91Z" fill="#F4EFFB"/>
<path d="M202.773 156.743H222.084V151.669H202.773V156.743Z" fill="#783DD0"/>
<path d="M195.073 156.743H215.495V151.669H195.073V156.743Z" fill="#F4EFFB"/>
<path d="M196.74 156.743H197.731V151.669H196.74V156.743Z" fill="#E9DAFF"/>
<path d="M198.723 156.743H199.714V151.669H198.723V156.743Z" fill="#E9DAFF"/>
<path d="M213.153 155.843C213.932 155.843 214.563 155.11 214.563 154.207C214.563 153.303 213.932 152.57 213.153 152.57C212.374 152.57 211.743 153.303 211.743 154.207C211.743 155.11 212.374 155.843 213.153 155.843Z" fill="#E9DAFF"/>
<path d="M210.256 152.963H201.241V155.45H210.256V152.963Z" fill="#E9DAFF"/>
<path d="M239.945 155.048C239.944 153.725 239.458 152.456 238.592 151.521C237.726 150.586 236.552 150.061 235.328 150.061V148.031H224.863V162.49H235.328V160.039C235.934 160.039 236.535 159.91 237.095 159.659C237.655 159.408 238.164 159.041 238.593 158.577C239.022 158.114 239.362 157.564 239.594 156.958C239.826 156.352 239.945 155.703 239.945 155.048ZM235.328 157.979V152.123C235.689 152.114 236.049 152.183 236.385 152.325C236.721 152.468 237.027 152.683 237.286 152.955C237.545 153.228 237.75 153.554 237.89 153.914C238.031 154.274 238.103 154.661 238.103 155.051C238.103 155.442 238.031 155.828 237.89 156.188C237.75 156.548 237.545 156.874 237.286 157.147C237.027 157.42 236.721 157.634 236.385 157.777C236.049 157.919 235.689 157.988 235.328 157.979Z" fill="#E9DAFF"/>
<path d="M51.9364 32.4703C59.5925 32.4703 65.7989 26.0473 65.7989 18.1243C65.7989 10.2012 59.5925 3.77832 51.9364 3.77832C44.2804 3.77832 38.074 10.2012 38.074 18.1243C38.074 26.0473 44.2804 32.4703 51.9364 32.4703Z" fill="#C1D8ED"/>
<path d="M54.7616 32.4703C62.4177 32.4703 68.6241 26.0473 68.6241 18.1243C68.6241 10.2012 62.4177 3.77832 54.7616 3.77832C47.1056 3.77832 40.8992 10.2012 40.8992 18.1243C40.8992 26.0473 47.1056 32.4703 54.7616 32.4703Z" fill="#E9DAFF"/>
<path d="M54.7617 30.3567C61.2897 30.3567 66.5817 24.8801 66.5817 18.1244C66.5817 11.3687 61.2897 5.89209 54.7617 5.89209C48.2337 5.89209 42.9417 11.3687 42.9417 18.1244C42.9417 24.8801 48.2337 30.3567 54.7617 30.3567Z" fill="#F3F5FD"/>
<path d="M54.7623 19.2535C54.6653 19.2534 54.5699 19.2275 54.4853 19.1785L48.7821 15.8606C48.7174 15.823 48.6605 15.7726 48.6146 15.7122C48.5688 15.6519 48.5348 15.5828 48.5148 15.5088C48.4743 15.3595 48.4928 15.1997 48.5662 15.0645C48.6395 14.9293 48.7618 14.8298 48.9061 14.7879C49.0504 14.746 49.2048 14.7651 49.3355 14.841L54.1969 17.6688V9.63031C54.2014 9.47828 54.2628 9.33403 54.3683 9.22812C54.4738 9.12222 54.615 9.06299 54.762 9.06299C54.909 9.06299 55.0502 9.12222 55.1557 9.22812C55.2611 9.33403 55.3226 9.47828 55.3271 9.63031V18.6684C55.327 18.8234 55.2674 18.9721 55.1615 19.0818C55.0557 19.1914 54.9121 19.2532 54.7623 19.2535Z" fill="#E9DAFF"/>
<path d="M306.551 9.14497L301.553 12.1309L311.345 29.6826L316.343 26.6967L306.551 9.14497Z" fill="#E9DAFF"/>
<path d="M302.814 9.28076H297.044V29.5478H302.814V9.28076Z" fill="#E9DAFF"/>
<path d="M336.423 3.77832H330.653V29.5475H336.423V3.77832Z" fill="#E9DAFF"/>
<path d="M330.489 9.28076H324.718V29.5478H330.489V9.28076Z" fill="#0CBC8B"/>
<path d="M342.194 6.67578H336.424V29.5476H342.194V6.67578Z" fill="#0CBC8B"/>
<path d="M324.627 5.9624H315.411V29.5478H324.627V5.9624Z" fill="#CFB7F1"/>
<path d="M351.439 22.8136C351.439 22.8136 351.411 12.7333 356.304 10.6278C361.196 8.5222 353.871 22.8136 353.871 22.8136H351.439Z" fill="#8DDBE0"/>
<path d="M353.873 22.8133C353.873 22.8133 356.428 3.94043 351.208 3.94043C345.987 3.94043 351.439 22.8133 351.439 22.8133" fill="#8DDBE0"/>
<path d="M352.308 23.6444C352.308 23.6444 349.857 6.82534 345.488 8.17471C341.12 9.52409 350.59 24.175 350.59 24.175L352.308 23.6444Z" fill="#8DDBE0"/>
<path d="M357.125 17.7549H345.73V29.5478H357.125V17.7549Z" fill="#E9DAFF"/>
<path d="M361.767 29.5479H294.159V32.1683H361.767V29.5479Z" fill="#CFB7F1"/>
<path d="M346.753 29.5479H294.159V32.1683H346.753V29.5479Z" fill="#E9DAFF"/>
</svg>
