<svg width="910" height="725" viewBox="0 0 910 725" fill="none" xmlns="http://www.w3.org/2000/svg">
<path d="M827.917 190.123V164.334C827.917 164.093 827.87 163.855 827.777 163.632C827.685 163.41 827.55 163.207 827.38 163.037C827.21 162.867 827.007 162.732 826.785 162.64C826.562 162.547 826.324 162.5 826.083 162.5H807.148C806.732 162.499 806.33 162.356 806.006 162.096C805.681 161.836 805.455 161.474 805.363 161.069C803.62 153.622 800.672 146.51 796.636 140.014C796.414 139.662 796.318 139.246 796.364 138.833C796.409 138.42 796.593 138.034 796.886 137.739L810.279 124.347C810.623 124.003 810.816 123.536 810.816 123.05C810.816 122.564 810.623 122.097 810.279 121.753L792.039 103.513C791.695 103.169 791.229 102.976 790.742 102.976C790.256 102.976 789.79 103.169 789.446 103.513L776.053 116.906C775.758 117.199 775.373 117.383 774.96 117.428C774.547 117.474 774.131 117.378 773.779 117.157C767.283 113.121 760.171 110.173 752.724 108.43C752.319 108.338 751.957 108.111 751.697 107.787C751.437 107.463 751.295 107.06 751.293 106.645V87.709C751.293 87.2226 751.1 86.7561 750.756 86.4122C750.412 86.0682 749.945 85.875 749.459 85.875H723.67C723.184 85.875 722.717 86.0682 722.373 86.4122C722.029 86.7561 721.836 87.2226 721.836 87.709V106.645C721.834 107.06 721.692 107.463 721.432 107.787C721.172 108.111 720.81 108.338 720.405 108.43C712.959 110.173 705.847 113.121 699.351 117.157C698.999 117.379 698.583 117.475 698.17 117.429C697.757 117.384 697.371 117.2 697.076 116.907L683.683 103.513C683.513 103.343 683.31 103.208 683.088 103.115C682.865 103.023 682.627 102.976 682.386 102.976C682.145 102.976 681.907 103.023 681.684 103.115C681.461 103.208 681.259 103.343 681.089 103.513L662.856 121.752C662.512 122.096 662.319 122.562 662.319 123.049C662.319 123.535 662.512 124.001 662.856 124.345L676.248 137.737C676.541 138.032 676.725 138.417 676.771 138.83C676.816 139.243 676.721 139.659 676.499 140.011C672.463 146.508 669.516 153.621 667.773 161.068C667.681 161.473 667.454 161.835 667.13 162.095C666.806 162.355 666.403 162.497 665.988 162.499H647.053C646.567 162.499 646.1 162.692 645.756 163.036C645.412 163.38 645.219 163.847 645.219 164.333V190.122C645.219 190.608 645.412 191.075 645.756 191.419C646.1 191.763 646.567 191.956 647.053 191.956H665.988C666.403 191.957 666.806 192.1 667.13 192.36C667.455 192.62 667.681 192.982 667.773 193.387C669.516 200.834 672.464 207.946 676.5 214.442C676.721 214.794 676.817 215.21 676.771 215.623C676.726 216.036 676.542 216.421 676.249 216.716L662.857 230.11C662.687 230.28 662.551 230.482 662.459 230.705C662.367 230.927 662.319 231.166 662.319 231.406C662.319 231.647 662.367 231.886 662.459 232.108C662.551 232.331 662.687 232.533 662.857 232.703L681.089 250.936C681.433 251.28 681.9 251.473 682.386 251.473C682.872 251.473 683.339 251.28 683.683 250.936L697.075 237.543C697.37 237.25 697.755 237.066 698.168 237.021C698.581 236.975 698.998 237.071 699.349 237.293C705.846 241.329 712.958 244.276 720.405 246.019C720.81 246.111 721.172 246.338 721.432 246.662C721.692 246.986 721.834 247.389 721.836 247.804V266.74C721.836 267.226 722.029 267.693 722.373 268.037C722.717 268.381 723.184 268.574 723.67 268.574H749.459C749.945 268.574 750.412 268.381 750.756 268.037C751.1 267.693 751.293 267.226 751.293 266.74V247.8C751.295 247.385 751.437 246.982 751.697 246.658C751.957 246.334 752.319 246.108 752.724 246.016C760.171 244.272 767.283 241.325 773.78 237.29C774.131 237.068 774.548 236.972 774.961 237.018C775.374 237.063 775.759 237.247 776.054 237.54L789.446 250.932C789.79 251.276 790.256 251.469 790.742 251.469C791.229 251.469 791.695 251.276 792.039 250.932L810.279 232.699C810.623 232.355 810.816 231.888 810.816 231.402C810.816 230.916 810.623 230.449 810.279 230.105L796.885 216.712C796.592 216.417 796.408 216.032 796.363 215.619C796.318 215.206 796.414 214.79 796.635 214.438C800.671 207.942 803.619 200.83 805.363 193.384C805.455 192.979 805.681 192.617 806.005 192.357C806.329 192.097 806.732 191.955 807.147 191.953H826.083C826.569 191.953 827.035 191.76 827.378 191.417C827.722 191.074 827.916 190.609 827.917 190.123ZM737.893 218.115C729.692 218.382 721.601 216.176 714.67 211.785C707.739 207.393 702.288 201.019 699.027 193.49C695.765 185.962 694.842 177.626 696.379 169.566C697.916 161.506 701.841 154.095 707.644 148.294C713.447 142.493 720.86 138.572 728.921 137.039C736.981 135.506 745.317 136.432 752.844 139.697C760.371 142.963 766.743 148.416 771.131 155.349C775.519 162.282 777.721 170.374 777.451 178.575C777.111 188.957 772.834 198.82 765.487 206.164C758.14 213.507 748.275 217.78 737.893 218.115Z" fill="#D0BFE9"/>
<path d="M909.061 705.814H0C9.961 680.414 28.356 658.863 54.287 652.471C92.221 643.131 132.364 668.809 170.213 659.155C191.713 653.675 208.646 637.705 226.435 624.445C293.545 574.409 385.513 559.621 464.925 586.104C506.435 599.941 544.261 624.138 586.784 634.429C641.769 647.736 699.271 636.7 755.815 634.881C810.885 633.109 889.791 655.548 909.061 705.814Z" fill="#F3F5FD"/>
<path d="M610.094 8.82324H327.994C306.391 8.82324 288.879 26.3356 288.879 47.9382V658.031C288.879 679.634 306.391 697.146 327.994 697.146H610.094C631.697 697.146 649.209 679.634 649.209 658.031V47.9382C649.209 26.3356 631.697 8.82324 610.094 8.82324Z" fill="white"/>
<path d="M610.093 705.969H327.993C315.283 705.955 303.098 700.899 294.111 691.912C285.124 682.925 280.068 670.74 280.054 658.03V47.938C280.069 35.2282 285.124 23.0431 294.111 14.0561C303.099 5.06907 315.284 0.0140275 327.994 0L610.094 0C622.804 0.0142926 634.988 5.06948 643.975 14.0565C652.963 23.0435 658.018 35.2284 658.032 47.938V658.03C658.018 670.74 652.963 682.925 643.975 691.912C634.988 700.9 622.803 705.955 610.093 705.969ZM327.994 17.646C319.962 17.6545 312.262 20.8486 306.583 26.5276C300.904 32.2065 297.709 39.9065 297.7 47.938V658.03C297.709 666.061 300.903 673.761 306.582 679.44C312.261 685.119 319.961 688.313 327.992 688.322H610.092C618.123 688.313 625.823 685.119 631.502 679.44C637.181 673.761 640.375 666.061 640.384 658.03V47.938C640.375 39.9068 637.181 32.2072 631.502 26.5283C625.823 20.8494 618.123 17.655 610.092 17.646H327.994Z" fill="#D0BFE9"/>
<path d="M407.276 8.82324H530.811V32.7912C530.811 37.5493 528.92 42.1124 525.556 45.4768C522.191 48.8412 517.628 50.7312 512.87 50.7312H425.217C420.459 50.7312 415.895 48.841 412.531 45.4764C409.166 42.1119 407.276 37.5485 407.276 32.7902V8.82324Z" fill="#D0BFE9"/>
<path d="M398.584 86.0811H321.95V162.715H398.584V86.0811Z" fill="#D0BFE9"/>
<path d="M616.137 130.575H416.414V150.896H616.137V130.575Z" fill="#D0BFE9"/>
<path d="M558.659 94.1782H416.414V114.499H558.659V94.1782Z" fill="#D0BFE9"/>
<path d="M616.137 184.653H321.95V406.338H616.137V184.653Z" fill="#D0BFE9"/>
<path d="M616.137 435.227H321.95V546.069H616.137V435.227Z" fill="#D0BFE9"/>
<path d="M616.137 575.277H321.95V656.912H616.137V575.277Z" fill="#D0BFE9"/>
<path d="M471.963 246.581H466.124V343.366H471.963V246.581Z" fill="white"/>
<path d="M517.436 292.054H420.651V297.893H517.436V292.054Z" fill="white"/>
<path d="M802.286 545.481C802.286 545.481 794.553 541.381 796.28 520.324L780.3 517.362C780.3 517.362 782.095 536.24 774.013 542.234L802.286 545.481Z" fill="#E98862"/>
<path opacity="0.15" d="M777.29 538.287L790.562 528.134L780.138 528.026C779.836 531.594 778.87 535.074 777.29 538.287Z" fill="black"/>
<path d="M805.345 512.159C804.239 518.548 800.752 524.597 795.117 526.659C788.428 529.109 783.473 529.274 775.76 529.274C765.234 529.274 765.582 518.298 765.287 507.236C764.987 496.131 765.873 484.218 770.033 480.348C778.333 472.623 802.706 477.515 805.67 490.435C807.2 497.119 806.4 506.079 805.345 512.159Z" fill="#E98862"/>
<path d="M759.646 486.77C759.646 486.77 755.335 485.808 756.515 481.509C757.297 478.659 760.95 479.292 760.95 479.292C760.95 479.292 757.492 478.659 757.492 475.64C757.492 473.74 758.953 470.515 763.363 472.357C768.537 474.518 774.437 474.241 778.923 473.486C781.461 472.931 784.038 472.567 786.631 472.398H786.644C789.625 472.346 792.596 472.744 795.458 473.577C803.478 475.977 815.616 483.168 813.036 499.47C810.155 517.665 801.618 524.623 797.861 526.855C797.639 526.989 797.389 527.07 797.131 527.093C796.872 527.116 796.612 527.08 796.37 526.988C796.127 526.896 795.909 526.75 795.731 526.561C795.554 526.372 795.421 526.146 795.344 525.898C794.278 522.488 792.444 513.908 792.956 496.216C768.304 495.007 761.212 494.64 761.212 494.64C761.212 494.64 755.407 494.857 755.407 490.618C755.407 486.379 759.646 486.77 759.646 486.77Z" fill="#0F1011"/>
<path d="M780.326 507.238C781.126 507.238 781.775 506.59 781.775 505.789C781.775 504.989 781.126 504.34 780.326 504.34C779.526 504.34 778.877 504.989 778.877 505.789C778.877 506.59 779.526 507.238 780.326 507.238Z" fill="#0F1011"/>
<path d="M768.895 506.301C769.695 506.301 770.344 505.653 770.344 504.852C770.344 504.052 769.695 503.403 768.895 503.403C768.095 503.403 767.446 504.052 767.446 504.852C767.446 505.653 768.095 506.301 768.895 506.301Z" fill="#0F1011"/>
<path d="M770.222 501.035L766.384 501.083" stroke="#0F1011" stroke-width="1.362" stroke-miterlimit="10" stroke-linecap="round"/>
<path d="M783.453 502.483L779.668 501.572" stroke="#0F1011" stroke-width="1.362" stroke-miterlimit="10" stroke-linecap="round"/>
<path d="M787.864 509.335C787.755 510.945 788.285 512.534 789.338 513.757C790.392 514.98 791.884 515.739 793.493 515.871C795.102 516.002 796.698 515.495 797.936 514.459C799.173 513.423 799.954 511.942 800.108 510.335C800.188 509.528 800.105 508.714 799.863 507.94C799.622 507.166 799.227 506.449 798.703 505.831C798.179 505.213 797.535 504.707 796.811 504.342C796.087 503.978 795.297 503.763 794.488 503.711C790.11 503.572 788.141 505.954 787.864 509.335Z" fill="#E98862"/>
<g opacity="0.15">
<path d="M773.894 513.826C774.014 513.826 774.13 513.783 774.22 513.705C774.311 513.627 774.371 513.519 774.389 513.4C774.407 513.282 774.381 513.161 774.317 513.06C774.254 512.958 774.156 512.883 774.041 512.848L771.094 511.948L773.155 507.357C773.207 507.236 773.21 507.1 773.163 506.977C773.115 506.855 773.021 506.756 772.901 506.702C772.781 506.648 772.645 506.643 772.522 506.689C772.399 506.735 772.298 506.828 772.243 506.947L769.95 512.054C769.921 512.119 769.906 512.189 769.906 512.26C769.906 512.331 769.921 512.401 769.95 512.465C769.98 512.53 770.022 512.587 770.076 512.634C770.129 512.681 770.191 512.716 770.259 512.737L773.747 513.808C773.795 513.822 773.844 513.828 773.894 513.826Z" fill="black"/>
</g>
<path d="M779.656 517.2C779.656 517.2 774.307 517.764 770.556 516.454C770.556 516.454 770.586 519.977 774.818 520.324C779.05 520.671 779.656 517.2 779.656 517.2Z" fill="#F8FCFF"/>
<path d="M739.489 700.133C737.589 699.814 716.154 696.153 716.154 696.153L719.689 675.453C719.689 675.453 741.066 679.104 742.96 679.422L739.489 700.133Z" fill="#E98862"/>
<path d="M703.926 719.989C703.835 720.546 703.861 721.117 704 721.664C704.14 722.211 704.391 722.724 704.737 723.169C705.084 723.615 705.519 723.985 706.014 724.255C706.51 724.526 707.056 724.691 707.619 724.741C708.399 724.81 709.182 724.654 709.876 724.293C710.571 723.932 711.148 723.38 711.539 722.702L723.651 699.947C723.884 699.506 724.019 699.02 724.046 698.522C724.073 698.024 723.993 697.526 723.81 697.062C722.066 693.362 721.554 689.201 722.35 685.189C723.099 682.086 724.705 679.256 726.985 677.022C727.206 676.829 727.367 676.577 727.45 676.296C727.533 676.015 727.535 675.716 727.454 675.433C727.374 675.151 727.215 674.898 726.996 674.703C726.777 674.508 726.507 674.379 726.218 674.331L714.43 672.357C714.082 672.299 713.726 672.31 713.383 672.39C713.039 672.469 712.715 672.616 712.428 672.821C712.142 673.027 711.899 673.287 711.713 673.586C711.527 673.886 711.402 674.219 711.345 674.567L703.926 719.989Z" fill="#EEE8F7"/>
<path d="M805.846 644.145C814.741 644.515 823.8 644.776 832.861 645L846.476 645.3L860.076 645.545L861.431 645.569C867.048 645.675 872.416 647.906 876.453 651.814C880.49 655.721 882.895 661.014 883.184 666.624C883.472 672.235 881.623 677.746 878.009 682.047C874.394 686.349 869.284 689.119 863.707 689.801L729.307 706.121L723.835 666.4L857.635 645.745L861.267 690L847.458 690.893L833.658 691.727C824.443 692.26 815.225 692.758 805.842 693.143L805.846 644.145Z" fill="#262626"/>
<path d="M839.749 691.435C821.194 688.735 819.349 688.235 818.736 688.076L824.193 667.797C824.132 667.781 824.052 667.759 823.955 667.738C825.475 668.07 834.905 669.51 842.77 670.654L839.749 691.435Z" fill="#E98862"/>
<path d="M862.927 709.486C863.122 710.016 863.205 710.581 863.172 711.144C863.138 711.708 862.989 712.259 862.734 712.762C862.478 713.266 862.122 713.711 861.686 714.071C861.251 714.43 860.746 714.696 860.203 714.852C859.45 715.067 858.652 715.063 857.902 714.841C857.151 714.618 856.48 714.185 855.967 713.594L839.757 693.552C839.446 693.163 839.222 692.712 839.102 692.228C838.981 691.745 838.966 691.242 839.057 690.752C840.068 686.789 839.781 682.606 838.238 678.818C836.913 675.914 834.8 673.441 832.138 671.68C831.884 671.533 831.678 671.316 831.542 671.056C831.407 670.795 831.348 670.502 831.374 670.209C831.399 669.917 831.507 669.638 831.685 669.404C831.864 669.171 832.105 668.993 832.38 668.892L843.58 664.716C843.91 664.593 844.262 664.536 844.614 664.549C844.967 664.562 845.313 664.645 845.633 664.792C845.954 664.939 846.242 665.148 846.482 665.407C846.721 665.666 846.907 665.969 847.029 666.3L862.927 709.486Z" fill="#EEE8F7"/>
<path d="M776 689.545C770.369 689.066 764.739 688.72 759.11 688.395C753.482 688.095 747.853 687.795 742.227 687.595L733.787 687.27L725.349 687.027C719.723 686.839 714.099 686.762 708.474 686.655L710.423 646.246C720.953 647.718 731.496 649.071 742.035 650.457C752.574 651.843 763.126 653.119 773.676 654.417L789.51 656.283L805.354 658.059C815.922 659.195 826.492 660.323 837.084 661.253L832.436 701.083C821.914 699.549 811.369 698.213 800.823 696.883L785 694.964L769.162 693.134C758.597 691.968 748.034 690.783 737.462 689.702C726.89 688.621 716.316 687.513 705.73 686.521C700.653 686.045 695.942 683.67 692.542 679.87C689.141 676.07 687.3 671.126 687.389 666.027C687.477 660.928 689.488 656.051 693.019 652.371C696.549 648.691 701.339 646.481 706.43 646.182L707.683 646.112C713.298 645.782 718.915 645.483 724.529 645.073L732.952 644.497L741.372 643.839C746.986 643.416 752.599 642.891 758.211 642.371C763.822 641.825 769.434 641.256 775.042 640.555L776 689.545Z" fill="#262626"/>
<path d="M826.28 638.011L829.24 687.716L743.75 686.712L750.203 642.706L826.28 638.011Z" fill="#262626"/>
<path d="M854.819 626.772L832.163 556.528C831.225 552.871 829.274 549.552 826.535 546.954C821.964 542.384 814.074 539.434 804.455 539.424C803.734 545.034 769.674 545.054 769.415 539.554C768.115 539.574 767.104 539.594 766.475 539.624C752.714 540.217 747.175 545.513 745.416 553.486L716.533 623.377C715.826 625.088 715.583 626.956 715.831 628.792C716.079 630.627 716.807 632.364 717.943 633.827C719.079 635.29 720.581 636.426 722.298 637.121C724.015 637.816 725.885 638.044 727.718 637.783L743.499 635.534C742.722 639.465 742.599 642.521 744.135 646.054C748.324 655.684 830.654 659.684 831.754 642.744C831.765 642.578 831.766 642.413 831.772 642.244L845.453 640.972C847.079 640.821 848.65 640.307 850.051 639.467C851.452 638.627 852.645 637.483 853.545 636.12C854.444 634.757 855.025 633.209 855.246 631.591C855.466 629.973 855.32 628.326 854.819 626.772ZM742.966 614.4L748.187 601.766C748.129 606.285 747.887 610.251 747.541 613.748L742.966 614.4ZM829.893 620.526L825.901 620.898C823.934 614.636 822.94 608.11 822.955 601.547C822.955 600.782 822.987 600.023 823.036 599.266L829.893 620.526Z" fill="#571BB1"/>
<path d="M797.841 573.032L801.375 625.711C801.417 626.332 801.33 626.955 801.121 627.542C800.912 628.128 800.585 628.665 800.16 629.12C799.735 629.574 799.22 629.937 798.649 630.184C798.078 630.432 797.463 630.56 796.84 630.56H723.263C722.139 630.56 721.054 630.143 720.219 629.39C719.384 628.637 718.858 627.601 718.742 626.483L713.3 573.8C713.235 573.167 713.303 572.528 713.5 571.923C713.698 571.318 714.02 570.761 714.446 570.289C714.872 569.816 715.393 569.439 715.974 569.18C716.556 568.922 717.185 568.788 717.821 568.788H793.308C794.461 568.789 795.571 569.227 796.412 570.015C797.254 570.803 797.765 571.882 797.841 573.032Z" fill="#9EBCEA"/>
<path d="M729.409 630.56H806.715C808.467 630.56 809.887 629.14 809.887 627.388C809.887 625.636 808.467 624.216 806.715 624.216H729.409C727.657 624.216 726.237 625.636 726.237 627.388C726.237 629.14 727.657 630.56 729.409 630.56Z" fill="#9EBCEA"/>
<path d="M755.387 606.676C759.253 606.676 762.387 603.542 762.387 599.676C762.387 595.81 759.253 592.676 755.387 592.676C751.521 592.676 748.387 595.81 748.387 599.676C748.387 603.542 751.521 606.676 755.387 606.676Z" fill="white"/>
<path d="M765.473 637.25C769.963 640.02 776.913 641.33 782.973 641.81L783.313 630.77C780.463 630.69 776.083 630.39 771.793 630.56C769.854 628.979 768.738 628.51 766.749 626.52C764.631 624.402 759.073 623.13 758.023 626.52C756.973 629.91 761.532 634.81 765.473 637.25Z" fill="#E98862"/>
<path d="M769.415 539.554C769.674 545.054 772.665 553.144 781.895 553.754C794.195 554.564 803.734 545.034 804.455 539.424H804.424C792.314 539.424 776.475 539.444 769.415 539.554Z" fill="#E98862"/>
<path d="M722.695 545.669L706.872 535.669H631.87V474.626H722.695V545.669Z" fill="#EEE8F7"/>
<path d="M645.219 504.583L665.658 494.665V498.546L649.444 506.092V506.179L665.658 513.767V517.605L645.219 507.687V504.583Z" fill="white" stroke="white" stroke-miterlimit="10"/>
<path d="M670.362 519.33L680.884 488.067H684.593L674.071 519.33H670.362Z" fill="white" stroke="white" stroke-miterlimit="10"/>
<path d="M709.347 507.773L688.907 517.605V513.767L705.379 506.179V506.092L688.907 498.5V494.662L709.347 504.493V507.773Z" fill="white" stroke="white" stroke-miterlimit="10"/>
<path d="M151.769 694.994L130.916 692.515C131.855 684.622 132.916 675.141 132.987 673.586C132.987 673.686 132.987 673.768 132.987 673.832H153.987C153.983 674.461 153.983 676.376 151.769 694.994Z" fill="#E98862"/>
<path d="M68.0929 697.505L47.0929 697.437C47.0929 697.437 47.1639 675.751 47.1639 673.832H68.1639C68.1639 675.757 68.0929 697.505 68.0929 697.505Z" fill="#E98862"/>
<path d="M159.516 687.733C157.779 643.725 157.673 597.502 157.129 553.377C149.906 505.783 146.11 453.583 137.195 406.327L136.928 406.406L136.147 401.077L60.0689 396.377C60.0689 396.377 58.0849 433.655 57.3939 446.077C53.6859 512.67 46.1599 619.7 41.6809 687.171L78.5499 690.286C85.1339 623.927 94.8709 518.212 100.822 452.808C107.352 486.134 114.509 523.664 120.307 557.385C121.576 600.464 122.637 645.355 122.522 688.364L159.516 687.733Z" fill="#262626"/>
<path d="M93.6219 705.627C94.1868 705.625 94.7452 705.506 95.2621 705.278C95.779 705.05 96.2433 704.718 96.6261 704.303C97.0088 703.887 97.3017 703.397 97.4865 702.863C97.6713 702.329 97.7439 701.763 97.6999 701.2C97.6391 700.42 97.3565 699.673 96.8854 699.047C96.4143 698.422 95.7743 697.945 95.0409 697.671L70.5999 689.484C70.1264 689.327 69.6246 689.275 69.1289 689.33C68.6331 689.385 68.1552 689.547 67.7279 689.804C64.3674 692.135 60.3478 693.327 56.2599 693.204C53.0757 692.978 50.0192 691.861 47.4389 689.982C47.2122 689.796 46.9372 689.678 46.6461 689.642C46.3549 689.607 46.0596 689.655 45.7947 689.78C45.5297 689.906 45.306 690.105 45.1497 690.353C44.9934 690.601 44.9109 690.889 44.9119 691.182V703.134C44.9119 703.487 44.9815 703.836 45.1168 704.161C45.252 704.487 45.4503 704.783 45.7001 705.032C45.95 705.28 46.2465 705.477 46.5727 705.611C46.8989 705.745 47.2483 705.814 47.6009 705.812L93.6219 705.627Z" fill="#EEE8F7"/>
<path d="M177.355 705.627C177.92 705.624 178.478 705.505 178.995 705.277C179.511 705.049 179.975 704.717 180.358 704.302C180.741 703.886 181.033 703.397 181.218 702.863C181.403 702.329 181.476 701.763 181.432 701.2C181.371 700.42 181.088 699.673 180.617 699.048C180.146 698.423 179.506 697.945 178.773 697.671L154.33 689.484C153.856 689.327 153.355 689.275 152.859 689.33C152.363 689.385 151.885 689.547 151.458 689.804C148.097 692.135 144.078 693.327 139.99 693.204C136.806 692.977 133.75 691.861 131.17 689.982C130.943 689.796 130.668 689.678 130.377 689.643C130.086 689.607 129.79 689.655 129.525 689.781C129.26 689.906 129.037 690.105 128.88 690.353C128.724 690.601 128.641 690.889 128.642 691.182V703.134C128.642 703.487 128.711 703.836 128.847 704.161C128.982 704.487 129.18 704.783 129.43 705.032C129.68 705.28 129.976 705.477 130.303 705.611C130.629 705.745 130.978 705.813 131.331 705.812L177.355 705.627Z" fill="#EEE8F7"/>
<path d="M173.432 326.119L173.897 326.319L168.081 327.257L173.79 338.157C173.79 338.157 194.964 343.112 204.87 331.966C205.122 331.682 205.283 331.328 205.331 330.952C205.379 330.575 205.313 330.192 205.14 329.854C204.967 329.515 204.696 329.237 204.362 329.055C204.029 328.874 203.648 328.797 203.27 328.835C197.561 329.415 187.379 330.104 182.794 328.296C184.81 327.306 187.485 325.789 187.065 324.883C185.959 322.505 176.374 325.645 173.432 326.119Z" fill="#E98862"/>
<path d="M236.184 326.119L236.649 326.319L230.832 327.257L236.542 338.157C236.542 338.157 257.715 343.112 267.622 331.966C267.874 331.682 268.034 331.328 268.082 330.952C268.13 330.575 268.063 330.193 267.89 329.855C267.717 329.516 267.447 329.238 267.113 329.056C266.78 328.874 266.4 328.797 266.022 328.835C260.312 329.415 250.131 330.104 245.546 328.296C247.562 327.306 250.237 325.789 249.817 324.883C248.711 322.505 239.126 325.645 236.184 326.119Z" fill="#E98862"/>
<path d="M83.4359 292.36C83.4359 292.36 91.4779 288.906 91.4779 267.779L107.643 266.132C107.643 266.132 104.311 284.801 111.876 291.432L83.4359 292.36Z" fill="#E98862"/>
<path d="M83.1099 258.9C83.6909 265.358 86.6709 271.672 92.1179 274.189C98.041 277.121 104.591 278.559 111.198 278.378C128.746 278.378 128.548 238.46 120.903 230.083C113.258 221.706 88.5709 224.59 84.5609 237.224C82.4869 243.759 82.5579 252.754 83.1099 258.9Z" fill="#E98862"/>
<path d="M108.566 256.044C109.366 256.044 110.015 255.396 110.015 254.595C110.015 253.795 109.366 253.146 108.566 253.146C107.766 253.146 107.117 253.795 107.117 254.595C107.117 255.396 107.766 256.044 108.566 256.044Z" fill="#571BB1"/>
<path d="M105.718 251.726C105.546 251.726 105.38 251.662 105.253 251.545C105.127 251.428 105.05 251.268 105.037 251.096C105.024 250.924 105.077 250.754 105.185 250.62C105.293 250.486 105.448 250.397 105.618 250.373L109.464 249.773C109.642 249.745 109.825 249.789 109.97 249.896C110.116 250.003 110.214 250.163 110.241 250.341C110.269 250.52 110.225 250.702 110.118 250.848C110.012 250.994 109.851 251.091 109.673 251.119L105.827 251.719C105.791 251.724 105.754 251.727 105.718 251.726Z" fill="#571BB1"/>
<path d="M130.147 245.44C130.147 245.44 129.041 216.989 97.5318 221.371C95.2145 221.735 92.9715 222.472 90.8898 223.553C89.372 222.101 87.547 221.01 85.5501 220.359C83.5532 219.709 81.4355 219.516 79.3539 219.795C77.2723 220.074 75.2802 220.818 73.5251 221.971C71.77 223.125 70.2969 224.658 69.2148 226.458C68.1328 228.258 67.4697 230.279 67.2745 232.37C67.0793 234.461 67.357 236.569 68.0872 238.538C68.8174 240.507 69.9812 242.287 71.4925 243.745C73.0038 245.204 74.8239 246.303 76.8178 246.963C76.8178 247.206 76.8178 247.445 76.8338 247.691C77.7088 266.132 86.4478 274.798 90.0968 276.211C105.487 282.172 111.902 274.665 118.516 246.311C122.41 246.346 126.301 246.054 130.147 245.44Z" fill="#0F1011"/>
<path d="M233.156 323.641L180.206 340.791L176.486 333.381H163.326L155.576 322.631H155.566L141.196 302.381C135.866 293.931 131.736 289.541 119.066 289.001C115.046 288.821 95.456 288.791 81.116 288.791C71.476 288.791 63.566 291.751 58.996 296.321C43.246 312.071 62.576 338.911 62.576 359.911C62.576 380.911 53.076 390.331 53.776 401.111C54.876 418.061 137.206 414.051 141.396 404.431C145.256 395.571 138.686 389.721 137.506 365.481L154.626 356.881L159.646 363.051C160.669 364.307 161.959 365.319 163.423 366.015C164.886 366.71 166.486 367.071 168.106 367.071C169.243 367.068 170.373 366.889 171.456 366.541L239.876 344.381L233.156 323.641ZM138.496 340.581C138.616 339.561 138.736 338.551 138.856 337.531L140.516 339.571L138.496 340.581Z" fill="#571BB1"/>
<path d="M119.928 260.746C119.907 262.361 119.251 263.904 118.101 265.039C116.952 266.174 115.401 266.811 113.785 266.811C112.17 266.811 110.619 266.174 109.47 265.039C108.32 263.904 107.664 262.361 107.643 260.746C107.629 259.935 107.779 259.131 108.082 258.379C108.386 257.628 108.838 256.945 109.411 256.372C109.984 255.799 110.667 255.347 111.418 255.043C112.17 254.739 112.975 254.589 113.785 254.603C118.16 254.818 119.928 257.353 119.928 260.746Z" fill="#E98862"/>
</svg>
