<svg width="849" height="896" viewBox="0 0 849 896" fill="none" xmlns="http://www.w3.org/2000/svg">
<g clip-path="url(#clip0_23_3565)">
<path d="M558.33 685.651H758.9L789.3 708.42V612.02C789.3 607.177 787.376 602.532 783.951 599.107C780.527 595.683 775.882 593.759 771.039 593.759H558.33C553.487 593.759 548.842 595.683 545.417 599.107C541.993 602.532 540.069 607.177 540.069 612.02V667.386C540.068 669.784 540.54 672.159 541.458 674.375C542.376 676.591 543.721 678.605 545.416 680.301C547.112 681.997 549.125 683.342 551.341 684.26C553.557 685.178 555.932 685.651 558.33 685.651Z" fill="#F4F4F4"/>
<path d="M767.839 619.35H561.527C561.33 619.342 561.143 619.259 561.006 619.117C560.869 618.975 560.792 618.785 560.792 618.588C560.792 618.391 560.869 618.201 561.006 618.059C561.143 617.917 561.33 617.834 561.527 617.827H767.839C768.036 617.834 768.223 617.917 768.36 618.059C768.497 618.201 768.573 618.391 768.573 618.588C768.573 618.785 768.497 618.975 768.36 619.117C768.223 619.259 768.036 619.342 767.839 619.35Z" fill="white"/>
<path d="M767.839 642.2H561.527C561.33 642.193 561.143 642.109 561.006 641.967C560.869 641.825 560.792 641.636 560.792 641.438C560.792 641.241 560.869 641.051 561.006 640.909C561.143 640.767 561.33 640.684 561.527 640.677H767.839C768.036 640.684 768.223 640.767 768.36 640.909C768.497 641.051 768.573 641.241 768.573 641.438C768.573 641.636 768.497 641.825 768.36 641.967C768.223 642.109 768.036 642.193 767.839 642.2Z" fill="white"/>
<path d="M767.839 665.05H645.31C645.108 665.05 644.914 664.97 644.771 664.827C644.628 664.684 644.548 664.49 644.548 664.288C644.548 664.086 644.628 663.892 644.771 663.749C644.914 663.606 645.108 663.526 645.31 663.526H767.839C768.041 663.526 768.235 663.606 768.378 663.749C768.521 663.892 768.601 664.086 768.601 664.288C768.601 664.49 768.521 664.684 768.378 664.827C768.235 664.97 768.041 665.05 767.839 665.05Z" fill="white"/>
<path d="M666.855 641.924L664.681 642.162L691.524 887.467L693.698 887.229L666.855 641.924Z" fill="#292A2E"/>
<path d="M736.382 749.013L723.176 879.658L725.351 879.878L738.557 749.233L736.382 749.013Z" fill="#292A2E"/>
<path d="M759.089 863.867H661.1V895.667H759.089V863.867Z" fill="#292A2E"/>
<path opacity="0.2" d="M759.089 863.867H661.1V895.667H759.089V863.867Z" fill="white"/>
<path d="M818.16 805.313C836.723 780.642 827.874 742.662 798.395 720.482C768.916 698.302 729.971 700.321 711.409 724.992C692.846 749.663 701.695 787.643 731.174 809.823C760.653 832.003 799.598 829.984 818.16 805.313Z" fill="#3FB091"/>
<path opacity="0.2" d="M818.16 805.313C836.723 780.642 827.874 742.662 798.395 720.482C768.916 698.302 729.971 700.321 711.409 724.992C692.846 749.663 701.695 787.643 731.174 809.823C760.653 832.003 799.598 829.984 818.16 805.313Z" fill="white"/>
<path opacity="0.5" d="M818.158 805.317C816.911 806.981 815.551 808.557 814.087 810.034C793.653 823.089 763.493 821.034 739.565 803.027C710.089 780.852 701.243 742.872 719.807 718.201C721.056 716.541 722.413 714.966 723.868 713.484C744.312 700.419 774.463 702.484 798.4 720.484C827.875 742.666 836.722 780.646 818.158 805.317Z" fill="white"/>
<path d="M681.411 711.713C710.614 689.172 718.551 650.511 699.139 625.363C679.727 600.216 640.317 598.103 611.114 620.645C581.912 643.187 573.975 681.847 593.386 706.995C612.798 732.143 652.208 734.255 681.411 711.713Z" fill="#3FB091"/>
<path opacity="0.2" d="M672.159 705.244C649.543 722.712 620.801 725.374 599.966 714.003C597.556 711.879 595.354 709.529 593.39 706.986C573.974 681.845 581.911 643.18 611.112 620.643C633.728 603.184 662.47 600.513 683.295 611.875C685.712 613.999 687.917 616.352 689.881 618.901C709.3 644.042 701.36 682.707 672.159 705.244Z" fill="white"/>
<path d="M829.92 342.659H571.913L539.222 367.144V237.536C539.222 232.693 541.146 228.048 544.571 224.623C547.996 221.199 552.641 219.275 557.484 219.275H829.92C834.763 219.275 839.408 221.199 842.832 224.623C846.257 228.048 848.181 232.693 848.181 237.536V324.4C848.18 329.243 846.256 333.887 842.831 337.311C839.407 340.735 834.763 342.659 829.92 342.659Z" fill="#F4F4F4"/>
<path d="M825.106 246.734H562.3C562.198 246.738 562.096 246.721 562 246.684C561.904 246.648 561.817 246.592 561.743 246.521C561.67 246.45 561.611 246.365 561.571 246.27C561.531 246.176 561.51 246.075 561.51 245.972C561.51 245.87 561.531 245.769 561.571 245.674C561.611 245.58 561.67 245.495 561.743 245.424C561.817 245.353 561.904 245.297 562 245.261C562.096 245.224 562.198 245.207 562.3 245.211H825.106C825.303 245.218 825.49 245.301 825.627 245.443C825.764 245.586 825.84 245.775 825.84 245.972C825.84 246.17 825.764 246.359 825.627 246.501C825.49 246.643 825.303 246.727 825.106 246.734Z" fill="white"/>
<path d="M825.106 271.305H562.3C562.198 271.308 562.096 271.291 562 271.255C561.904 271.218 561.817 271.163 561.743 271.092C561.67 271.021 561.611 270.935 561.571 270.841C561.531 270.747 561.51 270.646 561.51 270.543C561.51 270.441 561.531 270.34 561.571 270.245C561.611 270.151 561.67 270.066 561.743 269.995C561.817 269.924 561.904 269.868 562 269.832C562.096 269.795 562.198 269.778 562.3 269.782H825.106C825.303 269.789 825.49 269.872 825.627 270.014C825.764 270.156 825.84 270.346 825.84 270.543C825.84 270.741 825.764 270.93 825.627 271.072C825.49 271.214 825.303 271.298 825.106 271.305Z" fill="white"/>
<path d="M825.106 295.877H562.3C562.098 295.877 561.904 295.797 561.761 295.654C561.618 295.511 561.538 295.317 561.538 295.115C561.538 294.913 561.618 294.719 561.761 294.576C561.904 294.433 562.098 294.353 562.3 294.353H825.106C825.308 294.353 825.502 294.433 825.645 294.576C825.788 294.719 825.868 294.913 825.868 295.115C825.868 295.317 825.788 295.511 825.645 295.654C825.502 295.797 825.308 295.877 825.106 295.877Z" fill="white"/>
<path d="M779.408 320.448H562.3C562.198 320.452 562.096 320.435 562 320.398C561.904 320.361 561.817 320.306 561.743 320.235C561.67 320.164 561.611 320.079 561.571 319.984C561.531 319.89 561.51 319.789 561.51 319.686C561.51 319.584 561.531 319.483 561.571 319.388C561.611 319.294 561.67 319.209 561.743 319.138C561.817 319.067 561.904 319.011 562 318.975C562.096 318.938 562.198 318.921 562.3 318.925H779.41C779.512 318.921 779.614 318.938 779.71 318.975C779.805 319.011 779.893 319.067 779.966 319.138C780.04 319.209 780.099 319.294 780.139 319.388C780.179 319.483 780.199 319.584 780.199 319.686C780.199 319.789 780.179 319.89 780.139 319.984C780.099 320.079 780.04 320.164 779.966 320.235C779.893 320.306 779.805 320.361 779.71 320.398C779.614 320.435 779.512 320.452 779.41 320.448H779.408Z" fill="white"/>
<path d="M31.3399 596.375H231.907L262.307 619.145V522.745C262.307 517.902 260.383 513.257 256.958 509.832C253.534 506.407 248.889 504.483 244.046 504.483H31.3399C26.4965 504.483 21.8515 506.407 18.4267 509.832C15.0019 513.257 13.0779 517.902 13.0779 522.745V578.111C13.0776 580.509 13.5498 582.884 14.4674 585.1C15.3851 587.316 16.7302 589.329 18.426 591.025C20.1218 592.721 22.1351 594.067 24.3509 594.985C26.5666 595.902 28.9415 596.375 31.3399 596.375Z" fill="#F4F4F4"/>
<path d="M240.848 530.075H34.5369C34.3348 530.075 34.141 529.994 33.9981 529.852C33.8552 529.709 33.7749 529.515 33.7749 529.313C33.7749 529.111 33.8552 528.917 33.9981 528.774C34.141 528.631 34.3348 528.551 34.5369 528.551H240.848C241.05 528.551 241.244 528.631 241.387 528.774C241.53 528.917 241.61 529.111 241.61 529.313C241.61 529.515 241.53 529.709 241.387 529.852C241.244 529.994 241.05 530.075 240.848 530.075Z" fill="white"/>
<path d="M240.848 552.924H34.5369C34.3397 552.917 34.153 552.833 34.016 552.691C33.879 552.549 33.8025 552.36 33.8025 552.162C33.8025 551.965 33.879 551.775 34.016 551.633C34.153 551.491 34.3397 551.408 34.5369 551.401H240.848C240.95 551.397 241.052 551.414 241.148 551.451C241.243 551.487 241.331 551.543 241.404 551.614C241.478 551.685 241.537 551.77 241.577 551.864C241.617 551.959 241.637 552.06 241.637 552.162C241.637 552.265 241.617 552.366 241.577 552.46C241.537 552.555 241.478 552.64 241.404 552.711C241.331 552.782 241.243 552.837 241.148 552.874C241.052 552.911 240.95 552.928 240.848 552.924Z" fill="white"/>
<path d="M240.848 575.774H118.32C118.218 575.778 118.116 575.761 118.02 575.724C117.924 575.688 117.837 575.632 117.763 575.561C117.69 575.49 117.631 575.405 117.591 575.31C117.551 575.216 117.53 575.115 117.53 575.013C117.53 574.91 117.551 574.809 117.591 574.715C117.631 574.62 117.69 574.535 117.763 574.464C117.837 574.393 117.924 574.337 118.02 574.301C118.116 574.264 118.218 574.247 118.32 574.251H240.848C240.95 574.247 241.052 574.264 241.148 574.301C241.243 574.337 241.331 574.393 241.404 574.464C241.478 574.535 241.537 574.62 241.577 574.715C241.617 574.809 241.637 574.91 241.637 575.013C241.637 575.115 241.617 575.216 241.577 575.31C241.537 575.405 241.478 575.49 241.404 575.561C241.331 575.632 241.243 575.688 241.148 575.724C241.052 575.761 240.95 575.778 240.848 575.774Z" fill="white"/>
<path d="M360.754 151.361H40.1L0 181.4V18.261C0 13.4179 1.92392 8.77312 5.34852 5.34852C8.77312 1.92392 13.4179 0 18.261 0L360.754 0C365.597 0 370.242 1.92392 373.666 5.34852C377.091 8.77312 379.015 13.4179 379.015 18.261V133.1C379.015 137.943 377.091 142.588 373.666 146.012C370.242 149.437 365.597 151.361 360.754 151.361Z" fill="#F4F4F4"/>
<path d="M350.707 33.5128H28.3079C28.1058 33.5128 27.912 33.4325 27.7691 33.2896C27.6262 33.1467 27.5459 32.9529 27.5459 32.7508C27.5459 32.5487 27.6262 32.3549 27.7691 32.212C27.912 32.0691 28.1058 31.9888 28.3079 31.9888H350.708C350.91 31.9888 351.104 32.0691 351.247 32.212C351.39 32.3549 351.47 32.5487 351.47 32.7508C351.47 32.9529 351.39 33.1467 351.247 33.2896C351.104 33.4325 350.91 33.5128 350.708 33.5128H350.707Z" fill="white"/>
<path d="M350.707 63.6548H28.3079C28.2056 63.6586 28.1036 63.6416 28.0079 63.605C27.9123 63.5684 27.825 63.5129 27.7513 63.4418C27.6776 63.3708 27.619 63.2856 27.579 63.1913C27.5389 63.0971 27.5183 62.9957 27.5183 62.8933C27.5183 62.791 27.5389 62.6896 27.579 62.5954C27.619 62.5011 27.6776 62.4159 27.7513 62.3449C27.825 62.2738 27.9123 62.2183 28.0079 62.1817C28.1036 62.1451 28.2056 62.1281 28.3079 62.1318H350.708C350.81 62.1281 350.912 62.1451 351.008 62.1817C351.103 62.2183 351.191 62.2738 351.264 62.3449C351.338 62.4159 351.397 62.5011 351.437 62.5954C351.477 62.6896 351.497 62.791 351.497 62.8933C351.497 62.9957 351.477 63.0971 351.437 63.1913C351.397 63.2856 351.338 63.3708 351.264 63.4418C351.191 63.5129 351.103 63.5684 351.008 63.605C350.912 63.6416 350.81 63.6586 350.708 63.6548H350.707Z" fill="white"/>
<path d="M350.707 93.7999H28.3079C28.2056 93.8036 28.1036 93.7866 28.0079 93.75C27.9123 93.7134 27.825 93.6579 27.7513 93.5869C27.6776 93.5158 27.619 93.4306 27.579 93.3363C27.5389 93.2421 27.5183 93.1408 27.5183 93.0384C27.5183 92.936 27.5389 92.8346 27.579 92.7404C27.619 92.6462 27.6776 92.561 27.7513 92.4899C27.825 92.4188 27.9123 92.3633 28.0079 92.3267C28.1036 92.2901 28.2056 92.2732 28.3079 92.2769H350.708C350.81 92.2732 350.912 92.2901 351.008 92.3267C351.103 92.3633 351.191 92.4188 351.264 92.4899C351.338 92.561 351.397 92.6462 351.437 92.7404C351.477 92.8346 351.497 92.936 351.497 93.0384C351.497 93.1408 351.477 93.2421 351.437 93.3363C351.397 93.4306 351.338 93.5158 351.264 93.5869C351.191 93.6579 351.103 93.7134 351.008 93.75C350.912 93.7866 350.81 93.8036 350.708 93.7999H350.707Z" fill="white"/>
<path d="M189.945 123.941H28.3079C28.2056 123.945 28.1036 123.928 28.0079 123.891C27.9123 123.855 27.825 123.799 27.7513 123.728C27.6776 123.657 27.619 123.572 27.579 123.477C27.5389 123.383 27.5183 123.282 27.5183 123.179C27.5183 123.077 27.5389 122.976 27.579 122.882C27.619 122.787 27.6776 122.702 27.7513 122.631C27.825 122.56 27.9123 122.504 28.0079 122.468C28.1036 122.431 28.2056 122.414 28.3079 122.418H189.945C190.142 122.425 190.329 122.508 190.466 122.651C190.603 122.793 190.679 122.982 190.679 123.179C190.679 123.377 190.603 123.566 190.466 123.708C190.329 123.85 190.142 123.934 189.945 123.941Z" fill="white"/>
<path d="M158.65 120.725C158.65 120.725 147.523 111.093 145.983 90.5352C144.791 74.6172 158.65 85.8062 158.65 85.8062C158.65 85.8062 157.904 74.3372 166.108 76.0202C174.312 77.7032 178.153 89.9562 178.153 89.9562" fill="#0C0C0C"/>
<path d="M208.832 80.2192C208.832 80.2192 249.632 87.3792 231.047 142.074H219.979" fill="#0C0C0C"/>
<path d="M162.879 198.936C163.06 198.913 165.07 232.258 203.807 229.351C230.625 227.342 240.187 198.889 240.807 198.889C237.915 198.275 234.342 197.342 232.922 197.022C229.827 196.304 227.024 194.66 224.886 192.31C222.748 189.959 221.376 187.014 220.953 183.865C220.169 179.139 221.499 154.958 221.09 150.176L179.925 159.364C180.5 169.464 184.525 192.878 170.416 197.022C168.063 197.707 165.534 198.338 162.879 198.936Z" fill="#E98862"/>
<path opacity="0.52" d="M179.343 187.453C179.988 185.375 180.403 183.232 180.581 181.064C181.034 176.116 180.943 171.133 180.312 166.204C188.679 165.075 196.561 161.621 203.063 156.236C203.828 159.059 208.031 171.394 206.868 174.077C204.667 179.149 194.329 187.453 179.343 187.453Z" fill="#0C0C0C"/>
<path d="M186.649 179.4C202.949 179.032 223.03 170.094 224.784 148.117L226.366 128.287C228.12 106.308 218 87.571 197.307 85.92C176.615 84.269 159.727 100.85 157.973 122.827L157.273 131.606C157.085 134.624 157.103 137.652 157.327 140.668C157.86 148.643 158.701 160.768 163.521 169.26C168.071 177.275 176.235 179.631 186.649 179.4Z" fill="#E98862"/>
<path opacity="0.52" d="M180.478 158.788C177.124 158.715 173.834 157.855 170.873 156.277C170.752 156.213 170.66 156.103 170.619 155.972C170.577 155.841 170.589 155.699 170.651 155.577C170.714 155.454 170.822 155.361 170.952 155.317C171.082 155.274 171.224 155.283 171.348 155.343C177.737 158.589 183.736 158.579 188.698 155.313C188.798 155.244 188.901 155.18 189.008 155.122C189.07 155.092 189.137 155.074 189.206 155.07C189.274 155.066 189.343 155.075 189.408 155.097C189.473 155.12 189.534 155.155 189.585 155.2C189.637 155.246 189.679 155.301 189.709 155.363C189.739 155.425 189.757 155.492 189.761 155.561C189.765 155.629 189.756 155.698 189.734 155.763C189.711 155.829 189.676 155.889 189.631 155.94C189.585 155.992 189.53 156.034 189.468 156.064C189.428 156.086 189.368 156.129 189.274 156.189C186.666 157.912 183.603 158.817 180.478 158.788Z" fill="#0C0C0C"/>
<path opacity="0.52" d="M180.3 163.753C179.694 163.75 179.088 163.695 178.491 163.589C178.422 163.579 178.355 163.555 178.295 163.519C178.235 163.482 178.183 163.434 178.142 163.378C178.101 163.321 178.072 163.257 178.056 163.188C178.04 163.12 178.038 163.049 178.05 162.98C178.062 162.911 178.088 162.845 178.126 162.786C178.164 162.728 178.213 162.677 178.271 162.637C178.329 162.598 178.394 162.57 178.463 162.557C178.532 162.543 178.602 162.543 178.671 162.557C182.265 163.184 184.103 161.641 184.18 161.575C184.285 161.483 184.421 161.437 184.56 161.446C184.699 161.455 184.828 161.519 184.92 161.623C185.011 161.728 185.058 161.864 185.048 162.003C185.039 162.142 184.976 162.271 184.871 162.363C183.554 163.34 181.939 163.831 180.3 163.753Z" fill="#0C0C0C"/>
<path d="M164.111 133.08C165.523 133.08 166.667 131.935 166.667 130.524C166.667 129.112 165.523 127.968 164.111 127.968C162.699 127.968 161.555 129.112 161.555 130.524C161.555 131.935 162.699 133.08 164.111 133.08Z" fill="#0C0C0C"/>
<path d="M187.806 133.241C189.218 133.241 190.362 132.097 190.362 130.685C190.362 129.273 189.218 128.129 187.806 128.129C186.394 128.129 185.25 129.273 185.25 130.685C185.25 132.097 186.394 133.241 187.806 133.241Z" fill="#0C0C0C"/>
<path d="M222.965 154.707C229.253 155.207 234.887 148.888 235.389 142.6C235.891 136.312 231.07 132.437 224.782 131.935L221.205 135.89L217.558 154.275L222.965 154.707Z" fill="#E98862"/>
<path d="M217.381 144.174C217.381 144.174 217.341 112.908 208.033 110.354C201.833 108.654 185.993 116.547 172.055 112.908C165.955 111.316 159.992 112.452 159.2 115.33C158.886 116.469 156.151 99.6108 166.667 87.6598C175.04 78.1448 200.432 77.0008 211.677 81.0598C242.814 92.2948 225.988 133.394 225.988 133.394L223.853 144.029L217.381 144.174Z" fill="#0C0C0C"/>
<g opacity="0.52">
<path d="M177.166 151.188H177.126C175.099 151.032 171.717 150.544 171.832 149.027C171.932 147.771 176.415 134.475 176.926 132.963C176.973 132.836 177.067 132.733 177.189 132.674C177.31 132.616 177.45 132.608 177.578 132.651C177.706 132.694 177.812 132.786 177.874 132.906C177.935 133.026 177.947 133.166 177.907 133.295C175.916 139.183 172.931 148.253 172.864 149.107C173.036 149.48 175.106 149.994 177.204 150.156C177.336 150.167 177.459 150.229 177.547 150.329C177.635 150.429 177.682 150.558 177.677 150.691C177.672 150.824 177.616 150.95 177.521 151.042C177.426 151.135 177.299 151.188 177.166 151.19V151.188Z" fill="#0C0C0C"/>
</g>
<path d="M171.3 122.675C169.664 122 167.879 121.768 166.125 122.002C165.231 122.113 164.36 122.36 163.54 122.734C162.703 123.11 161.916 123.59 161.199 124.163L161.143 124.205C160.957 124.325 160.732 124.372 160.513 124.337C160.294 124.302 160.096 124.188 159.956 124.016C159.816 123.844 159.745 123.626 159.756 123.404C159.767 123.183 159.859 122.973 160.015 122.816C160.81 122.077 161.695 121.442 162.649 120.925C163.616 120.396 164.658 120.015 165.738 119.795C166.82 119.563 167.929 119.48 169.033 119.55C170.17 119.609 171.293 119.831 172.367 120.208C172.699 120.329 172.971 120.577 173.122 120.897C173.273 121.218 173.291 121.585 173.174 121.919C173.056 122.253 172.812 122.527 172.493 122.682C172.175 122.837 171.808 122.86 171.473 122.747C171.44 122.736 171.409 122.723 171.378 122.71L171.3 122.675Z" fill="#0C0C0C"/>
<path d="M186.3 120.421C188.432 119.688 190.723 119.546 192.929 120.01C194.009 120.23 195.051 120.611 196.018 121.14C196.972 121.657 197.857 122.293 198.651 123.032C198.823 123.185 198.93 123.398 198.949 123.628C198.968 123.857 198.898 124.086 198.753 124.265C198.608 124.444 198.4 124.56 198.171 124.589C197.942 124.619 197.711 124.559 197.526 124.422L197.467 124.378C196.75 123.805 195.964 123.325 195.127 122.949C194.307 122.575 193.435 122.328 192.541 122.216C191.652 122.092 190.751 122.092 189.862 122.216C189.002 122.326 188.161 122.552 187.362 122.887L187.287 122.92C187.125 122.991 186.951 123.03 186.774 123.035C186.598 123.039 186.422 123.008 186.257 122.945C186.092 122.881 185.941 122.785 185.813 122.663C185.685 122.541 185.583 122.395 185.511 122.234C185.439 122.072 185.4 121.898 185.396 121.721C185.392 121.544 185.422 121.369 185.486 121.204C185.55 121.039 185.645 120.888 185.767 120.76C185.889 120.632 186.035 120.529 186.197 120.458C186.237 120.446 186.271 120.433 186.3 120.421Z" fill="#0C0C0C"/>
<path d="M188.49 89.2658C190.382 82.505 188.192 75.9822 183.599 74.6968C179.006 73.4113 173.749 77.85 171.857 84.6109C169.965 91.3718 172.154 97.8946 176.747 99.18C181.34 100.465 186.598 96.0267 188.49 89.2658Z" fill="#0C0C0C"/>
<path d="M228.443 762.261C228.443 762.261 255.043 776.986 249.701 799.977C244.359 822.968 263.808 823.393 263.808 823.393L289.354 737.058L246.22 724.294L228.443 762.261Z" fill="#571BB1"/>
<path d="M126.322 393.77C126.322 393.77 76.908 589.67 90.502 618.67C103.866 647.177 242.257 773.842 242.257 773.842L267.188 727.509L161.217 599.571C161.217 599.571 191.328 530.271 208.687 476.987C219.152 444.867 230.507 416.058 232.179 382.318L126.322 393.77Z" fill="#262626"/>
<path d="M199.202 644.455L184.936 628.208L188.649 723.577L204.55 738.691L199.202 644.455Z" fill="#0A0A0A"/>
<path d="M197.127 510.744C197.127 510.744 199.727 457.506 194.776 467.719C185.844 486.157 183.51 545.6 183.51 545.6L197.127 510.744Z" fill="#0A0A0A"/>
<path d="M215.792 847.832C215.792 847.832 210.937 873 187.376 874.4C163.815 875.8 168.925 894.571 168.925 894.571H258.96V849.587L215.792 847.832Z" fill="#571BB1"/>
<path d="M287.066 388.8C287.066 388.8 287.466 386.946 287.702 397.788C289.097 461.778 262.934 863.888 262.934 863.888L203.771 863.388L187.932 386.2L287.066 388.8Z" fill="#262626"/>
<path d="M114.75 272.348C115.97 286.682 124.906 376.114 126.079 393.77H287.758C288.671 377.846 289.772 308.212 293.236 277.07C296.542 247.354 303.028 231.401 298.274 222.616C290.504 208.257 269.274 201.036 254.798 199.076C245.958 197.876 232.662 197.021 232.662 197.021C232.662 197.021 231.536 219.794 204.693 221.062C168.153 222.786 170.593 197.021 170.412 197.021C157.145 197.021 132.037 200.195 122.401 206.747C100.735 221.482 112.16 241.97 114.75 272.348Z" fill="#571BB1"/>
<path d="M124.327 216.479L86.6781 255.429L52.3921 241.572L16.0521 331.486L15.8271 332.023C13.3327 338.233 13.1055 345.123 15.1854 351.484C17.2653 357.845 21.5195 363.27 27.201 366.807C32.8825 370.344 39.6283 371.766 46.2541 370.824C52.8798 369.882 58.9621 366.637 63.4331 361.657L162.133 251.698L124.327 216.479Z" fill="#571BB1"/>
<path d="M157.476 204.623C157.182 204.157 156.797 203.756 156.343 203.444C155.889 203.132 155.377 202.916 154.837 202.809C154.297 202.701 153.74 202.705 153.202 202.82C152.663 202.935 152.153 203.158 151.704 203.476C150.856 204.122 150.284 205.067 150.105 206.118C149.926 207.17 150.153 208.25 150.74 209.14L152.612 211.861L132.032 198.9C131.607 198.633 131.134 198.451 130.639 198.367C130.144 198.282 129.637 198.296 129.148 198.407C128.658 198.518 128.195 198.725 127.786 199.015C127.376 199.305 127.027 199.673 126.76 200.098C126.492 200.523 126.311 200.996 126.226 201.491C126.141 201.986 126.155 202.492 126.266 202.982C126.378 203.472 126.584 203.934 126.874 204.344C127.164 204.754 127.532 205.103 127.957 205.37L136.527 210.77C136.505 210.789 136.485 210.81 136.468 210.833C135.487 210.465 134.4 210.491 133.438 210.906C132.475 211.321 131.71 212.093 131.304 213.059C130.952 213.949 130.918 214.934 131.208 215.846C131.498 216.758 132.095 217.542 132.897 218.065L134.038 218.838C134.03 218.884 134.03 218.931 134.038 218.977C133.15 218.636 132.17 218.618 131.27 218.926C130.37 219.235 129.608 219.85 129.116 220.665C128.598 221.597 128.454 222.692 128.712 223.726C128.97 224.761 129.611 225.659 130.506 226.239L133.319 228.145C133.257 228.147 133.196 228.165 133.143 228.196C133.089 228.228 133.044 228.272 133.012 228.325C132.978 228.386 132.962 228.455 132.966 228.525C132.107 228.441 131.244 228.633 130.502 229.074C129.76 229.515 129.179 230.182 128.843 230.977C128.491 231.867 128.457 232.852 128.747 233.764C129.037 234.676 129.634 235.46 130.436 235.983L145.667 246.341C149.033 248.622 153.004 249.845 157.07 249.854C161.136 249.863 165.112 248.657 168.489 246.392L179.361 239.098L157.476 204.623Z" fill="#E98862"/>
<g opacity="0.2">
<path d="M145.077 216.577C145.033 216.568 144.991 216.551 144.953 216.528L136.567 211.382C136.525 211.356 136.488 211.321 136.458 211.281C136.429 211.24 136.408 211.194 136.396 211.145C136.373 211.047 136.39 210.944 136.443 210.857C136.496 210.771 136.581 210.71 136.679 210.687C136.778 210.663 136.881 210.68 136.967 210.733L145.352 215.879C145.43 215.925 145.488 215.997 145.518 216.083C145.547 216.168 145.545 216.261 145.512 216.345C145.479 216.429 145.417 216.499 145.338 216.542C145.258 216.584 145.166 216.598 145.078 216.579L145.077 216.577Z" fill="#0C0C0C"/>
<path d="M140.9 223.369C140.855 223.36 140.812 223.343 140.773 223.318L134.214 219.218C134.136 219.162 134.083 219.078 134.065 218.983C134.046 218.889 134.064 218.791 134.115 218.71C134.165 218.628 134.245 218.569 134.337 218.543C134.43 218.517 134.529 218.528 134.614 218.572L141.173 222.672C141.251 222.718 141.311 222.791 141.34 222.877C141.37 222.963 141.367 223.056 141.334 223.141C141.301 223.225 141.238 223.295 141.158 223.337C141.078 223.38 140.985 223.392 140.896 223.372L140.9 223.369Z" fill="#0C0C0C"/>
<path d="M136.412 230.751C136.37 230.742 136.33 230.727 136.293 230.705L133.15 228.843C133.105 228.819 133.065 228.785 133.033 228.745C133.001 228.705 132.977 228.659 132.963 228.609C132.949 228.56 132.946 228.508 132.952 228.457C132.959 228.406 132.976 228.357 133.002 228.313C133.028 228.269 133.063 228.23 133.105 228.2C133.146 228.169 133.193 228.148 133.243 228.136C133.294 228.124 133.345 228.123 133.396 228.132C133.447 228.141 133.495 228.16 133.538 228.188L136.68 230.05C136.756 230.096 136.814 230.168 136.843 230.252C136.871 230.336 136.87 230.428 136.838 230.512C136.806 230.595 136.746 230.664 136.668 230.708C136.59 230.751 136.5 230.766 136.412 230.75V230.751Z" fill="#0C0C0C"/>
</g>
<path d="M90.4591 255.378H122.417C123.242 255.378 124.057 255.195 124.803 254.842C125.548 254.49 126.207 253.976 126.73 253.338C127.253 252.7 127.629 251.954 127.829 251.154C128.03 250.354 128.05 249.519 127.889 248.71L115.245 185.169C114.991 183.895 114.301 182.75 113.294 181.93C112.287 181.111 111.025 180.668 109.726 180.679L78.5821 180.941C77.767 180.948 76.9634 181.134 76.2278 181.485C75.4922 181.836 74.8425 182.344 74.3242 182.973C73.806 183.602 73.4318 184.337 73.2281 185.126C73.0244 185.915 72.9961 186.74 73.1451 187.541L84.9751 250.819C85.213 252.1 85.8917 253.257 86.8933 254.089C87.895 254.922 89.1565 255.378 90.4591 255.378Z" fill="#262626"/>
<path d="M115.075 219.992C114.586 219.257 113.874 218.699 113.043 218.4C112.213 218.101 111.308 218.077 110.463 218.331C110.462 218.279 110.449 218.229 110.424 218.183C110.399 218.138 110.364 218.1 110.321 218.072C110.278 218.043 110.228 218.026 110.177 218.021C110.125 218.016 110.074 218.024 110.026 218.044L112.507 215.569C113.292 214.818 113.761 213.797 113.822 212.713C113.882 211.628 113.529 210.561 112.833 209.728C112.185 209.006 111.304 208.535 110.344 208.398C109.383 208.262 108.406 208.468 107.582 208.981C107.582 208.94 107.55 208.906 107.537 208.866L108.559 207.848C109.261 207.171 109.708 206.273 109.824 205.305C109.94 204.337 109.718 203.359 109.196 202.536C108.858 202.026 108.411 201.598 107.888 201.283C107.364 200.967 106.777 200.771 106.169 200.71C105.56 200.648 104.946 200.723 104.37 200.927C103.794 201.132 103.27 201.462 102.837 201.894L100.48 204.245C100.47 204.231 100.474 204.211 100.462 204.198C100.45 204.185 100.419 204.184 100.401 204.171C100.901 203.381 101.118 202.444 101.016 201.515C100.914 200.585 100.5 199.718 99.8401 199.055C98.2471 197.233 95.4051 198.124 93.8811 199.644L79.5001 213.728L79.9391 213.071L81.9741 207.882C82.3912 206.879 82.4121 205.755 82.0325 204.738C81.6529 203.72 80.9011 202.885 79.9291 202.401C79.4188 202.168 78.8665 202.042 78.3058 202.03C77.7452 202.018 77.188 202.121 76.6682 202.331C76.1484 202.542 75.6769 202.856 75.2825 203.254C74.8881 203.653 74.579 204.128 74.3741 204.65L62.4741 234.088C62.4741 234.088 87.4841 252.188 93.4821 246.205L114.44 225.305C115.142 224.628 115.589 223.73 115.705 222.761C115.821 221.793 115.598 220.815 115.075 219.992Z" fill="#E98862"/>
<g opacity="0.2">
<path d="M86.6792 217.52C86.7503 217.589 86.8458 217.628 86.9452 217.628C87.0446 217.628 87.14 217.589 87.2112 217.52L100.452 204.734C100.49 204.7 100.52 204.658 100.542 204.612C100.563 204.566 100.575 204.516 100.577 204.465C100.578 204.414 100.57 204.363 100.551 204.315C100.533 204.268 100.505 204.224 100.47 204.188C100.434 204.151 100.392 204.122 100.345 204.102C100.298 204.082 100.248 204.071 100.197 204.071C100.146 204.071 100.095 204.081 100.048 204.101C100.001 204.121 99.9588 204.15 99.9232 204.186L86.6822 216.975C86.6462 217.01 86.6174 217.051 86.5974 217.097C86.5775 217.143 86.5668 217.193 86.566 217.243C86.5651 217.293 86.5742 217.342 86.5926 217.389C86.611 217.436 86.6383 217.478 86.6732 217.514L86.6792 217.52Z" fill="#0C0C0C"/>
<path d="M92.1573 223.515C92.2284 223.584 92.3239 223.623 92.4233 223.623C92.5227 223.623 92.6181 223.584 92.6893 223.515L107.466 209.246C107.502 209.211 107.531 209.17 107.551 209.124C107.571 209.078 107.582 209.029 107.583 208.978C107.584 208.928 107.575 208.879 107.557 208.832C107.538 208.785 107.511 208.743 107.476 208.707C107.404 208.637 107.309 208.597 107.209 208.596C107.108 208.594 107.011 208.631 106.937 208.698L92.1603 222.97C92.0878 223.04 92.0462 223.136 92.0445 223.238C92.0428 223.339 92.0812 223.436 92.1513 223.509L92.1573 223.515Z" fill="#0C0C0C"/>
<path d="M98.0531 230.043C98.1242 230.112 98.2197 230.151 98.3191 230.151C98.4184 230.151 98.5139 230.112 98.5851 230.043L110.373 218.66C110.411 218.626 110.441 218.584 110.462 218.538C110.484 218.491 110.496 218.441 110.497 218.39C110.499 218.339 110.49 218.289 110.472 218.241C110.453 218.193 110.425 218.15 110.39 218.113C110.354 218.077 110.312 218.048 110.265 218.028C110.218 218.008 110.168 217.998 110.117 217.998C110.066 217.998 110.015 218.008 109.968 218.028C109.921 218.047 109.879 218.077 109.843 218.113L98.0561 229.5C97.9835 229.57 97.9416 229.667 97.9398 229.768C97.9379 229.869 97.9761 229.966 98.0461 230.039L98.0531 230.043Z" fill="#0C0C0C"/>
</g>
<path d="M58.3932 226.251L104.214 244.133L69.3572 344.772L15.7102 330.764L58.3932 226.251Z" fill="#571BB1"/>
<path d="M213.236 362.605C208.19 362.605 203.234 361.268 198.873 358.73C194.511 356.193 190.9 352.545 188.406 348.158L136.618 251.648L179.749 224.081L212.71 279.891L248.337 218.332L294.6 252.274L238.317 347.71C235.881 352.178 232.296 355.915 227.932 358.532C223.567 361.15 218.583 362.555 213.494 362.6L213.236 362.605Z" fill="#571BB1"/>
<path d="M213.236 362.985C208.124 362.979 203.104 361.622 198.686 359.051C194.267 356.48 190.607 352.787 188.075 348.346L136.282 251.827C136.237 251.742 136.225 251.644 136.249 251.551C136.274 251.459 136.332 251.378 136.413 251.327L179.544 223.76C179.587 223.732 179.635 223.713 179.686 223.705C179.737 223.696 179.788 223.698 179.838 223.711C179.888 223.723 179.934 223.745 179.975 223.775C180.016 223.805 180.051 223.843 180.077 223.887L212.708 279.14L237.147 237.351C237.198 237.264 237.282 237.2 237.38 237.175C237.477 237.149 237.581 237.163 237.669 237.214C237.756 237.266 237.819 237.349 237.845 237.447C237.87 237.545 237.856 237.649 237.805 237.736L213.038 280.084C213.005 280.141 212.957 280.189 212.899 280.222C212.842 280.255 212.776 280.272 212.71 280.272C212.644 280.272 212.579 280.255 212.521 280.222C212.464 280.189 212.416 280.142 212.382 280.085L179.622 224.614L137.122 251.778L188.744 347.978C191.209 352.301 194.773 355.895 199.074 358.397C203.376 360.898 208.262 362.219 213.238 362.224H213.493C218.514 362.177 223.431 360.79 227.737 358.206C232.042 355.623 235.58 351.937 237.984 347.529L288.389 261.592C288.44 261.505 288.524 261.441 288.622 261.416C288.719 261.39 288.823 261.404 288.911 261.456C288.998 261.507 289.061 261.59 289.087 261.688C289.112 261.786 289.098 261.89 289.047 261.977L238.647 347.903C236.177 352.428 232.544 356.211 228.124 358.862C223.703 361.513 218.655 362.936 213.5 362.984L213.236 362.985Z" fill="#0C0C0C"/>
<path d="M224.933 301.9C224.866 301.9 224.799 301.882 224.741 301.848C224.683 301.814 224.635 301.765 224.602 301.706L212.378 280.075C212.332 279.987 212.321 279.885 212.349 279.79C212.377 279.694 212.441 279.614 212.527 279.565C212.614 279.516 212.716 279.503 212.811 279.528C212.907 279.553 212.99 279.615 213.041 279.7L225.265 301.331C225.315 301.419 225.328 301.523 225.301 301.621C225.274 301.718 225.209 301.801 225.121 301.851C225.064 301.883 224.999 301.9 224.933 301.9Z" fill="#0C0C0C"/>
<path d="M79.0792 319.671C79.0189 319.671 78.9594 319.657 78.9056 319.63C78.8519 319.603 78.8055 319.563 78.7702 319.514C78.735 319.465 78.712 319.408 78.7031 319.349C78.6942 319.289 78.6997 319.228 78.7192 319.171L104.649 244.305C104.666 244.258 104.691 244.214 104.724 244.177C104.758 244.139 104.798 244.109 104.843 244.087C104.888 244.065 104.937 244.052 104.987 244.049C105.037 244.047 105.087 244.054 105.134 244.07C105.181 244.086 105.225 244.112 105.262 244.145C105.3 244.178 105.33 244.219 105.352 244.264C105.374 244.309 105.387 244.358 105.39 244.408C105.393 244.458 105.386 244.508 105.369 244.555L79.4392 319.42C79.4124 319.494 79.3634 319.558 79.299 319.602C79.2345 319.647 79.1578 319.671 79.0792 319.671Z" fill="#0C0C0C"/>
<path d="M116.625 302.9C116.529 302.9 116.437 302.863 116.366 302.798C116.296 302.732 116.253 302.643 116.246 302.547L114.746 282.014C114.739 281.913 114.772 281.814 114.838 281.738C114.904 281.661 114.997 281.614 115.098 281.607C115.198 281.601 115.297 281.635 115.373 281.701C115.449 281.766 115.497 281.859 115.506 281.959L117.006 302.491C117.013 302.592 116.98 302.692 116.914 302.768C116.848 302.845 116.754 302.892 116.653 302.899L116.625 302.9Z" fill="#0C0C0C"/>
<path d="M826.493 895.636H63.627C63.5247 895.64 63.4227 895.623 63.327 895.586C63.2314 895.549 63.1441 895.494 63.0704 895.423C62.9967 895.352 62.9381 895.267 62.8981 895.172C62.858 895.078 62.8374 894.977 62.8374 894.874C62.8374 894.772 62.858 894.671 62.8981 894.576C62.9381 894.482 62.9967 894.397 63.0704 894.326C63.1441 894.255 63.2314 894.199 63.327 894.163C63.4227 894.126 63.5247 894.109 63.627 894.113H826.493C826.595 894.109 826.697 894.126 826.793 894.163C826.889 894.199 826.976 894.255 827.05 894.326C827.123 894.397 827.182 894.482 827.222 894.576C827.262 894.671 827.283 894.772 827.283 894.874C827.283 894.977 827.262 895.078 827.222 895.172C827.182 895.267 827.123 895.352 827.05 895.423C826.976 895.494 826.889 895.549 826.793 895.586C826.697 895.623 826.595 895.64 826.493 895.636Z" fill="#292A2E"/>
<path d="M625.568 61.8711H332.299C308.038 61.8711 288.371 81.5383 288.371 105.799V795.207C288.371 819.468 308.038 839.135 332.299 839.135H625.568C649.829 839.135 669.496 819.468 669.496 795.207V105.799C669.496 81.5383 649.829 61.8711 625.568 61.8711Z" fill="#292A2E"/>
<path d="M625.431 75.5889H332.438C315.779 75.5889 302.274 89.0938 302.274 105.753V794.23C302.274 810.889 315.779 824.394 332.438 824.394H625.431C642.09 824.394 655.595 810.889 655.595 794.23V105.753C655.595 89.0938 642.09 75.5889 625.431 75.5889Z" fill="white"/>
<path d="M406.572 69.917H551.3V84.892C551.3 87.0191 550.881 89.1254 550.067 91.0906C549.253 93.0557 548.059 94.8412 546.555 96.345C545.05 97.8488 543.264 99.0415 541.299 99.855C539.334 100.668 537.227 101.087 535.1 101.086H422.766C418.471 101.086 414.352 99.3798 411.315 96.3429C408.278 93.3059 406.572 89.1869 406.572 84.892V69.917Z" fill="#292A2E"/>
<path d="M568.071 243.1H347.161L319.109 264.111V153.378C319.109 151.257 319.527 149.156 320.339 147.196C321.151 145.236 322.341 143.455 323.841 141.954C325.341 140.454 327.122 139.264 329.083 138.453C331.043 137.641 333.144 137.223 335.265 137.223H568.071C570.193 137.223 572.294 137.641 574.254 138.453C576.214 139.264 577.995 140.454 579.495 141.954C580.995 143.455 582.185 145.236 582.997 147.196C583.809 149.156 584.227 151.257 584.227 153.378V226.943C584.227 229.065 583.81 231.166 582.998 233.126C582.186 235.087 580.996 236.868 579.496 238.368C577.996 239.868 576.214 241.059 574.254 241.871C572.294 242.682 570.193 243.1 568.071 243.1Z" fill="#571BB1"/>
<path opacity="0.49" d="M584.227 243.098H347.161L319.109 264.109V137.223H584.227V243.098Z" fill="white"/>
<path d="M564.426 160.834H338.91C338.724 160.834 338.545 160.76 338.413 160.628C338.282 160.497 338.208 160.318 338.208 160.132C338.208 159.945 338.282 159.767 338.413 159.635C338.545 159.503 338.724 159.429 338.91 159.429H564.426C564.612 159.429 564.791 159.503 564.923 159.635C565.055 159.767 565.129 159.945 565.129 160.132C565.129 160.318 565.055 160.497 564.923 160.628C564.791 160.76 564.612 160.834 564.426 160.834Z" fill="white"/>
<path d="M564.426 181.919H338.91C338.724 181.919 338.545 181.845 338.413 181.713C338.282 181.582 338.208 181.403 338.208 181.217C338.208 181.03 338.282 180.852 338.413 180.72C338.545 180.588 338.724 180.514 338.91 180.514H564.426C564.612 180.514 564.791 180.588 564.923 180.72C565.055 180.852 565.129 181.03 565.129 181.217C565.129 181.403 565.055 181.582 564.923 181.713C564.791 181.845 564.612 181.919 564.426 181.919Z" fill="white"/>
<path d="M564.426 203H338.91C338.724 203 338.545 202.926 338.413 202.794C338.281 202.663 338.207 202.484 338.207 202.297C338.207 202.111 338.281 201.932 338.413 201.8C338.545 201.668 338.724 201.594 338.91 201.594H564.426C564.613 201.594 564.791 201.668 564.923 201.8C565.055 201.932 565.129 202.111 565.129 202.297C565.129 202.484 565.055 202.663 564.923 202.794C564.791 202.926 564.613 203 564.426 203Z" fill="white"/>
<path d="M451.974 224.089H338.91C338.724 224.089 338.545 224.015 338.413 223.883C338.281 223.751 338.207 223.573 338.207 223.386C338.207 223.2 338.281 223.021 338.413 222.889C338.545 222.757 338.724 222.683 338.91 222.683H451.974C452.16 222.683 452.339 222.757 452.471 222.889C452.603 223.021 452.677 223.2 452.677 223.386C452.677 223.573 452.603 223.751 452.471 223.883C452.339 224.015 452.16 224.089 451.974 224.089Z" fill="white"/>
<path d="M422.018 694.09H607.787L635.839 715.1V625.455C635.839 621.171 634.137 617.062 631.107 614.032C628.077 611.002 623.968 609.3 619.683 609.3H422.018C417.733 609.3 413.624 611.002 410.594 614.032C407.564 617.062 405.862 621.171 405.862 625.456V677.935C405.862 682.22 407.565 686.329 410.594 689.359C413.624 692.388 417.733 694.09 422.018 694.09Z" fill="#571BB1"/>
<path opacity="0.11" d="M422.018 694.09H607.787L635.839 715.1V625.455C635.839 621.171 634.137 617.062 631.107 614.032C628.077 611.002 623.968 609.3 619.683 609.3H422.018C417.733 609.3 413.624 611.002 410.594 614.032C407.564 617.062 405.862 621.171 405.862 625.456V677.935C405.862 682.22 407.565 686.329 410.594 689.359C413.624 692.388 417.733 694.09 422.018 694.09Z" fill="white"/>
<path d="M616.038 632.911H425.663C425.477 632.911 425.299 632.838 425.168 632.706C425.037 632.575 424.963 632.397 424.963 632.211C424.963 632.026 425.037 631.848 425.168 631.716C425.299 631.585 425.477 631.511 425.663 631.511H616.038C616.224 631.511 616.402 631.585 616.533 631.716C616.664 631.848 616.738 632.026 616.738 632.211C616.738 632.397 616.664 632.575 616.533 632.706C616.402 632.838 616.224 632.911 616.038 632.911Z" fill="white"/>
<path d="M616.038 654H425.663C425.477 654 425.298 653.926 425.166 653.794C425.034 653.662 424.96 653.484 424.96 653.297C424.96 653.111 425.034 652.932 425.166 652.8C425.298 652.668 425.477 652.594 425.663 652.594H616.038C616.224 652.594 616.403 652.668 616.535 652.8C616.667 652.932 616.741 653.111 616.741 653.297C616.741 653.484 616.667 653.662 616.535 653.794C616.403 653.926 616.224 654 616.038 654Z" fill="white"/>
<path d="M616.038 675.081H502.974C502.788 675.081 502.609 675.007 502.477 674.875C502.345 674.744 502.271 674.565 502.271 674.378C502.271 674.192 502.345 674.013 502.477 673.881C502.609 673.749 502.788 673.675 502.974 673.675H616.038C616.224 673.675 616.403 673.749 616.535 673.881C616.667 674.013 616.741 674.192 616.741 674.378C616.741 674.565 616.667 674.744 616.535 674.875C616.403 675.007 616.224 675.081 616.038 675.081Z" fill="white"/>
<path d="M422.018 404.966H607.787L635.839 425.977V316.331C635.839 312.046 634.137 307.937 631.107 304.907C628.077 301.877 623.968 300.175 619.683 300.175H422.018C417.733 300.175 413.624 301.877 410.594 304.907C407.564 307.937 405.862 312.046 405.862 316.331V388.81C405.862 393.095 407.564 397.204 410.594 400.234C413.624 403.264 417.733 404.966 422.018 404.966Z" fill="#571BB1"/>
<path opacity="0.11" d="M422.018 404.966H607.787L635.839 425.977V316.331C635.839 312.046 634.137 307.937 631.107 304.907C628.077 301.877 623.968 300.175 619.683 300.175H422.018C417.733 300.175 413.624 301.877 410.594 304.907C407.564 307.937 405.862 312.046 405.862 316.331V388.81C405.862 393.095 407.564 397.204 410.594 400.234C413.624 403.264 417.733 404.966 422.018 404.966Z" fill="white"/>
<path d="M616.038 343.787H425.663C425.477 343.787 425.299 343.713 425.168 343.582C425.037 343.451 424.963 343.273 424.963 343.087C424.963 342.902 425.037 342.723 425.168 342.592C425.299 342.461 425.477 342.387 425.663 342.387H616.038C616.13 342.387 616.221 342.405 616.306 342.44C616.391 342.476 616.468 342.527 616.533 342.592C616.598 342.657 616.65 342.734 616.685 342.819C616.72 342.904 616.738 342.995 616.738 343.087C616.738 343.179 616.72 343.27 616.685 343.355C616.65 343.44 616.598 343.517 616.533 343.582C616.468 343.647 616.391 343.699 616.306 343.734C616.221 343.769 616.13 343.787 616.038 343.787Z" fill="white"/>
<path d="M616.038 323.787H425.663C425.477 323.787 425.299 323.713 425.168 323.582C425.037 323.451 424.963 323.273 424.963 323.087C424.963 322.902 425.037 322.723 425.168 322.592C425.299 322.461 425.477 322.387 425.663 322.387H616.038C616.224 322.387 616.402 322.461 616.533 322.592C616.664 322.723 616.738 322.902 616.738 323.087C616.738 323.273 616.664 323.451 616.533 323.582C616.402 323.713 616.224 323.787 616.038 323.787Z" fill="white"/>
<path d="M616.038 364.872H425.663C425.477 364.872 425.298 364.798 425.166 364.666C425.034 364.535 424.96 364.356 424.96 364.169C424.96 363.983 425.034 363.804 425.166 363.672C425.298 363.54 425.477 363.466 425.663 363.466H616.038C616.224 363.466 616.403 363.54 616.535 363.672C616.667 363.804 616.741 363.983 616.741 364.169C616.741 364.356 616.667 364.535 616.535 364.666C616.403 364.798 616.224 364.872 616.038 364.872Z" fill="white"/>
<path d="M616.038 385.957H502.974C502.788 385.957 502.609 385.883 502.477 385.751C502.345 385.62 502.271 385.441 502.271 385.254C502.271 385.068 502.345 384.889 502.477 384.757C502.609 384.625 502.788 384.551 502.974 384.551H616.038C616.224 384.551 616.403 384.625 616.535 384.757C616.667 384.889 616.741 385.068 616.741 385.254C616.741 385.441 616.667 385.62 616.535 385.751C616.403 385.883 616.224 385.957 616.038 385.957Z" fill="white"/>
<path d="M568.071 552.645H347.161L319.109 573.656V481.9C319.109 477.615 320.811 473.506 323.841 470.476C326.871 467.446 330.98 465.744 335.265 465.744H568.071C572.356 465.744 576.465 467.446 579.495 470.476C582.525 473.506 584.227 477.615 584.227 481.9V536.49C584.227 538.612 583.809 540.713 582.997 542.673C582.185 544.633 580.995 546.414 579.495 547.914C577.995 549.414 576.214 550.604 574.254 551.416C572.294 552.228 570.193 552.645 568.071 552.645Z" fill="#571BB1"/>
<path opacity="0.49" d="M584.227 552.645H347.161L319.109 573.656V465.746H584.227V552.645Z" fill="white"/>
<path d="M564.426 489.358H338.91C338.724 489.358 338.545 489.284 338.413 489.152C338.281 489.02 338.207 488.842 338.207 488.655C338.207 488.469 338.281 488.29 338.413 488.158C338.545 488.026 338.724 487.952 338.91 487.952H564.426C564.613 487.952 564.791 488.026 564.923 488.158C565.055 488.29 565.129 488.469 565.129 488.655C565.129 488.842 565.055 489.02 564.923 489.152C564.791 489.284 564.613 489.358 564.426 489.358Z" fill="white"/>
<path d="M564.426 510.443H338.91C338.724 510.443 338.545 510.369 338.413 510.237C338.281 510.105 338.207 509.927 338.207 509.74C338.207 509.554 338.281 509.375 338.413 509.243C338.545 509.111 338.724 509.037 338.91 509.037H564.426C564.613 509.037 564.791 509.111 564.923 509.243C565.055 509.375 565.129 509.554 565.129 509.74C565.129 509.927 565.055 510.105 564.923 510.237C564.791 510.369 564.613 510.443 564.426 510.443Z" fill="white"/>
<path d="M451.974 531.933H338.91C338.725 531.933 338.547 531.859 338.415 531.728C338.284 531.597 338.21 531.419 338.21 531.233C338.21 531.048 338.284 530.869 338.415 530.738C338.547 530.607 338.725 530.533 338.91 530.533H451.974C452.16 530.533 452.338 530.607 452.469 530.738C452.6 530.869 452.674 531.048 452.674 531.233C452.674 531.419 452.6 531.597 452.469 531.728C452.338 531.859 452.16 531.933 451.974 531.933Z" fill="white"/>
<path d="M626.447 792.168H329.91C325.77 792.167 321.799 790.522 318.872 787.595C315.945 784.667 314.3 780.696 314.3 776.556V760.905C314.3 756.764 315.945 752.793 318.873 749.866C321.801 746.938 325.771 745.293 329.912 745.293H626.447C630.588 745.293 634.559 746.938 637.486 749.866C640.414 752.793 642.059 756.764 642.059 760.905V776.556C642.059 780.697 640.414 784.667 637.486 787.595C634.559 790.523 630.588 792.168 626.447 792.168ZM329.91 746.7C328.044 746.7 326.197 747.067 324.473 747.78C322.749 748.494 321.183 749.54 319.863 750.859C318.543 752.178 317.497 753.744 316.782 755.468C316.068 757.192 315.7 759.039 315.7 760.905V776.556C315.7 780.324 317.197 783.937 319.862 786.601C322.526 789.265 326.139 790.762 329.907 790.762H626.447C630.215 790.762 633.828 789.265 636.492 786.601C639.156 783.937 640.653 780.324 640.653 776.556V760.905C640.653 757.137 639.156 753.524 636.492 750.86C633.828 748.196 630.215 746.7 626.447 746.7H329.91Z" fill="#571BB1"/>
<path d="M601.279 758.635L606.727 767.732L627.822 758.57L608.807 771.206L615.301 782.049L631.801 756.679L601.279 758.635Z" fill="#3FB091"/>
</g>
<defs>
<clipPath id="clip0_23_3565">
<rect width="848.181" height="895.667" fill="white"/>
</clipPath>
</defs>
</svg>
