<svg width="383" height="348" viewBox="0 0 383 348" fill="none" xmlns="http://www.w3.org/2000/svg">
<g clip-path="url(#clip0_23_3681)">
<path d="M383 348H0C4.19663 334.41 11.9465 322.877 22.8718 319.456C38.854 314.458 55.7668 328.198 71.7131 323.032C80.7731 320.101 87.9051 311.555 95.4001 304.458C123.673 277.685 162.422 269.772 195.879 283.943C213.368 291.347 229.304 304.293 247.22 309.8C270.386 316.921 294.612 311.016 318.435 310.043C341.637 309.097 374.881 321.107 383 348Z" fill="#F3F5FD"/>
<path d="M326.094 314.562C330.727 313.175 334.216 308.85 335.601 304.034C336.987 299.217 336.499 293.991 335.146 289.164C334.042 285.225 332.367 281.418 331.955 277.337C330.581 263.747 343.219 249.861 337.271 237.687C335.348 233.749 331.627 230.672 330.963 226.308C330.414 222.698 332.118 219.191 332.966 215.645C334.132 210.765 333.541 205.228 330.506 201.32C327.471 197.412 321.736 195.705 317.553 198.207C312.083 201.481 311.609 209.561 313.015 215.973C314.421 222.386 317.026 228.983 315.308 235.312C313.671 241.345 308.343 245.888 307.388 252.078C306.592 257.224 309.002 262.241 310.062 267.335C311.725 275.341 310.033 283.64 309.96 291.831C309.887 300.023 312.101 309.21 326.094 314.562Z" fill="#8DDBE0"/>
<path opacity="0.1" d="M326.094 314.562C330.727 313.175 334.216 308.85 335.601 304.034C336.987 299.217 336.499 293.991 335.146 289.164C334.042 285.225 332.367 281.418 331.955 277.337C330.581 263.747 343.219 249.861 337.271 237.687C335.348 233.749 331.627 230.672 330.963 226.308C330.414 222.698 332.118 219.191 332.966 215.645C334.132 210.765 333.541 205.228 330.506 201.32C327.471 197.412 321.736 195.705 317.553 198.207C312.083 201.481 311.609 209.561 313.015 215.973C314.421 222.386 317.026 228.983 315.308 235.312C313.671 241.345 308.343 245.888 307.388 252.078C306.592 257.224 309.002 262.241 310.062 267.335C311.725 275.341 310.033 283.64 309.96 291.831C309.887 300.023 312.101 309.21 326.094 314.562Z" fill="black"/>
<path d="M333.244 315.34C336.002 314.426 338.476 312.763 340.413 310.521C342.351 308.28 343.681 305.541 344.269 302.586C345.176 297.711 344.062 292.236 346.619 288.047C350.085 282.372 353.638 281.731 357.953 276.729C364.586 269.039 364.819 265.632 364.381 251.39C364.196 245.366 372.169 238.572 369.361 232.782C366.887 227.683 359.367 227.657 355.103 231.245C350.839 234.833 348.966 240.584 347.108 245.962C345.249 251.34 342.907 257.026 338.197 259.944C335.372 261.694 331.674 262.503 330.114 265.519C328.862 267.942 329.492 270.901 329.996 273.604C331.262 280.398 330.945 288.687 325.479 292.611C323.012 294.382 319.782 294.992 317.755 297.29C315.75 299.562 315.427 302.928 315.563 306.013C315.83 311.944 317.396 317.732 320.142 322.932" fill="#8DDBE0"/>
<path d="M326.651 320.072C331.573 314.206 332.268 304.914 328.28 298.322C324.934 292.79 318.697 288.981 317.388 282.585C316.221 276.888 319.455 271.001 318.487 265.264C317.434 259.025 311.909 254.931 307.521 250.553C306.379 249.489 305.396 248.251 304.606 246.882C302.676 243.258 303.214 238.812 302.559 234.724C301.304 226.891 295.119 219.948 287.609 218.653C281.024 217.517 276.306 221.464 276.306 228.732C276.306 237.343 282.49 241.032 285.644 244.933C290.175 250.577 292.58 257.75 292.408 265.11C292.186 273.329 288.83 282.082 292.415 289.405C295.045 294.779 300.664 297.645 305.079 301.545C308.415 304.527 311.131 308.189 313.059 312.307C314.987 316.425 316.087 320.911 316.29 325.488" fill="#8DDBE0"/>
<path d="M345.126 306.572H305.412V348H345.126V306.572Z" fill="#0CBC8B"/>
<path opacity="0.42" d="M345.126 314.65H305.412V322.736H345.126V314.65Z" fill="white"/>
<path d="M263.833 5.23584H124.23C113.54 5.23584 104.874 14.2762 104.874 25.428V322.572C104.874 333.724 113.54 342.764 124.23 342.764H263.833C274.524 342.764 283.19 333.724 283.19 322.572V25.428C283.19 14.2762 274.524 5.23584 263.833 5.23584Z" fill="white"/>
<path d="M263.833 348H124.229C117.767 347.992 111.571 345.311 107.001 340.543C102.431 335.776 99.8603 329.313 99.8528 322.571V25.4286C99.8603 18.6867 102.431 12.2232 107.001 7.45612C111.571 2.689 117.768 0.0075388 124.23 0L263.834 0C270.297 0.00785287 276.492 2.68945 281.062 7.45654C285.632 12.2236 288.203 18.6869 288.21 25.4286V322.571C288.203 329.313 285.632 335.777 281.062 340.544C276.492 345.311 270.296 347.992 263.833 348ZM124.23 10.4717C120.43 10.4767 116.786 12.0539 114.099 14.8574C111.411 17.6608 109.899 21.4616 109.895 25.4262V322.571C109.899 326.536 111.411 330.337 114.099 333.14C116.786 335.944 120.43 337.521 124.23 337.526H263.834C267.634 337.521 271.278 335.944 273.965 333.14C276.653 330.337 278.165 326.536 278.17 322.571V25.4286C278.165 21.464 276.653 17.6633 273.965 14.8599C271.278 12.0565 267.634 10.4793 263.834 10.4741L124.23 10.4717Z" fill="#EEE8FE"/>
<path d="M163.465 5.23584H224.599V17.6083C224.599 18.8246 224.369 20.0291 223.923 21.1528C223.477 22.2765 222.822 23.2975 221.998 24.1576C221.173 25.0176 220.195 25.6998 219.117 26.1652C218.04 26.6306 216.886 26.8701 215.72 26.87H172.342C169.988 26.87 167.729 25.8943 166.064 24.1574C164.399 22.4204 163.464 20.0647 163.464 17.6083V5.23584H163.465Z" fill="#EEE8FE"/>
<path d="M165.719 76.6358C169.45 76.6358 172.475 73.4804 172.475 69.5881C172.475 65.6959 169.45 62.5405 165.719 62.5405C161.988 62.5405 158.963 65.6959 158.963 69.5881C158.963 73.4804 161.988 76.6358 165.719 76.6358Z" fill="#DFC9FF"/>
<path d="M146.694 76.6358C150.425 76.6358 153.45 73.4804 153.45 69.5881C153.45 65.6959 150.425 62.5405 146.694 62.5405C142.963 62.5405 139.938 65.6959 139.938 69.5881C139.938 73.4804 142.963 76.6358 146.694 76.6358Z" fill="#262626"/>
<path d="M127.669 76.6358C131.401 76.6358 134.425 73.4804 134.425 69.5881C134.425 65.6959 131.401 62.5405 127.669 62.5405C123.938 62.5405 120.913 65.6959 120.913 69.5881C120.913 73.4804 123.938 76.6358 127.669 76.6358Z" fill="#DFC9FF"/>
<path d="M184.744 76.6358C188.475 76.6358 191.5 73.4804 191.5 69.5881C191.5 65.6959 188.475 62.5405 184.744 62.5405C181.013 62.5405 177.988 65.6959 177.988 69.5881C177.988 73.4804 181.013 76.6358 184.744 76.6358Z" fill="#DFC9FF"/>
<path d="M203.769 76.6358C207.5 76.6358 210.525 73.4804 210.525 69.5881C210.525 65.6959 207.5 62.5405 203.769 62.5405C200.038 62.5405 197.013 65.6959 197.013 69.5881C197.013 73.4804 200.038 76.6358 203.769 76.6358Z" fill="#EEE8FE"/>
<path d="M165.719 95.9951C169.45 95.9951 172.475 92.8398 172.475 88.9475C172.475 85.0552 169.45 81.8999 165.719 81.8999C161.988 81.8999 158.963 85.0552 158.963 88.9475C158.963 92.8398 161.988 95.9951 165.719 95.9951Z" fill="#DFC9FF"/>
<path d="M146.694 95.9951C150.425 95.9951 153.45 92.8398 153.45 88.9475C153.45 85.0552 150.425 81.8999 146.694 81.8999C142.963 81.8999 139.938 85.0552 139.938 88.9475C139.938 92.8398 142.963 95.9951 146.694 95.9951Z" fill="#EEE8FE"/>
<path d="M127.669 95.9951C131.401 95.9951 134.425 92.8398 134.425 88.9475C134.425 85.0552 131.401 81.8999 127.669 81.8999C123.938 81.8999 120.913 85.0552 120.913 88.9475C120.913 92.8398 123.938 95.9951 127.669 95.9951Z" fill="#EEE8FE"/>
<path d="M184.744 95.9951C188.475 95.9951 191.5 92.8398 191.5 88.9475C191.5 85.0552 188.475 81.8999 184.744 81.8999C181.013 81.8999 177.988 85.0552 177.988 88.9475C177.988 92.8398 181.013 95.9951 184.744 95.9951Z" fill="#0CBC8B"/>
<path d="M203.769 95.9951C207.5 95.9951 210.525 92.8398 210.525 88.9475C210.525 85.0552 207.5 81.8999 203.769 81.8999C200.038 81.8999 197.013 85.0552 197.013 88.9475C197.013 92.8398 200.038 95.9951 203.769 95.9951Z" fill="#DFC9FF"/>
<path d="M165.719 115.355C169.45 115.355 172.475 112.2 172.475 108.307C172.475 104.415 169.45 101.26 165.719 101.26C161.988 101.26 158.963 104.415 158.963 108.307C158.963 112.2 161.988 115.355 165.719 115.355Z" fill="#0CBC8B"/>
<path d="M146.694 115.355C150.425 115.355 153.45 112.2 153.45 108.307C153.45 104.415 150.425 101.26 146.694 101.26C142.963 101.26 139.938 104.415 139.938 108.307C139.938 112.2 142.963 115.355 146.694 115.355Z" fill="#DFC9FF"/>
<path d="M127.669 115.355C131.401 115.355 134.425 112.2 134.425 108.307C134.425 104.415 131.401 101.26 127.669 101.26C123.938 101.26 120.913 104.415 120.913 108.307C120.913 112.2 123.938 115.355 127.669 115.355Z" fill="#262626"/>
<path d="M184.744 115.355C188.475 115.355 191.5 112.2 191.5 108.307C191.5 104.415 188.475 101.26 184.744 101.26C181.013 101.26 177.988 104.415 177.988 108.307C177.988 112.2 181.013 115.355 184.744 115.355Z" fill="#262626"/>
<path d="M203.769 115.355C207.5 115.355 210.525 112.2 210.525 108.307C210.525 104.415 207.5 101.26 203.769 101.26C200.038 101.26 197.013 104.415 197.013 108.307C197.013 112.2 200.038 115.355 203.769 115.355Z" fill="#0CBC8B"/>
<path d="M165.719 134.714C169.45 134.714 172.475 131.559 172.475 127.667C172.475 123.774 169.45 120.619 165.719 120.619C161.988 120.619 158.963 123.774 158.963 127.667C158.963 131.559 161.988 134.714 165.719 134.714Z" fill="#262626"/>
<path d="M146.694 134.714C150.425 134.714 153.45 131.559 153.45 127.667C153.45 123.774 150.425 120.619 146.694 120.619C142.963 120.619 139.938 123.774 139.938 127.667C139.938 131.559 142.963 134.714 146.694 134.714Z" fill="#EEE8FE"/>
<path d="M127.669 134.714C131.401 134.714 134.425 131.559 134.425 127.667C134.425 123.774 131.401 120.619 127.669 120.619C123.938 120.619 120.913 123.774 120.913 127.667C120.913 131.559 123.938 134.714 127.669 134.714Z" fill="#0CBC8B"/>
<path d="M184.744 134.714C188.475 134.714 191.5 131.559 191.5 127.667C191.5 123.774 188.475 120.619 184.744 120.619C181.013 120.619 177.988 123.774 177.988 127.667C177.988 131.559 181.013 134.714 184.744 134.714Z" fill="#DFC9FF"/>
<path d="M203.769 134.714C207.5 134.714 210.525 131.559 210.525 127.667C210.525 123.774 207.5 120.619 203.769 120.619C200.038 120.619 197.013 123.774 197.013 127.667C197.013 131.559 200.038 134.714 203.769 134.714Z" fill="#EEE8FE"/>
<path d="M165.719 154.074C169.45 154.074 172.475 150.919 172.475 147.027C172.475 143.134 169.45 139.979 165.719 139.979C161.988 139.979 158.963 143.134 158.963 147.027C158.963 150.919 161.988 154.074 165.719 154.074Z" fill="#DFC9FF"/>
<path d="M146.694 154.074C150.425 154.074 153.45 150.919 153.45 147.027C153.45 143.134 150.425 139.979 146.694 139.979C142.963 139.979 139.938 143.134 139.938 147.027C139.938 150.919 142.963 154.074 146.694 154.074Z" fill="#262626"/>
<path d="M127.669 154.074C131.401 154.074 134.425 150.919 134.425 147.027C134.425 143.134 131.401 139.979 127.669 139.979C123.938 139.979 120.913 143.134 120.913 147.027C120.913 150.919 123.938 154.074 127.669 154.074Z" fill="#DFC9FF"/>
<path d="M184.744 154.074C188.475 154.074 191.5 150.919 191.5 147.027C191.5 143.134 188.475 139.979 184.744 139.979C181.013 139.979 177.988 143.134 177.988 147.027C177.988 150.919 181.013 154.074 184.744 154.074Z" fill="#0CBC8B"/>
<path d="M203.769 154.074C207.5 154.074 210.525 150.919 210.525 147.027C210.525 143.134 207.5 139.979 203.769 139.979C200.038 139.979 197.013 143.134 197.013 147.027C197.013 150.919 200.038 154.074 203.769 154.074Z" fill="#262626"/>
<path d="M165.719 173.434C169.45 173.434 172.475 170.278 172.475 166.386C172.475 162.494 169.45 159.338 165.719 159.338C161.988 159.338 158.963 162.494 158.963 166.386C158.963 170.278 161.988 173.434 165.719 173.434Z" fill="#DFC9FF"/>
<path d="M184.744 173.434C188.475 173.434 191.5 170.278 191.5 166.386C191.5 162.494 188.475 159.338 184.744 159.338C181.013 159.338 177.988 162.494 177.988 166.386C177.988 170.278 181.013 173.434 184.744 173.434Z" fill="#EEE8FE"/>
<path d="M203.769 173.434C207.5 173.434 210.525 170.278 210.525 166.386C210.525 162.494 207.5 159.338 203.769 159.338C200.038 159.338 197.013 162.494 197.013 166.386C197.013 170.278 200.038 173.434 203.769 173.434Z" fill="#EEE8FE"/>
<path d="M146.694 173.434C150.425 173.434 153.45 170.278 153.45 166.386C153.45 162.494 150.425 159.338 146.694 159.338C142.963 159.338 139.938 162.494 139.938 166.386C139.938 170.278 142.963 173.434 146.694 173.434Z" fill="#0CBC8B"/>
<path d="M127.669 173.434C131.401 173.434 134.425 170.278 134.425 166.386C134.425 162.494 131.401 159.338 127.669 159.338C123.938 159.338 120.913 162.494 120.913 166.386C120.913 170.278 123.938 173.434 127.669 173.434Z" fill="#DFC9FF"/>
<path d="M165.719 192.793C169.45 192.793 172.475 189.637 172.475 185.745C172.475 181.853 169.45 178.697 165.719 178.697C161.988 178.697 158.963 181.853 158.963 185.745C158.963 189.637 161.988 192.793 165.719 192.793Z" fill="#0CBC8B"/>
<path d="M184.744 192.793C188.475 192.793 191.5 189.637 191.5 185.745C191.5 181.853 188.475 178.697 184.744 178.697C181.013 178.697 177.988 181.853 177.988 185.745C177.988 189.637 181.013 192.793 184.744 192.793Z" fill="#DFC9FF"/>
<path d="M203.769 192.793C207.5 192.793 210.525 189.637 210.525 185.745C210.525 181.853 207.5 178.697 203.769 178.697C200.038 178.697 197.013 181.853 197.013 185.745C197.013 189.637 200.038 192.793 203.769 192.793Z" fill="#262626"/>
<path d="M146.694 192.793C150.425 192.793 153.45 189.637 153.45 185.745C153.45 181.853 150.425 178.697 146.694 178.697C142.963 178.697 139.938 181.853 139.938 185.745C139.938 189.637 142.963 192.793 146.694 192.793Z" fill="#262626"/>
<path d="M127.669 192.793C131.401 192.793 134.425 189.637 134.425 185.745C134.425 181.853 131.401 178.697 127.669 178.697C123.938 178.697 120.913 181.853 120.913 185.745C120.913 189.637 123.938 192.793 127.669 192.793Z" fill="#0CBC8B"/>
<path d="M222.344 76.6358C226.075 76.6358 229.1 73.4804 229.1 69.5881C229.1 65.6959 226.075 62.5405 222.344 62.5405C218.613 62.5405 215.588 65.6959 215.588 69.5881C215.588 73.4804 218.613 76.6358 222.344 76.6358Z" fill="#0CBC8B"/>
<path d="M241.369 76.6358C245.1 76.6358 248.125 73.4804 248.125 69.5881C248.125 65.6959 245.1 62.5405 241.369 62.5405C237.638 62.5405 234.613 65.6959 234.613 69.5881C234.613 73.4804 237.638 76.6358 241.369 76.6358Z" fill="#262626"/>
<path d="M260.394 76.6358C264.126 76.6358 267.15 73.4804 267.15 69.5881C267.15 65.6959 264.126 62.5405 260.394 62.5405C256.663 62.5405 253.638 65.6959 253.638 69.5881C253.638 73.4804 256.663 76.6358 260.394 76.6358Z" fill="#DFC9FF"/>
<path d="M222.344 95.9951C226.075 95.9951 229.1 92.8398 229.1 88.9475C229.1 85.0552 226.075 81.8999 222.344 81.8999C218.613 81.8999 215.588 85.0552 215.588 88.9475C215.588 92.8398 218.613 95.9951 222.344 95.9951Z" fill="#DFC9FF"/>
<path d="M241.369 95.9951C245.1 95.9951 248.125 92.8398 248.125 88.9475C248.125 85.0552 245.1 81.8999 241.369 81.8999C237.638 81.8999 234.613 85.0552 234.613 88.9475C234.613 92.8398 237.638 95.9951 241.369 95.9951Z" fill="#EEE8FE"/>
<path d="M260.394 95.9951C264.126 95.9951 267.15 92.8398 267.15 88.9475C267.15 85.0552 264.126 81.8999 260.394 81.8999C256.663 81.8999 253.638 85.0552 253.638 88.9475C253.638 92.8398 256.663 95.9951 260.394 95.9951Z" fill="#EEE8FE"/>
<path d="M222.344 115.355C226.075 115.355 229.1 112.2 229.1 108.307C229.1 104.415 226.075 101.26 222.344 101.26C218.613 101.26 215.588 104.415 215.588 108.307C215.588 112.2 218.613 115.355 222.344 115.355Z" fill="#EEE8FE"/>
<path d="M241.369 115.355C245.1 115.355 248.125 112.2 248.125 108.307C248.125 104.415 245.1 101.26 241.369 101.26C237.638 101.26 234.613 104.415 234.613 108.307C234.613 112.2 237.638 115.355 241.369 115.355Z" fill="#DFC9FF"/>
<path d="M260.394 115.355C264.126 115.355 267.15 112.2 267.15 108.307C267.15 104.415 264.126 101.26 260.394 101.26C256.663 101.26 253.638 104.415 253.638 108.307C253.638 112.2 256.663 115.355 260.394 115.355Z" fill="#262626"/>
<path d="M222.344 134.714C226.075 134.714 229.1 131.559 229.1 127.667C229.1 123.774 226.075 120.619 222.344 120.619C218.613 120.619 215.588 123.774 215.588 127.667C215.588 131.559 218.613 134.714 222.344 134.714Z" fill="#262626"/>
<path d="M241.369 134.714C245.1 134.714 248.125 131.559 248.125 127.667C248.125 123.774 245.1 120.619 241.369 120.619C237.638 120.619 234.613 123.774 234.613 127.667C234.613 131.559 237.638 134.714 241.369 134.714Z" fill="#EEE8FE"/>
<path d="M260.394 134.714C264.126 134.714 267.15 131.559 267.15 127.667C267.15 123.774 264.126 120.619 260.394 120.619C256.663 120.619 253.638 123.774 253.638 127.667C253.638 131.559 256.663 134.714 260.394 134.714Z" fill="#0CBC8B"/>
<path d="M222.344 154.074C226.075 154.074 229.1 150.919 229.1 147.027C229.1 143.134 226.075 139.979 222.344 139.979C218.613 139.979 215.588 143.134 215.588 147.027C215.588 150.919 218.613 154.074 222.344 154.074Z" fill="#DFC9FF"/>
<path d="M241.369 154.074C245.1 154.074 248.125 150.919 248.125 147.027C248.125 143.134 245.1 139.979 241.369 139.979C237.638 139.979 234.613 143.134 234.613 147.027C234.613 150.919 237.638 154.074 241.369 154.074Z" fill="#262626"/>
<path d="M260.394 154.074C264.126 154.074 267.15 150.919 267.15 147.027C267.15 143.134 264.126 139.979 260.394 139.979C256.663 139.979 253.638 143.134 253.638 147.027C253.638 150.919 256.663 154.074 260.394 154.074Z" fill="#DFC9FF"/>
<path d="M222.344 173.434C226.075 173.434 229.1 170.278 229.1 166.386C229.1 162.494 226.075 159.338 222.344 159.338C218.613 159.338 215.588 162.494 215.588 166.386C215.588 170.278 218.613 173.434 222.344 173.434Z" fill="#DFC9FF"/>
<path d="M241.369 173.434C245.1 173.434 248.125 170.278 248.125 166.386C248.125 162.494 245.1 159.338 241.369 159.338C237.638 159.338 234.613 162.494 234.613 166.386C234.613 170.278 237.638 173.434 241.369 173.434Z" fill="#0CBC8B"/>
<path d="M260.394 173.434C264.126 173.434 267.15 170.278 267.15 166.386C267.15 162.494 264.126 159.338 260.394 159.338C256.663 159.338 253.638 162.494 253.638 166.386C253.638 170.278 256.663 173.434 260.394 173.434Z" fill="#DFC9FF"/>
<path d="M222.344 192.793C226.075 192.793 229.1 189.637 229.1 185.745C229.1 181.853 226.075 178.697 222.344 178.697C218.613 178.697 215.588 181.853 215.588 185.745C215.588 189.637 218.613 192.793 222.344 192.793Z" fill="#0CBC8B"/>
<path d="M241.369 192.793C245.1 192.793 248.125 189.637 248.125 185.745C248.125 181.853 245.1 178.697 241.369 178.697C237.638 178.697 234.613 181.853 234.613 185.745C234.613 189.637 237.638 192.793 241.369 192.793Z" fill="#262626"/>
<path d="M260.394 192.793C264.126 192.793 267.15 189.637 267.15 185.745C267.15 181.853 264.126 178.697 260.394 178.697C256.663 178.697 253.638 181.853 253.638 185.745C253.638 189.637 256.663 192.793 260.394 192.793Z" fill="#0CBC8B"/>
<path d="M190.071 270.163L184.755 272.421L193.467 294.745L198.784 292.487L190.071 270.163Z" fill="#EEE8FE"/>
<path d="M209.428 287.467H178.635V297.661H209.428V287.467Z" fill="#EEE8FE"/>
<path d="M184.548 267.793C186.276 267.793 187.677 266.332 187.677 264.529C187.677 262.726 186.276 261.265 184.548 261.265C182.82 261.265 181.419 262.726 181.419 264.529C181.419 266.332 182.82 267.793 184.548 267.793Z" fill="#0CBC8B"/>
<path opacity="0.34" d="M178.635 254.99C180.049 254.99 181.195 253.794 181.195 252.319C181.195 250.845 180.049 249.649 178.635 249.649C177.222 249.649 176.075 250.845 176.075 252.319C176.075 253.794 177.222 254.99 178.635 254.99Z" fill="#0CBC8B"/>
<path opacity="0.34" d="M172.468 242.187C173.567 242.187 174.459 241.257 174.459 240.11C174.459 238.963 173.567 238.033 172.468 238.033C171.368 238.033 170.476 238.963 170.476 240.11C170.476 241.257 171.368 242.187 172.468 242.187Z" fill="#0CBC8B"/>
<path opacity="0.34" d="M164.817 229.681C165.76 229.681 166.524 228.884 166.524 227.901C166.524 226.918 165.76 226.121 164.817 226.121C163.875 226.121 163.111 226.918 163.111 227.901C163.111 228.884 163.875 229.681 164.817 229.681Z" fill="#0CBC8B"/>
<path opacity="0.34" d="M158.649 217.175C159.434 217.175 160.071 216.511 160.071 215.692C160.071 214.872 159.434 214.208 158.649 214.208C157.863 214.208 157.227 214.872 157.227 215.692C157.227 216.511 157.863 217.175 158.649 217.175Z" fill="#0CBC8B"/>
<path d="M95.0417 272.59C84.7012 269.865 83.6841 269.459 83.3495 269.326L87.6207 257.688C87.5871 257.674 87.5433 257.657 87.4904 257.638C88.3312 257.928 93.5831 259.353 97.9675 260.508L95.0417 272.59Z" fill="#E98862"/>
<path d="M94.5769 288.867C94.4733 289.184 94.308 289.476 94.0916 289.723C93.8751 289.971 93.612 290.17 93.3187 290.306C93.0254 290.443 92.7082 290.515 92.387 290.519C92.0657 290.522 91.7473 290.456 91.4515 290.325C91.0416 290.144 90.6899 289.843 90.438 289.46C90.186 289.077 90.0442 288.627 90.0293 288.163L90.0373 272.866C90.0384 272.57 90.1008 272.278 90.2203 272.009C90.3398 271.741 90.5135 271.502 90.7296 271.31C92.5951 269.86 93.9653 267.824 94.6389 265.501C95.0933 263.666 95.0442 261.736 94.4973 259.93C94.4387 259.767 94.4255 259.59 94.4593 259.42C94.4932 259.25 94.5726 259.093 94.6883 258.968C94.8041 258.844 94.9514 258.755 95.1133 258.714C95.2751 258.673 95.4448 258.681 95.6026 258.737L102.049 260.992C102.239 261.058 102.414 261.163 102.566 261.301C102.717 261.438 102.84 261.606 102.929 261.793C103.018 261.98 103.071 262.184 103.084 262.393C103.098 262.602 103.071 262.811 103.007 263.009L94.5769 288.867Z" fill="#DFC9FF"/>
<path d="M66.7337 342.279C66.7337 342.279 66.6938 329.373 66.6938 328.23H78.6403C78.6403 329.369 78.6802 342.239 78.6802 342.239L66.7337 342.279Z" fill="#E98862"/>
<path d="M98.0357 163.582C90.3706 155.586 54.757 166.371 54.757 166.371L54.7246 166.603L53.9947 166.175C44.937 185.169 32.111 213.591 23.2348 232.953C22.5568 234.284 22.1482 235.746 22.0345 237.249C21.9208 238.751 22.1044 240.262 22.5738 241.688C23.0432 243.113 23.7885 244.423 24.7634 245.536C25.7383 246.648 26.9219 247.54 28.2409 248.155L67.0101 266.149C65.019 288.96 62.7333 311.752 60.8304 334.527L81.7168 337.246C85.5124 310.075 89.4155 282.936 92.9005 255.731L93.4693 254.397L93.0944 254.223C95.2317 237.463 97.2063 220.677 98.8936 203.841C99.2184 200.418 99.504 196.694 99.6445 193.075C99.6445 193.075 102.16 167.882 98.0357 163.582ZM47.6528 233.132C55.1274 220.136 63.9194 204.82 71.5327 191.821C71.1419 208.89 70.1725 225.947 68.8977 242.993L47.6528 233.132Z" fill="#262626"/>
<path d="M52.2232 347.35C51.902 347.349 51.5845 347.278 51.2906 347.143C50.9967 347.007 50.7327 346.81 50.5151 346.564C50.2975 346.317 50.131 346.027 50.0259 345.71C49.9209 345.393 49.8795 345.057 49.9045 344.723C49.9389 344.26 50.0996 343.817 50.3675 343.446C50.6354 343.075 50.9994 342.791 51.4165 342.629L65.3217 337.771C65.591 337.678 65.8765 337.646 66.1584 337.679C66.4404 337.712 66.7123 337.808 66.9555 337.96C68.867 339.344 71.1538 340.051 73.4794 339.978C75.2909 339.843 77.0297 339.181 78.4975 338.066C78.6265 337.955 78.7829 337.885 78.9486 337.864C79.1142 337.843 79.2822 337.871 79.4329 337.946C79.5836 338.021 79.7109 338.138 79.7998 338.286C79.8887 338.433 79.9357 338.604 79.9351 338.778V345.87C79.9351 346.08 79.8955 346.287 79.8185 346.48C79.7416 346.673 79.6288 346.849 79.4867 346.996C79.3445 347.144 79.1759 347.261 78.9903 347.341C78.8047 347.42 78.606 347.46 78.4054 347.46L52.2232 347.35Z" fill="#DFC9FF"/>
<path d="M40.7984 118.819C40.7984 118.819 34.857 113.238 34.5259 111.349C34.1948 109.46 38.8118 106.087 38.8118 106.087C38.8118 106.087 37.6291 104.68 36.4845 103.089C35.163 101.255 33.8916 99.1773 34.5452 98.7394C35.1755 98.3175 36.7286 99.8788 38.2759 101.766C40.267 104.193 42.2433 107.161 42.2433 107.161C42.2433 107.161 41.4748 103.879 42.6831 103.746C43.1791 103.691 43.5364 104.22 44.1724 106.547C44.8943 109.2 46.4126 113.22 46.4126 113.22L40.7984 118.819Z" fill="#E98862"/>
<path d="M52.6891 149.762C51.4552 149.762 50.2493 149.378 49.2258 148.659C48.2022 147.94 47.4075 146.919 46.9434 145.726L35.7962 117.084L47.2876 112.218L50.6633 120.89L53.3132 107.076L65.4764 109.614L58.7721 144.568C58.5106 145.932 57.8343 147.172 56.8438 148.103C55.8532 149.035 54.6011 149.608 53.2734 149.739C53.0765 149.753 52.8831 149.762 52.6891 149.762Z" fill="#571BB1"/>
<path d="M32.561 126.54L39.457 125.392C39.7279 125.347 39.9866 125.243 40.2162 125.086C40.4457 124.929 40.641 124.724 40.7893 124.483C40.9375 124.242 41.0354 123.971 41.0764 123.688C41.1175 123.405 41.1009 123.116 41.0276 122.841L36.6888 106.597C36.5603 106.116 36.2666 105.701 35.8636 105.431C35.4606 105.161 34.9766 105.056 34.5037 105.134L27.6077 106.279C27.3368 106.324 27.078 106.429 26.8484 106.585C26.6188 106.742 26.4234 106.947 26.2752 107.188C26.1269 107.429 26.0291 107.7 25.988 107.983C25.947 108.266 25.9637 108.555 26.0371 108.831L30.3782 125.077C30.5066 125.558 30.8 125.973 31.2025 126.242C31.605 126.512 32.0885 126.618 32.561 126.54Z" fill="#DFC9FF"/>
<path d="M43.6661 122.283L39.5992 128.039C39.5992 128.039 28.6676 125.753 27.6425 116.969C27.5241 115.96 27.6265 113.159 28.8274 113.534C31.9563 114.512 35.8497 119.52 38.5803 120.187C37.9574 119.022 37.1974 117.379 37.6872 117.079C38.9768 116.289 42.4436 121.06 43.6661 122.283Z" fill="#E98862"/>
<path d="M98.6438 104.207C96.044 101.495 91.5556 99.7442 86.0829 99.7383C85.6734 103.067 66.2973 103.079 66.1494 99.8154C65.4098 99.8273 64.8353 99.8392 64.4769 99.857C51.326 100.45 51.3642 111.506 52.6584 123.725L41.8377 118.746L36.8315 130.584L54.0544 138.507C54.0658 138.863 54.0737 139.219 54.0783 139.575C54.3002 158.839 49.3111 162.47 51.7692 168.357C54.1522 174.072 100.988 176.445 101.614 166.393C102.012 159.996 96.6078 154.411 96.6078 141.943C96.6078 129.475 107.604 113.55 98.6438 104.207Z" fill="#571BB1"/>
<path d="M66.15 99.8153C66.2979 103.079 67.9988 107.88 73.2496 108.242C80.2468 108.723 85.6739 103.067 86.0835 99.7382H86.0665C79.1773 99.7352 70.1663 99.7471 66.15 99.8153Z" fill="#E98862"/>
<path d="M80.6507 92.4806C80.6451 92.3738 80.6451 92.2669 80.6451 92.1601C80.6451 91.0801 80.6849 89.9051 80.7873 88.6233L79.5016 88.374L71.7023 86.8667C71.856 88.974 71.8236 91.0916 71.6055 93.1927C71.5828 93.4301 71.5543 93.6734 71.5202 93.9167C71.5187 93.9388 71.5149 93.9607 71.5088 93.982C71.4633 94.3024 71.4121 94.6229 71.3552 94.9433C71.3211 95.151 71.2813 95.3587 71.2358 95.5664C71.1903 95.8335 71.1277 96.0946 71.0594 96.3557C70.9912 96.6168 70.9229 96.872 70.8432 97.1272C70.7636 97.3823 70.6896 97.6316 70.5986 97.8749C70.4325 98.3553 70.2308 98.8215 69.9956 99.2695V99.2754C69.5648 100.154 68.9597 100.927 68.2207 101.542H82.511C81.6178 99.9341 80.6963 97.1509 80.6507 92.4806Z" fill="#E98862"/>
<path opacity="0.15" d="M69.986 99.2846L77.5384 93.2589L71.6078 93.1948C71.4356 95.3124 70.8856 97.3778 69.986 99.2846Z" fill="black"/>
<path d="M85.9459 83.7793C85.3167 87.5702 83.3336 91.1605 80.1279 92.3841C76.3221 93.838 73.5033 93.9365 69.1156 93.9365C63.1281 93.9365 63.3261 87.4224 63.1577 80.8579C62.987 74.2708 63.4916 67.1982 65.8581 64.9016C70.5798 60.318 84.4452 63.221 86.1313 70.8876C87.0034 74.8541 86.5449 80.173 85.9459 83.7793Z" fill="#E98862"/>
<path d="M59.9486 68.7119C59.9486 68.7119 57.4967 68.141 58.168 65.5904C58.6129 63.8986 60.6904 64.2742 60.6904 64.2742C60.6904 64.2742 58.7232 63.8986 58.7232 62.107C58.7232 60.9795 59.555 59.0662 62.0631 60.1587C65.0065 61.4412 68.3635 61.2768 70.9155 60.8287C72.3593 60.4991 73.8249 60.2835 75.2999 60.1837H75.3078C77.0034 60.1533 78.6937 60.3893 80.3219 60.8839C84.8844 62.3082 91.7889 66.5749 90.3212 76.2497C88.6828 87.0466 83.8257 91.1757 81.689 92.5003C81.5625 92.5796 81.4204 92.628 81.2734 92.6417C81.1264 92.6554 80.9784 92.6341 80.8405 92.5794C80.7025 92.5247 80.5783 92.4381 80.4771 92.326C80.376 92.2139 80.3005 92.0793 80.2565 91.9324C79.6507 89.9087 78.6068 84.8171 78.8986 74.3181C64.8746 73.6006 60.8395 73.3828 60.8395 73.3828C60.8395 73.3828 57.54 73.5116 57.54 70.996C57.54 68.4805 59.9486 68.7119 59.9486 68.7119Z" fill="#0F1011"/>
<path d="M71.7136 80.8584C72.1689 80.8584 72.538 80.4735 72.538 79.9986C72.538 79.5237 72.1689 79.1387 71.7136 79.1387C71.2584 79.1387 70.8893 79.5237 70.8893 79.9986C70.8893 80.4735 71.2584 80.8584 71.7136 80.8584Z" fill="#0F1011"/>
<path d="M65.2102 80.3018C65.6655 80.3018 66.0345 79.9168 66.0345 79.4419C66.0345 78.967 65.6655 78.582 65.2102 78.582C64.755 78.582 64.3859 78.967 64.3859 79.4419C64.3859 79.9168 64.755 80.3018 65.2102 80.3018Z" fill="#0F1011"/>
<path d="M63.7818 77.6102H63.7869L65.9708 77.5817C66.0736 77.581 66.1718 77.5377 66.244 77.4615C66.3162 77.3852 66.3563 77.2821 66.3557 77.1749C66.355 77.0677 66.3135 76.9652 66.2404 76.8899C66.1672 76.8146 66.0684 76.7727 65.9657 76.7734H65.9606L63.7766 76.8019C63.6739 76.8026 63.5756 76.8459 63.5034 76.9222C63.4313 76.9985 63.3911 77.1016 63.3918 77.2087C63.3925 77.3159 63.4339 77.4184 63.5071 77.4937C63.5802 77.569 63.679 77.6109 63.7818 77.6102Z" fill="#0F1011"/>
<path d="M73.4931 78.4404C73.5879 78.4402 73.6792 78.4037 73.75 78.3379C73.8207 78.2722 73.8658 78.1817 73.8769 78.0835C73.888 77.9854 73.8642 77.8864 73.81 77.8053C73.7559 77.7242 73.6751 77.6666 73.583 77.6434L71.4304 77.1028C71.3807 77.0896 71.3289 77.0869 71.2782 77.0947C71.2275 77.1025 71.1787 77.1207 71.1348 77.1484C71.0908 77.176 71.0526 77.2124 71.0223 77.2556C70.992 77.2988 70.9702 77.3478 70.9582 77.3998C70.9461 77.4518 70.9442 77.5058 70.9523 77.5586C70.9605 77.6115 70.9786 77.6621 71.0056 77.7076C71.0327 77.753 71.0681 77.7924 71.1099 77.8235C71.1516 77.8546 71.1989 77.8767 71.2489 77.8885L73.4015 78.4297C73.4316 78.4368 73.4623 78.4404 73.4931 78.4404Z" fill="#0F1011"/>
<path d="M76.0024 82.1026C75.9621 82.5814 76.0129 83.0638 76.152 83.522C76.291 83.9802 76.5155 84.4052 76.8126 84.7726C77.1098 85.1399 77.4736 85.4423 77.8831 85.6625C78.2927 85.8826 78.74 86.0161 79.1992 86.0552C79.6584 86.0943 80.1205 86.0383 80.5589 85.8904C80.9973 85.7425 81.4033 85.5057 81.7536 85.1935C82.1039 84.8813 82.3916 84.4999 82.6001 84.0713C82.8085 83.6427 82.9337 83.1753 82.9684 82.6961C83.0138 82.2174 82.9664 81.734 82.829 81.2748C82.6916 80.8157 82.467 80.39 82.1686 80.0232C81.8703 79.6565 81.5042 79.3561 81.0923 79.1399C80.6803 78.9238 80.2309 78.7963 79.7707 78.7651C77.279 78.6827 76.1594 80.0962 76.0024 82.1026Z" fill="#E98862"/>
<g opacity="0.15">
<path d="M68.0546 84.7684C68.1227 84.7684 68.1886 84.7429 68.2403 84.6966C68.292 84.6502 68.3259 84.586 68.3361 84.5157C68.3462 84.4455 68.3318 84.3737 68.2955 84.3135C68.2592 84.2534 68.2034 84.2088 68.1382 84.188L66.4612 83.6509L67.6342 80.9271C67.6652 80.8553 67.6676 80.7736 67.6409 80.7C67.6142 80.6264 67.5605 80.5669 67.4917 80.5345C67.4229 80.5022 67.3446 80.4997 67.274 80.5275C67.2035 80.5554 67.1464 80.6114 67.1154 80.6832L65.8104 83.7138C65.7938 83.7522 65.7853 83.7938 65.7853 83.8359C65.7854 83.8779 65.794 83.9195 65.8106 83.9578C65.8272 83.9962 65.8515 84.0304 65.8818 84.0582C65.912 84.086 65.9476 84.1068 65.9862 84.1191L67.971 84.7553C67.9981 84.764 68.0263 84.7684 68.0546 84.7684Z" fill="black"/>
</g>
<path d="M71.3319 86.7708C71.3319 86.7708 68.2895 87.1055 66.1551 86.3281C66.1551 86.3281 66.1716 88.4188 68.5797 88.6247C70.9877 88.8306 71.3319 86.7708 71.3319 86.7708Z" fill="#F8FCFF"/>
</g>
<defs>
<clipPath id="clip0_23_3681">
<rect width="383" height="348" fill="white"/>
</clipPath>
</defs>
</svg>
