<svg width="650" height="505" viewBox="0 0 650 505" fill="none" xmlns="http://www.w3.org/2000/svg">
<g clip-path="url(#clip0_23_4277)">
<path d="M150.342 190.991L353.657 190.991C358.65 190.991 362.698 187.24 362.698 182.612V44.6573C362.698 40.0302 358.65 36.2791 353.657 36.2791L150.342 36.2791C145.349 36.2791 141.302 40.0302 141.302 44.6573L141.302 182.612C141.302 187.24 145.349 190.991 150.342 190.991Z" fill="white"/>
<path d="M141 182.613V44.6574C141.003 42.3621 141.988 40.1616 143.74 38.5386C145.491 36.9156 147.865 36.0027 150.342 36H353.658C356.135 36.0027 358.509 36.9156 360.26 38.5386C362.012 40.1616 362.997 42.3621 363 44.6574V182.613C362.997 184.908 362.012 187.108 360.261 188.731C358.509 190.355 356.135 191.267 353.658 191.27H150.342C147.865 191.267 145.491 190.355 143.739 188.731C141.988 187.108 141.003 184.908 141 182.613ZM150.342 36.5587C148.025 36.5612 145.804 37.4153 144.165 38.9336C142.527 40.4519 141.606 42.5105 141.603 44.6578V182.613C141.606 184.76 142.527 186.818 144.165 188.337C145.804 189.855 148.025 190.709 150.342 190.712H353.658C355.975 190.709 358.196 189.855 359.835 188.337C361.473 186.818 362.395 184.76 362.397 182.613V44.6574C362.395 42.5102 361.473 40.4515 359.835 38.9331C358.196 37.4148 355.975 36.5607 353.658 36.5583L150.342 36.5587Z" fill="#292A2E"/>
<path d="M141.302 44.6561V53.0867H362.697V44.6561C362.697 42.4343 361.744 40.3035 360.049 38.7323C358.354 37.1611 356.055 36.2782 353.658 36.2778H150.342C147.944 36.2778 145.645 37.1605 143.949 38.7318C142.254 40.303 141.302 42.4341 141.302 44.6561Z" fill="#292A2E"/>
<path d="M180.272 129.87C175.431 129.87 170.698 128.539 166.673 126.047C162.647 123.554 159.51 120.011 157.657 115.866C155.805 111.721 155.32 107.16 156.265 102.76C157.209 98.3592 159.54 94.3172 162.963 91.1447C166.387 87.9722 170.748 85.8117 175.496 84.9364C180.245 84.0611 185.166 84.5103 189.639 86.2273C194.111 87.9442 197.934 90.8518 200.624 94.5822C203.314 98.3127 204.749 102.699 204.749 107.185C204.742 113.199 202.16 118.965 197.572 123.218C192.983 127.471 186.761 129.863 180.272 129.87ZM180.272 85.2172C175.583 85.2172 171.001 86.5056 167.102 88.9195C163.204 91.3334 160.166 94.7643 158.372 98.7784C156.578 102.793 156.108 107.21 157.023 111.471C157.938 115.732 160.195 119.647 163.51 122.719C166.825 125.791 171.049 127.883 175.647 128.731C180.245 129.579 185.012 129.144 189.343 127.481C193.674 125.818 197.376 123.003 199.981 119.39C202.586 115.777 203.976 111.53 203.976 107.185C203.969 101.361 201.469 95.7766 197.026 91.658C192.582 87.5394 186.556 85.2225 180.272 85.2158V85.2172Z" fill="#292A2E"/>
<path d="M252 129.87C247.159 129.87 242.426 128.539 238.401 126.047C234.375 123.554 231.238 120.011 229.385 115.866C227.533 111.721 227.048 107.16 227.993 102.76C228.937 98.3592 231.268 94.3172 234.692 91.1447C238.115 87.9722 242.476 85.8117 247.224 84.9364C251.973 84.0611 256.894 84.5103 261.367 86.2273C265.84 87.9442 269.662 90.8518 272.352 94.5822C275.042 98.3127 276.477 102.699 276.477 107.185C276.47 113.199 273.888 118.965 269.3 123.218C264.711 127.471 258.489 129.863 252 129.87ZM252 85.2172C247.311 85.2172 242.729 86.5056 238.83 88.9195C234.932 91.3334 231.894 94.7643 230.1 98.7784C228.306 102.793 227.836 107.21 228.751 111.471C229.666 115.732 231.923 119.647 235.238 122.719C238.553 125.791 242.777 127.883 247.375 128.731C251.973 129.579 256.74 129.144 261.071 127.481C265.402 125.818 269.104 123.003 271.709 119.39C274.314 115.777 275.704 111.53 275.704 107.185C275.697 101.361 273.197 95.7766 268.754 91.658C264.31 87.5394 258.284 85.2225 252 85.2158V85.2172Z" fill="#292A2E"/>
<path d="M323.728 129.87C318.887 129.87 314.155 128.539 310.129 126.047C306.104 123.554 302.967 120.011 301.114 115.866C299.261 111.721 298.777 107.16 299.721 102.76C300.666 98.3592 302.997 94.3172 306.42 91.1447C309.843 87.9722 314.205 85.8117 318.953 84.9364C323.701 84.0611 328.623 84.5103 333.095 86.2273C337.568 87.9442 341.391 90.8518 344.081 94.5822C346.77 98.3127 348.206 102.699 348.206 107.185C348.198 113.199 345.617 118.965 341.028 123.218C336.439 127.471 330.218 129.863 323.728 129.87ZM323.728 85.2172C319.04 85.2172 314.457 86.5056 310.559 88.9195C306.661 91.3334 303.623 94.7643 301.828 98.7784C300.034 102.793 299.565 107.21 300.48 111.471C301.394 115.732 303.652 119.647 306.967 122.719C310.282 125.791 314.506 127.883 319.104 128.731C323.702 129.579 328.468 129.144 332.799 127.481C337.131 125.818 340.833 123.003 343.437 119.39C346.042 115.777 347.432 111.53 347.432 107.185C347.425 101.361 344.926 95.7766 340.482 91.658C336.038 87.5394 330.013 85.2225 323.728 85.2158V85.2172Z" fill="#292A2E"/>
<path opacity="0.6" d="M338.966 110.453V96.3286H321.381V107.411H334.383L338.966 110.453Z" fill="#0CBC8B"/>
<path d="M308.49 120.717V101.615H332.273V116.603H314.688L308.49 120.717Z" fill="#0CBC8B"/>
<path d="M313.881 111.166C315.02 111.166 315.942 110.311 315.942 109.256C315.942 108.201 315.02 107.346 313.881 107.346C312.743 107.346 311.82 108.201 311.82 109.256C311.82 110.311 312.743 111.166 313.881 111.166Z" fill="white"/>
<path d="M320.382 111.166C321.52 111.166 322.443 110.311 322.443 109.256C322.443 108.201 321.52 107.346 320.382 107.346C319.244 107.346 318.321 108.201 318.321 109.256C318.321 110.311 319.244 111.166 320.382 111.166Z" fill="white"/>
<path d="M326.883 111.166C328.021 111.166 328.944 110.311 328.944 109.256C328.944 108.201 328.021 107.346 326.883 107.346C325.745 107.346 324.822 108.201 324.822 109.256C324.822 110.311 325.745 111.166 326.883 111.166Z" fill="white"/>
<path d="M192.467 114.126C192.704 114.272 192.871 114.498 192.933 114.755C192.996 115.013 192.949 115.282 192.802 115.509L191.469 117.568C191.115 118.124 190.544 118.534 189.873 118.711C187.657 119.274 182.77 119.387 174.937 112.129C167.103 104.87 167.227 100.338 167.834 98.2856C168.025 97.6641 168.467 97.1345 169.067 96.8063L171.29 95.571C171.534 95.4353 171.825 95.3919 172.103 95.4499C172.38 95.5079 172.623 95.6628 172.781 95.8824L176.324 100.807C176.479 101.023 176.54 101.285 176.495 101.541C176.45 101.796 176.303 102.027 176.082 102.186L174.092 103.62C173.884 103.769 173.739 103.983 173.686 104.222C173.633 104.461 173.674 104.71 173.801 104.924C174.385 105.897 174.939 107.044 177.679 109.587C180.419 112.13 181.662 112.639 182.71 113.18C182.941 113.299 183.21 113.337 183.468 113.287C183.726 113.237 183.957 113.104 184.117 112.91L185.664 111.067C185.836 110.862 186.084 110.725 186.36 110.684C186.636 110.642 186.919 110.699 187.152 110.843L192.467 114.126Z" fill="#0CBC8B"/>
<path opacity="0.6" d="M264.614 115.158H239.485C239.202 115.159 238.931 115.056 238.73 114.872C238.529 114.688 238.415 114.437 238.414 114.176L238.326 100.218C238.325 100.102 238.349 99.9872 238.396 99.8802C238.443 99.7731 238.513 99.6756 238.6 99.5934C238.688 99.5112 238.792 99.4459 238.907 99.4011C239.022 99.3562 239.146 99.3329 239.271 99.3323L264.632 99.2119C264.883 99.2107 265.125 99.3021 265.304 99.4662C265.483 99.6302 265.585 99.8534 265.586 100.087L265.674 114.165C265.675 114.295 265.648 114.423 265.595 114.543C265.542 114.664 265.464 114.773 265.366 114.865C265.267 114.957 265.15 115.031 265.021 115.081C264.892 115.131 264.754 115.157 264.614 115.158Z" fill="#0CBC8B"/>
<path d="M265.316 99.4756C263.816 100.497 252.919 107.93 252.907 107.937C252.611 108.091 252.277 108.168 251.937 108.162C251.598 108.156 251.267 108.066 250.978 107.901L238.584 99.6118C238.672 99.5242 238.779 99.4543 238.897 99.4062C239.016 99.3582 239.143 99.333 239.273 99.3323L264.631 99.2105C264.759 99.2101 264.885 99.2333 265.003 99.2789C265.12 99.3244 265.227 99.3913 265.316 99.4756Z" fill="#0CBC8B"/>
<path d="M649.588 503.577H0C7.118 482.571 20.262 464.752 38.792 459.466C65.898 451.742 94.584 472.979 121.629 464.993C136.995 460.462 149.092 447.255 161.803 436.293C209.759 394.917 275.473 382.688 332.225 404.586C361.886 416.028 388.914 436.038 419.299 444.544C458.591 455.544 499.68 446.423 540.086 444.919C579.435 443.451 635.818 462.01 649.588 503.577Z" fill="#F3F5FD"/>
<path d="M577.511 499.554C590.059 495.666 602.233 490.584 613.326 476.362C615.602 473.447 617.741 469.714 616.493 466.226C615.555 463.601 612.839 461.919 610.08 461.489C609.054 461.34 608.013 461.312 606.98 461.404C606.98 461.404 606.97 461.404 606.968 461.404C605.376 461.567 603.803 461.876 602.268 462.326L601.83 462.45C594.508 464.531 587.533 467.681 581.13 471.797C580.55 472.167 579.862 472.33 579.177 472.259C578.493 472.188 577.853 471.888 577.361 471.407C576.869 470.927 576.554 470.293 576.467 469.611C576.381 468.928 576.528 468.237 576.884 467.648C577.538 466.582 578.298 465.585 579.153 464.672C580.414 463.353 581.795 462.155 583.279 461.093C585.252 459.654 587.357 458.371 589.416 457.055C597.073 452.179 604.327 446.698 611.108 440.663C615.949 436.351 620.682 431.563 622.983 425.504C624.04 422.716 624.521 419.504 623.26 416.804C621.179 412.367 615.286 411.126 610.467 412.046C602.022 413.664 595.275 419.854 589.293 426.024C584.332 431.151 578.773 436.824 571.645 437.143C570.43 437.258 569.209 437.015 568.131 436.443C566.098 435.211 565.576 432.358 566.3 430.092C567.024 427.826 568.7 426.016 570.321 424.278C579.729 414.184 588.987 403.684 595.097 391.316C601.207 378.948 603.912 364.346 599.667 351.216C598.54 347.318 596.467 343.758 593.634 340.853C592.205 339.417 590.478 338.314 588.574 337.623C586.67 336.931 584.637 336.669 582.62 336.853C577.164 337.572 573.055 342.177 570.29 346.931C560.79 363.247 561.367 383.238 558.69 401.931C557.941 407.163 556.85 412.531 553.736 416.836C553.448 417.25 553.075 417.598 552.642 417.856C550.078 419.341 547.776 416.346 546.813 413.805C543.013 403.752 542.061 392.255 535.255 383.934C532.655 380.767 528.982 378.119 524.888 378.145C519.888 378.179 515.604 382.357 514.144 387.145C512.684 391.933 513.558 397.127 515.122 401.878C518.022 410.688 523.227 418.601 529.358 425.559C532.591 429.232 536.245 432.943 537.215 437.735C537.512 439.364 537.387 441.041 536.854 442.608C536.32 444.175 535.395 445.58 534.166 446.689C533.591 447.189 532.922 447.569 532.198 447.806C531.474 448.042 530.709 448.131 529.95 448.067C528.32 447.797 526.767 447.184 525.392 446.267C524.792 445.925 524.192 445.578 523.582 445.238C521.191 443.878 518.8 442.515 516.409 441.15C510.331 437.682 502.991 434.138 496.659 437.125C495.093 437.924 493.717 439.049 492.623 440.424C491.528 441.799 490.741 443.393 490.315 445.098C489.424 448.224 489.424 451.536 490.315 454.662C492.201 461.162 504.089 479.262 508.992 483.923C514.721 489.351 534.579 512.86 577.511 499.554Z" fill="#8DDBE0"/>
<path d="M111.502 348.071L70.801 502.809L76.6036 504.335L117.305 349.597L111.502 348.071Z" fill="#E9DAFF"/>
<path d="M183.632 348.369L177.704 349.298L201.966 504.038L207.894 503.108L183.632 348.369Z" fill="#E9DAFF"/>
<path d="M106.056 200.4C106.056 200.4 56.491 197.269 56.491 240.574C56.491 283.879 63.791 344.4 100.317 351.182C136.843 357.964 190.798 355.92 203.325 353.797C218.716 351.188 225.425 315.486 204.925 313.097C146.751 306.317 174.925 205.1 106.056 200.4Z" fill="#E9DAFF"/>
<path d="M211.276 474.431L209.39 498.89" stroke="#E98862" stroke-width="21" stroke-miterlimit="10"/>
<path d="M246.465 503.39C247.554 503.385 248.597 502.948 249.364 502.174C250.131 501.4 250.559 500.354 250.554 499.264C250.554 499.164 250.554 499.064 250.541 498.964C250.48 498.184 250.198 497.437 249.727 496.812C249.256 496.187 248.616 495.709 247.883 495.435L223.44 487.248C222.966 487.091 222.465 487.039 221.969 487.094C221.473 487.149 220.995 487.311 220.568 487.568C217.208 489.899 213.188 491.091 209.1 490.968C205.916 490.742 202.86 489.625 200.28 487.745C200.053 487.559 199.778 487.442 199.487 487.406C199.196 487.37 198.901 487.418 198.636 487.544C198.371 487.67 198.147 487.868 197.99 488.116C197.834 488.364 197.751 488.652 197.752 488.945V500.9C197.752 501.61 198.034 502.292 198.536 502.794C199.039 503.296 199.72 503.578 200.43 503.578H200.441L246.465 503.39Z" fill="#E9DAFF"/>
<path d="M294.58 474.431L298.694 498.89" stroke="#E98862" stroke-width="21" stroke-miterlimit="10"/>
<path d="M315.634 478.046L269.526 300.661C268.496 296.697 266.179 293.188 262.94 290.682C259.7 288.177 255.721 286.817 251.626 286.816H150.578V286.881H93.969V304.229C93.9689 309.231 94.9539 314.183 96.8678 318.804C98.7817 323.425 101.587 327.624 105.124 331.161C108.66 334.698 112.859 337.503 117.48 339.417C122.101 341.332 127.053 342.317 132.055 342.317H159.665V342.426H207.865L194.593 483.54L231.431 487L244.264 350.545L279.824 487.35L315.634 478.046Z" fill="#262626"/>
<path d="M238.644 202.1C238.644 202.1 238.794 190.089 247.379 190.714C252.795 191.108 278.53 189.914 278.913 192.258C279.861 198.058 256.321 199.476 254.185 204.88L238.644 202.1Z" fill="#E98862"/>
<path d="M244.339 191.1C244.339 191.1 256.288 187.2 259.225 187.9C261.825 188.518 256.405 192.75 256.405 192.75L244.339 191.1Z" fill="#E98862"/>
<path d="M213.963 254.8L256.6 205.17L238.226 194.838L204.088 233.245L177.388 185.454C174.862 177.901 169.108 172.841 157.368 172.335C156.738 172.315 155.728 172.285 154.428 172.265C154.168 177.765 120.098 177.745 119.378 172.135C109.758 172.145 101.858 175.105 97.298 179.665C81.548 195.415 100.878 222.255 100.878 243.255C100.878 264.255 91.378 273.675 92.078 284.455C93.178 301.395 175.508 297.395 179.698 287.765C182.508 281.313 179.785 276.465 177.642 264.928H213.966L213.963 254.8ZM175.635 239.251C175.676 235.718 175.949 232.021 176.324 228.259L184.624 243.119H175.638C175.625 241.868 175.62 240.59 175.638 239.251H175.635Z" fill="#571BB1"/>
<path d="M154.425 172.265C154.165 177.765 151.165 185.855 141.945 186.455C129.635 187.275 120.095 177.745 119.375 172.135H119.415C131.515 172.135 147.355 172.155 154.425 172.265Z" fill="#E98862"/>
<path d="M332.769 503.39C333.859 503.385 334.901 502.947 335.668 502.173C336.435 501.398 336.863 500.351 336.858 499.262C336.858 499.162 336.858 499.062 336.845 498.962C336.784 498.181 336.501 497.435 336.03 496.809C335.559 496.184 334.919 495.707 334.186 495.433L309.744 487.246C309.27 487.089 308.768 487.036 308.272 487.092C307.777 487.147 307.298 487.309 306.871 487.566C303.511 489.897 299.492 491.089 295.404 490.966C292.22 490.74 289.163 489.623 286.583 487.743C286.356 487.557 286.081 487.44 285.79 487.404C285.499 487.369 285.204 487.417 284.939 487.542C284.674 487.668 284.451 487.867 284.294 488.114C284.138 488.362 284.055 488.65 284.056 488.943V500.9C284.056 501.61 284.338 502.291 284.84 502.793C285.342 503.296 286.024 503.578 286.734 503.578H286.745L332.769 503.39Z" fill="#E9DAFF"/>
<path d="M46.069 274.62H36.678V503.577H46.069V274.62Z" fill="#EEE8FE"/>
<path d="M499.043 274.62H489.652V503.577H499.043V274.62Z" fill="#D0BFE9"/>
<path d="M499.043 271.751H414.348V487.922H499.043V271.751Z" fill="#D0BFE9"/>
<path d="M406.83 472.266H397.439V503.577H406.83V472.266Z" fill="#D0BFE9"/>
<path d="M512.027 265.164H23.6951V278.077H512.027V265.164Z" fill="#EEE8FE"/>
<path d="M419.043 274.62H409.652V503.577H419.043V274.62Z" fill="#EEE8FE"/>
<path d="M326.83 274.62H317.439V503.577H326.83V274.62Z" fill="#EEE8FE"/>
<path d="M414.348 278.094H322.135V487.921H414.348V278.094Z" fill="#EEE8FE"/>
<path d="M155.667 151.121C160.96 151.121 165.251 146.83 165.251 141.537C165.251 136.244 160.96 131.953 155.667 131.953C150.374 131.953 146.083 136.244 146.083 141.537C146.083 146.83 150.374 151.121 155.667 151.121Z" fill="#EEE8FE"/>
<path d="M157.336 142.655C157.694 142.585 158.026 142.419 158.296 142.175C158.566 141.93 158.764 141.617 158.869 141.268C159.119 140.438 161.761 120.907 154.114 109.139C152.894 107.114 151.209 105.408 149.2 104.162C147.19 102.917 144.913 102.167 142.556 101.975C142.295 101.947 142.03 101.971 141.778 102.046C141.526 102.121 141.291 102.244 141.086 102.41C140.882 102.576 140.712 102.78 140.587 103.011C140.462 103.243 140.383 103.496 140.356 103.758C140.243 104.858 141.041 104.841 142.14 104.958C147.472 105.51 148.279 107.604 150.782 111.358C157.53 121.488 155.091 139.93 155.036 140.115C154.936 140.445 154.924 140.796 154.999 141.132C155.075 141.469 155.236 141.78 155.468 142.036C155.699 142.291 155.993 142.483 156.32 142.592C156.648 142.7 156.998 142.722 157.336 142.656V142.655Z" fill="#E9DAFF"/>
<path d="M153.192 150.895C158.485 150.895 162.776 146.604 162.776 141.311C162.776 136.018 158.485 131.727 153.192 131.727C147.899 131.727 143.608 136.018 143.608 141.311C143.608 146.604 147.899 150.895 153.192 150.895Z" fill="#E9DAFF"/>
<path d="M122.841 177.812C122.841 177.812 130.573 173.712 128.847 152.656L144.823 149.693C144.823 149.693 143.023 168.572 151.11 174.566L122.841 177.812Z" fill="#E98862"/>
<g opacity="0.15">
<path d="M147.837 170.619L134.564 160.465L144.989 160.357C145.291 163.925 146.257 167.406 147.837 170.619Z" fill="black"/>
</g>
<path d="M119.782 144.491C120.888 150.879 124.374 156.929 130.009 158.991C136.699 161.441 141.654 161.607 149.367 161.607C159.892 161.607 159.544 150.63 159.84 139.569C160.14 128.463 159.253 116.55 155.093 112.68C146.793 104.956 122.42 109.848 119.456 122.768C117.923 129.451 118.729 138.41 119.782 144.491Z" fill="#E98862"/>
<path d="M144.481 139.57C145.281 139.57 145.93 138.921 145.93 138.121C145.93 137.321 145.281 136.672 144.481 136.672C143.681 136.672 143.032 137.321 143.032 138.121C143.032 138.921 143.681 139.57 144.481 139.57Z" fill="#0F1011"/>
<path d="M155.913 138.633C156.713 138.633 157.362 137.985 157.362 137.184C157.362 136.384 156.713 135.735 155.913 135.735C155.113 135.735 154.464 136.384 154.464 137.184C154.464 137.985 155.113 138.633 155.913 138.633Z" fill="#0F1011"/>
<path d="M158.423 134.1H158.415L154.577 134.053C154.488 134.052 154.399 134.033 154.317 133.998C154.235 133.963 154.16 133.912 154.098 133.848C154.035 133.784 153.986 133.708 153.953 133.625C153.92 133.542 153.903 133.454 153.904 133.364C153.904 133.274 153.922 133.186 153.957 133.103C153.992 133.02 154.043 132.945 154.107 132.882C154.171 132.82 154.247 132.771 154.331 132.738C154.414 132.705 154.503 132.689 154.593 132.691L158.432 132.739C158.608 132.747 158.774 132.823 158.896 132.95C159.017 133.078 159.084 133.248 159.083 133.424C159.082 133.6 159.012 133.769 158.889 133.895C158.766 134.021 158.599 134.095 158.423 134.1Z" fill="#0F1011"/>
<path d="M141.354 135.5C141.187 135.5 141.027 135.439 140.902 135.328C140.778 135.217 140.698 135.065 140.679 134.899C140.659 134.734 140.701 134.567 140.796 134.43C140.891 134.294 141.033 134.196 141.195 134.157L144.98 133.246C145.156 133.204 145.341 133.234 145.495 133.328C145.649 133.422 145.759 133.574 145.802 133.75C145.844 133.926 145.814 134.111 145.72 134.265C145.626 134.419 145.474 134.529 145.298 134.571L141.514 135.481C141.462 135.494 141.408 135.5 141.354 135.5Z" fill="#0F1011"/>
<path d="M131.62 122.879C132.749 144.447 130.638 154.473 129.465 158.229C129.388 158.477 129.255 158.704 129.078 158.893C128.9 159.082 128.681 159.228 128.439 159.32C128.196 159.412 127.936 159.448 127.677 159.425C127.419 159.402 127.169 159.32 126.947 159.186C123.19 156.954 114.653 149.996 111.773 131.802C109.192 115.502 121.331 108.308 129.35 105.909C136.263 103.841 145.633 104.24 153.09 108.99C162.481 114.973 161.09 127.283 161.09 127.283C149.697 127.808 125.351 128.819 125.351 128.819" fill="#0F1011"/>
<path d="M136.944 141.667C137.066 143.285 136.543 144.886 135.489 146.12C134.435 147.353 132.936 148.12 131.318 148.252C129.701 148.384 128.097 147.871 126.857 146.824C125.617 145.778 124.841 144.284 124.699 142.667C124.619 141.86 124.702 141.046 124.944 140.272C125.185 139.498 125.58 138.781 126.104 138.162C126.629 137.544 127.272 137.038 127.997 136.674C128.721 136.309 129.511 136.095 130.32 136.042C134.7 135.9 136.666 138.285 136.944 141.667Z" fill="#E98862"/>
<g opacity="0.15">
<path d="M150.914 146.158C150.794 146.158 150.678 146.115 150.587 146.037C150.497 145.959 150.437 145.851 150.419 145.732C150.401 145.614 150.427 145.493 150.49 145.392C150.554 145.29 150.652 145.215 150.767 145.18L153.714 144.275L151.652 139.685C151.597 139.564 151.593 139.427 151.64 139.303C151.687 139.178 151.781 139.078 151.902 139.024C152.023 138.969 152.161 138.965 152.285 139.012C152.409 139.059 152.509 139.153 152.564 139.274L154.858 144.381C154.887 144.446 154.902 144.516 154.902 144.587C154.902 144.658 154.887 144.728 154.857 144.792C154.828 144.857 154.786 144.915 154.732 144.961C154.679 145.008 154.617 145.043 154.549 145.064L151.061 146.136C151.013 146.151 150.964 146.158 150.914 146.158Z" fill="black"/>
</g>
<path d="M145.152 149.533C145.152 149.533 150.5 150.097 154.252 148.787C154.252 148.787 154.223 152.309 149.99 152.656C145.757 153.003 145.152 149.533 145.152 149.533Z" fill="white"/>
<path d="M120.815 141.507C120.843 141.501 120.873 141.496 120.901 141.488C121.417 141.364 121.862 141.04 122.138 140.588C122.415 140.135 122.501 139.592 122.377 139.076C122.338 138.912 118.511 122.51 125.931 112.587C129.431 107.906 134.985 105.342 142.452 104.962C143.54 104.91 144.404 104.968 144.352 103.862C144.302 103.341 144.059 102.856 143.67 102.505C143.282 102.153 142.776 101.96 142.252 101.962C135.378 101.447 126.967 104.514 122.721 110.201C114.179 121.643 118.313 139.265 118.493 140.01C118.613 140.51 118.922 140.945 119.354 141.224C119.786 141.503 120.31 141.604 120.815 141.507Z" fill="#E9DAFF"/>
<path d="M123.661 151.472C128.954 151.472 133.245 147.181 133.245 141.888C133.245 136.595 128.954 132.304 123.661 132.304C118.368 132.304 114.077 136.595 114.077 141.888C114.077 147.181 118.368 151.472 123.661 151.472Z" fill="#E9DAFF"/>
<path d="M120.716 151.76C126.009 151.76 130.3 147.469 130.3 142.176C130.3 136.883 126.009 132.592 120.716 132.592C115.423 132.592 111.132 136.883 111.132 142.176C111.132 147.469 115.423 151.76 120.716 151.76Z" fill="#EEE8FE"/>
<path d="M121.874 147.235C122.336 149.334 122.933 151.401 123.661 153.423C124.817 155.338 141.201 154.474 141.201 154.474" stroke="#EEE8FE" stroke-width="3" stroke-linecap="round" stroke-linejoin="round"/>
<path d="M140.85 156.851H142.881C144.176 156.851 145.226 155.801 145.226 154.506C145.226 153.211 144.176 152.161 142.881 152.161H140.85C139.555 152.161 138.505 153.211 138.505 154.506C138.505 155.801 139.555 156.851 140.85 156.851Z" fill="#E9DAFF"/>
<path d="M490.033 198.562C544.864 198.562 589.314 154.112 589.314 99.281C589.314 44.4496 544.864 0 490.033 0C435.202 0 390.752 44.4496 390.752 99.281C390.752 154.112 435.202 198.562 490.033 198.562Z" fill="#EEE8FE"/>
<path d="M529.951 59.4757C529.951 59.4757 531.109 48.2637 540.962 48.2637C552.662 48.2637 544.673 80.4127 539.553 100.073C539.007 102.175 538.911 104.369 539.271 106.511C539.63 108.653 540.437 110.695 541.64 112.503C542.842 114.312 544.413 115.847 546.249 117.008C548.084 118.168 550.144 118.928 552.294 119.239C554.366 119.54 556.478 119.417 558.501 118.877C560.524 118.338 562.416 117.392 564.062 116.098C565.708 114.804 567.074 113.189 568.077 111.351C569.079 109.513 569.698 107.49 569.894 105.406C572.263 80.1967 571.711 33.6827 545.194 34.5787C527.964 35.1607 527.964 52.3367 527.964 52.3367L529.951 59.4757Z" fill="#0F1011"/>
<path d="M529.951 98.0191C529.951 98.0191 522.823 94.2391 524.414 74.8301L509.687 72.1001C509.687 72.1001 511.342 89.5001 503.887 95.0271L529.951 98.0191Z" fill="#E98862"/>
<g opacity="0.15">
<path d="M506.909 91.3877L519.144 82.0277L509.535 81.9277C509.257 85.2172 508.366 88.4257 506.909 91.3877Z" fill="black"/>
</g>
<path d="M532.77 67.2998C531.751 73.1888 528.537 78.7648 523.343 80.6678C517.681 82.916 511.556 83.7447 505.5 83.0818C489.378 81.7598 492.567 45.1018 500.221 37.9818C507.875 30.8618 530.339 35.3708 533.072 47.2818C534.484 53.4388 533.741 61.6998 532.77 67.2998Z" fill="#E98862"/>
<path d="M509.708 62.7657C510.445 62.7657 511.043 62.168 511.043 61.4307C511.043 60.6934 510.445 60.0957 509.708 60.0957C508.971 60.0957 508.373 60.6934 508.373 61.4307C508.373 62.168 508.971 62.7657 509.708 62.7657Z" fill="#0F1011"/>
<path d="M499.171 61.9019C499.908 61.9019 500.506 61.3042 500.506 60.5669C500.506 59.8296 499.908 59.2319 499.171 59.2319C498.434 59.2319 497.836 59.8296 497.836 60.5669C497.836 61.3042 498.434 61.9019 499.171 61.9019Z" fill="#0F1011"/>
<path d="M496.857 57.7209H496.865L500.403 57.6769C500.565 57.6694 500.718 57.5996 500.83 57.4819C500.942 57.3642 501.003 57.2078 501.002 57.0455C501.001 56.8833 500.938 56.7277 500.824 56.6114C500.711 56.4952 500.557 56.4272 500.395 56.4219H500.387L496.848 56.4659C496.686 56.4734 496.533 56.5434 496.421 56.6612C496.31 56.779 496.248 56.9354 496.249 57.0977C496.25 57.26 496.314 57.4155 496.428 57.5317C496.541 57.6479 496.695 57.7157 496.857 57.7209Z" fill="#0F1011"/>
<path d="M512.592 59.011C512.745 59.0102 512.893 58.9534 513.007 58.8512C513.122 58.7491 513.195 58.6087 513.213 58.4565C513.23 58.3043 513.192 58.1508 513.105 58.0249C513.017 57.899 512.887 57.8094 512.738 57.773L509.249 56.934C509.169 56.9147 509.086 56.9113 509.004 56.9241C508.923 56.937 508.845 56.9657 508.775 57.0087C508.704 57.0517 508.643 57.1081 508.595 57.1747C508.546 57.2413 508.511 57.3169 508.492 57.397C508.473 57.4771 508.469 57.5602 508.482 57.6416C508.495 57.723 508.524 57.8011 508.567 57.8714C508.61 57.9417 508.666 58.0028 508.733 58.0513C508.799 58.0998 508.875 58.1347 508.955 58.154L512.444 58.994C512.493 59.005 512.542 59.0107 512.592 59.011Z" fill="#0F1011"/>
<path d="M509.09 71.9507C509.09 71.9507 504.16 72.4707 500.704 71.2627C500.704 71.2627 500.732 74.5097 504.633 74.8297C508.534 75.1497 509.09 71.9507 509.09 71.9507Z" fill="white"/>
<path d="M521.923 52.0459C520.517 78.9129 524.205 81.6869 524.205 81.6869C524.205 81.6869 537.628 73.6129 539.381 57.4779C541.024 42.3529 529.881 33.4219 522.348 31.7379C493.73 25.3379 490.572 51.3929 490.572 51.3929C504.895 55.0749 525.02 52.5829 525.02 52.5829" fill="#0F1011"/>
<path d="M516.657 64.6998C516.592 65.4431 516.675 66.1918 516.9 66.903C517.126 67.6141 517.489 68.2737 517.971 68.8439C518.452 69.414 519.041 69.8834 519.704 70.2252C520.367 70.5669 521.091 70.7742 521.835 70.8351C522.579 70.8961 523.327 70.8095 524.037 70.5803C524.747 70.3511 525.404 69.9839 525.972 69.4997C526.54 69.0155 527.006 68.4239 527.344 67.7589C527.682 67.094 527.886 66.3687 527.943 65.6248C528.017 64.8813 527.94 64.1306 527.718 63.4173C527.495 62.704 527.131 62.0428 526.648 61.4731C526.165 60.9033 525.572 60.4367 524.904 60.101C524.237 59.7652 523.509 59.5672 522.763 59.5188C518.727 59.3868 516.912 61.5828 516.657 64.6998Z" fill="#E98862"/>
<g opacity="0.15">
<path d="M503.779 68.8396C503.889 68.8385 503.994 68.7985 504.077 68.7266C504.159 68.6548 504.214 68.5558 504.23 68.4475C504.247 68.3392 504.224 68.2287 504.166 68.1356C504.108 68.0425 504.019 67.9731 503.915 67.9396L501.2 67.0996L503.1 62.8676C503.146 62.7568 503.147 62.6324 503.103 62.5208C503.058 62.4093 502.972 62.3194 502.863 62.2703C502.753 62.2212 502.629 62.2168 502.516 62.2579C502.403 62.2991 502.311 62.3825 502.259 62.4906L500.143 67.1996C500.116 67.2592 500.103 67.3238 500.103 67.3891C500.103 67.4544 500.117 67.5189 500.144 67.5783C500.171 67.6378 500.21 67.6909 500.259 67.734C500.308 67.7772 500.366 67.8094 500.428 67.8286L503.644 68.8156C503.688 68.8304 503.733 68.8385 503.779 68.8396Z" fill="black"/>
</g>
<path d="M538.8 50.7719C538.899 50.772 538.997 50.7656 539.095 50.7529C539.395 50.7151 539.685 50.6184 539.948 50.4683C540.211 50.3181 540.442 50.1175 540.627 49.878C540.813 49.6385 540.949 49.3647 541.028 49.0725C541.107 48.7802 541.128 48.4752 541.089 48.1749C540.424 43.9272 538.35 40.0265 535.2 37.0999C534.972 36.901 534.707 36.749 534.42 36.6525C534.133 36.556 533.83 36.517 533.528 36.5376C533.227 36.5582 532.932 36.6381 532.661 36.7726C532.39 36.9072 532.148 37.0938 531.949 37.3219C531.75 37.5499 531.598 37.8149 531.502 38.1017C531.405 38.3885 531.366 38.6915 531.387 38.9934C531.407 39.2952 531.487 39.5901 531.622 39.8611C531.756 40.1321 531.943 40.374 532.171 40.5729C534.465 42.7598 535.988 45.6313 536.512 48.7569C536.583 49.3137 536.854 49.8255 537.275 50.1964C537.697 50.5674 538.239 50.772 538.8 50.7719Z" fill="#262626"/>
<path d="M432.672 106.828C432.672 106.828 431.198 95.8541 423.412 97.3811C418.5 98.3451 394.818 100.113 394.729 102.303C394.507 107.718 416.204 106.394 418.761 111.103L432.672 106.828Z" fill="#E98862"/>
<path d="M426.236 97.4C426.236 97.4 414.869 95.166 412.259 96.131C409.949 96.986 415.379 100.256 415.379 100.256L426.236 97.4Z" fill="#E98862"/>
<path d="M549.672 158.128C549.659 164.337 550.625 170.509 552.532 176.418C541.977 184.967 529.78 191.261 516.696 194.909C503.612 198.557 489.918 199.482 476.462 197.628C473.922 189.298 481.102 182.668 480.762 154.448C480.752 153.208 480.712 147.208 480.712 147.208L469.312 164.958C468.494 166.491 467.294 167.786 465.827 168.716C464.36 169.647 462.677 170.181 460.942 170.268C460.772 170.268 460.612 170.278 460.452 170.278C458.795 170.277 457.163 169.867 455.703 169.084C454.243 168.301 452.999 167.168 452.082 165.788L415.972 111.508L432.712 100.378L459.492 140.648L480.512 101.218L480.712 101.318C483.572 96.3479 488.732 93.1379 497.612 92.7579C498.192 92.7279 499.122 92.7079 500.322 92.6879C500.562 97.7579 531.962 97.7379 532.622 92.5679C541.492 92.5779 548.762 95.2979 552.972 99.5079C567.492 114.028 549.672 138.768 549.672 158.128Z" fill="#571BB1"/>
<path d="M500.322 92.6898C500.561 97.7598 503.322 105.217 511.822 105.78C523.16 106.526 531.954 97.7418 532.617 92.5698H532.59C521.431 92.5698 506.83 92.5888 500.322 92.6898Z" fill="#E98862"/>
<path d="M515.694 89.2859L526.424 92.8779C526.846 93.019 527.293 93.0694 527.736 93.0258C528.179 92.9822 528.608 92.8455 528.994 92.6246C529.38 92.4038 529.716 92.1039 529.978 91.7444C530.241 91.385 530.424 90.9742 530.517 90.5389L535.964 64.9179C536.125 64.1588 536.001 63.367 535.616 62.6933C535.231 62.0197 534.612 61.5112 533.876 61.2649L523.146 57.6739C522.724 57.5327 522.277 57.4823 521.834 57.526C521.391 57.5696 520.962 57.7063 520.576 57.9271C520.189 58.148 519.854 58.4479 519.592 58.8073C519.329 59.1668 519.146 59.5776 519.053 60.0129L513.607 85.6329C513.446 86.3918 513.569 87.1836 513.954 87.8574C514.339 88.5311 514.958 89.0396 515.694 89.2859Z" fill="white"/>
<path d="M530.235 95.925L519.222 97.368C519.222 97.368 509.51 82.134 518.2 71.483C519.2 70.256 521.94 67.735 523.377 69.172C528.146 73.94 526 83.055 526.877 87.726C527.477 85.746 528.469 83.089 529.355 83.339C531.685 84 530.235 93.178 530.235 95.925Z" fill="#E98862"/>
<path d="M517.275 137.952L513.537 90.881L533.574 89.29L535.974 119.574" fill="#571BB1"/>
<path d="M244.086 256.254C238.356 255.917 228.195 254.976 223.956 252.46C226.105 251.804 228.987 250.733 228.716 249.771C228.005 247.24 218.042 248.814 215.062 248.814L213.977 248.858V261.663C213.977 261.663 233.611 269.025 245.167 259.6C245.461 259.36 245.676 259.036 245.783 258.672C245.89 258.308 245.885 257.92 245.768 257.558C245.652 257.197 245.429 256.879 245.128 256.647C244.828 256.414 244.465 256.277 244.086 256.254Z" fill="#E98862"/>
<path d="M316.167 207.368L304.025 258.34C303.836 259.133 303.83 259.959 304.006 260.755C304.182 261.551 304.535 262.296 305.041 262.936C305.546 263.576 306.189 264.093 306.923 264.448C307.656 264.804 308.461 264.989 309.276 264.989H380.86C382.042 264.989 383.192 264.601 384.133 263.884C385.073 263.167 385.752 262.161 386.066 261.02L400.057 210.049C400.277 209.248 400.308 208.407 400.15 207.591C399.992 206.776 399.647 206.008 399.143 205.347C398.64 204.686 397.99 204.151 397.246 203.782C396.501 203.413 395.682 203.221 394.851 203.221H321.419C320.205 203.221 319.026 203.631 318.073 204.383C317.12 205.136 316.449 206.187 316.167 207.368Z" fill="#9EBCEA"/>
<path d="M278.541 264.989H365.06C365.476 264.989 365.889 264.907 366.274 264.748C366.659 264.588 367.008 264.355 367.303 264.06C367.597 263.765 367.831 263.416 367.99 263.031C368.15 262.646 368.232 262.234 368.232 261.817C368.232 261.4 368.15 260.988 367.99 260.603C367.831 260.218 367.597 259.869 367.303 259.574C367.008 259.28 366.659 259.046 366.274 258.886C365.889 258.727 365.476 258.645 365.06 258.645H278.541C277.7 258.645 276.893 258.979 276.298 259.574C275.703 260.169 275.369 260.976 275.369 261.817C275.369 262.234 275.451 262.646 275.61 263.031C275.77 263.416 276.003 263.765 276.298 264.06C276.593 264.355 276.942 264.588 277.327 264.748C277.712 264.907 278.124 264.989 278.541 264.989Z" fill="#9EBCEA"/>
<path d="M354.972 242.068C359.647 242.068 363.438 238.278 363.438 233.602C363.438 228.927 359.647 225.136 354.972 225.136C350.296 225.136 346.506 228.927 346.506 233.602C346.506 238.278 350.296 242.068 354.972 242.068Z" fill="white"/>
<path d="M418.962 154.916L387.658 181.063H450.725" fill="#EEE8FE"/>
</g>
<defs>
<clipPath id="clip0_23_4277">
<rect width="649.588" height="504.335" fill="white"/>
</clipPath>
</defs>
</svg>
