<svg width="799" height="562" viewBox="0 0 799 562" fill="none" xmlns="http://www.w3.org/2000/svg">
<g clip-path="url(#clip0_23_4915)">
<path d="M758.109 0H425.769V240.678H758.109V0Z" fill="#E9DAFF"/>
<path d="M758.109 0H425.769V19.826H758.109V0Z" fill="#D0BFE9"/>
<path d="M746.978 14.887C749.725 14.887 751.952 12.66 751.952 9.91296C751.952 7.1659 749.725 4.93896 746.978 4.93896C744.231 4.93896 742.004 7.1659 742.004 9.91296C742.004 12.66 744.231 14.887 746.978 14.887Z" fill="white"/>
<path d="M699.992 40.8569H457.919V210.083H699.992V40.8569Z" fill="white"/>
<path d="M649.471 188.865C647.171 188.865 639.471 187.653 638.922 189.604C638.593 190.776 644.329 192.161 644.329 192.161" fill="#E98862"/>
<path d="M650.68 198.1C650.68 198.1 635.141 204.484 626.214 197.2C625.987 197.014 625.821 196.764 625.739 196.483C625.656 196.201 625.66 195.902 625.75 195.622C625.841 195.343 626.013 195.098 626.245 194.918C626.477 194.739 626.757 194.633 627.05 194.615C633.069 194.258 645.431 193.046 643.987 189.079H653.693" fill="#E98862"/>
<path d="M622.276 131.9L613.806 136.08C613.806 136.08 605.571 135.09 606.87 124.68C607.055 123.205 607.929 121.543 611.97 122.906C611.188 121.126 610.437 118.876 611.048 118.264C613.4 115.925 620.718 127.5 622.276 131.9Z" fill="#E98862"/>
<g opacity="0.15">
<path d="M622.276 131.9L613.806 136.08C613.806 136.08 605.571 135.09 606.87 124.68C607.055 123.205 607.929 121.543 611.97 122.906C611.188 121.126 610.437 118.876 611.048 118.264C613.4 115.925 620.718 127.5 622.276 131.9Z" fill="black"/>
</g>
<path d="M637.955 180.453C637.529 180.453 637.104 180.419 636.684 180.353C635.466 180.157 634.31 179.683 633.306 178.967C632.301 178.251 631.475 177.312 630.893 176.225L609.532 136.338L623.657 128.773L640.057 159.392L665.466 135.225L676.509 146.834L643.481 178.248C641.99 179.665 640.012 180.454 637.955 180.453Z" fill="#571BB1"/>
<path d="M725.639 240.678H662.199L665.889 215.499L723.929 211.918L725.639 240.678Z" fill="#262626"/>
<path d="M705.482 132.554C705.482 132.554 699.346 129.919 699.346 113.8L687.013 112.543C687.013 112.543 689.555 126.787 683.783 131.848L705.482 132.554Z" fill="#E98862"/>
<g opacity="0.15">
<path d="M686.026 128.643L695.485 120.095L687.552 120.662C687.545 123.394 687.027 126.101 686.026 128.643Z" fill="black"/>
</g>
<path d="M661.258 218.054C664.458 225.401 727.27 228.454 728.109 215.529C728.643 207.304 721.395 200.129 721.395 184.094C721.395 168.059 736.143 147.594 724.126 135.577C720.639 132.091 714.62 129.84 707.28 129.832C706.731 134.113 680.744 134.132 680.546 129.932C679.554 129.947 678.783 129.962 678.303 129.985C652.987 131.076 664.111 159.885 664.355 181.05C664.653 205.816 657.962 210.485 661.258 218.054Z" fill="#571BB1"/>
<path d="M705.73 107.026C705.288 111.953 703.014 116.77 698.857 118.691C694.338 120.927 689.341 122.024 684.301 121.886C670.912 121.886 671.063 91.4309 676.896 85.0389C682.729 78.6469 701.564 80.8479 704.624 90.4879C706.206 95.4729 706.152 102.336 705.73 107.026Z" fill="#E98862"/>
<path d="M686.309 104.847C686.919 104.847 687.414 104.352 687.414 103.742C687.414 103.131 686.919 102.637 686.309 102.637C685.699 102.637 685.204 103.131 685.204 103.742C685.204 104.352 685.699 104.847 686.309 104.847Z" fill="#0F1011"/>
<path d="M677.558 104.847C678.168 104.847 678.663 104.352 678.663 103.742C678.663 103.131 678.168 102.637 677.558 102.637C676.948 102.637 676.453 103.131 676.453 103.742C676.453 104.352 676.948 104.847 677.558 104.847Z" fill="#0F1011"/>
<path d="M675.412 101.552C675.278 101.552 675.149 101.501 675.053 101.408C674.956 101.316 674.898 101.19 674.892 101.056C674.886 100.923 674.932 100.792 675.02 100.691C675.108 100.59 675.232 100.527 675.365 100.516L678.281 100.24C678.418 100.226 678.555 100.268 678.661 100.356C678.768 100.443 678.835 100.57 678.848 100.707C678.861 100.844 678.82 100.981 678.732 101.087C678.644 101.193 678.518 101.26 678.381 101.274L675.465 101.55L675.412 101.552Z" fill="#0F1011"/>
<path d="M688.481 101.552C688.454 101.552 688.427 101.55 688.4 101.546L685.465 101.089C685.329 101.068 685.207 100.993 685.126 100.882C685.045 100.771 685.011 100.632 685.032 100.496C685.053 100.36 685.128 100.238 685.239 100.157C685.35 100.075 685.489 100.042 685.625 100.063L688.56 100.52C688.689 100.54 688.806 100.608 688.888 100.71C688.969 100.813 689.009 100.942 688.999 101.072C688.989 101.203 688.93 101.325 688.834 101.414C688.738 101.503 688.612 101.552 688.481 101.552Z" fill="#0F1011"/>
<path d="M686.51 112.461C684.208 112.884 681.848 112.884 679.546 112.461C679.546 112.461 679.788 115.138 683.028 115.138C686.268 115.138 686.51 112.461 686.51 112.461Z" fill="white"/>
<path d="M695.75 95.173C696.408 117.432 699.637 119.473 699.637 119.473C699.637 119.473 710.165 111.905 710.519 98.473C710.852 85.884 701.053 79.273 694.727 78.391C670.687 75.048 669.843 96.755 669.843 96.755C681.908 98.823 698.343 95.406 698.343 95.406" fill="#0F1011"/>
<path d="M692.262 105.968C692.253 106.589 692.368 107.206 692.599 107.782C692.83 108.359 693.174 108.884 693.61 109.326C694.046 109.769 694.566 110.12 695.139 110.36C695.712 110.6 696.327 110.723 696.949 110.723C697.57 110.723 698.185 110.6 698.758 110.36C699.331 110.12 699.851 109.769 700.287 109.326C700.723 108.884 701.067 108.359 701.298 107.782C701.53 107.206 701.644 106.589 701.635 105.968C701.646 105.35 701.531 104.735 701.3 104.162C701.068 103.589 700.723 103.068 700.285 102.631C699.848 102.193 699.327 101.848 698.754 101.616C698.181 101.385 697.566 101.271 696.948 101.281C693.61 101.446 692.262 103.38 692.262 105.968Z" fill="#E98862"/>
<path d="M714.882 98.4741C720.784 98.4741 725.568 93.6898 725.568 87.7881C725.568 81.8863 720.784 77.1021 714.882 77.1021C708.98 77.1021 704.196 81.8863 704.196 87.7881C704.196 93.6898 708.98 98.4741 714.882 98.4741Z" fill="#0F1011"/>
<path d="M680.546 129.932C680.746 134.132 683.025 140.3 690.068 140.766C699.452 141.384 706.731 134.113 707.28 129.832H707.257C698.018 129.832 685.932 129.848 680.546 129.932Z" fill="#E98862"/>
<path d="M695.487 204.767C695.402 204.767 695.318 204.767 695.232 204.767L647.288 203.3L647.796 186.672L690.319 187.972L712.753 141.025L727.763 148.198L702.991 200.038C702.314 201.454 701.25 202.649 699.922 203.486C698.594 204.323 697.057 204.767 695.487 204.767Z" fill="#571BB1"/>
<g opacity="0.15">
<path d="M681.887 110.255C681.86 110.255 681.832 110.253 681.805 110.247L679.086 109.647C679.033 109.636 678.984 109.613 678.94 109.58C678.897 109.548 678.861 109.507 678.835 109.46C678.808 109.412 678.793 109.36 678.788 109.306C678.784 109.252 678.791 109.198 678.809 109.147L680.235 105.121C680.269 105.026 680.339 104.948 680.431 104.904C680.522 104.861 680.627 104.855 680.722 104.889C680.817 104.923 680.895 104.993 680.939 105.085C680.982 105.176 680.988 105.281 680.954 105.376L679.672 109L681.972 109.5C682.065 109.519 682.147 109.572 682.203 109.649C682.258 109.726 682.284 109.82 682.273 109.914C682.263 110.008 682.218 110.095 682.147 110.158C682.076 110.221 681.985 110.255 681.89 110.254L681.887 110.255Z" fill="black"/>
</g>
<path d="M584 87.2999L614.368 135.71C614.511 135.938 614.698 136.137 614.918 136.293C615.138 136.449 615.387 136.561 615.65 136.621C615.913 136.681 616.185 136.689 616.451 136.644C616.717 136.599 616.972 136.502 617.2 136.359C617.429 136.216 617.627 136.029 617.783 135.809C617.939 135.589 618.051 135.34 618.111 135.077C618.171 134.814 618.179 134.542 618.134 134.276C618.089 134.01 617.992 133.755 617.849 133.527L617.814 133.472L585.916 86.0489C585.834 85.9231 585.728 85.8147 585.604 85.7299C585.48 85.6451 585.34 85.5856 585.193 85.5547C585.046 85.5238 584.894 85.5222 584.747 85.55C584.599 85.5777 584.458 85.6343 584.333 85.7164C584.207 85.7985 584.098 85.9047 584.014 86.0287C583.929 86.1527 583.869 86.2922 583.838 86.4393C583.808 86.5863 583.806 86.738 583.834 86.8857C583.861 87.0333 583.918 87.1741 584 87.2999Z" fill="#0F1011"/>
<path d="M605.9 121.644C607.507 121.01 611.222 121.102 612.235 122.904C613.95 125.954 614.479 132.963 612.691 133.752C610.903 134.541 607.771 134.246 606.846 132.152C605.921 130.058 604.6 122.159 605.9 121.644Z" fill="#E98862"/>
<path d="M798.254 560.652H0C8.747 538.346 24.9 519.424 47.67 513.81C80.98 505.61 116.23 528.16 149.47 519.68C168.352 514.868 183.218 500.844 198.838 489.2C257.769 445.264 338.523 432.278 408.263 455.532C444.712 467.682 477.926 488.932 515.263 497.962C563.547 509.648 614.04 499.962 663.693 498.362C712.045 496.805 781.333 516.512 798.254 560.652Z" fill="#F3F5FD"/>
<path d="M697.794 329.029L687.488 331.465L700.409 386.115L710.715 383.678L697.794 329.029Z" fill="#F0F6FF"/>
<path d="M709.134 324.79L700.285 372.758L706.007 373.813L714.855 325.846L709.134 324.79Z" fill="#D0BFE9"/>
<path d="M709.137 324.775L708.13 330.066L713.846 331.154L714.852 325.863L709.137 324.775Z" fill="#E9DAFF"/>
<path d="M691.42 336.973L688.243 338.225L706.783 385.289L709.961 384.037L691.42 336.973Z" fill="#0CBC8B"/>
<path d="M715.307 357.573H687.359V393.293H715.307V357.573Z" fill="#D0BFE9"/>
<path d="M612.753 457.815H602.3V560.651H612.753V457.815Z" fill="#D0BFE9"/>
<path d="M604.15 457.815H593.697V560.651H604.15V457.815Z" fill="#E9DAFF"/>
<path d="M742.958 457.815H732.505V560.651H742.958V457.815Z" fill="#D0BFE9"/>
<path d="M734.355 457.815H723.902V560.651H734.355V457.815Z" fill="#E9DAFF"/>
<path d="M641.424 457.815H630.971V560.651H641.424V457.815Z" fill="#D0BFE9"/>
<path d="M632.821 457.815H622.368V560.651H632.821V457.815Z" fill="#E9DAFF"/>
<path d="M771.63 457.815H761.177V560.651H771.63V457.815Z" fill="#D0BFE9"/>
<path d="M763.027 457.815H752.574V560.651H763.027V457.815Z" fill="#E9DAFF"/>
<path d="M771.63 391.99H631.036V460.281H771.63V391.99Z" fill="#D0BFE9"/>
<path d="M734.291 391.99H593.697V460.281H734.291V391.99Z" fill="#E9DAFF"/>
<g opacity="0.53">
<path d="M726.727 401.698H601.26V450.271H726.727V401.698Z" fill="#F3F5FD"/>
</g>
<path d="M663.993 431.556C667.07 431.556 669.565 429.061 669.565 425.984C669.565 422.906 667.07 420.412 663.993 420.412C660.916 420.412 658.421 422.906 658.421 425.984C658.421 429.061 660.916 431.556 663.993 431.556Z" fill="white"/>
<path d="M270.722 82.3758C290.763 82.3758 307.009 66.1295 307.009 46.0888C307.009 26.048 290.763 9.80176 270.722 9.80176C250.681 9.80176 234.435 26.048 234.435 46.0888C234.435 66.1295 250.681 82.3758 270.722 82.3758Z" fill="#D0BFE9"/>
<path d="M278.117 82.3758C298.158 82.3758 314.404 66.1295 314.404 46.0888C314.404 26.048 298.158 9.80176 278.117 9.80176C258.076 9.80176 241.83 26.048 241.83 46.0888C241.83 66.1295 258.076 82.3758 278.117 82.3758Z" fill="#E9DAFF"/>
<path d="M278.117 77.0299C295.205 77.0299 309.058 63.1772 309.058 46.089C309.058 29.0007 295.205 15.1479 278.117 15.1479C261.029 15.1479 247.176 29.0007 247.176 46.089C247.176 63.1772 261.029 77.0299 278.117 77.0299Z" fill="#F3F5FD"/>
<path d="M278.118 48.9437C277.864 48.9438 277.615 48.8787 277.393 48.7547L262.463 40.3627C262.121 40.1705 261.869 39.8502 261.764 39.4724C261.658 39.0946 261.706 38.6902 261.898 38.3482C262.091 38.0062 262.411 37.7546 262.789 37.6488C263.167 37.5429 263.571 37.5915 263.913 37.7837L276.638 44.9367V24.5997C276.648 24.214 276.808 23.8474 277.085 23.5782C277.361 23.3089 277.732 23.1582 278.117 23.1582C278.503 23.1582 278.874 23.3089 279.15 23.5782C279.427 23.8474 279.587 24.214 279.597 24.5997V47.4647C279.597 47.659 279.559 47.8514 279.485 48.0309C279.41 48.2104 279.301 48.3735 279.164 48.5108C279.027 48.6482 278.864 48.7571 278.684 48.8314C278.505 48.9057 278.312 48.9439 278.118 48.9437Z" fill="#E9DAFF"/>
<path d="M298.214 314.076C297.958 314.07 235.763 314.2 235.64 314.2C226.916 314.2 223.545 319.255 223.545 319.255V321.98H308.58V319.255C304.739 316.65 301.243 314 298.214 314.076Z" fill="#E9DAFF"/>
<path d="M286.366 319.926C286.366 319.926 290.852 313.485 298.214 314.076C300.211 314.15 302.169 314.651 303.957 315.544C305.745 316.437 307.321 317.703 308.58 319.255V321.98H262.291V319.255C262.291 319.255 265.662 314.2 274.391 314.2C283.12 314.2 286.366 319.926 286.366 319.926Z" fill="#D0BFE9"/>
<path d="M262.291 319.255H223.545V321.979H262.291V319.255Z" fill="#D0BFE9"/>
<path d="M123.773 405.145L83.0718 559.883L88.8744 561.409L129.576 406.672L123.773 405.145Z" fill="#D0BFE9"/>
<path d="M195.9 405.442L189.973 406.372L214.235 561.111L220.162 560.182L195.9 405.442Z" fill="#D0BFE9"/>
<path d="M118.326 257.477C118.326 257.477 68.761 254.346 68.761 297.652C68.761 340.958 76.061 401.477 112.587 408.26C149.113 415.043 203.068 413 215.6 410.874C230.991 408.265 237.7 372.563 217.2 370.174C159.021 363.391 187.2 262.174 118.326 257.477Z" fill="#D0BFE9"/>
<path d="M213.078 530.702L211.192 555.16L232.13 556.775L234.015 532.316L213.078 530.702Z" fill="#E98862"/>
<path d="M258.735 560.464C259.274 560.461 259.808 560.353 260.305 560.144C260.803 559.936 261.254 559.631 261.633 559.248C262.013 558.865 262.314 558.411 262.518 557.912C262.722 557.413 262.826 556.878 262.823 556.339C262.823 556.239 262.823 556.139 262.811 556.039C262.75 555.258 262.467 554.512 261.996 553.887C261.526 553.262 260.886 552.784 260.153 552.51L235.71 544.323C235.236 544.166 234.735 544.114 234.239 544.169C233.743 544.224 233.265 544.386 232.838 544.643C229.477 546.974 225.458 548.165 221.37 548.043C218.186 547.816 215.13 546.699 212.55 544.819C212.323 544.633 212.048 544.515 211.757 544.479C211.466 544.444 211.171 544.492 210.906 544.617C210.641 544.743 210.417 544.942 210.26 545.19C210.104 545.438 210.021 545.725 210.022 546.019V557.971C210.022 558.681 210.304 559.362 210.806 559.864C211.309 560.367 211.99 560.649 212.7 560.649H212.711L258.735 560.464Z" fill="#D0BFE9"/>
<path d="M317.201 529.766L296.492 533.25L300.606 557.709L321.315 554.226L317.201 529.766Z" fill="#E98862"/>
<path d="M327.9 535.12L281.8 357.736C280.77 353.772 278.453 350.263 275.214 347.757C271.974 345.252 267.995 343.892 263.9 343.891H162.848V343.956H106.239V361.3C106.239 366.301 107.224 371.254 109.138 375.875C111.052 380.496 113.857 384.694 117.394 388.231C120.93 391.768 125.129 394.573 129.75 396.487C134.371 398.401 139.323 399.387 144.325 399.387H171.935V399.497H220.135L206.863 540.615L243.701 544.079L256.534 407.623L292.094 544.428L327.9 535.12Z" fill="#262626"/>
<path d="M250.914 259.176C250.914 259.176 251.064 247.165 259.649 247.79C265.065 248.184 290.8 246.99 291.183 249.334C292.131 255.134 268.591 256.552 266.455 261.956L250.914 259.176Z" fill="#E98862"/>
<path d="M256.609 248.175C256.609 248.175 268.558 244.275 271.495 244.975C274.095 245.594 268.675 249.826 268.675 249.826L256.609 248.175Z" fill="#E98862"/>
<path d="M226.233 311.878L268.866 262.244L250.492 251.912L216.354 290.32L189.654 242.529C187.128 234.976 181.374 229.915 169.634 229.409C169.004 229.389 167.994 229.359 166.694 229.339C166.434 234.839 132.364 234.819 131.644 229.209C122.024 229.219 114.124 232.179 109.564 236.739C93.814 252.489 113.144 279.329 113.144 300.329C113.144 321.329 103.644 330.749 104.344 341.529C105.444 358.469 187.774 354.469 191.964 344.839C194.774 338.387 192.051 333.539 189.908 322.002H226.232L226.233 311.878ZM187.905 296.329C187.946 292.796 188.219 289.099 188.594 285.337L196.894 300.197H187.908C187.895 298.947 187.89 297.669 187.908 296.33L187.905 296.329Z" fill="#571BB1"/>
<path d="M166.7 229.34C166.44 234.84 163.44 242.93 154.22 243.53C141.91 244.349 132.37 234.82 131.65 229.21H131.69C143.785 229.21 159.625 229.23 166.7 229.34Z" fill="#E98862"/>
<path d="M345.039 560.464C345.578 560.461 346.112 560.353 346.609 560.144C347.107 559.935 347.558 559.63 347.938 559.247C348.318 558.864 348.618 558.41 348.822 557.91C349.026 557.411 349.13 556.876 349.127 556.337C349.127 556.237 349.127 556.137 349.115 556.037C349.054 555.256 348.771 554.51 348.3 553.885C347.829 553.259 347.189 552.782 346.456 552.508L322.014 544.321C321.54 544.164 321.038 544.112 320.543 544.167C320.047 544.222 319.569 544.384 319.141 544.641C315.781 546.972 311.762 548.163 307.674 548.041C304.49 547.814 301.433 546.697 298.853 544.817C298.626 544.631 298.351 544.514 298.06 544.479C297.769 544.444 297.475 544.492 297.21 544.617C296.945 544.743 296.722 544.941 296.565 545.189C296.409 545.437 296.326 545.724 296.326 546.017V557.969C296.325 558.679 296.607 559.36 297.108 559.862C297.61 560.365 298.29 560.648 299 560.649H299.011L345.039 560.464Z" fill="#D0BFE9"/>
<path d="M58.339 331.695H48.948V560.652H58.339V331.695Z" fill="#E9DAFF"/>
<path d="M511.313 331.695H501.922V560.652H511.313V331.695Z" fill="#D0BFE9"/>
<path d="M511.312 328.825H426.617V544.996H511.312V328.825Z" fill="#D0BFE9"/>
<path d="M419.1 529.341H409.709V560.652H419.1V529.341Z" fill="#D0BFE9"/>
<path d="M524.296 322.239H35.964V335.152H524.296V322.239Z" fill="#E9DAFF"/>
<path d="M431.313 331.695H421.922V560.652H431.313V331.695Z" fill="#E9DAFF"/>
<path d="M339.1 331.695H329.709V560.652H339.1V331.695Z" fill="#E9DAFF"/>
<path d="M426.617 335.169H334.404V544.996H426.617V335.169Z" fill="#E9DAFF"/>
<path d="M333.756 264.443L321.614 315.415C321.425 316.208 321.419 317.033 321.595 317.829C321.771 318.625 322.125 319.371 322.63 320.011C323.135 320.65 323.778 321.167 324.512 321.523C325.245 321.879 326.05 322.064 326.865 322.064H398.449C399.632 322.064 400.782 321.675 401.722 320.958C402.663 320.241 403.342 319.235 403.655 318.095L417.646 267.124C417.866 266.323 417.898 265.482 417.739 264.666C417.581 263.85 417.236 263.082 416.732 262.422C416.229 261.761 415.579 261.226 414.835 260.857C414.09 260.488 413.271 260.296 412.44 260.296H339.008C337.794 260.296 336.615 260.705 335.662 261.458C334.709 262.21 334.038 263.262 333.756 264.443Z" fill="#9EBCEA"/>
<path d="M296.13 322.064H382.649C383.49 322.064 384.297 321.73 384.892 321.135C385.487 320.54 385.821 319.733 385.821 318.892C385.821 318.05 385.487 317.244 384.892 316.649C384.297 316.054 383.49 315.72 382.649 315.72H296.13C295.713 315.72 295.301 315.802 294.916 315.961C294.531 316.121 294.182 316.354 293.887 316.649C293.593 316.943 293.359 317.293 293.199 317.678C293.04 318.063 292.958 318.475 292.958 318.892C292.958 319.308 293.04 319.721 293.199 320.106C293.359 320.49 293.593 320.84 293.887 321.135C294.182 321.429 294.531 321.663 294.916 321.822C295.301 321.982 295.713 322.064 296.13 322.064Z" fill="#9EBCEA"/>
<path d="M372.561 299.143C377.237 299.143 381.027 295.353 381.027 290.677C381.027 286.001 377.237 282.211 372.561 282.211C367.885 282.211 364.095 286.001 364.095 290.677C364.095 295.353 367.885 299.143 372.561 299.143Z" fill="white"/>
<path d="M241 316.764C239.05 318.294 230.61 318.774 226.23 318.924V302.694C228.46 301.494 231.24 299.944 233.31 298.624C236.18 296.784 237.48 296.254 238.2 296.454H238.21C238.38 296.503 238.533 296.6 238.65 296.734C238.747 296.841 238.822 296.967 238.87 297.104C239.34 298.374 237.19 300.284 236 301.224L235.99 301.234C235.56 301.574 235.25 301.794 235.25 301.794L237.79 302.964L237.8 302.974L240.02 304.004L240.05 304.014L241.25 304.564C241.25 304.564 241.46 305.444 241.69 306.734V306.744C242.228 309.834 242.878 315.294 241 316.764Z" fill="#E98862"/>
<path d="M255.405 316.786L250.245 315.026L235.044 300.309L232.981 298.304L229.294 294.738L232.746 291.18L236.466 294.783L238.535 296.78L253.69 311.461L255.405 316.786Z" fill="#0CBC8B"/>
<path d="M238.535 296.78L235.044 300.309L232.981 298.304L236.466 294.783L238.535 296.78Z" fill="white"/>
<path d="M236.782 301.472C238.09 301.495 239.396 301.604 240.69 301.796C242.023 301.969 243.338 302.265 244.617 302.68C245.328 302.906 246.015 303.199 246.671 303.554C247.039 303.756 247.389 303.987 247.72 304.245L248.455 304.881C249.423 305.752 250.306 306.714 251.093 307.752C251.308 308.037 251.415 308.39 251.395 308.747C251.375 309.104 251.229 309.442 250.983 309.702C250.738 309.962 250.408 310.126 250.053 310.166C249.697 310.206 249.339 310.119 249.042 309.921L248.972 309.874L246.072 307.93L245.346 307.453C245.178 307.357 245.004 307.271 244.825 307.197C244.38 307.016 243.919 306.876 243.449 306.778C242.366 306.551 241.269 306.394 240.166 306.307C239.038 306.219 237.836 306.152 236.749 306.133H236.698C236.392 306.127 236.09 306.062 235.809 305.94C235.529 305.818 235.275 305.641 235.062 305.421C234.85 305.201 234.683 304.941 234.571 304.656C234.459 304.372 234.404 304.068 234.409 303.762C234.414 303.456 234.48 303.154 234.602 302.873C234.724 302.593 234.9 302.339 235.12 302.126C235.341 301.914 235.6 301.746 235.885 301.634C236.17 301.522 236.474 301.467 236.78 301.473L236.782 301.472Z" fill="#E98862"/>
<path d="M175.374 174.022C175.374 174.022 182.954 201.181 187.212 215.274C187.414 215.942 187.456 216.647 187.336 217.335C187.216 218.022 186.937 218.671 186.521 219.231C186.105 219.791 185.563 220.245 184.94 220.558C184.317 220.871 183.629 221.034 182.931 221.033H156.331C155.182 221.033 154.077 220.59 153.246 219.797C152.414 219.004 151.92 217.922 151.865 216.774L150.072 178.967L175.374 174.022Z" fill="#0F1011"/>
<path d="M134.608 234.436C134.608 234.436 142.345 230.343 140.637 209.285L156.616 206.337C156.616 206.337 154.804 225.214 162.881 231.215L134.608 234.436Z" fill="#E98862"/>
<g opacity="0.15">
<path d="M159.611 227.266L146.348 217.1L156.772 217C157.07 220.569 158.033 224.051 159.611 227.266Z" fill="black"/>
</g>
<path d="M131.579 201.113C132.679 207.502 136.16 213.555 141.794 215.623C147.934 218.067 154.579 218.971 161.149 218.256C178.64 216.838 175.216 177.067 166.919 169.335C158.622 161.603 134.249 166.473 131.273 179.39C129.734 186.071 130.532 195.036 131.579 201.113Z" fill="#E98862"/>
<path d="M156.604 196.214C157.404 196.214 158.053 195.565 158.053 194.765C158.053 193.965 157.404 193.316 156.604 193.316C155.804 193.316 155.155 193.965 155.155 194.765C155.155 195.565 155.804 196.214 156.604 196.214Z" fill="#0F1011"/>
<path d="M168.036 195.287C168.836 195.287 169.485 194.638 169.485 193.838C169.485 193.038 168.836 192.389 168.036 192.389C167.236 192.389 166.587 193.038 166.587 193.838C166.587 194.638 167.236 195.287 168.036 195.287Z" fill="#0F1011"/>
<path d="M170.549 190.753H170.541L166.7 190.7C166.519 190.698 166.347 190.624 166.221 190.494C166.095 190.365 166.025 190.191 166.027 190.01C166.03 189.83 166.104 189.658 166.233 189.531C166.362 189.405 166.536 189.336 166.717 189.338L170.556 189.39C170.737 189.391 170.909 189.464 171.036 189.593C171.163 189.721 171.234 189.895 171.232 190.075C171.231 190.256 171.158 190.429 171.03 190.556C170.901 190.683 170.728 190.753 170.547 190.752L170.549 190.753Z" fill="#0F1011"/>
<path d="M153.479 192.137C153.312 192.136 153.152 192.075 153.028 191.964C152.903 191.853 152.824 191.701 152.804 191.535C152.785 191.37 152.827 191.203 152.922 191.067C153.017 190.93 153.159 190.833 153.321 190.794L157.105 189.887C157.193 189.864 157.284 189.858 157.374 189.871C157.464 189.884 157.55 189.914 157.628 189.961C157.706 190.007 157.774 190.069 157.828 190.142C157.881 190.215 157.92 190.298 157.941 190.386C157.962 190.474 157.966 190.566 157.951 190.656C157.936 190.745 157.904 190.831 157.856 190.908C157.807 190.984 157.744 191.051 157.67 191.103C157.596 191.155 157.512 191.192 157.423 191.211L153.639 192.118C153.587 192.131 153.533 192.137 153.479 192.137Z" fill="#0F1011"/>
<path d="M157.264 206.177C157.264 206.177 162.612 206.746 166.364 205.44C166.364 205.44 166.331 208.962 162.098 209.306C157.865 209.65 157.264 206.177 157.264 206.177Z" fill="white"/>
<g opacity="0.15">
<path d="M163.029 202.808C162.909 202.808 162.794 202.765 162.703 202.686C162.612 202.608 162.553 202.5 162.535 202.382C162.517 202.263 162.543 202.143 162.607 202.041C162.671 201.94 162.769 201.865 162.883 201.83L165.83 200.93L163.772 196.338C163.743 196.278 163.726 196.212 163.722 196.145C163.719 196.078 163.729 196.011 163.752 195.949C163.774 195.886 163.81 195.828 163.855 195.779C163.901 195.73 163.956 195.69 164.017 195.663C164.078 195.636 164.144 195.621 164.211 195.619C164.278 195.618 164.345 195.63 164.407 195.655C164.469 195.68 164.526 195.717 164.573 195.764C164.621 195.811 164.659 195.867 164.684 195.929L167.205 201.555L163.176 202.79C163.128 202.803 163.079 202.809 163.029 202.808Z" fill="black"/>
</g>
<path d="M176.286 177.278C176.286 177.278 173.725 156.565 140.536 161.652C132.262 162.92 120.536 169.38 118.636 190.552C117.768 200.264 114.42 209.421 111.866 215.217C111.564 215.897 111.436 216.642 111.495 217.385C111.554 218.127 111.797 218.843 112.203 219.467C112.608 220.092 113.163 220.605 113.817 220.96C114.472 221.316 115.204 221.502 115.949 221.503L139.279 221.511C140.463 221.513 141.599 221.044 142.438 220.209C143.276 219.373 143.749 218.239 143.751 217.055C143.751 216.989 143.751 216.923 143.751 216.855C143.583 212.884 143.451 206.161 143.677 195.885C144.89 190.02 141.659 185.885 146.349 187.233C163.763 192.23 174.978 177.613 176.286 177.278Z" fill="#0F1011"/>
<path d="M149.282 201C149.347 201.804 149.253 202.613 149.006 203.381C148.758 204.148 148.362 204.86 147.84 205.475C147.317 206.089 146.679 206.595 145.961 206.963C145.243 207.331 144.46 207.554 143.656 207.619C142.851 207.684 142.042 207.59 141.275 207.343C140.507 207.095 139.795 206.699 139.18 206.177C137.939 205.122 137.168 203.616 137.036 201.993C136.88 200.399 137.364 198.808 138.38 197.57C139.397 196.333 140.863 195.549 142.457 195.393C142.525 195.387 142.594 195.381 142.662 195.377C147.041 195.236 149.007 197.622 149.282 201Z" fill="#E98862"/>
<path d="M588.7 167.731H495.178C494.78 167.731 494.399 167.573 494.117 167.292C493.836 167.011 493.678 166.629 493.678 166.231V72.7092C493.678 72.4125 493.766 72.1225 493.931 71.8758C494.096 71.6292 494.33 71.437 494.604 71.3235C494.878 71.21 495.18 71.1804 495.471 71.2384C495.762 71.2963 496.029 71.4393 496.239 71.6492L589.76 165.171C589.969 165.381 590.112 165.648 590.17 165.939C590.228 166.23 590.198 166.531 590.085 166.805C589.971 167.079 589.779 167.313 589.533 167.478C589.286 167.643 588.996 167.731 588.7 167.731ZM496.678 164.731H585.078L496.678 76.3312V164.731Z" fill="#D0BFE9"/>
<path d="M514.237 167.731H495.178C494.78 167.731 494.399 167.573 494.117 167.292C493.836 167.011 493.678 166.629 493.678 166.231V147.173C493.678 146.776 493.836 146.394 494.117 146.113C494.399 145.831 494.78 145.673 495.178 145.673H514.237C514.635 145.673 515.016 145.831 515.298 146.113C515.579 146.394 515.737 146.776 515.737 147.173V166.231C515.737 166.629 515.579 167.011 515.298 167.292C515.016 167.573 514.635 167.731 514.237 167.731ZM496.678 164.731H512.737V148.673H496.678V164.731Z" fill="#D0BFE9"/>
</g>
<defs>
<clipPath id="clip0_23_4915">
<rect width="798.254" height="561.41" fill="white"/>
</clipPath>
</defs>
</svg>
