<svg width="806" height="771" viewBox="0 0 806 771" fill="none" xmlns="http://www.w3.org/2000/svg">
<path d="M248.926 536.958H669.576C678.556 536.958 685.836 529.678 685.836 520.698L685.836 25.427C685.836 16.4469 678.556 9.16705 669.576 9.16705H248.926C239.946 9.16705 232.666 16.4469 232.666 25.427L232.666 520.698C232.666 529.678 239.946 536.958 248.926 536.958Z" fill="white"/>
<path d="M231.666 520.7V25.427C231.671 20.851 233.491 16.4641 236.727 13.2285C239.963 9.99293 244.35 8.173 248.926 8.16797H669.576C674.152 8.173 678.539 9.99293 681.775 13.2285C685.011 16.4641 686.831 20.851 686.836 25.427V520.7C686.831 525.276 685.011 529.663 681.775 532.899C678.539 536.134 674.152 537.955 669.576 537.96H248.926C244.35 537.955 239.963 536.134 236.727 532.899C233.491 529.663 231.671 525.276 231.666 520.7ZM248.926 10.169C244.88 10.1735 241.002 11.7825 238.141 14.6431C235.28 17.5037 233.671 21.3823 233.666 25.428V520.7C233.671 524.746 235.28 528.624 238.141 531.485C241.002 534.346 244.88 535.955 248.926 535.96H669.576C673.622 535.955 677.5 534.346 680.361 531.485C683.222 528.624 684.831 524.746 684.836 520.7V25.427C684.831 21.3813 683.222 17.5027 680.361 14.6421C677.5 11.7815 673.622 10.1725 669.576 10.168L248.926 10.169Z" fill="#292A2E"/>
<path d="M335 769.742C334.857 769.742 334.715 769.711 334.584 769.652C334.454 769.592 334.338 769.505 334.244 769.397C334.15 769.288 334.08 769.161 334.04 769.023C334 768.886 333.989 768.741 334.01 768.599L367.452 537.815C367.469 537.683 367.512 537.556 367.578 537.441C367.644 537.326 367.733 537.226 367.839 537.145C367.944 537.065 368.065 537.006 368.194 536.973C368.322 536.94 368.456 536.933 368.587 536.952C368.719 536.971 368.845 537.016 368.959 537.084C369.073 537.153 369.172 537.243 369.25 537.35C369.329 537.457 369.385 537.579 369.416 537.708C369.447 537.837 369.452 537.971 369.431 538.102L335.984 768.886C335.95 769.123 335.831 769.339 335.651 769.496C335.47 769.653 335.239 769.741 335 769.742Z" fill="#292A2E"/>
<path d="M583.505 769.742C583.265 769.742 583.033 769.655 582.852 769.498C582.67 769.341 582.552 769.124 582.517 768.886L549.074 538.1C549.041 537.84 549.111 537.577 549.27 537.368C549.429 537.16 549.663 537.022 549.922 536.984C550.182 536.946 550.446 537.012 550.657 537.167C550.869 537.322 551.011 537.554 551.053 537.813L584.5 768.6C584.521 768.742 584.51 768.887 584.47 769.024C584.43 769.162 584.36 769.289 584.266 769.398C584.172 769.506 584.056 769.593 583.926 769.653C583.795 769.712 583.653 769.743 583.51 769.743L583.505 769.742Z" fill="#292A2E"/>
<g opacity="0.1">
<path d="M278.419 263.563L640.084 263.563C646.442 263.563 651.596 258.409 651.596 252.051V58.82C651.596 52.4621 646.442 47.308 640.084 47.308L278.419 47.308C272.061 47.308 266.907 52.4621 266.907 58.82V252.051C266.907 258.409 272.061 263.563 278.419 263.563Z" fill="#571BB1"/>
</g>
<g opacity="0.1">
<path d="M266.5 487.01V300.87C266.504 297.676 267.774 294.613 270.033 292.355C272.292 290.097 275.354 288.826 278.548 288.823H638.954C642.148 288.827 645.21 290.097 647.468 292.356C649.726 294.614 650.996 297.676 651 300.87V487.01C650.997 490.204 649.726 493.266 647.467 495.525C645.209 497.784 642.146 499.054 638.952 499.058H278.548C275.354 499.054 272.291 497.784 270.033 495.525C267.774 493.266 266.503 490.204 266.5 487.01Z" fill="#571BB1"/>
</g>
<path d="M604.919 471.584H612.072C613.148 471.584 614.021 470.711 614.021 469.635V332.994C614.021 331.918 613.148 331.045 612.072 331.045H604.919C603.843 331.045 602.97 331.918 602.97 332.994V469.635C602.97 470.711 603.843 471.584 604.919 471.584Z" fill="white"/>
<path opacity="0.3" d="M615.971 471.584H623.124C624.2 471.584 625.073 470.711 625.073 469.635V377.134C625.073 376.058 624.2 375.185 623.124 375.185H615.971C614.895 375.185 614.022 376.058 614.022 377.134V469.635C614.022 470.711 614.895 471.584 615.971 471.584Z" fill="#571BB1"/>
<path d="M516.479 471.583H523.632C524.708 471.583 525.581 470.711 525.581 469.634V455.75C525.581 454.673 524.708 453.801 523.632 453.801H516.479C515.403 453.801 514.53 454.673 514.53 455.75V469.634C514.53 470.711 515.403 471.583 516.479 471.583Z" fill="white"/>
<path opacity="0.3" d="M527.53 471.583H534.683C535.759 471.583 536.632 470.711 536.632 469.634V369.197C536.632 368.121 535.759 367.248 534.683 367.248H527.53C526.454 367.248 525.581 368.121 525.581 369.197V469.634C525.581 470.711 526.454 471.583 527.53 471.583Z" fill="#571BB1"/>
<path d="M560.699 471.584H567.852C568.928 471.584 569.801 470.711 569.801 469.635V389.411C569.801 388.335 568.928 387.462 567.852 387.462H560.699C559.623 387.462 558.75 388.335 558.75 389.411V469.635C558.75 470.711 559.623 471.584 560.699 471.584Z" fill="white"/>
<path opacity="0.3" d="M571.751 471.584H578.904C579.98 471.584 580.853 470.711 580.853 469.635V418.477C580.853 417.401 579.98 416.528 578.904 416.528H571.751C570.675 416.528 569.802 417.401 569.802 418.477V469.635C569.802 470.711 570.675 471.584 571.751 471.584Z" fill="#571BB1"/>
<path d="M383.818 471.583H390.971C392.047 471.583 392.92 470.711 392.92 469.634V360.173C392.92 359.097 392.047 358.224 390.971 358.224H383.818C382.742 358.224 381.869 359.097 381.869 360.173V469.634C381.869 470.711 382.742 471.583 383.818 471.583Z" fill="white"/>
<path opacity="0.3" d="M394.87 471.584H402.023C403.099 471.584 403.972 470.712 403.972 469.635V401.909C403.972 400.833 403.099 399.96 402.023 399.96H394.87C393.794 399.96 392.921 400.833 392.921 401.909V469.635C392.921 470.712 393.794 471.584 394.87 471.584Z" fill="#571BB1"/>
<path d="M472.259 471.584H479.412C480.488 471.584 481.361 470.711 481.361 469.635V377.857C481.361 376.781 480.488 375.908 479.412 375.908H472.259C471.183 375.908 470.31 376.781 470.31 377.857V469.635C470.31 470.711 471.183 471.584 472.259 471.584Z" fill="white"/>
<path opacity="0.3" d="M483.31 471.584H490.463C491.539 471.584 492.412 470.711 492.412 469.635V388.689C492.412 387.613 491.539 386.74 490.463 386.74H483.31C482.234 386.74 481.361 387.613 481.361 388.689V469.635C481.361 470.711 482.234 471.584 483.31 471.584Z" fill="#571BB1"/>
<path d="M428.039 471.584H435.192C436.268 471.584 437.141 470.711 437.141 469.635V332.994C437.141 331.918 436.268 331.045 435.192 331.045H428.039C426.963 331.045 426.09 331.918 426.09 332.994V469.635C426.09 470.711 426.963 471.584 428.039 471.584Z" fill="white"/>
<path opacity="0.3" d="M439.09 471.584H446.243C447.319 471.584 448.192 470.711 448.192 469.635V339.764C448.192 338.688 447.319 337.815 446.243 337.815H439.09C438.014 337.815 437.141 338.688 437.141 339.764V469.635C437.141 470.711 438.014 471.584 439.09 471.584Z" fill="#571BB1"/>
<path d="M339.599 471.584H346.752C347.828 471.584 348.701 470.711 348.701 469.635V332.994C348.701 331.918 347.828 331.045 346.752 331.045H339.599C338.523 331.045 337.65 331.918 337.65 332.994V469.635C337.65 470.711 338.523 471.584 339.599 471.584Z" fill="white"/>
<path opacity="0.3" d="M350.65 471.584H357.803C358.879 471.584 359.752 470.711 359.752 469.635V377.134C359.752 376.058 358.879 375.185 357.803 375.185H350.65C349.574 375.185 348.701 376.058 348.701 377.134V469.635C348.701 470.711 349.574 471.584 350.65 471.584Z" fill="#571BB1"/>
<path d="M295.379 471.584H302.532C303.608 471.584 304.481 470.711 304.481 469.635V389.411C304.481 388.335 303.608 387.462 302.532 387.462H295.379C294.303 387.462 293.43 388.335 293.43 389.411V469.635C293.43 470.711 294.303 471.584 295.379 471.584Z" fill="white"/>
<path opacity="0.3" d="M306.43 471.584H313.583C314.659 471.584 315.532 470.711 315.532 469.635V418.477C315.532 417.401 314.659 416.528 313.583 416.528H306.43C305.354 416.528 304.481 417.401 304.481 418.477V469.635C304.481 470.711 305.354 471.584 306.43 471.584Z" fill="#571BB1"/>
<path opacity="0.2" d="M625.172 116.709V236.337C625.172 236.846 624.97 237.334 624.61 237.694C624.251 238.053 623.763 238.256 623.254 238.256H295.248C294.739 238.256 294.251 238.053 293.892 237.694C293.532 237.334 293.33 236.846 293.33 236.337V172.829C293.33 172.492 293.418 172.161 293.587 171.869C293.755 171.578 293.997 171.335 294.289 171.167L352.363 137.637C352.659 137.466 352.995 137.377 353.337 137.38C353.679 137.383 354.014 137.477 354.307 137.652L380.45 153.276C380.777 153.472 381.155 153.566 381.535 153.546C381.916 153.526 382.281 153.393 382.586 153.164L410.037 132.558C410.317 132.347 410.649 132.218 410.997 132.182C411.345 132.147 411.697 132.208 412.013 132.358L445.889 148.47C446.251 148.642 446.658 148.697 447.052 148.626C447.447 148.556 447.809 148.363 448.089 148.076L485.7 109.459C486.025 109.125 486.46 108.92 486.924 108.883C487.389 108.847 487.851 108.98 488.224 109.259L512.646 127.546C513 127.811 513.434 127.946 513.876 127.928C514.318 127.91 514.739 127.739 515.07 127.446L531.049 113.246C531.371 112.959 531.781 112.79 532.211 112.764C532.642 112.739 533.068 112.86 533.422 113.107L556.1 128.937C556.426 129.164 556.815 129.285 557.212 129.282C557.609 129.279 557.996 129.153 558.319 128.921L597.531 100.7C597.833 100.483 598.191 100.358 598.562 100.34C598.934 100.322 599.302 100.412 599.623 100.6L624.223 115.049C624.513 115.218 624.753 115.461 624.919 115.752C625.086 116.044 625.173 116.373 625.172 116.709Z" fill="#571BB1"/>
<path opacity="0.61" d="M294.433 171.18C294.601 171.18 294.767 171.136 294.912 171.051L353.165 137.417L380.9 153.992C381.064 154.09 381.252 154.136 381.443 154.126C381.633 154.116 381.816 154.05 381.968 153.936L410.912 132.208L446.553 149.159C446.734 149.245 446.938 149.271 447.135 149.235C447.332 149.2 447.513 149.103 447.653 148.959L486.807 108.753L513.156 128.483C513.333 128.616 513.55 128.683 513.771 128.674C513.992 128.665 514.203 128.58 514.368 128.433L532.084 112.685L556.5 129.733C556.663 129.847 556.857 129.907 557.056 129.905C557.254 129.904 557.448 129.841 557.609 129.725L598.434 100.349L623.584 115.119C623.693 115.183 623.813 115.225 623.938 115.242C624.062 115.26 624.189 115.252 624.311 115.221C624.433 115.189 624.548 115.134 624.648 115.058C624.749 114.982 624.834 114.887 624.898 114.778C624.961 114.67 625.003 114.55 625.021 114.425C625.038 114.3 625.031 114.173 624.999 114.051C624.968 113.929 624.912 113.815 624.836 113.714C624.761 113.614 624.666 113.529 624.557 113.465L598.867 98.377C598.706 98.2829 598.522 98.2375 598.336 98.2462C598.15 98.2549 597.971 98.3173 597.82 98.426L557.04 127.77L532.561 110.683C532.384 110.559 532.171 110.499 531.956 110.511C531.741 110.524 531.536 110.609 531.375 110.752L513.675 126.482L487.275 106.716C487.088 106.576 486.857 106.509 486.625 106.528C486.393 106.546 486.175 106.649 486.013 106.816L446.751 147.134L411.206 130.228C411.048 130.153 410.872 130.122 410.698 130.14C410.524 130.158 410.358 130.223 410.218 130.328L381.324 152.018L353.66 135.484C353.513 135.397 353.346 135.35 353.175 135.349C353.004 135.347 352.836 135.392 352.688 135.477L293.946 169.392C293.763 169.498 293.62 169.661 293.54 169.856C293.459 170.051 293.445 170.268 293.5 170.472C293.554 170.676 293.675 170.856 293.843 170.985C294.01 171.113 294.216 171.183 294.427 171.183L294.433 171.18Z" fill="#571BB1"/>
<path d="M81.161 725.273C81.161 725.273 85.676 748.673 107.589 749.981C129.502 751.289 124.75 768.742 124.75 768.742H41.011V726.905L81.161 725.273Z" fill="#571BB1"/>
<path d="M35.332 298.343C35.332 298.343 41.594 291.307 41.539 307.266C41.332 366.795 37.315 740.209 37.315 740.209L92.341 739.747L125.674 295.924L35.332 298.343Z" fill="#262626"/>
<path d="M175.122 725.273C175.122 725.273 179.637 748.673 201.55 749.981C223.463 751.289 218.711 768.742 218.711 768.742H134.972V726.905L175.122 725.273Z" fill="#571BB1"/>
<path d="M185.765 302.965C185.765 302.965 192.639 506.421 191.925 516.365L185.461 738.665L131.345 739.665L122.618 508.322C122.618 508.322 116.898 444.506 101.479 385.248C93.5904 354.835 88.8429 323.693 87.311 292.311L185.765 302.965Z" fill="#262626"/>
<path d="M114.373 447.215L118.885 378.206C118.885 378.206 123.52 406.895 123.52 431.623C123.52 443.71 121.031 491.565 121.031 491.565L114.373 447.215Z" fill="#0A0A0A"/>
<path d="M34.734 298.336L34.554 298.346C34.554 298.346 34.684 294.876 34.734 298.336Z" fill="#333333"/>
<path d="M34.96 298.336L34.78 298.346C34.78 298.346 34.91 294.876 34.96 298.336Z" fill="#333333"/>
<path d="M336.486 133.2C336.155 132.544 335.628 132.006 334.978 131.662C334.328 131.318 333.587 131.185 332.858 131.28C332.864 131.236 332.86 131.191 332.845 131.149C332.831 131.107 332.806 131.07 332.773 131.04C332.741 131.009 332.701 130.988 332.658 130.976C332.615 130.965 332.57 130.964 332.527 130.974L334.987 129.211C335.724 128.707 336.253 127.953 336.477 127.089C336.701 126.225 336.604 125.309 336.205 124.511C335.786 123.735 335.093 123.142 334.262 122.848C333.43 122.554 332.519 122.58 331.705 122.92C331.711 122.886 331.687 122.852 331.682 122.82L332.693 122.095C333.385 121.617 333.89 120.915 334.124 120.108C334.357 119.3 334.305 118.437 333.975 117.664C333.758 117.183 333.437 116.757 333.036 116.415C332.634 116.074 332.162 115.825 331.653 115.688C331.144 115.551 330.611 115.529 330.092 115.623C329.573 115.717 329.082 115.925 328.653 116.232L326.32 117.905C326.313 117.891 326.32 117.875 326.311 117.862C326.302 117.849 326.276 117.844 326.263 117.83C326.799 117.227 327.114 116.461 327.156 115.655C327.199 114.85 326.966 114.055 326.497 113.399C325.397 111.627 322.854 111.989 321.345 113.07L307.613 122.556L310.067 118.423C310.562 117.628 310.736 116.675 310.555 115.756C310.373 114.838 309.85 114.022 309.09 113.475C308.688 113.206 308.236 113.022 307.76 112.933C307.285 112.845 306.796 112.854 306.325 112.961C305.853 113.068 305.408 113.269 305.017 113.554C304.626 113.838 304.297 114.199 304.05 114.615L290.65 137.178C289.078 139.825 288.599 142.98 289.317 145.974C290.034 148.968 291.891 151.564 294.492 153.211C297.509 155.121 301.027 156.087 304.596 155.985C308.165 155.882 311.622 154.716 314.524 152.636L335.262 137.772C335.951 137.259 336.447 136.529 336.669 135.699C336.892 134.869 336.827 133.988 336.486 133.2Z" fill="#E98862"/>
<g opacity="0.25">
<path d="M312.732 127.277C312.782 127.346 312.858 127.393 312.943 127.407C313.027 127.421 313.114 127.402 313.184 127.353L326.232 118.316C326.267 118.291 326.298 118.26 326.321 118.224C326.344 118.188 326.36 118.147 326.368 118.105C326.376 118.062 326.375 118.019 326.366 117.977C326.357 117.934 326.34 117.894 326.315 117.859C326.29 117.824 326.259 117.793 326.223 117.77C326.187 117.747 326.146 117.731 326.104 117.723C326.061 117.715 326.018 117.716 325.976 117.725C325.933 117.734 325.893 117.751 325.858 117.776L312.81 126.813C312.738 126.863 312.69 126.939 312.674 127.024C312.659 127.11 312.678 127.198 312.727 127.27L312.732 127.277Z" fill="#0C0C0C"/>
</g>
<g opacity="0.25">
<path d="M316.559 133.141C316.609 133.211 316.685 133.258 316.769 133.272C316.854 133.286 316.941 133.267 317.011 133.218L331.573 123.132C331.644 123.082 331.693 123.006 331.708 122.92C331.724 122.835 331.705 122.747 331.655 122.675C331.604 122.606 331.528 122.559 331.443 122.543C331.358 122.528 331.27 122.545 331.198 122.592L316.637 132.678C316.565 132.728 316.517 132.804 316.501 132.889C316.485 132.975 316.505 133.063 316.554 133.135L316.559 133.141Z" fill="#0C0C0C"/>
</g>
<g opacity="0.25">
<path d="M320.667 139.517C320.718 139.586 320.793 139.633 320.878 139.647C320.963 139.661 321.049 139.642 321.12 139.593L332.735 131.548C332.807 131.499 332.856 131.423 332.871 131.337C332.887 131.251 332.868 131.163 332.818 131.091C332.768 131.02 332.692 130.971 332.607 130.955C332.521 130.939 332.433 130.959 332.361 131.008L320.745 139.053C320.673 139.103 320.625 139.179 320.609 139.265C320.593 139.35 320.613 139.438 320.662 139.51L320.667 139.517Z" fill="#0C0C0C"/>
</g>
<path d="M282.743 132.036L243.384 199.068L195.359 136.076L155.476 172.033L223.587 260.244L224.033 260.872C226.76 264.606 230.392 267.584 234.587 269.526C238.783 271.468 243.404 272.31 248.015 271.973C252.626 271.635 257.075 270.13 260.943 267.597C264.811 265.065 267.971 261.59 270.125 257.499L326.093 156.144L282.743 132.036Z" fill="#571BB1"/>
<path d="M239.526 207.129C239.447 207.129 239.369 207.11 239.298 207.074C239.239 207.044 239.187 207.003 239.145 206.953C239.102 206.903 239.07 206.845 239.05 206.783C239.029 206.72 239.022 206.654 239.027 206.589C239.032 206.523 239.05 206.46 239.08 206.401L242.939 198.841C242.969 198.783 243.01 198.731 243.06 198.688C243.11 198.645 243.168 198.613 243.23 198.593C243.293 198.572 243.359 198.565 243.424 198.57C243.49 198.575 243.553 198.593 243.612 198.623C243.671 198.653 243.723 198.694 243.765 198.744C243.808 198.794 243.84 198.852 243.86 198.914C243.881 198.977 243.888 199.043 243.883 199.108C243.878 199.174 243.86 199.238 243.83 199.296L239.971 206.856C239.929 206.938 239.865 207.007 239.787 207.055C239.708 207.103 239.618 207.129 239.526 207.129Z" fill="#0C0C0C"/>
<path d="M192.588 198.686L191.387 219.858L192.385 219.915L193.587 198.743L192.588 198.686Z" fill="#0C0C0C"/>
<path d="M65.766 45.4619C65.766 45.4619 63.922 69.0279 58.517 77.5229C42.957 101.98 38.21 129.64 53.34 144.295C68.47 158.95 166.04 160.28 173.812 127.066C180.359 99.1029 167.04 95.9339 164.058 72.7659C162.709 62.2849 158.919 40.2949 158.919 40.2949" fill="#0A0A0A"/>
<path d="M148.974 121.756C148.806 121.734 146.937 152.748 110.908 150.044C85.966 148.175 77.073 121.712 76.501 121.712C79.19 121.141 83.719 120.312 84.913 119.672C88.84 117.562 93.7 115.366 94.966 107.739C95.696 103.339 94.458 80.853 94.839 76.406L133.125 84.951C132.59 94.345 128.846 116.122 141.969 119.976C144.153 120.613 146.505 121.2 148.974 121.756Z" fill="#E98862"/>
<path opacity="0.52" d="M133.662 111.076C133.062 109.143 132.676 107.151 132.51 105.134C132.089 100.532 132.173 95.8971 132.76 91.313C124.978 90.2629 117.647 87.0509 111.6 82.042C110.889 84.668 106.979 96.142 108.062 98.636C110.108 103.352 119.724 111.076 133.662 111.076Z" fill="#0C0C0C"/>
<path d="M128.587 101.315C113.477 102.601 94.017 96.3369 90.205 76.1899L86.764 58.0109C82.951 37.8639 90.442 19.5289 109.412 15.9389C128.381 12.3489 145.651 25.9979 149.464 46.1449L150.987 54.1929C152.45 61.9239 155.548 99.021 128.587 101.315Z" fill="#E98862"/>
<path d="M145.58 55.0709C146.893 55.0709 147.958 54.0063 147.958 52.6929C147.958 51.3796 146.893 50.3149 145.58 50.3149C144.267 50.3149 143.202 51.3796 143.202 52.6929C143.202 54.0063 144.267 55.0709 145.58 55.0709Z" fill="#0C0C0C"/>
<path d="M121.219 58.3251C122.532 58.3251 123.597 57.2604 123.597 55.9471C123.597 54.6338 122.532 53.5691 121.219 53.5691C119.906 53.5691 118.841 54.6338 118.841 55.9471C118.841 57.2604 119.906 58.3251 121.219 58.3251Z" fill="#0C0C0C"/>
<path d="M134.588 73.38H134.625C135.393 73.2287 136.153 73.0351 136.9 72.8C138.015 72.441 139.477 71.848 139.286 70.84C139.069 69.692 133.581 57.902 132.955 56.561C132.9 56.4439 132.801 56.3533 132.68 56.3091C132.559 56.265 132.425 56.2708 132.308 56.3255C132.19 56.3801 132.1 56.479 132.056 56.6005C132.011 56.7219 132.017 56.8559 132.072 56.973C134.413 61.994 138.183 70.249 138.328 71.022C138.203 71.38 136.351 72.061 134.444 72.422C134.319 72.4439 134.207 72.5138 134.133 72.6169C134.058 72.72 134.027 72.848 134.046 72.9737C134.065 73.0994 134.132 73.2128 134.233 73.2896C134.335 73.3665 134.462 73.4007 134.588 73.385V73.38Z" fill="#0C0C0C"/>
<path d="M131.779 82.079C134.873 81.677 137.83 80.5539 140.41 78.8C140.518 78.7296 140.594 78.619 140.621 78.4926C140.648 78.3662 140.623 78.2343 140.553 78.126C140.483 78.0177 140.372 77.9417 140.246 77.9149C140.119 77.8881 139.987 77.9126 139.879 77.983C134.294 81.622 128.745 82.21 123.832 79.683C123.733 79.6293 123.631 79.5809 123.526 79.538C123.405 79.4953 123.272 79.5022 123.156 79.5572C123.039 79.6123 122.95 79.711 122.906 79.8318C122.862 79.9526 122.868 80.0859 122.922 80.2024C122.977 80.3189 123.075 80.4094 123.195 80.454C123.234 80.47 123.295 80.504 123.387 80.554C125.97 81.8863 128.892 82.4173 131.779 82.079Z" fill="#0C0C0C"/>
<path d="M71.589 64.347L88.589 61.229C101.467 56.018 105.362 33.723 105.362 33.723C105.362 33.723 121.01 48.97 158.919 40.3C158.919 40.3 151.319 -12.567 95.313 2.80003C77.254 7.75703 64.293 25.955 65.913 50.276C67.039 67.323 71.589 64.347 71.589 64.347Z" fill="#0A0A0A"/>
<path d="M92.544 82.105C86.78 83.196 80.939 77.913 79.844 72.148C78.749 66.383 82.825 62.32 88.59 61.229L92.29 64.529L97.5 81.167L92.544 82.105Z" fill="#E98862"/>
<path d="M136.429 46.9211C138.111 45.8357 140.053 45.2223 142.053 45.1451C143.038 45.1017 144.023 45.2058 144.977 45.4541C145.921 45.6968 146.832 46.0573 147.686 46.5271C147.806 46.5864 147.899 46.6909 147.942 46.8178C147.986 46.9447 147.978 47.0838 147.92 47.2048C147.861 47.3257 147.758 47.4187 147.631 47.4636C147.505 47.5084 147.365 47.5014 147.244 47.4441L147.208 47.4271C146.418 47.0392 145.583 46.752 144.722 46.5721C143.87 46.3899 142.996 46.3376 142.129 46.4171C140.409 46.561 138.758 47.1575 137.343 48.1461L137.297 48.1791C137.216 48.2382 137.124 48.2807 137.026 48.3042C136.928 48.3277 136.827 48.3317 136.727 48.316C136.628 48.3003 136.533 48.2652 136.447 48.2127C136.362 48.1602 136.287 48.0914 136.228 48.0101C136.169 47.9288 136.126 47.8367 136.103 47.7389C136.079 47.6412 136.075 47.5398 136.091 47.4406C136.107 47.3413 136.142 47.2461 136.194 47.1604C136.247 47.0747 136.316 47.0002 136.397 46.9411L136.429 46.9211Z" fill="#0C0C0C"/>
<path d="M121.263 50.4909C119.587 50.0814 117.832 50.1217 116.176 50.6079C115.339 50.8477 114.542 51.2125 113.814 51.6899C113.076 52.17 112.401 52.7411 111.805 53.3899L111.778 53.4169C111.685 53.5105 111.559 53.5641 111.427 53.5665C111.295 53.5688 111.167 53.5198 111.07 53.4297C110.974 53.3397 110.916 53.2156 110.909 53.0837C110.902 52.9518 110.947 52.8225 111.034 52.7229C111.661 51.976 112.38 51.3111 113.173 50.7439C113.972 50.1667 114.853 49.7133 115.787 49.3989C117.68 48.7482 119.713 48.6183 121.674 49.0229C121.873 49.0656 122.047 49.1856 122.157 49.3565C122.268 49.5273 122.306 49.735 122.263 49.9339C122.22 50.1329 122.1 50.3067 121.929 50.4171C121.759 50.5276 121.551 50.5656 121.352 50.5229L121.321 50.5159L121.263 50.4909Z" fill="#0C0C0C"/>
<path d="M132.437 86.653C132.997 86.589 133.551 86.4776 134.093 86.32C134.155 86.3031 134.214 86.274 134.265 86.2344C134.316 86.1947 134.358 86.1453 134.39 86.0891C134.422 86.0328 134.442 85.9708 134.449 85.9067C134.457 85.8425 134.452 85.7775 134.434 85.7155C134.416 85.6534 134.386 85.5955 134.345 85.5452C134.305 85.4948 134.255 85.453 134.198 85.4221C134.141 85.3913 134.079 85.372 134.015 85.3655C133.951 85.359 133.886 85.3653 133.824 85.384C130.563 86.322 128.709 85.079 128.632 85.025C128.526 84.9508 128.395 84.9217 128.267 84.9442C128.14 84.9667 128.026 85.0389 127.952 85.145C127.878 85.2511 127.849 85.3824 127.871 85.5099C127.894 85.6374 127.966 85.7508 128.072 85.825C129.388 86.5964 130.93 86.8889 132.437 86.653Z" fill="#0C0C0C"/>
<path d="M88.631 61.0139L88.462 60.5429C110.007 52.8079 104.738 31.6649 104.683 31.4519L105.166 31.3259C105.223 31.5419 110.612 53.1219 88.631 61.0139Z" fill="#0C0C0C"/>
<path opacity="0.1" d="M119.299 74.8642C121.787 74.5966 123.644 72.9004 123.448 71.0757C123.251 69.251 121.076 67.9887 118.588 68.2564C116.101 68.524 114.243 70.2202 114.44 72.0449C114.636 73.8696 116.812 75.1319 119.299 74.8642Z" fill="#0C0C0C"/>
<path opacity="0.1" d="M145.629 67.8839C145.829 69.7059 148.005 70.9659 150.493 70.7019C150.923 70.6553 151.347 70.5645 151.758 70.4309C151.898 68.2629 151.929 66.1759 151.888 64.2429C151.2 64.063 150.485 64.0128 149.779 64.0949C147.291 64.3589 145.435 66.0549 145.629 67.8839Z" fill="#0C0C0C"/>
<path d="M193.737 190.034C192.602 203.366 187.082 286.543 185.991 302.965H41.619C40.769 288.154 30.955 223.389 27.734 194.426C24.659 166.788 18.626 152.951 23.048 144.78C30.274 131.426 50.02 123.71 63.484 121.887C71.706 120.774 84.071 119.976 84.071 119.976C84.071 119.976 85.118 141.156 110.084 142.335C144.069 143.935 141.8 119.976 141.968 119.976C147.474 119.976 178.926 123.461 186.621 128.022C207.589 140.439 196.146 161.781 193.737 190.034Z" fill="#571BB1"/>
<path d="M287.449 199.347L273.533 266.987C273.25 268.361 272.505 269.596 271.422 270.486C270.339 271.377 268.983 271.869 267.581 271.881L171.755 272.697C170.841 272.705 169.937 272.508 169.108 272.121C168.28 271.734 167.549 271.167 166.968 270.461C166.388 269.755 165.972 268.928 165.753 268.04C165.533 267.153 165.515 266.228 165.699 265.332L179.615 197.692C179.898 196.319 180.643 195.084 181.726 194.193C182.809 193.303 184.165 192.81 185.567 192.798L281.393 191.982C282.307 191.974 283.211 192.171 284.04 192.558C284.868 192.945 285.599 193.513 286.18 194.219C286.76 194.925 287.176 195.752 287.395 196.639C287.615 197.526 287.633 198.452 287.449 199.347Z" fill="#292A2E"/>
<path d="M198.094 247.392C198.145 248.283 197.873 249.162 197.327 249.868C196.781 250.574 195.999 251.059 195.124 251.233L192.174 251.883C192.227 251.901 192.274 251.931 192.313 251.971C192.351 252.011 192.379 252.06 192.394 252.113C192.401 252.176 192.387 252.239 192.354 252.293C193.063 252.492 193.693 252.908 194.155 253.481C194.618 254.055 194.89 254.758 194.934 255.493C194.938 256.35 194.653 257.184 194.125 257.859C193.597 258.534 192.857 259.011 192.024 259.213L167.114 264.743C165.841 265.029 164.539 265.174 163.234 265.173C160.327 265.173 157.463 264.465 154.89 263.111C152.317 261.758 150.111 259.799 148.464 257.403C146.717 254.869 146.028 251.752 146.544 248.718C147.059 245.683 148.738 242.969 151.224 241.153L172.414 225.663C172.88 225.322 173.423 225.099 173.994 225.013L172.044 234.483L172.564 234.363L172.674 234.343L188.924 231.033C190.734 230.633 193.214 231.293 193.534 233.353C193.706 234.142 193.605 234.965 193.249 235.69C192.893 236.414 192.303 236.997 191.574 237.343C191.584 237.353 191.604 237.363 191.604 237.383C191.604 237.403 191.594 237.413 191.594 237.433L194.404 236.813C194.918 236.699 195.451 236.701 195.965 236.817C196.478 236.934 196.959 237.164 197.373 237.489C197.788 237.814 198.124 238.227 198.36 238.698C198.595 239.169 198.723 239.687 198.734 240.213C198.734 241.054 198.443 241.868 197.911 242.519C197.379 243.17 196.638 243.616 195.814 243.783L194.604 244.053C194.594 244.093 194.604 244.133 194.584 244.163C195.465 244.17 196.313 244.504 196.962 245.101C197.611 245.698 198.014 246.514 198.094 247.392Z" fill="#E98862"/>
<g opacity="0.25">
<path d="M175.417 240.715C175.436 240.798 175.488 240.871 175.56 240.917C175.632 240.964 175.719 240.98 175.803 240.963L191.351 237.775C191.395 237.768 191.437 237.752 191.474 237.728C191.512 237.705 191.544 237.674 191.57 237.637C191.595 237.601 191.612 237.559 191.621 237.516C191.63 237.472 191.63 237.428 191.621 237.384C191.612 237.341 191.595 237.299 191.569 237.263C191.544 237.226 191.512 237.195 191.474 237.172C191.437 237.148 191.395 237.132 191.351 237.125C191.307 237.118 191.262 237.12 191.219 237.131L175.671 240.32C175.586 240.338 175.511 240.388 175.463 240.461C175.415 240.534 175.398 240.623 175.415 240.708L175.417 240.715Z" fill="#0C0C0C"/>
</g>
<g opacity="0.25">
<path d="M176.634 247.611C176.653 247.695 176.704 247.767 176.776 247.814C176.849 247.86 176.936 247.876 177.02 247.859L194.372 244.301C194.457 244.283 194.532 244.232 194.58 244.16C194.628 244.087 194.645 243.998 194.628 243.913C194.608 243.829 194.556 243.756 194.484 243.709C194.412 243.661 194.325 243.643 194.24 243.657L176.888 247.216C176.803 247.234 176.728 247.284 176.68 247.357C176.632 247.43 176.615 247.519 176.632 247.604L176.634 247.611Z" fill="#0C0C0C"/>
</g>
<g opacity="0.25">
<path d="M177.909 255.088C177.928 255.172 177.98 255.244 178.052 255.29C178.124 255.337 178.211 255.353 178.295 255.336L192.136 252.498C192.18 252.491 192.222 252.475 192.259 252.452C192.297 252.428 192.329 252.397 192.355 252.36C192.38 252.324 192.397 252.283 192.406 252.239C192.415 252.196 192.415 252.151 192.406 252.107C192.397 252.064 192.38 252.022 192.354 251.986C192.329 251.949 192.297 251.918 192.259 251.895C192.222 251.871 192.18 251.855 192.136 251.848C192.092 251.841 192.047 251.843 192.004 251.854L178.163 254.693C178.121 254.702 178.081 254.718 178.045 254.743C178.009 254.767 177.979 254.798 177.955 254.834C177.931 254.869 177.915 254.91 177.906 254.952C177.898 254.994 177.898 255.038 177.907 255.08L177.909 255.088Z" fill="#0C0C0C"/>
</g>
<path d="M165.571 274.6L30.426 299.021C26.2088 299.48 21.9425 298.956 17.962 297.489C13.9815 296.022 10.395 293.653 7.48403 290.567C4.57304 287.482 2.41674 283.763 1.18434 279.704C-0.0480579 275.645 -0.323031 271.355 0.381003 267.172L19.3 154.715C20.5081 147.534 24.5192 141.128 30.451 136.904C36.3827 132.681 43.7493 130.987 50.93 132.195C58.1107 133.403 64.5175 137.414 68.7408 143.346C72.9641 149.278 74.6581 156.644 73.45 163.825L60.55 241.24L159.629 228.8L165.571 274.6Z" fill="#571BB1"/>
<path d="M30.425 299.521C30.3002 299.521 30.1801 299.474 30.0881 299.389C29.9962 299.305 29.9391 299.189 29.928 299.065C29.917 298.941 29.9529 298.817 30.0285 298.718C30.1042 298.618 30.2142 298.551 30.337 298.529L165.014 274.191L159.2 229.355L60.611 241.736C60.5337 241.746 60.4551 241.738 60.3815 241.712C60.308 241.687 60.2417 241.644 60.188 241.587C60.1339 241.531 60.0937 241.463 60.0706 241.388C60.0475 241.314 60.0422 241.235 60.055 241.158L68.255 191.681C68.2657 191.616 68.289 191.554 68.3237 191.498C68.3584 191.442 68.4037 191.394 68.4571 191.356C68.5105 191.318 68.5709 191.29 68.6349 191.275C68.6989 191.26 68.7652 191.258 68.83 191.269C68.8949 191.28 68.9571 191.303 69.013 191.338C69.0688 191.372 69.1173 191.418 69.1555 191.471C69.1938 191.525 69.2212 191.585 69.236 191.65C69.2508 191.714 69.2529 191.78 69.242 191.845L61.151 240.66L159.567 228.3C159.698 228.283 159.83 228.32 159.935 228.4C160.039 228.481 160.108 228.6 160.125 228.731L166.067 274.531C166.084 274.658 166.051 274.787 165.975 274.891C165.899 274.995 165.786 275.065 165.66 275.088L30.515 299.514C30.4852 299.518 30.4551 299.521 30.425 299.521Z" fill="#0C0C0C"/>
<path d="M60.4706 240.748L51.7773 242.14L51.9355 243.128L60.6289 241.736L60.4706 240.748Z" fill="#0C0C0C"/>
<path d="M769.791 770.146H9.372C9.18635 770.146 9.0083 770.072 8.87702 769.941C8.74575 769.81 8.672 769.632 8.672 769.446C8.672 769.26 8.74575 769.082 8.87702 768.951C9.0083 768.82 9.18635 768.746 9.372 768.746H769.791C769.883 768.746 769.974 768.764 770.059 768.799C770.144 768.835 770.221 768.886 770.286 768.951C770.351 769.016 770.403 769.093 770.438 769.178C770.473 769.263 770.491 769.354 770.491 769.446C770.491 769.538 770.473 769.629 770.438 769.714C770.403 769.799 770.351 769.876 770.286 769.941C770.221 770.006 770.144 770.058 770.059 770.093C769.974 770.128 769.883 770.146 769.791 770.146Z" fill="#292A2E"/>
<path d="M733.665 662.344C733.557 662.344 733.45 662.323 733.351 662.282C733.251 662.24 733.16 662.18 733.084 662.103C731.926 660.945 730.038 639.696 724.953 576.429C722.872 550.541 720.906 526.09 719.472 511.229C719.372 510.167 718.959 510.044 718.823 510.003C716.86 509.411 710.889 514.119 707.556 518.242C707.419 518.412 707.22 518.52 707.003 518.543C706.786 518.566 706.569 518.502 706.4 518.365C706.23 518.228 706.122 518.029 706.099 517.812C706.076 517.595 706.14 517.378 706.277 517.208C708.477 514.482 715.666 507.336 719.296 508.429C719.842 508.616 720.313 508.974 720.64 509.45C720.966 509.926 721.131 510.494 721.109 511.071C722.544 525.944 724.509 550.402 726.592 576.296C729.682 614.743 733.182 658.296 734.333 661.041C734.421 661.164 734.472 661.309 734.483 661.459C734.494 661.61 734.463 661.76 734.394 661.894C734.325 662.029 734.221 662.141 734.092 662.22C733.964 662.299 733.816 662.341 733.665 662.341V662.344Z" fill="#494949"/>
<path d="M717.36 538.496C731.001 527.562 735.522 510.544 727.458 500.484C719.395 490.424 701.8 491.133 688.159 502.067C674.518 513.001 669.997 530.02 678.061 540.08C686.125 550.139 703.719 549.431 717.36 538.496Z" fill="#41A194"/>
<path opacity="0.2" d="M717.36 538.496C731.001 527.562 735.522 510.544 727.458 500.484C719.395 490.424 701.8 491.133 688.159 502.067C674.518 513.001 669.997 530.02 678.061 540.08C686.125 550.139 703.719 549.431 717.36 538.496Z" fill="white"/>
<path d="M681.885 542.639C681.807 542.639 681.73 542.617 681.664 542.576C681.598 542.534 681.546 542.474 681.512 542.403C681.479 542.333 681.467 542.254 681.477 542.177C681.487 542.099 681.519 542.026 681.569 541.966L720.444 495.087C720.514 495.003 720.614 494.95 720.722 494.94C720.831 494.93 720.939 494.964 721.023 495.033C721.107 495.103 721.16 495.203 721.17 495.311C721.18 495.42 721.147 495.528 721.077 495.612L682.2 542.491C682.162 542.538 682.113 542.575 682.059 542.6C682.005 542.626 681.945 542.639 681.885 542.639Z" fill="white"/>
<path d="M742.144 652.294C742.052 652.294 741.961 652.279 741.874 652.248C741.772 652.213 741.678 652.158 741.597 652.086C741.517 652.014 741.451 651.927 741.404 651.83C741.357 651.733 741.329 651.627 741.323 651.52C741.317 651.412 741.332 651.304 741.368 651.202L755.968 609.207C756.397 607.973 757.13 606.866 758.098 605.988C759.066 605.111 760.239 604.49 761.51 604.183C762.78 603.877 764.107 603.894 765.369 604.233C766.631 604.573 767.788 605.223 768.733 606.126L776.453 613.501C776.611 613.652 776.702 613.859 776.707 614.077C776.712 614.295 776.63 614.506 776.479 614.664C776.329 614.821 776.122 614.913 775.904 614.918C775.686 614.923 775.475 614.841 775.317 614.69L767.597 607.315C766.851 606.603 765.938 606.089 764.942 605.821C763.945 605.553 762.898 605.539 761.895 605.781C760.892 606.023 759.966 606.513 759.202 607.206C758.437 607.899 757.859 608.773 757.52 609.747L742.92 651.747C742.863 651.907 742.758 652.046 742.619 652.144C742.48 652.242 742.314 652.294 742.144 652.294Z" fill="#494949"/>
<path d="M798.025 636.754C808.134 628.752 807.533 611.153 796.683 597.446C785.833 583.738 768.842 579.113 758.733 587.114C748.624 595.116 749.225 612.715 760.075 626.422C770.925 640.13 787.916 644.755 798.025 636.754Z" fill="#41A194"/>
<path d="M727.031 659.666C726.846 659.666 726.667 659.604 726.522 659.489C726.377 659.375 726.274 659.215 726.231 659.035L701.731 556.574C701.564 555.875 701.208 555.236 700.701 554.727C700.194 554.218 699.557 553.858 698.859 553.688C698.161 553.517 697.43 553.543 696.745 553.761C696.061 553.98 695.45 554.383 694.98 554.926L687.426 563.656C687.283 563.821 687.081 563.922 686.864 563.938C686.646 563.954 686.431 563.882 686.267 563.74C686.102 563.597 686 563.395 685.985 563.177C685.969 562.96 686.04 562.745 686.183 562.58L693.737 553.851C694.405 553.079 695.273 552.506 696.245 552.196C697.218 551.886 698.257 551.849 699.249 552.091C700.24 552.333 701.146 552.844 701.866 553.568C702.586 554.291 703.093 555.199 703.33 556.192L727.83 658.653C727.855 658.758 727.86 658.867 727.843 658.974C727.826 659.08 727.788 659.183 727.732 659.275C727.675 659.367 727.601 659.447 727.514 659.51C727.426 659.574 727.327 659.619 727.222 659.644C727.159 659.659 727.095 659.666 727.031 659.666Z" fill="#494949"/>
<path d="M717.993 586.422C720.972 569.195 713.089 553.45 700.385 551.253C687.681 549.056 674.967 561.24 671.988 578.466C669.009 595.693 676.893 611.438 689.597 613.635C702.301 615.832 715.015 603.648 717.993 586.422Z" fill="#41A194"/>
<path d="M733.666 662.345C733.633 662.344 733.599 662.342 733.566 662.339C733.35 662.312 733.153 662.2 733.019 662.029C732.884 661.857 732.824 661.639 732.85 661.423L748.5 534.371C748.67 532.987 749.237 531.682 750.131 530.612C751.026 529.543 752.21 528.754 753.543 528.341C754.875 527.929 756.297 527.91 757.64 528.286C758.983 528.663 760.188 529.419 761.111 530.465L778.997 550.722C779.071 550.803 779.128 550.897 779.166 551C779.203 551.103 779.219 551.213 779.213 551.322C779.208 551.431 779.18 551.538 779.133 551.636C779.085 551.735 779.018 551.823 778.936 551.895C778.854 551.968 778.759 552.023 778.655 552.058C778.552 552.093 778.442 552.107 778.333 552.099C778.224 552.091 778.117 552.062 778.02 552.012C777.922 551.963 777.836 551.894 777.765 551.811L759.879 531.553C759.165 530.748 758.233 530.165 757.196 529.875C756.159 529.585 755.06 529.601 754.032 529.919C753.003 530.238 752.088 530.846 751.397 531.671C750.705 532.497 750.266 533.504 750.132 534.573L734.484 661.623C734.46 661.822 734.363 662.006 734.212 662.139C734.061 662.272 733.867 662.345 733.666 662.345Z" fill="#494949"/>
<path d="M797.339 561.98C803.579 550.698 796.237 534.693 780.939 526.231C765.641 517.769 748.181 520.055 741.941 531.337C735.7 542.619 743.043 558.624 758.34 567.086C773.638 575.548 791.098 573.262 797.339 561.98Z" fill="#41A194"/>
<path opacity="0.2" d="M798.025 636.754C808.134 628.752 807.533 611.153 796.683 597.446C785.833 583.738 768.842 579.113 758.733 587.114C748.624 595.116 749.225 612.715 760.075 626.422C770.925 640.13 787.916 644.755 798.025 636.754Z" fill="white"/>
<path opacity="0.5" d="M717.993 586.422C720.972 569.195 713.089 553.45 700.385 551.253C687.681 549.056 674.967 561.24 671.988 578.466C669.009 595.693 676.893 611.438 689.597 613.635C702.301 615.832 715.015 603.648 717.993 586.422Z" fill="white"/>
<path opacity="0.5" d="M797.339 561.98C803.579 550.698 796.237 534.693 780.939 526.231C765.641 517.769 748.181 520.055 741.941 531.337C735.7 542.619 743.043 558.624 758.34 567.086C773.638 575.548 791.098 573.262 797.339 561.98Z" fill="white"/>
<path d="M753.68 770.146H713.65L707.017 642.071H760.313L753.68 770.146Z" fill="#292A2E"/>
<path opacity="0.3" d="M753.68 770.146H713.65L707.017 642.071H760.313L753.68 770.146Z" fill="white"/>
<path d="M798.025 637.158C797.962 637.159 797.9 637.144 797.844 637.117C797.788 637.09 797.739 637.05 797.7 637L758.408 587.36C758.34 587.275 758.309 587.166 758.322 587.058C758.335 586.949 758.39 586.851 758.475 586.783C758.561 586.715 758.67 586.684 758.778 586.697C758.887 586.71 758.985 586.765 759.053 586.85L798.345 636.489C798.393 636.55 798.424 636.623 798.432 636.7C798.441 636.777 798.428 636.854 798.394 636.924C798.36 636.994 798.307 637.052 798.242 637.093C798.176 637.134 798.1 637.156 798.023 637.155L798.025 637.158Z" fill="white"/>
<path d="M794.725 565.956C794.638 565.957 794.553 565.929 794.483 565.877L744.2 529.163C744.154 529.132 744.115 529.093 744.085 529.046C744.055 529 744.035 528.948 744.026 528.893C744.016 528.839 744.018 528.783 744.03 528.729C744.043 528.676 744.066 528.625 744.099 528.58C744.131 528.536 744.173 528.498 744.22 528.47C744.268 528.442 744.32 528.423 744.375 528.416C744.43 528.408 744.485 528.412 744.539 528.427C744.592 528.441 744.642 528.466 744.685 528.5L794.965 565.213C795.035 565.265 795.087 565.337 795.114 565.419C795.141 565.502 795.14 565.591 795.113 565.673C795.086 565.756 795.034 565.827 794.964 565.878C794.893 565.929 794.809 565.957 794.722 565.956H794.725Z" fill="white"/>
<path d="M687.554 613.1C687.518 613.101 687.482 613.096 687.447 613.086C687.342 613.058 687.253 612.99 687.199 612.896C687.144 612.803 687.129 612.691 687.156 612.586L703.163 552.617C703.193 552.514 703.262 552.427 703.356 552.374C703.449 552.321 703.56 552.307 703.664 552.335C703.768 552.362 703.856 552.43 703.911 552.522C703.966 552.615 703.982 552.725 703.957 552.829L687.95 612.793C687.927 612.881 687.876 612.959 687.804 613.014C687.733 613.07 687.645 613.1 687.554 613.1Z" fill="white"/>
</svg>
