<svg width="999" height="669" viewBox="0 0 999 669" fill="none" xmlns="http://www.w3.org/2000/svg">
<path opacity="0.05" d="M252.494 656.361H234.961V668.038H252.494V656.361Z" fill="#292A2E"/>
<path opacity="0.05" d="M73.2335 656.361H55.7001V668.038H73.2335V656.361Z" fill="#292A2E"/>
<path d="M268.565 421.084H39.6275V655.964H268.565V421.084Z" fill="#F4F4F4"/>
<path opacity="0.03" d="M268.565 421.084H39.6275V655.964H268.565V421.084Z" fill="#292A2E"/>
<path d="M310.992 421.084H82.054V655.964H310.992V421.084Z" fill="#F4F4F4"/>
<path opacity="0.05" d="M294.92 656.361H277.386V668.038H294.92V656.361Z" fill="#292A2E"/>
<path opacity="0.05" d="M115.66 656.361H98.1263V668.038H115.66V656.361Z" fill="#292A2E"/>
<path opacity="0.7" d="M302.399 432.083H90.649V477.209H302.399V432.083Z" fill="white"/>
<path opacity="0.7" d="M302.399 488.252H90.649V533.377H302.399V488.252Z" fill="white"/>
<path opacity="0.7" d="M302.399 544.419H90.649V589.544H302.399V544.419Z" fill="white"/>
<path opacity="0.05" d="M196.523 460.969C200.02 460.969 202.854 458.142 202.854 454.655C202.854 451.168 200.02 448.341 196.523 448.341C193.027 448.341 190.192 451.168 190.192 454.655C190.192 458.142 193.027 460.969 196.523 460.969Z" fill="#292A2E"/>
<path opacity="0.05" d="M196.523 517.138C200.02 517.138 202.854 514.311 202.854 510.824C202.854 507.337 200.02 504.51 196.523 504.51C193.027 504.51 190.192 507.337 190.192 510.824C190.192 514.311 193.027 517.138 196.523 517.138Z" fill="#292A2E"/>
<path opacity="0.05" d="M196.523 573.307C200.02 573.307 202.854 570.48 202.854 566.993C202.854 563.506 200.02 560.679 196.523 560.679C193.027 560.679 190.192 563.506 190.192 566.993C190.192 570.48 193.027 573.307 196.523 573.307Z" fill="#292A2E"/>
<path opacity="0.7" d="M302.399 601.866H90.649V646.991H302.399V601.866Z" fill="white"/>
<path opacity="0.05" d="M196.523 630.738C200.02 630.738 202.855 627.911 202.855 624.424C202.855 620.937 200.02 618.11 196.523 618.11C193.027 618.11 190.192 620.937 190.192 624.424C190.192 627.911 193.027 630.738 196.523 630.738Z" fill="#292A2E"/>
<path d="M800.297 10.0571H671.065V177.811H800.297V10.0571Z" fill="#F4F4F4"/>
<path d="M800.297 177.818H804.489V10.0641H800.297V177.818Z" fill="#F4F4F4"/>
<path opacity="0.05" d="M800.297 177.818H804.489V10.0641H800.297V177.818Z" fill="#292A2E"/>
<path opacity="0.05" d="M776.755 40.624H694.606V147.261H776.755V40.624Z" fill="#292A2E"/>
<path opacity="0.03" d="M776.757 40.624H772.475V147.261H776.757V40.624Z" fill="#292A2E"/>
<path d="M905.986 219.065H800.295V325.437H905.986V219.065Z" fill="#F4F4F4"/>
<path opacity="0.05" d="M886.737 238.443H819.551V306.06H886.737V238.443Z" fill="#292A2E"/>
<path d="M905.987 325.442H910.179V219.071H905.987V325.442Z" fill="#F4F4F4"/>
<path opacity="0.05" d="M905.987 325.442H910.179V219.071H905.987V325.442Z" fill="#292A2E"/>
<path opacity="0.03" d="M886.737 238.443H882.455V306.06H886.737V238.443Z" fill="#292A2E"/>
<path d="M379.617 0H21.774V356.869H379.617V0Z" fill="#F4F4F4"/>
<path d="M21.7745 0H17.6726V356.869H21.7745V0Z" fill="#F4F4F4"/>
<path opacity="0.05" d="M21.7745 0H17.6726V356.869H21.7745V0Z" fill="#292A2E"/>
<path opacity="0.05" d="M108.462 245.91V152.542H185.154V206.787H303.949V302.835H354.44V356.868H303.949H294.223H38.9874V245.91H108.462Z" fill="#292A2E"/>
<path opacity="0.34" d="M175.31 162.682H119.463V172.82H175.31V162.682Z" fill="#FFFFFA"/>
<path opacity="0.34" d="M175.31 183.693H119.463V193.83H175.31V183.693Z" fill="#FFFFFA"/>
<path opacity="0.34" d="M175.31 204.693H119.463V214.831H175.31V204.693Z" fill="#FFFFFA"/>
<path opacity="0.34" d="M59.1842 255.75H48.8905V265.887H59.1842V255.75Z" fill="#FFFFFA"/>
<path opacity="0.34" d="M59.1842 276.764H48.8905V286.902H59.1842V276.764Z" fill="#FFFFFA"/>
<path opacity="0.34" d="M59.1842 297.763H48.8905V307.9H59.1842V297.763Z" fill="#FFFFFA"/>
<path opacity="0.34" d="M78.2272 255.75H67.9335V265.887H78.2272V255.75Z" fill="#FFFFFA"/>
<path opacity="0.34" d="M78.2272 276.764H67.9335V286.902H78.2272V276.764Z" fill="#FFFFFA"/>
<path opacity="0.34" d="M78.2272 297.763H67.9335V307.9H78.2272V297.763Z" fill="#FFFFFA"/>
<path opacity="0.34" d="M96.7559 255.75H86.4622V265.887H96.7559V255.75Z" fill="#FFFFFA"/>
<path opacity="0.34" d="M96.7559 276.764H86.4622V286.902H96.7559V276.764Z" fill="#FFFFFA"/>
<path opacity="0.34" d="M96.7559 297.763H86.4622V307.9H96.7559V297.763Z" fill="#FFFFFA"/>
<path d="M21.774 176.433H93.7775V0H99.7325V176.433H294.223V0H300.178V176.433H379.617V182.372H300.178V356.869H294.223V182.372H99.7325V356.869H93.7775V182.372H21.774V176.433Z" fill="white"/>
<path d="M393.873 356.441H7.51865V368.309H393.873V356.441Z" fill="#F4F4F4"/>
<path opacity="0.1" d="M393.873 356.441H7.51865V368.309H393.873V356.441Z" fill="#292A2E"/>
<path opacity="0.1" d="M7.51932 356.441H1.94055V368.309H7.51932V356.441Z" fill="#292A2E"/>
<path opacity="0.1" d="M7.51932 356.441H1.94055V368.309H7.51932V356.441Z" fill="#292A2E"/>
<path d="M105.408 122.001L105.408 544.364C105.408 579.304 133.81 607.629 168.846 607.629H830.153C865.188 607.629 893.59 579.304 893.59 544.364V122.001C893.59 87.0613 865.188 58.7367 830.153 58.7367H168.846C133.81 58.7367 105.408 87.0613 105.408 122.001Z" fill="#292A2E"/>
<path d="M872.301 122.194V544.165C872.3 555.686 867.71 566.735 859.541 574.881C851.372 583.028 840.293 587.605 828.74 587.605H168.776C157.224 587.603 146.146 583.026 137.977 574.88C129.809 566.734 125.218 555.685 125.216 544.165V437.397H138.653C144.856 437.397 150.805 434.941 155.191 430.568C159.578 426.194 162.043 420.263 162.044 414.077V252.283C162.043 246.098 159.578 240.166 155.191 235.793C150.805 231.42 144.856 228.964 138.653 228.965H125.216V122.194C125.218 110.673 129.808 99.6247 137.977 91.4784C146.145 83.332 157.224 78.7545 168.776 78.7524H828.74C840.293 78.7529 851.373 83.3298 859.542 91.4765C867.711 99.6232 872.3 110.672 872.301 122.194Z" fill="white"/>
<path d="M117.027 437.396L117.027 228.964H138.655C144.858 228.964 150.806 231.421 155.192 235.795C159.577 240.169 162.041 246.101 162.041 252.286V414.073C162.041 420.259 159.577 426.191 155.192 430.565C150.806 434.938 144.858 437.396 138.655 437.396H117.027Z" fill="#292A2E"/>
<path d="M281.093 415.024V587.61H168.776C163.055 587.612 157.389 586.49 152.103 584.308C146.818 582.125 142.015 578.925 137.969 574.891C133.924 570.856 130.716 566.066 128.527 560.795C126.339 555.523 125.214 549.873 125.216 544.168V437.399H138.653C142.941 437.402 147.146 436.229 150.809 434.007C154.472 431.785 157.452 428.6 159.42 424.802C161.007 421.776 161.898 418.435 162.026 415.022L281.093 415.024Z" fill="#F4F4F4"/>
<path opacity="0.03" d="M281.093 415.024V587.61H168.776C163.055 587.612 157.389 586.49 152.103 584.308C146.818 582.125 142.015 578.925 137.969 574.891C133.924 570.856 130.716 566.066 128.527 560.795C126.339 555.523 125.214 549.873 125.216 544.168V437.399H138.653C142.941 437.402 147.146 436.229 150.809 434.007C154.472 431.785 157.452 428.6 159.42 424.802C161.007 421.776 161.898 418.435 162.026 415.022L281.093 415.024Z" fill="#292A2E"/>
<path d="M318.807 415.024V587.61H168.776C163.055 587.612 157.389 586.49 152.103 584.308C146.818 582.125 142.015 578.925 137.969 574.891C133.924 570.856 130.716 566.066 128.527 560.795C126.339 555.523 125.214 549.873 125.216 544.168V437.399H138.653C142.941 437.402 147.146 436.229 150.809 434.007C154.472 431.785 157.452 428.6 159.42 424.802C161.007 421.776 161.898 418.435 162.026 415.022L318.807 415.024Z" fill="#F4F4F4"/>
<path opacity="0.7" d="M311.172 424.8V464.915H125.216V437.398H138.653C142.941 437.401 147.146 436.227 150.809 434.005C154.472 431.783 157.452 428.599 159.42 424.8H311.172Z" fill="white"/>
<path opacity="0.7" d="M311.173 474.729H125.216V514.843H311.173V474.729Z" fill="white"/>
<path opacity="0.7" d="M311.172 524.666V564.778H130.428C126.995 558.447 125.203 551.36 125.216 544.162V524.663L311.172 524.666Z" fill="white"/>
<path opacity="0.05" d="M217.051 450.475C220.16 450.475 222.679 447.962 222.679 444.862C222.679 441.762 220.16 439.249 217.051 439.249C213.943 439.249 211.423 441.762 211.423 444.862C211.423 447.962 213.943 450.475 217.051 450.475Z" fill="#292A2E"/>
<path opacity="0.05" d="M217.051 500.405C220.16 500.405 222.679 497.892 222.679 494.792C222.679 491.692 220.16 489.179 217.051 489.179C213.943 489.179 211.423 491.692 211.423 494.792C211.423 497.892 213.943 500.405 217.051 500.405Z" fill="#292A2E"/>
<path opacity="0.05" d="M217.051 550.339C220.16 550.339 222.679 547.826 222.679 544.726C222.679 541.626 220.16 539.113 217.051 539.113C213.943 539.113 211.423 541.626 211.423 544.726C211.423 547.826 213.943 550.339 217.051 550.339Z" fill="#292A2E"/>
<path opacity="0.7" d="M311.172 575.727V587.612H168.776C157.64 587.623 146.925 583.369 138.844 575.727H311.172Z" fill="white"/>
<path d="M807.52 78.7529H671.064V178.377H807.52V78.7529Z" fill="#F4F4F4"/>
<path d="M811.949 78.7529H807.519V178.377H811.949V78.7529Z" fill="#F4F4F4"/>
<path opacity="0.05" d="M811.949 78.7529H807.519V178.377H811.949V78.7529Z" fill="#292A2E"/>
<path opacity="0.05" d="M782.662 78.7529H695.925V146.111H782.662V78.7529Z" fill="#292A2E"/>
<path opacity="0.03" d="M782.66 78.7529H778.143V146.111H782.66V78.7529Z" fill="#292A2E"/>
<path d="M872.299 221.943H807.519V334.258H872.299V221.943Z" fill="#F4F4F4"/>
<path opacity="0.05" d="M872.299 242.398H827.853V313.793H872.299V242.398Z" fill="#292A2E"/>
<path d="M392.134 78.7529V368.696H162.044V252.284C162.043 246.098 159.578 240.166 155.191 235.793C150.805 231.42 144.856 228.964 138.653 228.965H125.216V122.194C125.218 110.673 129.808 99.6252 137.977 91.4788C146.145 83.3325 157.224 78.755 168.776 78.7529H392.134Z" fill="#F4F4F4"/>
<path opacity="0.05" d="M366.119 312.882V368.701H162.044V252.289C162.043 246.104 159.578 240.172 155.191 235.799C150.805 231.426 144.856 228.97 138.653 228.97H125.216V157.611H191.229V213.647H313.961V312.882H366.119Z" fill="#292A2E"/>
<path opacity="0.34" d="M181.058 168.07H125.216V178.543H181.058V168.07Z" fill="#FFFFFA"/>
<path opacity="0.34" d="M181.058 189.772H125.216V200.245H181.058V189.772Z" fill="#FFFFFA"/>
<path opacity="0.34" d="M181.058 211.487H125.216V221.96H181.058V211.487Z" fill="#FFFFFA"/>
<path d="M392.134 182.284V188.417H310.06V368.696H303.911V188.417H125.216V182.284H303.911V78.7529H310.06V182.284H392.134Z" fill="white"/>
<path d="M406.866 368.256H162.044V380.522H406.866V368.256Z" fill="#F4F4F4"/>
<path opacity="0.1" d="M406.866 368.256H162.044V380.522H406.866V368.256Z" fill="#292A2E"/>
<path d="M531.886 333.951L347.047 421.728L346.55 247.023L531.886 158.751V333.951Z" fill="#571BB1"/>
<g opacity="0.58">
<path d="M531.886 333.951L347.047 421.728L346.55 247.023L531.886 158.751V333.951Z" fill="white"/>
</g>
<path d="M531.887 333.949L651.952 421.729L652.449 247.025L531.887 158.751V333.949Z" fill="#571BB1"/>
<g opacity="0.88">
<path d="M531.887 333.949L651.952 421.729L652.449 247.025L531.887 158.751V333.949Z" fill="white"/>
</g>
<path d="M468.411 512.071L345.245 421.888V421.228L345.749 243.969L468.411 333.646V512.071ZM347.856 420.576L465.806 506.939V334.965L348.345 249.086L347.856 420.576Z" fill="#292A2E"/>
<path d="M465.804 511.575V333.495L653.246 244.48L653.751 422.056L653.008 422.411L465.804 511.575ZM468.41 335.136V507.454L651.142 420.422L650.654 248.59L468.41 335.136Z" fill="#292A2E"/>
<path d="M345.752 423.78L345.247 246.203L533.191 156.687V334.768L345.752 423.78ZM347.857 247.838L348.345 419.669L530.585 333.127V160.807L347.857 247.838Z" fill="#292A2E"/>
<path d="M653.246 424.293L530.584 334.613V156.19L653.75 246.373V247.033L653.246 424.293ZM533.19 333.296L650.661 419.176L651.148 247.686L533.193 161.324L533.19 333.296Z" fill="#292A2E"/>
<path d="M467.107 340.802C470.705 340.802 473.622 337.893 473.622 334.305C473.622 330.717 470.705 327.809 467.107 327.809C463.51 327.809 460.593 330.717 460.593 334.305C460.593 337.893 463.51 340.802 467.107 340.802Z" fill="#571BB1"/>
<path d="M531.887 165.252C535.485 165.252 538.402 162.344 538.402 158.755C538.402 155.167 535.485 152.259 531.887 152.259C528.29 152.259 525.373 155.167 525.373 158.755C525.373 162.344 528.29 165.252 531.887 165.252Z" fill="#571BB1"/>
<path d="M467.107 514.101C470.705 514.101 473.622 511.192 473.622 507.604C473.622 504.016 470.705 501.107 467.107 501.107C463.51 501.107 460.593 504.016 460.593 507.604C460.593 511.192 463.51 514.101 467.107 514.101Z" fill="#571BB1"/>
<path d="M652.449 253.023C656.046 253.023 658.963 250.114 658.963 246.526C658.963 242.938 656.046 240.03 652.449 240.03C648.851 240.03 645.934 242.938 645.934 246.526C645.934 250.114 648.851 253.023 652.449 253.023Z" fill="#571BB1"/>
<path d="M346.552 253.023C350.15 253.023 353.066 250.114 353.066 246.526C353.066 242.938 350.15 240.03 346.552 240.03C342.954 240.03 340.037 242.938 340.037 246.526C340.037 250.114 342.954 253.023 346.552 253.023Z" fill="#571BB1"/>
<path d="M652.449 429.985C656.046 429.985 658.963 427.076 658.963 423.488C658.963 419.9 656.046 416.992 652.449 416.992C648.851 416.992 645.934 419.9 645.934 423.488C645.934 427.076 648.851 429.985 652.449 429.985Z" fill="#571BB1"/>
<path d="M346.552 429.985C350.15 429.985 353.066 427.076 353.066 423.488C353.066 419.9 350.15 416.992 346.552 416.992C342.954 416.992 340.037 419.9 340.037 423.488C340.037 427.076 342.954 429.985 346.552 429.985Z" fill="#571BB1"/>
<path d="M531.887 340.802C535.485 340.802 538.402 337.893 538.402 334.305C538.402 330.717 535.485 327.809 531.887 327.809C528.29 327.809 525.373 330.717 525.373 334.305C525.373 337.893 528.29 340.802 531.887 340.802Z" fill="#571BB1"/>
<path d="M551.365 216.916L538.717 237.729C538.428 238.201 538.332 238.766 538.449 239.307C538.566 239.848 538.886 240.323 539.344 240.635L560.233 254.957C560.468 255.123 560.733 255.24 561.014 255.303C561.295 255.366 561.586 255.373 561.869 255.322C562.152 255.272 562.423 255.166 562.665 255.011C562.907 254.855 563.116 254.653 563.279 254.417C563.442 254.18 563.556 253.914 563.615 253.633C563.674 253.352 563.676 253.062 563.621 252.78C563.567 252.498 563.457 252.23 563.297 251.991C563.138 251.752 562.932 251.547 562.693 251.388L545.835 239.83C554.18 237.318 574.921 233.892 594.272 253.19C618.665 277.517 605.158 305.626 604.562 306.831C604.315 307.344 604.281 307.933 604.467 308.471C604.652 309.008 605.043 309.452 605.553 309.705C606.063 309.958 606.653 310.001 607.195 309.824C607.737 309.648 608.188 309.265 608.449 308.76C608.607 308.442 623.997 276.71 597.343 250.127C577.048 229.888 554.695 232.949 545.082 235.61L555.079 219.161C555.37 218.67 555.456 218.084 555.317 217.531C555.177 216.977 554.825 216.501 554.336 216.205C553.846 215.909 553.26 215.818 552.703 215.951C552.147 216.085 551.666 216.431 551.365 216.916Z" fill="#0CBC8B"/>
<path d="M584.259 231.563L596.079 241.011L595.105 239.184C594.802 238.588 594.737 237.9 594.923 237.258C595.11 236.616 595.534 236.068 596.11 235.726C596.413 235.56 596.747 235.458 597.092 235.424C597.436 235.391 597.784 235.429 598.114 235.534C598.443 235.639 598.748 235.811 599.009 236.037C599.27 236.264 599.482 236.541 599.632 236.853L607.25 252.492C608.211 254.467 608.361 256.737 607.667 258.821C606.974 260.904 605.491 262.634 603.536 263.642C601.267 264.813 598.699 265.281 596.161 264.986C593.623 264.692 591.231 263.648 589.291 261.99L580.519 254.459C580.055 254.076 579.737 253.546 579.621 252.957C579.505 252.368 579.596 251.758 579.88 251.228C580.146 250.756 580.556 250.381 581.051 250.157C581.546 249.934 582.1 249.874 582.631 249.987C582.633 249.957 582.641 249.928 582.654 249.901C582.667 249.875 582.686 249.851 582.709 249.832C582.732 249.812 582.759 249.798 582.787 249.79C582.816 249.781 582.846 249.778 582.876 249.782L581.253 248.396C580.759 247.992 580.429 247.424 580.323 246.797C580.217 246.169 580.342 245.525 580.676 244.982C581.023 244.456 581.554 244.077 582.165 243.919C582.776 243.761 583.425 243.836 583.984 244.128C583.983 244.101 583.986 244.074 583.994 244.048L583.329 243.478C582.889 243.085 582.588 242.561 582.471 241.983C582.353 241.406 582.425 240.807 582.675 240.273C582.995 239.69 583.531 239.254 584.169 239.06C584.806 238.866 585.495 238.928 586.087 239.234L586.115 239.193L581.148 235.224C580.894 235.02 580.684 234.767 580.531 234.48C580.378 234.193 580.285 233.878 580.258 233.554C580.23 233.229 580.27 232.903 580.373 232.595C580.477 232.286 580.642 232.002 580.859 231.759C581.295 231.303 581.889 231.029 582.52 230.992C583.151 230.956 583.773 231.16 584.259 231.563Z" fill="#E98862"/>
<path opacity="0.2" d="M586.038 239.515C586.053 239.538 586.072 239.559 586.093 239.576L590.963 243.375C591.013 243.414 591.077 243.432 591.14 243.424C591.202 243.416 591.26 243.384 591.299 243.334C591.338 243.284 591.356 243.221 591.348 243.158C591.34 243.096 591.308 243.038 591.258 242.999L586.389 239.2C586.344 239.168 586.29 239.152 586.235 239.155C586.18 239.158 586.128 239.18 586.087 239.217C586.046 239.254 586.019 239.303 586.011 239.358C586.003 239.412 586.013 239.467 586.041 239.515H586.038Z" fill="#0C0C0C"/>
<path opacity="0.2" d="M584.013 244.219C584.027 244.242 584.046 244.263 584.067 244.28L587.872 247.296C587.921 247.336 587.985 247.354 588.048 247.346C588.111 247.339 588.168 247.308 588.208 247.258C588.247 247.208 588.266 247.145 588.258 247.082C588.251 247.02 588.219 246.962 588.17 246.923L584.366 243.907C584.321 243.872 584.266 243.854 584.21 243.856C584.154 243.857 584.1 243.879 584.058 243.916C584.016 243.953 583.989 244.004 583.98 244.059C583.972 244.115 583.984 244.171 584.013 244.219Z" fill="#0C0C0C"/>
<path opacity="0.2" d="M582.66 250.134C582.675 250.159 582.695 250.18 582.719 250.198L584.548 251.584C584.599 251.618 584.661 251.631 584.721 251.621C584.782 251.611 584.836 251.579 584.873 251.53C584.91 251.481 584.927 251.421 584.92 251.36C584.914 251.299 584.884 251.244 584.838 251.204L583.007 249.817C582.963 249.783 582.908 249.766 582.852 249.768C582.796 249.771 582.742 249.793 582.701 249.83C582.659 249.868 582.633 249.919 582.625 249.975C582.618 250.03 582.63 250.086 582.66 250.134Z" fill="#0C0C0C"/>
<path d="M721.139 299.552L658.977 323.215C656.018 324.361 652.795 324.648 649.679 324.041C646.564 323.435 643.685 321.961 641.375 319.789L586.182 267.903L609.229 243.524L656.704 288.158L708.979 268.321L721.139 299.552Z" fill="#571BB1"/>
<path d="M784.235 640.169C784.235 640.169 781.427 654.689 767.794 655.502C754.162 656.314 757.119 667.141 757.119 667.141H809.212V641.182L784.235 640.169Z" fill="#571BB1"/>
<path d="M800.303 375.315C800.303 375.315 800.14 370.95 800.174 380.851C800.303 417.783 800.946 459.966 802.519 484.652C805.042 524.334 811.513 649.444 811.513 649.444L777.283 649.158L744.102 373.814L800.303 375.315Z" fill="#262626"/>
<path d="M761.648 418.863C761.648 418.863 760.229 445.663 759.966 451.953C759.358 466.506 759.146 481.57 759.146 498.651L753.751 453.872C753.751 453.872 757.699 439.841 761.648 418.863Z" fill="#0A0A0A"/>
<path d="M723.296 640.169C723.296 640.169 720.488 654.689 706.856 655.502C693.224 656.314 696.18 667.141 696.18 667.141H748.273V641.182L723.296 640.169Z" fill="#571BB1"/>
<path d="M706.723 378.181C706.723 378.181 703.69 504.403 704.134 510.572L716.864 648.487L750.53 649.107L747.249 505.584C747.249 505.584 749.563 465.993 759.155 429.231C764.063 410.363 767.016 391.042 767.969 371.573L706.723 378.181Z" fill="#262626"/>
<path d="M800.675 375.305L800.803 375.311C800.803 375.311 800.71 373.157 800.675 375.305Z" fill="#333333"/>
<path d="M701.902 308.118C702.609 316.389 706.042 367.992 706.721 378.18H800.269C800.798 368.992 803.171 328.812 805.174 310.843C807.085 293.697 810.84 285.117 808.088 280.044C803.593 271.759 791.31 266.972 782.934 265.838C777.82 265.145 770.128 264.653 770.128 264.653C770.128 264.653 769.476 277.793 753.945 278.524C732.803 279.519 734.216 264.653 734.111 264.653C730.686 264.653 710.745 266.259 706.333 269.644C698.618 275.568 700.404 290.589 701.902 308.118Z" fill="#571BB1"/>
<path d="M701.989 306.805C701.91 306.805 701.833 306.775 701.776 306.72C701.718 306.666 701.683 306.592 701.679 306.512L700.924 293.379C700.922 293.338 700.927 293.297 700.941 293.259C700.954 293.22 700.975 293.185 701.002 293.155C701.03 293.124 701.063 293.099 701.099 293.082C701.136 293.064 701.176 293.054 701.217 293.051C701.258 293.049 701.298 293.055 701.337 293.068C701.376 293.081 701.411 293.102 701.442 293.129C701.472 293.157 701.497 293.189 701.515 293.226C701.533 293.263 701.543 293.303 701.545 293.343L702.3 306.477C702.302 306.518 702.297 306.558 702.283 306.597C702.27 306.635 702.249 306.671 702.222 306.701C702.195 306.732 702.162 306.756 702.125 306.774C702.088 306.792 702.048 306.802 702.007 306.804L701.989 306.805Z" fill="#0C0C0C"/>
<path d="M820.489 377.633C823.24 377.632 825.951 376.969 828.39 375.7C830.829 374.43 832.924 372.591 834.497 370.34C836.071 368.089 837.075 365.492 837.426 362.771C837.776 360.049 837.462 357.283 836.51 354.709C835.544 352.096 812.884 292.264 808.574 281.177L776.637 294.084C779.062 300.32 787.849 323.944 794.908 342.978L783.182 341.706L779.49 375.57L818.641 377.535C819.255 377.601 819.871 377.633 820.489 377.633Z" fill="#571BB1"/>
<path d="M725.534 265.123C725.632 265.11 728.332 275.24 749.396 273.664C763.98 272.574 767.536 262.675 767.869 262.675C766.297 262.342 763.744 261.996 763.046 261.623C761.839 261.069 760.777 260.245 759.943 259.214C759.108 258.183 758.524 256.974 758.235 255.681C757.576 253.169 757.24 243.489 757.24 238.634L734.799 243.665C735.112 249.142 737.302 261.84 729.629 264.087C728.352 264.454 726.977 264.801 725.534 265.123Z" fill="#E98862"/>
<path d="M735.575 254.439C744.421 255.132 755.785 251.407 757.944 239.639L759.892 229.019C762.05 217.248 757.601 206.576 746.489 204.549C735.376 202.522 725.32 210.549 723.162 222.319L722.299 227.021C721.47 231.538 719.791 253.201 735.575 254.439Z" fill="#E98862"/>
<path d="M727.374 243.625C728.962 235.668 729.69 230.36 729.605 224.759C727.369 220.846 727.955 216.357 728.465 214.415C726.925 215.391 725.114 215.854 723.293 215.738C723.293 215.738 726.992 200.933 739.564 196.95C741.876 196.053 747.778 194.919 755.616 195.992C762.282 196.903 778.714 201.874 781.062 220.323V220.333C781.139 220.945 782.712 237.944 785.862 246.099C790.091 257.063 796.025 260.469 795.876 273.119C795.683 289.39 765.689 291.555 747.597 290.338C729.505 289.121 719.406 283.188 719.275 271.462C719.13 258.324 724.197 259.545 727.374 243.625Z" fill="#0A0A0A"/>
<path d="M802.266 311.185L799.968 378.167L800.615 378.19L802.913 311.207L802.266 311.185Z" fill="#0C0C0C"/>
<path d="M0.868591 669H998.131C998.362 669 998.583 668.908 998.746 668.746C998.908 668.583 999 668.363 999 668.133C999 667.903 998.908 667.683 998.746 667.52C998.583 667.358 998.362 667.267 998.131 667.267H0.868591C0.638226 667.267 0.417297 667.358 0.254404 667.52C0.091512 667.683 0 667.903 0 668.133C0 668.363 0.091512 668.583 0.254404 668.746C0.417297 668.908 0.638226 669 0.868591 669Z" fill="#262626"/>
</svg>
