<svg width="728" height="510" viewBox="0 0 728 510" fill="none" xmlns="http://www.w3.org/2000/svg">
<g clip-path="url(#clip0_23_3804)">
<path opacity="0.1" d="M650.527 505.631C718.533 505.631 739.252 443.85 719.659 368.189C708.579 325.401 682.957 269.447 641.097 244.126C526.547 174.832 541.985 171.505 513.627 97.7486C467.337 -22.6531 289.335 -27.2992 216.603 58.9778C160.012 126.108 135.794 220.744 58.6923 290.471C-34.3743 374.636 -8.99041 506.85 80.406 506.85L650.527 505.631Z" fill="#571BB1"/>
<path d="M726.68 432.664H9.38879L50.67 334.786H685.399L726.68 432.664Z" fill="#292A2E"/>
<path d="M726.68 432.664H9.38879L50.67 334.786H685.399L726.68 432.664Z" fill="white"/>
<path d="M726.68 433.527H9.39274C9.2608 433.527 9.13095 433.49 9.01527 433.42C8.89959 433.351 8.80183 433.25 8.73107 433.127C8.66032 433.004 8.61886 432.864 8.61056 432.719C8.60226 432.574 8.62738 432.429 8.68359 432.297L49.9616 334.42C50.0248 334.272 50.125 334.147 50.2504 334.059C50.3758 333.971 50.5214 333.924 50.67 333.924H685.398C685.547 333.924 685.693 333.971 685.818 334.059C685.944 334.146 686.044 334.272 686.107 334.42L727.391 432.297C727.447 432.428 727.472 432.573 727.464 432.717C727.456 432.862 727.415 433.002 727.345 433.125C727.275 433.247 727.177 433.348 727.062 433.419C726.947 433.489 726.818 433.526 726.687 433.527H726.68ZM10.6208 431.802H725.448L684.902 335.649H51.1678L10.6208 431.802Z" fill="#292A2E"/>
<path d="M417.638 302.017H348.174V359.86H417.638V302.017Z" fill="#292A2E"/>
<path opacity="0.64" d="M417.639 302.018H348.174V332.919H417.639V302.018Z" fill="#0C0C0C"/>
<path d="M530.441 72.5275H235.372C230.731 72.5275 226.968 76.6715 226.968 81.7835V308.608C226.968 313.72 230.731 317.864 235.372 317.864H530.441C535.082 317.864 538.845 313.72 538.845 308.608V81.7835C538.845 76.6715 535.082 72.5275 530.441 72.5275Z" fill="#292A2E"/>
<path d="M526.293 83.0414H239.52C237.615 83.0414 236.071 84.7425 236.071 86.8409V274.959C236.071 277.058 237.615 278.759 239.52 278.759H526.293C528.198 278.759 529.742 277.058 529.742 274.959V86.8409C529.742 84.7425 528.198 83.0414 526.293 83.0414Z" fill="white"/>
<path d="M432.09 355.106H333.722C331.205 355.106 329.164 357.354 329.164 360.127C329.164 362.9 331.205 365.148 333.722 365.148H432.09C434.608 365.148 436.649 362.9 436.649 360.127C436.649 357.354 434.608 355.106 432.09 355.106Z" fill="#292A2E"/>
<path d="M334.255 114.304H321.195C321.117 114.307 321.039 114.293 320.966 114.262C320.894 114.231 320.827 114.185 320.771 114.125C320.715 114.066 320.67 113.994 320.64 113.915C320.609 113.836 320.594 113.751 320.594 113.665C320.594 113.579 320.609 113.494 320.64 113.415C320.67 113.336 320.715 113.265 320.771 113.205C320.827 113.146 320.894 113.099 320.966 113.069C321.039 113.038 321.117 113.024 321.195 113.027H334.255C334.405 113.033 334.547 113.103 334.651 113.222C334.755 113.341 334.813 113.5 334.813 113.665C334.813 113.831 334.755 113.99 334.651 114.109C334.547 114.228 334.405 114.298 334.255 114.304Z" fill="#292A2E"/>
<path d="M311.776 114.304H306.835C306.757 114.307 306.679 114.293 306.607 114.262C306.534 114.231 306.467 114.185 306.411 114.125C306.355 114.066 306.31 113.994 306.28 113.915C306.249 113.836 306.234 113.751 306.234 113.665C306.234 113.579 306.249 113.494 306.28 113.415C306.31 113.336 306.355 113.265 306.411 113.205C306.467 113.146 306.534 113.099 306.607 113.069C306.679 113.038 306.757 113.024 306.835 113.027H311.776C311.854 113.024 311.932 113.038 312.005 113.069C312.078 113.099 312.144 113.146 312.2 113.205C312.256 113.265 312.301 113.336 312.331 113.415C312.362 113.494 312.378 113.579 312.378 113.665C312.378 113.751 312.362 113.836 312.331 113.915C312.301 113.994 312.256 114.066 312.2 114.125C312.144 114.185 312.078 114.231 312.005 114.262C311.932 114.293 311.854 114.307 311.776 114.304Z" fill="#571BB1"/>
<path d="M311.776 125.826H306.835C306.681 125.826 306.534 125.759 306.425 125.639C306.316 125.519 306.255 125.357 306.255 125.188C306.255 125.018 306.316 124.856 306.425 124.736C306.534 124.616 306.681 124.549 306.835 124.549H311.776C311.93 124.549 312.078 124.616 312.186 124.736C312.295 124.856 312.356 125.018 312.356 125.188C312.356 125.357 312.295 125.519 312.186 125.639C312.078 125.759 311.93 125.826 311.776 125.826Z" fill="#571BB1"/>
<path d="M311.776 137.349H306.835C306.681 137.349 306.534 137.282 306.425 137.162C306.316 137.042 306.255 136.88 306.255 136.71C306.255 136.541 306.316 136.378 306.425 136.258C306.534 136.139 306.681 136.071 306.835 136.071H311.776C311.93 136.071 312.078 136.139 312.186 136.258C312.295 136.378 312.356 136.541 312.356 136.71C312.356 136.88 312.295 137.042 312.186 137.162C312.078 137.282 311.93 137.349 311.776 137.349Z" fill="#571BB1"/>
<path d="M311.776 148.872H306.835C306.681 148.872 306.534 148.804 306.425 148.684C306.316 148.565 306.255 148.402 306.255 148.233C306.255 148.063 306.316 147.901 306.425 147.781C306.534 147.661 306.681 147.594 306.835 147.594H311.776C311.93 147.594 312.078 147.661 312.186 147.781C312.295 147.901 312.356 148.063 312.356 148.233C312.356 148.402 312.295 148.565 312.186 148.684C312.078 148.804 311.93 148.872 311.776 148.872Z" fill="#571BB1"/>
<path d="M311.776 160.393H306.835C306.757 160.397 306.679 160.382 306.607 160.352C306.534 160.321 306.467 160.274 306.411 160.215C306.355 160.155 306.31 160.084 306.28 160.005C306.249 159.926 306.234 159.841 306.234 159.755C306.234 159.669 306.249 159.584 306.28 159.505C306.31 159.426 306.355 159.355 306.411 159.295C306.467 159.235 306.534 159.189 306.607 159.158C306.679 159.128 306.757 159.113 306.835 159.117H311.776C311.854 159.113 311.932 159.128 312.005 159.158C312.078 159.189 312.144 159.235 312.2 159.295C312.256 159.355 312.301 159.426 312.331 159.505C312.362 159.584 312.378 159.669 312.378 159.755C312.378 159.841 312.362 159.926 312.331 160.005C312.301 160.084 312.256 160.155 312.2 160.215C312.144 160.274 312.078 160.321 312.005 160.352C311.932 160.382 311.854 160.397 311.776 160.393Z" fill="#571BB1"/>
<path d="M311.776 171.912H306.835C306.681 171.912 306.534 171.845 306.425 171.725C306.316 171.606 306.255 171.443 306.255 171.274C306.255 171.104 306.316 170.942 306.425 170.822C306.534 170.702 306.681 170.635 306.835 170.635H311.776C311.93 170.635 312.078 170.702 312.186 170.822C312.295 170.942 312.356 171.104 312.356 171.274C312.356 171.443 312.295 171.606 312.186 171.725C312.078 171.845 311.93 171.912 311.776 171.912Z" fill="#571BB1"/>
<path d="M311.776 183.439H306.835C306.681 183.439 306.534 183.371 306.425 183.251C306.316 183.132 306.255 182.969 306.255 182.8C306.255 182.63 306.316 182.468 306.425 182.348C306.534 182.228 306.681 182.161 306.835 182.161H311.776C311.93 182.161 312.078 182.228 312.186 182.348C312.295 182.468 312.356 182.63 312.356 182.8C312.356 182.969 312.295 183.132 312.186 183.251C312.078 183.371 311.93 183.439 311.776 183.439Z" fill="#571BB1"/>
<path d="M311.776 194.96H306.835C306.757 194.964 306.679 194.949 306.607 194.919C306.534 194.888 306.467 194.842 306.411 194.782C306.355 194.722 306.31 194.651 306.28 194.572C306.249 194.493 306.234 194.408 306.234 194.322C306.234 194.236 306.249 194.151 306.28 194.072C306.31 193.993 306.355 193.922 306.411 193.862C306.467 193.802 306.534 193.756 306.607 193.725C306.679 193.695 306.757 193.68 306.835 193.684H311.776C311.854 193.68 311.932 193.695 312.005 193.725C312.078 193.756 312.144 193.802 312.2 193.862C312.256 193.922 312.301 193.993 312.331 194.072C312.362 194.151 312.378 194.236 312.378 194.322C312.378 194.408 312.362 194.493 312.331 194.572C312.301 194.651 312.256 194.722 312.2 194.782C312.144 194.842 312.078 194.888 312.005 194.919C311.932 194.949 311.854 194.964 311.776 194.96Z" fill="#571BB1"/>
<path d="M311.776 206.485H306.835C306.681 206.485 306.534 206.417 306.425 206.298C306.316 206.178 306.255 206.015 306.255 205.846C306.255 205.676 306.316 205.514 306.425 205.394C306.534 205.274 306.681 205.207 306.835 205.207H311.776C311.93 205.207 312.078 205.274 312.186 205.394C312.295 205.514 312.356 205.676 312.356 205.846C312.356 206.015 312.295 206.178 312.186 206.298C312.078 206.417 311.93 206.485 311.776 206.485Z" fill="#571BB1"/>
<path d="M311.776 218.006H306.835C306.681 218.006 306.534 217.938 306.425 217.819C306.316 217.699 306.255 217.536 306.255 217.367C306.255 217.197 306.316 217.035 306.425 216.915C306.534 216.795 306.681 216.728 306.835 216.728H311.776C311.93 216.728 312.078 216.795 312.186 216.915C312.295 217.035 312.356 217.197 312.356 217.367C312.356 217.536 312.295 217.699 312.186 217.819C312.078 217.938 311.93 218.006 311.776 218.006Z" fill="#571BB1"/>
<path d="M311.776 229.528H306.835C306.757 229.531 306.679 229.516 306.607 229.486C306.534 229.455 306.467 229.409 306.411 229.349C306.355 229.289 306.31 229.218 306.28 229.139C306.249 229.06 306.234 228.975 306.234 228.889C306.234 228.803 306.249 228.718 306.28 228.639C306.31 228.56 306.355 228.489 306.411 228.429C306.467 228.37 306.534 228.323 306.607 228.292C306.679 228.262 306.757 228.248 306.835 228.251H311.776C311.854 228.248 311.932 228.262 312.005 228.292C312.078 228.323 312.144 228.37 312.2 228.429C312.256 228.489 312.301 228.56 312.331 228.639C312.362 228.718 312.378 228.803 312.378 228.889C312.378 228.975 312.362 229.06 312.331 229.139C312.301 229.218 312.256 229.289 312.2 229.349C312.144 229.409 312.078 229.455 312.005 229.486C311.932 229.516 311.854 229.531 311.776 229.528Z" fill="#571BB1"/>
<path d="M311.776 241.05H306.835C306.681 241.05 306.534 240.983 306.425 240.863C306.316 240.743 306.255 240.581 306.255 240.411C306.255 240.242 306.316 240.079 306.425 239.959C306.534 239.84 306.681 239.772 306.835 239.772H311.776C311.93 239.772 312.078 239.84 312.186 239.959C312.295 240.079 312.356 240.242 312.356 240.411C312.356 240.581 312.295 240.743 312.186 240.863C312.078 240.983 311.93 241.05 311.776 241.05Z" fill="#571BB1"/>
<path d="M311.776 252.573H306.835C306.681 252.573 306.534 252.505 306.425 252.386C306.316 252.266 306.255 252.103 306.255 251.934C306.255 251.764 306.316 251.602 306.425 251.482C306.534 251.362 306.681 251.295 306.835 251.295H311.776C311.93 251.295 312.078 251.362 312.186 251.482C312.295 251.602 312.356 251.764 312.356 251.934C312.356 252.103 312.295 252.266 312.186 252.386C312.078 252.505 311.93 252.573 311.776 252.573Z" fill="#571BB1"/>
<path d="M311.776 264.094H306.835C306.757 264.098 306.679 264.083 306.607 264.053C306.534 264.022 306.467 263.976 306.411 263.916C306.355 263.856 306.31 263.785 306.28 263.706C306.249 263.627 306.234 263.542 306.234 263.456C306.234 263.37 306.249 263.285 306.28 263.206C306.31 263.127 306.355 263.056 306.411 262.996C306.467 262.936 306.534 262.89 306.607 262.859C306.679 262.829 306.757 262.814 306.835 262.818H311.776C311.854 262.814 311.932 262.829 312.005 262.859C312.078 262.89 312.144 262.936 312.2 262.996C312.256 263.056 312.301 263.127 312.331 263.206C312.362 263.285 312.378 263.37 312.378 263.456C312.378 263.542 312.362 263.627 312.331 263.706C312.301 263.785 312.256 263.856 312.2 263.916C312.144 263.976 312.078 264.022 312.005 264.053C311.932 264.083 311.854 264.098 311.776 264.094Z" fill="#571BB1"/>
<path d="M344.692 125.826H332.794C332.716 125.83 332.639 125.815 332.566 125.785C332.493 125.754 332.426 125.708 332.37 125.648C332.314 125.588 332.27 125.517 332.239 125.438C332.209 125.359 332.193 125.274 332.193 125.188C332.193 125.102 332.209 125.017 332.239 124.938C332.27 124.859 332.314 124.788 332.37 124.728C332.426 124.668 332.493 124.622 332.566 124.591C332.639 124.561 332.716 124.546 332.794 124.55H344.692C344.77 124.546 344.847 124.561 344.92 124.591C344.993 124.622 345.059 124.668 345.116 124.728C345.172 124.788 345.216 124.859 345.247 124.938C345.277 125.017 345.293 125.102 345.293 125.188C345.293 125.274 345.277 125.359 345.247 125.438C345.216 125.517 345.172 125.588 345.116 125.648C345.059 125.708 344.993 125.754 344.92 125.785C344.847 125.815 344.77 125.83 344.692 125.826Z" fill="#292A2E"/>
<path d="M334.255 194.96H321.195C321.117 194.964 321.039 194.949 320.966 194.919C320.894 194.888 320.827 194.842 320.771 194.782C320.715 194.722 320.67 194.651 320.64 194.572C320.609 194.493 320.594 194.408 320.594 194.322C320.594 194.236 320.609 194.151 320.64 194.072C320.67 193.993 320.715 193.922 320.771 193.862C320.827 193.802 320.894 193.756 320.966 193.725C321.039 193.695 321.117 193.68 321.195 193.684H334.255C334.405 193.69 334.547 193.76 334.651 193.879C334.755 193.998 334.813 194.157 334.813 194.322C334.813 194.487 334.755 194.646 334.651 194.765C334.547 194.884 334.405 194.954 334.255 194.96Z" fill="#292A2E"/>
<path d="M344.692 206.485H332.794C332.64 206.485 332.493 206.417 332.384 206.298C332.275 206.178 332.214 206.015 332.214 205.846C332.214 205.676 332.275 205.514 332.384 205.394C332.493 205.274 332.64 205.207 332.794 205.207H344.692C344.845 205.207 344.993 205.274 345.102 205.394C345.211 205.514 345.272 205.676 345.272 205.846C345.272 206.015 345.211 206.178 345.102 206.298C344.993 206.417 344.845 206.485 344.692 206.485Z" fill="#292A2E"/>
<path d="M427.612 137.349H340.91C340.756 137.349 340.609 137.282 340.5 137.162C340.391 137.042 340.33 136.88 340.33 136.71C340.33 136.541 340.391 136.378 340.5 136.258C340.609 136.139 340.756 136.071 340.91 136.071H427.612C427.766 136.071 427.913 136.139 428.022 136.258C428.131 136.378 428.192 136.541 428.192 136.71C428.192 136.88 428.131 137.042 428.022 137.162C427.913 137.282 427.766 137.349 427.612 137.349Z" fill="#292A2E"/>
<path d="M490.338 137.349H440.165C440.011 137.349 439.864 137.282 439.755 137.162C439.646 137.042 439.585 136.88 439.585 136.71C439.585 136.541 439.646 136.378 439.755 136.258C439.864 136.139 440.011 136.071 440.165 136.071H490.338C490.492 136.071 490.64 136.139 490.748 136.258C490.857 136.378 490.918 136.541 490.918 136.71C490.918 136.88 490.857 137.042 490.748 137.162C490.64 137.282 490.492 137.349 490.338 137.349Z" fill="#0CBC8B"/>
<path d="M517.263 137.349H501.887C501.733 137.349 501.585 137.282 501.477 137.162C501.368 137.042 501.307 136.88 501.307 136.71C501.307 136.541 501.368 136.378 501.477 136.258C501.585 136.139 501.733 136.071 501.887 136.071H517.265C517.419 136.071 517.566 136.139 517.675 136.258C517.784 136.378 517.845 136.541 517.845 136.71C517.845 136.88 517.784 137.042 517.675 137.162C517.566 137.282 517.419 137.349 517.265 137.349H517.263Z" fill="#292A2E"/>
<path d="M462.403 160.393H340.91C340.832 160.397 340.755 160.382 340.682 160.352C340.609 160.321 340.543 160.275 340.487 160.215C340.43 160.155 340.386 160.084 340.355 160.005C340.325 159.926 340.309 159.841 340.309 159.755C340.309 159.669 340.325 159.584 340.355 159.505C340.386 159.426 340.43 159.355 340.487 159.295C340.543 159.236 340.609 159.189 340.682 159.158C340.755 159.128 340.832 159.113 340.91 159.117H462.403C462.481 159.113 462.559 159.128 462.632 159.158C462.705 159.189 462.771 159.236 462.827 159.295C462.883 159.355 462.928 159.426 462.958 159.505C462.989 159.584 463.005 159.669 463.005 159.755C463.005 159.841 462.989 159.926 462.958 160.005C462.928 160.084 462.883 160.155 462.827 160.215C462.771 160.275 462.705 160.321 462.632 160.352C462.559 160.382 462.481 160.397 462.403 160.393Z" fill="#292A2E"/>
<path d="M490.338 160.393H474.961C474.883 160.397 474.805 160.382 474.732 160.352C474.659 160.321 474.593 160.275 474.537 160.215C474.481 160.155 474.436 160.084 474.406 160.005C474.375 159.926 474.359 159.841 474.359 159.755C474.359 159.669 474.375 159.584 474.406 159.505C474.436 159.426 474.481 159.355 474.537 159.295C474.593 159.236 474.659 159.189 474.732 159.158C474.805 159.128 474.883 159.113 474.961 159.117H490.34C490.418 159.113 490.495 159.128 490.568 159.158C490.641 159.189 490.707 159.236 490.764 159.295C490.82 159.355 490.864 159.426 490.895 159.505C490.925 159.584 490.941 159.669 490.941 159.755C490.941 159.841 490.925 159.926 490.895 160.005C490.864 160.084 490.82 160.155 490.764 160.215C490.707 160.275 490.641 160.321 490.568 160.352C490.495 160.382 490.418 160.397 490.34 160.393H490.338Z" fill="#571BB1"/>
<path d="M353.97 148.872H340.91C340.756 148.872 340.609 148.804 340.5 148.685C340.391 148.565 340.33 148.402 340.33 148.233C340.33 148.063 340.391 147.901 340.5 147.781C340.609 147.661 340.756 147.594 340.91 147.594H353.97C354.124 147.594 354.272 147.661 354.38 147.781C354.489 147.901 354.55 148.063 354.55 148.233C354.55 148.402 354.489 148.565 354.38 148.685C354.272 148.804 354.124 148.872 353.97 148.872Z" fill="#0CBC8B"/>
<path d="M455.549 148.872H366.525C366.371 148.872 366.224 148.804 366.115 148.685C366.006 148.565 365.945 148.402 365.945 148.233C365.945 148.063 366.006 147.901 366.115 147.781C366.224 147.661 366.371 147.594 366.525 147.594H455.549C455.703 147.594 455.85 147.661 455.959 147.781C456.068 147.901 456.129 148.063 456.129 148.233C456.129 148.402 456.068 148.565 455.959 148.685C455.85 148.804 455.703 148.872 455.549 148.872Z" fill="#571BB1"/>
<path d="M517.364 148.872H469.513C469.359 148.872 469.212 148.804 469.103 148.685C468.994 148.565 468.933 148.402 468.933 148.233C468.933 148.063 468.994 147.901 469.103 147.781C469.212 147.661 469.359 147.594 469.513 147.594H517.364C517.518 147.594 517.666 147.661 517.774 147.781C517.883 147.901 517.944 148.063 517.944 148.233C517.944 148.402 517.883 148.565 517.774 148.685C517.666 148.804 517.518 148.872 517.364 148.872Z" fill="#292A2E"/>
<path d="M427.612 171.913H340.91C340.756 171.913 340.609 171.845 340.5 171.726C340.391 171.606 340.33 171.443 340.33 171.274C340.33 171.104 340.391 170.942 340.5 170.822C340.609 170.702 340.756 170.635 340.91 170.635H427.612C427.766 170.635 427.913 170.702 428.022 170.822C428.131 170.942 428.192 171.104 428.192 171.274C428.192 171.443 428.131 171.606 428.022 171.726C427.913 171.845 427.766 171.913 427.612 171.913Z" fill="#292A2E"/>
<path d="M467.143 171.913H440.167C440.013 171.913 439.865 171.845 439.757 171.726C439.648 171.606 439.587 171.443 439.587 171.274C439.587 171.104 439.648 170.942 439.757 170.822C439.865 170.702 440.013 170.635 440.167 170.635H467.143C467.297 170.635 467.445 170.702 467.554 170.822C467.662 170.942 467.723 171.104 467.723 171.274C467.723 171.443 467.662 171.606 467.554 171.726C467.445 171.845 467.297 171.913 467.143 171.913Z" fill="#0CBC8B"/>
<path d="M517.263 171.913H478.69C478.536 171.913 478.388 171.845 478.28 171.726C478.171 171.606 478.11 171.443 478.11 171.274C478.11 171.104 478.171 170.942 478.28 170.822C478.388 170.702 478.536 170.635 478.69 170.635H517.263C517.417 170.635 517.565 170.702 517.673 170.822C517.782 170.942 517.843 171.104 517.843 171.274C517.843 171.443 517.782 171.606 517.673 171.726C517.565 171.845 517.417 171.913 517.263 171.913Z" fill="#292A2E"/>
<path d="M353.97 183.439H340.91C340.756 183.439 340.609 183.371 340.5 183.251C340.391 183.132 340.33 182.969 340.33 182.8C340.33 182.63 340.391 182.468 340.5 182.348C340.609 182.228 340.756 182.161 340.91 182.161H353.97C354.124 182.161 354.272 182.228 354.38 182.348C354.489 182.468 354.55 182.63 354.55 182.8C354.55 182.969 354.489 183.132 354.38 183.251C354.272 183.371 354.124 183.439 353.97 183.439Z" fill="#571BB1"/>
<path d="M455.549 183.439H366.525C366.371 183.439 366.224 183.371 366.115 183.251C366.006 183.132 365.945 182.969 365.945 182.8C365.945 182.63 366.006 182.468 366.115 182.348C366.224 182.228 366.371 182.161 366.525 182.161H455.549C455.703 182.161 455.85 182.228 455.959 182.348C456.068 182.468 456.129 182.63 456.129 182.8C456.129 182.969 456.068 183.132 455.959 183.251C455.85 183.371 455.703 183.439 455.549 183.439Z" fill="#0CBC8B"/>
<path d="M425.292 229.528H338.591C338.437 229.528 338.29 229.461 338.181 229.341C338.072 229.221 338.011 229.059 338.011 228.889C338.011 228.72 338.072 228.557 338.181 228.438C338.29 228.318 338.437 228.25 338.591 228.25H425.292C425.445 228.25 425.593 228.318 425.702 228.438C425.811 228.557 425.872 228.72 425.872 228.889C425.872 229.059 425.811 229.221 425.702 229.341C425.593 229.461 425.445 229.528 425.292 229.528Z" fill="#292A2E"/>
<path d="M488.019 229.528H437.846C437.692 229.528 437.544 229.461 437.436 229.341C437.327 229.221 437.266 229.059 437.266 228.889C437.266 228.72 437.327 228.557 437.436 228.438C437.544 228.318 437.692 228.25 437.846 228.25H488.019C488.173 228.25 488.32 228.318 488.429 228.438C488.538 228.557 488.599 228.72 488.599 228.889C488.599 229.059 488.538 229.221 488.429 229.341C488.32 229.461 488.173 229.528 488.019 229.528Z" fill="#571BB1"/>
<path d="M374.849 218.006H338.591C338.437 218.006 338.29 217.938 338.181 217.819C338.072 217.699 338.011 217.536 338.011 217.367C338.011 217.197 338.072 217.035 338.181 216.915C338.29 216.795 338.437 216.728 338.591 216.728H374.849C375.003 216.728 375.151 216.795 375.26 216.915C375.368 217.035 375.429 217.197 375.429 217.367C375.429 217.536 375.368 217.699 375.26 217.819C375.151 217.938 375.003 218.006 374.849 218.006Z" fill="#0CBC8B"/>
<path d="M453.226 218.006H387.399C387.245 218.006 387.098 217.938 386.989 217.819C386.88 217.699 386.819 217.536 386.819 217.367C386.819 217.197 386.88 217.035 386.989 216.915C387.098 216.795 387.245 216.728 387.399 216.728H453.226C453.38 216.728 453.528 216.795 453.637 216.915C453.745 217.035 453.806 217.197 453.806 217.367C453.806 217.536 453.745 217.699 453.637 217.819C453.528 217.938 453.38 218.006 453.226 218.006Z" fill="#571BB1"/>
<path d="M515.045 218.006H467.194C467.04 218.006 466.892 217.938 466.783 217.819C466.675 217.699 466.614 217.536 466.614 217.367C466.614 217.197 466.675 217.035 466.783 216.915C466.892 216.795 467.04 216.728 467.194 216.728H515.045C515.199 216.728 515.346 216.795 515.455 216.915C515.564 217.035 515.625 217.197 515.625 217.367C515.625 217.536 515.564 217.699 515.455 217.819C515.346 217.938 515.199 218.006 515.045 218.006Z" fill="#292A2E"/>
<path d="M460.084 252.573H338.591C338.437 252.573 338.29 252.505 338.181 252.386C338.072 252.266 338.011 252.103 338.011 251.934C338.011 251.764 338.072 251.602 338.181 251.482C338.29 251.362 338.437 251.295 338.591 251.295H460.084C460.238 251.295 460.385 251.362 460.494 251.482C460.603 251.602 460.664 251.764 460.664 251.934C460.664 252.103 460.603 252.266 460.494 252.386C460.385 252.505 460.238 252.573 460.084 252.573Z" fill="#571BB1"/>
<path d="M495.846 252.573H472.64C472.486 252.573 472.338 252.505 472.23 252.386C472.121 252.266 472.06 252.103 472.06 251.934C472.06 251.764 472.121 251.602 472.23 251.482C472.338 251.362 472.486 251.295 472.64 251.295H495.846C496 251.295 496.148 251.362 496.256 251.482C496.365 251.602 496.426 251.764 496.426 251.934C496.426 252.103 496.365 252.266 496.256 252.386C496.148 252.505 496 252.573 495.846 252.573Z" fill="#292A2E"/>
<path d="M351.65 241.05H338.591C338.513 241.053 338.435 241.039 338.363 241.008C338.29 240.978 338.223 240.931 338.167 240.872C338.111 240.812 338.066 240.74 338.036 240.661C338.005 240.582 337.99 240.497 337.99 240.412C337.99 240.326 338.005 240.241 338.036 240.162C338.066 240.083 338.111 240.011 338.167 239.952C338.223 239.892 338.29 239.846 338.363 239.815C338.435 239.784 338.513 239.77 338.591 239.773H351.65C351.728 239.77 351.806 239.784 351.879 239.815C351.951 239.846 352.018 239.892 352.074 239.952C352.13 240.011 352.175 240.083 352.205 240.162C352.236 240.241 352.251 240.326 352.251 240.412C352.251 240.497 352.236 240.582 352.205 240.661C352.175 240.74 352.13 240.812 352.074 240.872C352.018 240.931 351.951 240.978 351.879 241.008C351.806 241.039 351.728 241.053 351.65 241.05Z" fill="#571BB1"/>
<path d="M453.227 241.05H364.204C364.126 241.053 364.049 241.039 363.976 241.008C363.903 240.978 363.837 240.931 363.781 240.872C363.724 240.812 363.68 240.74 363.649 240.661C363.619 240.582 363.603 240.497 363.603 240.412C363.603 240.326 363.619 240.241 363.649 240.162C363.68 240.083 363.724 240.011 363.781 239.952C363.837 239.892 363.903 239.846 363.976 239.815C364.049 239.784 364.126 239.77 364.204 239.773H453.227C453.305 239.77 453.382 239.784 453.455 239.815C453.528 239.846 453.594 239.892 453.65 239.952C453.707 240.011 453.751 240.083 453.782 240.162C453.812 240.241 453.828 240.326 453.828 240.412C453.828 240.497 453.812 240.582 453.782 240.661C453.751 240.74 453.707 240.812 453.65 240.872C453.594 240.931 453.528 240.978 453.455 241.008C453.382 241.039 453.305 241.053 453.227 241.05Z" fill="#292A2E"/>
<path d="M515.045 241.05H467.194C467.116 241.053 467.038 241.039 466.965 241.008C466.892 240.978 466.826 240.931 466.77 240.872C466.714 240.812 466.669 240.74 466.639 240.661C466.608 240.582 466.592 240.497 466.592 240.412C466.592 240.326 466.608 240.241 466.639 240.162C466.669 240.083 466.714 240.011 466.77 239.952C466.826 239.892 466.892 239.846 466.965 239.815C467.038 239.784 467.116 239.77 467.194 239.773H515.045C515.123 239.77 515.201 239.784 515.273 239.815C515.346 239.846 515.413 239.892 515.469 239.952C515.525 240.011 515.57 240.083 515.6 240.162C515.631 240.241 515.646 240.326 515.646 240.412C515.646 240.497 515.631 240.582 515.6 240.661C515.57 240.74 515.525 240.812 515.469 240.872C515.413 240.931 515.346 240.978 515.273 241.008C515.201 241.039 515.123 241.053 515.045 241.05Z" fill="#0CBC8B"/>
<path d="M425.292 264.095H338.591C338.437 264.095 338.29 264.028 338.181 263.908C338.072 263.788 338.011 263.626 338.011 263.456C338.011 263.287 338.072 263.125 338.181 263.005C338.29 262.885 338.437 262.818 338.591 262.818H425.292C425.445 262.818 425.593 262.885 425.702 263.005C425.811 263.125 425.872 263.287 425.872 263.456C425.872 263.626 425.811 263.788 425.702 263.908C425.593 264.028 425.445 264.095 425.292 264.095Z" fill="#0CBC8B"/>
<path d="M464.824 264.095H437.847C437.694 264.095 437.546 264.028 437.437 263.908C437.328 263.788 437.267 263.626 437.267 263.456C437.267 263.287 437.328 263.125 437.437 263.005C437.546 262.885 437.694 262.818 437.847 262.818H464.824C464.978 262.818 465.125 262.885 465.234 263.005C465.343 263.125 465.404 263.287 465.404 263.456C465.404 263.626 465.343 263.788 465.234 263.908C465.125 264.028 464.978 264.095 464.824 264.095Z" fill="#292A2E"/>
<path d="M514.944 264.095H476.37C476.216 264.095 476.068 264.028 475.959 263.908C475.851 263.788 475.79 263.626 475.79 263.456C475.79 263.287 475.851 263.125 475.959 263.005C476.068 262.885 476.216 262.818 476.37 262.818H514.943C515.097 262.818 515.245 262.885 515.353 263.005C515.462 263.125 515.523 263.287 515.523 263.456C515.523 263.626 515.462 263.788 515.353 263.908C515.245 264.028 515.097 264.095 514.943 264.095H514.944Z" fill="#571BB1"/>
<path d="M298.979 270.389C298.903 270.389 298.828 270.373 298.758 270.341C298.687 270.309 298.623 270.262 298.569 270.202C298.515 270.143 298.473 270.073 298.444 269.995C298.414 269.918 298.399 269.835 298.399 269.751V94.1916C298.399 94.0222 298.461 93.8597 298.569 93.7398C298.678 93.62 298.826 93.5527 298.979 93.5527C299.133 93.5527 299.281 93.62 299.39 93.7398C299.498 93.8597 299.559 94.0222 299.559 94.1916V269.751C299.559 269.835 299.544 269.918 299.515 269.995C299.486 270.073 299.443 270.143 299.389 270.202C299.336 270.262 299.272 270.309 299.201 270.341C299.131 270.373 299.056 270.389 298.979 270.389Z" fill="#292A2E"/>
<path d="M272.457 102.169H247.343C247.189 102.169 247.041 102.102 246.933 101.982C246.824 101.862 246.763 101.7 246.763 101.53C246.763 101.361 246.824 101.198 246.933 101.078C247.041 100.959 247.189 100.891 247.343 100.891H272.454C272.608 100.891 272.756 100.959 272.864 101.078C272.973 101.198 273.034 101.361 273.034 101.53C273.034 101.7 272.973 101.862 272.864 101.982C272.756 102.102 272.608 102.169 272.454 102.169H272.457Z" fill="#292A2E"/>
<path d="M264.893 114.767H247.343C247.265 114.77 247.187 114.756 247.114 114.725C247.042 114.694 246.975 114.648 246.919 114.588C246.863 114.529 246.818 114.457 246.788 114.378C246.757 114.299 246.741 114.214 246.741 114.128C246.741 114.042 246.757 113.957 246.788 113.878C246.818 113.799 246.863 113.728 246.919 113.668C246.975 113.609 247.042 113.562 247.114 113.532C247.187 113.501 247.265 113.487 247.343 113.49H264.89C265.04 113.496 265.182 113.566 265.286 113.685C265.39 113.804 265.449 113.963 265.449 114.128C265.449 114.294 265.39 114.453 265.286 114.572C265.182 114.691 265.04 114.761 264.89 114.767H264.893Z" fill="#292A2E"/>
<path d="M280.323 127.365H247.343C247.189 127.365 247.041 127.298 246.933 127.178C246.824 127.058 246.763 126.896 246.763 126.726C246.763 126.557 246.824 126.395 246.933 126.275C247.041 126.155 247.189 126.088 247.343 126.088H280.32C280.474 126.088 280.621 126.155 280.73 126.275C280.839 126.395 280.9 126.557 280.9 126.726C280.9 126.896 280.839 127.058 280.73 127.178C280.621 127.298 280.474 127.365 280.32 127.365H280.323Z" fill="#292A2E"/>
<path d="M286.475 139.963H258.944C258.866 139.966 258.788 139.952 258.715 139.921C258.642 139.891 258.576 139.844 258.52 139.785C258.464 139.725 258.419 139.654 258.388 139.575C258.358 139.496 258.342 139.411 258.342 139.325C258.342 139.239 258.358 139.154 258.388 139.075C258.419 138.996 258.464 138.924 258.52 138.865C258.576 138.805 258.642 138.759 258.715 138.728C258.788 138.697 258.866 138.683 258.944 138.686H286.475C286.552 138.683 286.63 138.697 286.703 138.728C286.776 138.759 286.842 138.805 286.898 138.865C286.954 138.924 286.999 138.996 287.03 139.075C287.06 139.154 287.076 139.239 287.076 139.325C287.076 139.411 287.06 139.496 287.03 139.575C286.999 139.654 286.954 139.725 286.898 139.785C286.842 139.844 286.776 139.891 286.703 139.921C286.63 139.952 286.552 139.966 286.475 139.963Z" fill="#292A2E"/>
<path d="M273.163 152.562H258.944C258.79 152.562 258.642 152.494 258.533 152.375C258.425 152.255 258.364 152.092 258.364 151.923C258.364 151.753 258.425 151.591 258.533 151.471C258.642 151.351 258.79 151.284 258.944 151.284H273.163C273.316 151.284 273.464 151.351 273.573 151.471C273.682 151.591 273.743 151.753 273.743 151.923C273.743 152.092 273.682 152.255 273.573 152.375C273.464 152.494 273.316 152.562 273.163 152.562Z" fill="#292A2E"/>
<path d="M284.053 165.16H258.944C258.79 165.16 258.642 165.093 258.533 164.973C258.425 164.853 258.364 164.691 258.364 164.521C258.364 164.352 258.425 164.189 258.533 164.07C258.642 163.95 258.79 163.883 258.944 163.883H284.053C284.207 163.883 284.354 163.95 284.463 164.07C284.572 164.189 284.633 164.352 284.633 164.521C284.633 164.691 284.572 164.853 284.463 164.973C284.354 165.093 284.207 165.16 284.053 165.16Z" fill="#292A2E"/>
<path d="M266.708 177.758H247.343C247.189 177.758 247.041 177.691 246.933 177.571C246.824 177.451 246.763 177.289 246.763 177.119C246.763 176.95 246.824 176.787 246.933 176.667C247.041 176.548 247.189 176.48 247.343 176.48H266.705C266.859 176.48 267.006 176.548 267.115 176.667C267.224 176.787 267.285 176.95 267.285 177.119C267.285 177.289 267.224 177.451 267.115 177.571C267.006 177.691 266.859 177.758 266.705 177.758H266.708Z" fill="#292A2E"/>
<path d="M260.052 190.357H247.343C247.189 190.357 247.041 190.289 246.933 190.169C246.824 190.05 246.763 189.887 246.763 189.718C246.763 189.548 246.824 189.386 246.933 189.266C247.041 189.146 247.189 189.079 247.343 189.079H260.049C260.203 189.079 260.35 189.146 260.459 189.266C260.568 189.386 260.629 189.548 260.629 189.718C260.629 189.887 260.568 190.05 260.459 190.169C260.35 190.289 260.203 190.357 260.049 190.357H260.052Z" fill="#292A2E"/>
<path d="M310.987 99.467V99.6972L318.236 102.66C318.34 102.707 318.428 102.787 318.49 102.889C318.552 102.992 318.585 103.112 318.584 103.235V103.453C318.585 103.549 318.565 103.644 318.523 103.729C318.482 103.814 318.422 103.886 318.349 103.938C318.276 103.995 318.19 104.031 318.101 104.042C318.012 104.053 317.922 104.039 317.839 104.002L309.651 100.476C309.549 100.431 309.461 100.353 309.399 100.253C309.337 100.153 309.304 100.035 309.303 99.9136V99.2627C309.302 99.1411 309.335 99.022 309.397 98.9216C309.46 98.8211 309.548 98.744 309.651 98.7006L317.839 95.1658C317.906 95.1404 317.976 95.1273 318.047 95.127C318.154 95.1295 318.259 95.1651 318.349 95.2296C318.423 95.2844 318.483 95.3587 318.524 95.4458C318.565 95.5328 318.586 95.6298 318.584 95.7279V95.9443C318.586 96.0662 318.554 96.1859 318.492 96.2866C318.429 96.3874 318.34 96.4642 318.236 96.5064L310.987 99.467Z" fill="#571BB1"/>
<path d="M325.357 92.5561L321.02 107.182C320.985 107.305 320.915 107.411 320.821 107.487C320.727 107.563 320.614 107.604 320.498 107.604C320.413 107.606 320.33 107.584 320.255 107.542C320.18 107.499 320.116 107.437 320.068 107.361C320.016 107.285 319.981 107.198 319.965 107.105C319.949 107.012 319.953 106.916 319.976 106.825L324.313 92.2112C324.35 92.0874 324.422 91.9794 324.517 91.9022C324.613 91.825 324.728 91.7823 324.846 91.7802C324.93 91.78 325.013 91.8021 325.088 91.8444C325.162 91.8867 325.227 91.948 325.275 92.0233C325.327 92.0984 325.361 92.186 325.375 92.2787C325.389 92.3715 325.383 92.4666 325.357 92.5561Z" fill="#571BB1"/>
<path d="M336.007 99.2628V99.9137C336.009 100.034 335.978 100.151 335.918 100.252C335.858 100.352 335.772 100.43 335.672 100.476L327.472 104.002C327.39 104.039 327.302 104.053 327.215 104.041C327.128 104.03 327.044 103.995 326.973 103.938C326.899 103.886 326.838 103.814 326.795 103.73C326.753 103.645 326.73 103.55 326.73 103.453V103.236C326.728 103.11 326.762 102.988 326.826 102.885C326.891 102.782 326.983 102.703 327.09 102.66L334.338 99.6973V99.4671L327.09 96.503C326.983 96.4641 326.89 96.3885 326.826 96.2873C326.761 96.1861 326.727 96.0647 326.73 95.9409V95.7245C326.73 95.6258 326.753 95.5288 326.795 95.442C326.837 95.3551 326.899 95.281 326.973 95.2262C327.063 95.1618 327.167 95.1263 327.274 95.1236C327.342 95.1227 327.409 95.1359 327.472 95.1624L335.672 98.6972C335.774 98.7418 335.861 98.8201 335.921 98.9213C335.981 99.0226 336.011 99.1418 336.007 99.2628Z" fill="#571BB1"/>
<path d="M38.1526 507.092C33.4239 507.091 28.7655 505.832 24.5737 503.422C20.3819 501.012 16.7808 497.521 14.0769 493.248C11.373 488.976 9.64641 484.046 9.04399 478.88C8.44157 473.714 8.98119 468.465 10.6169 463.578C12.2771 458.616 54.8607 337.538 62.2771 316.495L113.522 349.343C109.355 361.175 94.2532 406.025 82.1209 442.154L102.277 439.74L108.617 498.85L41.3281 506.903C40.2735 507.029 39.2134 507.092 38.1526 507.092Z" fill="#571BB1"/>
<path d="M205.77 291.32C205.59 291.294 200.659 311.736 162.172 308.555C135.528 306.356 129.031 286.38 128.421 286.38C131.294 285.708 135.959 285.009 137.234 284.259C141.43 281.776 144.486 278.754 146.025 272.267C147.228 267.194 147.84 247.664 147.84 237.867L188.84 248.014C188.268 259.067 184.269 284.69 198.287 289.225C200.62 289.971 203.132 290.661 205.77 291.32Z" fill="#E98862"/>
<path d="M187.421 269.74C171.258 271.145 150.495 263.628 146.551 239.876L142.993 218.444C139.049 194.692 147.178 173.156 167.482 169.066C187.786 164.976 206.159 181.173 210.103 204.925L211.678 214.414C213.191 223.527 216.259 267.234 187.421 269.74Z" fill="#E98862"/>
<path d="M110.913 289.664C96.3885 290.851 81.5785 292.583 70.8911 303.482C58.0198 316.607 55.6873 332.746 63.8989 377.158C70.9639 415.373 68.1609 432.072 72.8878 502.589C73.0271 504.666 73.3253 508.963 73.3253 508.963L228.697 508.679C228.697 508.679 243.256 415.121 251.294 371.97C257.406 339.164 273.462 299.339 205.767 291.313C205.592 291.292 151.302 286.364 110.913 289.664Z" fill="#571BB1"/>
<path d="M73.3284 509.395C73.2271 509.395 73.1298 509.352 73.0568 509.274C72.9838 509.197 72.9409 509.092 72.937 508.98L68.0677 369.765C68.0657 369.708 68.0739 369.652 68.0917 369.598C68.1096 369.545 68.1367 369.497 68.1717 369.455C68.2067 369.413 68.2487 369.38 68.2955 369.356C68.3422 369.333 68.3928 369.319 68.4442 369.317C68.4961 369.313 68.5482 369.32 68.5974 369.339C68.6466 369.358 68.6917 369.387 68.7298 369.426C68.768 369.465 68.7984 369.513 68.8192 369.565C68.8399 369.618 68.8506 369.675 68.8504 369.732L73.7198 508.947C73.7236 509.062 73.6861 509.173 73.6155 509.257C73.5449 509.34 73.447 509.39 73.3433 509.394L73.3284 509.395Z" fill="#0C0C0C"/>
<path d="M322.641 339.37L333.557 312.4C333.797 311.807 334.146 311.276 334.583 310.84C335.019 310.405 335.533 310.074 336.092 309.869C336.651 309.664 337.242 309.589 337.829 309.65C338.415 309.711 338.984 309.905 339.498 310.221C340.432 310.837 341.125 311.813 341.443 312.96C341.76 314.107 341.68 315.344 341.216 316.429L338.876 322.212L353.815 307.747C355.45 306.109 358.41 305.247 359.959 307.388C360.605 308.17 360.99 309.169 361.054 310.223C361.117 311.277 360.854 312.323 360.308 313.191C360.326 313.204 360.343 313.219 360.357 313.236C360.366 313.251 360.375 313.267 360.382 313.283L362.904 310.754C363.371 310.286 363.928 309.938 364.532 309.737C365.137 309.536 365.775 309.486 366.399 309.59C367.024 309.695 367.619 309.951 368.142 310.342C368.665 310.732 369.103 311.246 369.423 311.845C369.909 312.801 370.083 313.913 369.915 314.993C369.747 316.073 369.247 317.057 368.499 317.78L367.426 318.856C367.439 318.905 367.445 318.956 367.443 319.007C368.322 318.465 369.346 318.285 370.334 318.499C371.322 318.713 372.208 319.307 372.835 320.175C373.495 321.146 373.798 322.357 373.684 323.564C373.57 324.771 373.046 325.886 372.219 326.687L369.553 329.36C369.615 329.351 369.678 329.359 369.737 329.383C369.795 329.406 369.848 329.445 369.89 329.495C369.938 329.558 369.968 329.634 369.976 329.715C370.88 329.472 371.831 329.563 372.684 329.973C373.536 330.383 374.243 331.09 374.695 331.986C375.153 332.938 375.305 334.032 375.128 335.091C374.95 336.15 374.453 337.112 373.718 337.821L351.226 360.376C348.079 363.531 344.149 365.58 339.938 366.258C335.728 366.937 331.429 366.215 327.594 364.186C324.286 362.436 321.728 359.335 320.464 355.541C319.2 351.747 319.328 347.559 320.822 343.868L322.641 339.37Z" fill="#E98862"/>
<g opacity="0.2">
<path d="M345.581 327.587C345.651 327.67 345.747 327.72 345.85 327.726C345.952 327.731 346.053 327.693 346.129 327.618L360.321 313.841C360.399 313.766 360.446 313.659 360.453 313.545C360.459 313.431 360.425 313.318 360.356 313.232C360.287 313.146 360.19 313.094 360.087 313.087C359.983 313.08 359.881 313.118 359.803 313.194L345.612 326.97C345.573 327.008 345.542 327.053 345.519 327.104C345.496 327.155 345.483 327.21 345.48 327.267C345.477 327.323 345.483 327.38 345.5 327.433C345.517 327.487 345.543 327.536 345.577 327.579L345.581 327.587Z" fill="#0C0C0C"/>
</g>
<g opacity="0.2">
<path d="M350.925 334.648C350.995 334.731 351.091 334.781 351.193 334.787C351.296 334.792 351.396 334.754 351.473 334.679L367.311 319.305C367.349 319.267 367.381 319.222 367.404 319.171C367.426 319.12 367.439 319.065 367.443 319.008C367.446 318.952 367.439 318.895 367.422 318.842C367.406 318.788 367.379 318.739 367.345 318.696C367.275 318.614 367.179 318.564 367.076 318.556C366.973 318.549 366.872 318.585 366.793 318.657L350.955 334.032C350.916 334.07 350.885 334.115 350.862 334.166C350.84 334.217 350.826 334.272 350.823 334.329C350.82 334.385 350.827 334.442 350.844 334.495C350.86 334.549 350.887 334.598 350.921 334.641L350.925 334.648Z" fill="#0C0C0C"/>
</g>
<g opacity="0.2">
<path d="M356.673 342.333C356.742 342.416 356.839 342.466 356.941 342.472C357.043 342.478 357.144 342.439 357.221 342.364L369.854 330.1C369.932 330.024 369.979 329.917 369.986 329.803C369.992 329.689 369.957 329.577 369.888 329.491C369.82 329.405 369.723 329.353 369.619 329.346C369.516 329.339 369.414 329.377 369.336 329.453L356.703 341.717C356.664 341.755 356.633 341.8 356.61 341.851C356.587 341.902 356.574 341.957 356.571 342.014C356.568 342.07 356.575 342.127 356.591 342.18C356.608 342.234 356.634 342.283 356.668 342.326L356.673 342.333Z" fill="#0C0C0C"/>
</g>
<path d="M202.405 245.396C199.621 229.991 198.345 219.714 198.491 208.871C202.411 201.296 201.381 192.603 200.489 188.846C201.613 189.551 202.788 190.15 204.003 190.638C204.568 190.854 205.177 190.888 205.759 190.736C206.341 190.585 206.872 190.253 207.289 189.78C207.705 189.308 207.991 188.714 208.112 188.069C208.233 187.424 208.184 186.754 207.971 186.138C204.938 177.486 197.139 160.672 181.041 155.038C176.989 153.301 166.639 151.106 152.904 153.182C141.219 154.947 114.765 167.157 110.65 202.873V202.893C110.514 204.078 105.4 234.399 99.8866 250.189C92.4749 271.414 82.0685 278.01 82.3323 302.498C82.672 333.999 135.245 338.191 166.961 335.836C198.677 333.48 216.376 321.994 216.605 299.293C216.855 273.854 207.971 276.216 202.405 245.396Z" fill="#0A0A0A"/>
<path d="M202.414 234.473C196.244 235.716 190.034 229.452 188.906 222.656C187.778 215.86 190.59 208.871 198.49 208.871L202.414 234.473Z" fill="#E98862"/>
<path d="M268.782 502.202C262.576 502.201 256.529 500.034 251.51 496.012C246.491 491.991 242.758 486.321 240.847 479.817L200.066 340.894L255.923 321L277.37 394.071L314.434 329.147L364.134 363.568L293.624 487.08C290.982 491.708 287.317 495.523 282.973 498.167C278.628 500.812 273.746 502.2 268.782 502.202Z" fill="#571BB1"/>
<path d="M235.875 463.841C235.851 463.842 235.827 463.839 235.803 463.835C235.701 463.814 235.611 463.749 235.552 463.655C235.493 463.56 235.471 463.444 235.49 463.332L249.353 380.444C249.362 380.388 249.381 380.335 249.409 380.288C249.437 380.24 249.473 380.199 249.516 380.167C249.558 380.135 249.606 380.112 249.656 380.1C249.706 380.089 249.758 380.088 249.809 380.098C249.859 380.108 249.907 380.129 249.951 380.16C249.994 380.191 250.031 380.231 250.06 380.277C250.089 380.324 250.11 380.376 250.121 380.432C250.131 380.487 250.132 380.544 250.123 380.6L236.259 463.491C236.242 463.59 236.194 463.679 236.124 463.743C236.054 463.807 235.966 463.841 235.875 463.841Z" fill="#0C0C0C"/>
<path d="M282.359 413.634C282.272 413.634 282.188 413.603 282.119 413.544C282.051 413.486 282.002 413.404 281.98 413.312L277.362 393.718C277.336 393.608 277.351 393.49 277.403 393.392C277.456 393.293 277.542 393.222 277.643 393.193C277.743 393.164 277.85 393.181 277.939 393.239C278.029 393.297 278.094 393.391 278.12 393.502L282.738 413.095C282.753 413.159 282.754 413.226 282.742 413.29C282.73 413.355 282.705 413.415 282.668 413.467C282.631 413.519 282.584 413.561 282.531 413.59C282.477 413.619 282.418 413.634 282.358 413.634H282.359Z" fill="#0C0C0C"/>
<path d="M596.535 410.349H443.506C442.549 410.349 441.602 410.125 440.729 409.692C439.855 409.26 439.075 408.628 438.44 407.839C437.804 407.05 437.328 406.122 437.042 405.115C436.756 404.109 436.667 403.047 436.78 402L440.875 364.365C441.072 362.553 441.866 360.883 443.105 359.672C444.344 358.461 445.944 357.792 447.601 357.792H596.535C598.331 357.792 600.054 358.578 601.324 359.978C602.595 361.377 603.308 363.274 603.309 365.253V402.888C603.308 404.867 602.594 406.764 601.324 408.163C600.054 409.562 598.331 410.348 596.535 410.349Z" fill="#292A2E"/>
<path d="M484.901 410.702L491.446 383.04C491.59 382.432 491.617 381.798 491.527 381.178C491.436 380.557 491.229 379.965 490.918 379.437C490.608 378.91 490.202 378.46 489.725 378.115C489.248 377.771 488.711 377.539 488.148 377.436C483.492 376.467 482.924 383.533 482.043 386.92L478.682 366.036C478.17 360.403 471.294 360.218 470.785 365.831C470.749 365.824 470.712 365.831 470.679 365.85C470.841 355.591 460.529 356.385 462.294 365.376C462.257 365.404 462.225 365.438 462.198 365.478C460.476 360.504 453.418 362.831 454.371 368.107L454.919 371.9C454.886 371.862 454.846 371.831 454.802 371.81C454.759 371.789 454.712 371.777 454.664 371.776C454.616 371.775 454.568 371.784 454.524 371.803C454.479 371.822 454.438 371.851 454.404 371.887C452.036 368.195 446.231 370.904 447.124 375.526L451.757 407.556C454.406 428.272 482.083 435.223 484.901 410.702Z" fill="#E98862"/>
<g opacity="0.2">
<path d="M474.021 386.517C473.004 386.412 470.828 366.921 470.421 366.312C470.403 366.203 470.426 366.091 470.484 366C470.542 365.909 470.63 365.848 470.729 365.829C470.828 365.809 470.93 365.834 471.012 365.898C471.094 365.962 471.15 366.059 471.167 366.168L474.334 386.033C474.343 386.087 474.342 386.143 474.331 386.197C474.32 386.251 474.299 386.302 474.27 386.347C474.241 386.392 474.204 386.43 474.161 386.46C474.118 386.489 474.071 386.508 474.021 386.517Z" fill="#0C0C0C"/>
</g>
<g opacity="0.2">
<path d="M466.102 388.3C466.004 388.316 465.904 388.289 465.823 388.225C465.743 388.16 465.689 388.063 465.673 387.955L462.132 365.786C462.115 365.677 462.138 365.565 462.195 365.474C462.253 365.383 462.341 365.321 462.44 365.302C463.479 365.198 466.005 387.345 466.419 387.811C466.429 387.866 466.428 387.923 466.416 387.978C466.405 388.032 466.384 388.084 466.355 388.13C466.325 388.175 466.288 388.214 466.244 388.243C466.201 388.272 466.153 388.292 466.102 388.3Z" fill="#0C0C0C"/>
</g>
<g opacity="0.2">
<path d="M457.539 390.286C457.441 390.302 457.341 390.275 457.26 390.21C457.18 390.146 457.126 390.049 457.11 389.941L454.286 372.256C454.272 372.149 454.296 372.04 454.354 371.952C454.412 371.865 454.498 371.805 454.595 371.786C454.692 371.768 454.792 371.791 454.873 371.852C454.955 371.913 455.011 372.006 455.031 372.112L457.856 389.796C457.866 389.851 457.865 389.908 457.854 389.962C457.842 390.017 457.821 390.069 457.792 390.115C457.762 390.16 457.725 390.199 457.681 390.228C457.638 390.258 457.59 390.277 457.539 390.286Z" fill="#0C0C0C"/>
</g>
<path d="M252.274 509.395H70.3619L58.801 411.558C58.569 409.595 58.7199 407.6 59.2435 405.706C59.7671 403.812 60.6514 402.063 61.8374 400.576C63.0234 399.088 64.4839 397.897 66.1212 397.08C67.7586 396.264 69.5352 395.841 71.3325 395.841H227.745C230.816 395.84 233.781 397.07 236.088 399.301C238.396 401.532 239.887 404.611 240.285 407.964L252.274 509.395Z" fill="white"/>
<path d="M241.232 407.834C240.8 404.228 239.194 400.918 236.714 398.518C234.234 396.117 231.047 394.789 227.745 394.781H71.3325C69.6143 394.782 67.9119 395.142 66.3152 395.841C65.6397 396.134 64.9877 396.489 64.3662 396.902C62.0874 398.398 60.2558 400.596 59.0973 403.225C57.9387 405.854 57.5038 408.798 57.846 411.696L69.3991 509.395H71.3325L59.7559 411.43C59.5412 409.616 59.6802 407.772 60.1637 406.022C60.6471 404.272 61.4639 402.655 62.5595 401.28C63.6551 399.905 65.0043 398.804 66.5172 398.048C68.03 397.293 69.6716 396.902 71.3325 396.902H227.745C230.579 396.91 233.315 398.049 235.445 400.108C237.575 402.167 238.955 405.007 239.33 408.101L251.306 509.395H253.247L241.232 407.834Z" fill="#292A2E"/>
<path d="M241.663 509.395H59.7483L48.1873 411.558C47.955 409.595 48.1055 407.6 48.629 405.706C49.1524 403.812 50.0367 402.062 51.2228 400.575C52.4089 399.087 53.8695 397.895 55.507 397.079C57.1446 396.263 58.9214 395.841 60.7188 395.841H217.129C220.198 395.841 223.163 397.072 225.468 399.302C227.774 401.533 229.265 404.612 229.661 407.964L241.663 509.395Z" fill="#292A2E"/>
<path d="M230.618 407.834C230.351 405.587 229.625 403.435 228.494 401.542C227.363 399.649 225.858 398.062 224.09 396.902C223.468 396.49 222.816 396.136 222.141 395.841C220.547 395.142 218.847 394.782 217.132 394.781H60.7188C58.7841 394.78 56.8716 395.234 55.109 396.112C53.3463 396.99 51.7742 398.273 50.4976 399.874C49.221 401.475 48.2694 403.358 47.7063 405.397C47.1432 407.436 46.9816 409.583 47.2323 411.696L58.7776 509.395H60.7188L49.1422 411.43C48.9275 409.616 49.0665 407.772 49.55 406.022C50.0334 404.272 50.8502 402.655 51.9458 401.28C53.0414 399.905 54.3906 398.804 55.9034 398.049C57.4163 397.293 59.0579 396.902 60.7188 396.902H217.129C219.963 396.91 222.699 398.049 224.829 400.108C226.958 402.167 228.339 405.007 228.714 408.101L240.69 509.395H242.631L230.618 407.834Z" fill="#292A2E"/>
<path d="M550.441 295.59C550.62 295.565 552.612 331.965 591.003 328.792C617.581 326.598 627.057 295.54 627.666 295.54C624.801 294.869 619.975 293.893 618.703 293.144C614.517 290.668 608.556 288.091 607.207 279.139C606.43 273.979 607.749 247.584 607.343 242.363L567.329 252.392C567.899 263.418 571.889 288.978 557.905 293.501C555.582 294.251 553.072 294.941 550.441 295.59Z" fill="#E98862"/>
<path d="M568.454 269.589C584.566 270.959 605.249 263.428 609.143 239.747L612.657 218.38C616.551 194.698 608.415 173.249 588.172 169.211C567.929 165.171 549.642 181.35 545.748 205.031L544.192 214.491C543.71 217.749 543.429 221.04 543.353 224.34C543.092 233.06 542.727 246.325 546.641 256.067C550.343 265.269 558.165 268.714 568.454 269.589Z" fill="#E98862"/>
<path d="M604.586 167.997C598.19 165.8 591.556 164.557 584.861 164.301C584.212 161.486 582.767 159.3 580.641 158.383C577.101 156.86 572.777 159.313 569.9 164.04C568.301 161.34 566.134 158.907 563.261 157.919C555.337 155.201 554.943 167.74 554.943 167.74C554.943 167.74 542.378 154.083 541.985 171.501C541.51 192.577 545.025 198.757 547.591 200.318C552.657 203.399 556.429 202.878 558.434 207.412C564.505 221.14 558.554 259.808 565.579 264.65C576.342 272.064 598.386 272.323 605.546 271.759C608.299 271.542 610.876 268.027 612.036 265.267C615.781 256.359 624.132 236.164 626.456 227.813C630.746 212.403 630.422 177.289 604.586 167.997Z" fill="#0C0C0C"/>
<path d="M560.769 250.839C566.984 250.096 571.301 242.169 570.626 235.32C569.952 228.471 564.541 225.302 558.326 226.044L555.575 231.015L555.426 251.475L560.769 250.839Z" fill="#E98862"/>
<path d="M664.592 503.686L664.784 503.698C664.784 503.698 664.646 499.61 664.592 503.686Z" fill="#333333"/>
<path d="M495.25 376.133C496.464 391.835 502.366 489.797 503.532 509.137H664.319C665.227 491.693 669.306 415.422 672.75 381.306C676.038 348.756 682.489 332.459 677.76 322.835C670.033 307.108 648.92 298.019 634.524 295.873C625.732 294.562 623.921 293.622 620.338 293.622H558.432C552.545 293.622 514.952 299.869 507.246 306.111C485.919 323.385 492.674 342.858 495.25 376.133Z" fill="#571BB1"/>
<path d="M698.649 508.111C703.379 508.111 708.038 506.852 712.231 504.442C716.423 502.032 720.025 498.541 722.729 494.268C725.434 489.994 727.16 485.064 727.763 479.897C728.365 474.73 727.825 469.48 726.188 464.593C724.527 459.631 685.585 346.047 678.171 324.999L623.276 349.498C627.444 361.331 642.548 406.185 654.681 442.317L634.523 439.903L628.178 504.191L695.473 507.921C696.528 508.048 697.588 508.111 698.649 508.111Z" fill="#571BB1"/>
<path d="M667.321 381.966L663.37 509.121L664.438 509.162L668.389 382.006L667.321 381.966Z" fill="#0C0C0C"/>
<path d="M471.992 508.111C467.262 508.111 462.603 506.852 458.411 504.442C454.218 502.031 450.616 498.541 447.912 494.267C445.208 489.994 443.481 485.064 442.879 479.897C442.277 474.73 442.817 469.48 444.454 464.592C446.114 459.631 486.688 345.544 494.101 324.498L547.365 349.501C543.197 361.334 528.093 406.188 515.96 442.32L536.118 439.906L542.462 504.193L475.168 507.923C474.113 508.049 473.053 508.112 471.992 508.111Z" fill="#571BB1"/>
<path d="M515.834 434.782C515.742 434.782 515.651 434.758 515.568 434.712C515.486 434.666 515.415 434.599 515.36 434.517C515.306 434.435 515.27 434.34 515.255 434.24C515.24 434.139 515.247 434.036 515.275 433.94L529.526 384.519C529.548 384.435 529.584 384.358 529.634 384.291C529.683 384.223 529.744 384.168 529.813 384.127C529.883 384.086 529.958 384.061 530.037 384.053C530.115 384.045 530.194 384.054 530.268 384.08C530.343 384.107 530.413 384.149 530.472 384.205C530.532 384.261 530.581 384.33 530.616 384.408C530.651 384.485 530.672 384.569 530.677 384.656C530.682 384.742 530.671 384.828 530.645 384.91L516.394 434.326C516.357 434.458 516.283 434.573 516.182 434.655C516.081 434.737 515.959 434.782 515.834 434.782Z" fill="#0C0C0C"/>
<path d="M698.461 411.558L686.893 509.395H504.986L516.978 407.964C517.375 404.612 518.865 401.533 521.171 399.303C523.477 397.072 526.441 395.842 529.51 395.841H685.923C687.721 395.84 689.498 396.261 691.136 397.077C692.775 397.893 694.236 399.085 695.423 400.572C696.61 402.06 697.495 403.81 698.019 405.704C698.543 407.598 698.694 409.594 698.461 411.558Z" fill="white"/>
<path d="M696.145 399.876C695.21 398.704 694.114 397.7 692.897 396.902C692.273 396.489 691.618 396.134 690.94 395.841C689.343 395.142 687.641 394.782 685.923 394.781H529.51C526.209 394.791 523.022 396.119 520.542 398.519C518.062 400.919 516.457 404.229 516.023 407.834L504.016 509.395H505.957L517.933 408.101C518.305 405.007 519.683 402.167 521.812 400.107C523.941 398.048 526.676 396.909 529.51 396.902H685.923C687.584 396.903 689.225 397.295 690.738 398.05C692.251 398.805 693.601 399.907 694.697 401.281C695.793 402.656 696.61 404.272 697.095 406.022C697.58 407.772 697.72 409.615 697.507 411.43L685.923 509.395H687.864L699.409 411.696C699.66 409.583 699.498 407.436 698.935 405.398C698.372 403.36 697.421 401.477 696.145 399.876Z" fill="#292A2E"/>
<path d="M709.075 411.558L697.507 509.395H515.6L527.592 407.964C527.879 405.538 528.741 403.238 530.092 401.296C531.443 399.354 533.234 397.838 535.286 396.902C536.819 396.198 538.463 395.837 540.124 395.841H696.544C698.341 395.842 700.117 396.264 701.754 397.081C703.392 397.897 704.852 399.089 706.038 400.577C707.224 402.064 708.108 403.813 708.632 405.707C709.156 407.6 709.307 409.595 709.075 411.558Z" fill="#292A2E"/>
<path d="M706.758 399.876C705.482 398.277 703.91 396.995 702.149 396.117C700.388 395.238 698.477 394.783 696.544 394.781H540.124C537.675 394.785 535.274 395.518 533.172 396.902C531.404 398.062 529.897 399.648 528.765 401.541C527.633 403.435 526.906 405.586 526.637 407.834L514.63 509.395H516.571L528.546 408.101C528.918 405.007 530.297 402.167 532.425 400.107C534.554 398.048 537.289 396.909 540.123 396.902H696.544C698.205 396.902 699.846 397.293 701.359 398.048C702.872 398.803 704.221 399.905 705.317 401.28C706.413 402.655 707.229 404.271 707.713 406.022C708.196 407.772 708.335 409.616 708.12 411.43L696.544 509.395H698.477L710.031 411.696C710.278 409.583 710.115 407.436 709.55 405.398C708.986 403.36 708.034 401.477 706.758 399.876Z" fill="#292A2E"/>
<path d="M9.35357 510H724.314C724.459 510 724.599 509.936 724.702 509.823C724.804 509.71 724.862 509.556 724.862 509.396C724.862 509.236 724.804 509.083 724.702 508.97C724.599 508.857 724.459 508.793 724.314 508.793H9.35357C9.20826 508.793 9.0689 508.857 8.96614 508.97C8.86339 509.083 8.80566 509.236 8.80566 509.396C8.80566 509.556 8.86339 509.71 8.96614 509.823C9.0689 509.936 9.20826 510 9.35357 510Z" fill="#292A2E"/>
<g opacity="0.65">
<path d="M9.35357 510H724.314C724.459 510 724.599 509.936 724.702 509.823C724.804 509.71 724.862 509.556 724.862 509.396C724.862 509.236 724.804 509.083 724.702 508.97C724.599 508.857 724.459 508.793 724.314 508.793H9.35357C9.20826 508.793 9.0689 508.857 8.96614 508.97C8.86339 509.083 8.80566 509.236 8.80566 509.396C8.80566 509.556 8.86339 509.71 8.96614 509.823C9.0689 509.936 9.20826 510 9.35357 510Z" fill="#292A2E"/>
</g>
<path d="M442.641 476.302L445.158 403.407L479.931 401.38L483.095 476.302H442.641Z" fill="#571BB1"/>
</g>
<defs>
<clipPath id="clip0_23_3804">
<rect width="728" height="510" fill="white"/>
</clipPath>
</defs>
</svg>
