<svg width="774" height="523" viewBox="0 0 774 523" fill="none" xmlns="http://www.w3.org/2000/svg">
<path d="M615.084 0H459.893V201.999H615.084V0Z" fill="#F4F4F4"/>
<path d="M615.084 201.999H620.118V3.05176e-05H615.084V201.999Z" fill="#F4F4F4"/>
<path opacity="0.05" d="M615.084 201.999H620.118V3.05176e-05H615.084V201.999Z" fill="#292A2E"/>
<path opacity="0.05" d="M586.814 36.7969H488.163V165.203H586.814V36.7969Z" fill="#292A2E"/>
<path opacity="0.03" d="M586.813 36.7969H581.672V165.203H586.813V36.7969Z" fill="#292A2E"/>
<path d="M742.004 251.674H615.083V379.76H742.004V251.674Z" fill="#F4F4F4"/>
<path opacity="0.05" d="M718.884 275.007H638.204V356.428H718.884V275.007Z" fill="#292A2E"/>
<path d="M742.005 379.76H747.039V251.674H742.005V379.76Z" fill="#F4F4F4"/>
<path opacity="0.05" d="M742.005 379.76H747.039V251.674H742.005V379.76Z" fill="#292A2E"/>
<path opacity="0.03" d="M718.883 275.007H713.742V356.428H718.883V275.007Z" fill="#292A2E"/>
<path d="M343.266 18.7529H18.0259V343.993H343.266V18.7529Z" fill="#F4F4F4"/>
<path d="M18.0271 18.7529H14.2991V343.993H18.0271V18.7529Z" fill="#F4F4F4"/>
<path opacity="0.05" d="M18.0271 18.7529H14.2991V343.993H18.0271V18.7529Z" fill="#292A2E"/>
<path opacity="0.05" d="M96.8171 242.87V157.777H166.521V207.214H274.493V294.749H320.383V343.993H274.493H265.653H33.6721V242.87H96.8171Z" fill="#292A2E"/>
<path opacity="0.34" d="M157.574 167.016H106.815V176.255H157.574V167.016Z" fill="#FFFFFA"/>
<path opacity="0.34" d="M157.574 186.162H106.815V195.401H157.574V186.162Z" fill="#FFFFFA"/>
<path opacity="0.34" d="M157.574 205.307H106.815V214.546H157.574V205.307Z" fill="#FFFFFA"/>
<path opacity="0.34" d="M52.0291 251.839H42.6731V261.078H52.0291V251.839Z" fill="#FFFFFA"/>
<path opacity="0.34" d="M52.0291 270.984H42.6731V280.223H52.0291V270.984Z" fill="#FFFFFA"/>
<path opacity="0.34" d="M52.0291 290.13H42.6731V299.369H52.0291V290.13Z" fill="#FFFFFA"/>
<path opacity="0.34" d="M69.337 251.839H59.981V261.078H69.337V251.839Z" fill="#FFFFFA"/>
<path opacity="0.34" d="M69.337 270.984H59.981V280.223H69.337V270.984Z" fill="#FFFFFA"/>
<path opacity="0.34" d="M69.337 290.13H59.981V299.369H69.337V290.13Z" fill="#FFFFFA"/>
<path opacity="0.34" d="M86.1773 251.839H76.8213V261.078H86.1773V251.839Z" fill="#FFFFFA"/>
<path opacity="0.34" d="M86.1773 270.984H76.8213V280.223H86.1773V270.984Z" fill="#FFFFFA"/>
<path opacity="0.34" d="M86.1773 290.13H76.8213V299.369H86.1773V290.13Z" fill="#FFFFFA"/>
<path d="M18.0259 179.549H83.4699V18.7529H88.8819V179.549H265.653V18.7529H271.065V179.549H343.267V184.961H271.065V343.993H265.653V184.961H88.8819V343.993H83.4699V184.961H18.0259V179.549Z" fill="white"/>
<path d="M356.223 343.601H5.07007V354.417H356.223V343.601Z" fill="#F4F4F4"/>
<path opacity="0.1" d="M356.223 343.601H5.07007V354.417H356.223V343.601Z" fill="#292A2E"/>
<path opacity="0.1" d="M5.07 343.601H0V354.417H5.07V343.601Z" fill="#292A2E"/>
<path opacity="0.1" d="M5.07 343.601H0V354.417H5.07V343.601Z" fill="#292A2E"/>
<path d="M237.343 179.585C237.343 179.585 251.432 167.385 253.382 141.36C254.891 121.206 237.343 135.373 237.343 135.373C237.343 135.373 238.288 120.851 227.901 122.981C217.514 125.111 212.649 140.627 212.649 140.627" fill="#0C0C0C"/>
<path d="M173.805 128.3C173.805 128.3 122.142 137.365 145.678 206.617H159.692" fill="#0C0C0C"/>
<path d="M231.989 278.613C231.759 278.583 229.215 320.803 180.167 317.122C146.212 314.578 134.105 278.553 133.327 278.553C136.988 277.775 143.153 276.644 144.779 275.776C150.125 272.903 156.741 269.913 158.464 259.53C159.458 253.546 157.773 222.93 158.291 216.874L210.412 228.508C209.684 241.296 204.587 270.942 222.452 276.189C225.425 277.057 228.627 277.855 231.989 278.613Z" fill="#E98862"/>
<path opacity="0.52" d="M211.143 264.073C210.327 261.442 209.802 258.73 209.575 255.984C209.002 249.719 209.117 243.41 209.916 237.169C199.323 235.739 189.343 231.366 181.109 224.548C180.142 228.122 174.819 243.74 176.293 247.137C179.078 253.558 192.169 264.073 211.143 264.073Z" fill="#0C0C0C"/>
<path d="M201.892 253.872C181.252 253.407 155.828 242.09 153.608 214.264L151.608 189.156C149.388 161.331 162.208 137.607 188.402 135.517C214.602 133.426 235.984 154.417 238.202 182.246L239.089 193.362C239.327 197.184 239.304 201.017 239.021 204.836C238.346 214.936 237.281 230.29 231.178 241.036C225.415 251.186 215.078 254.17 201.892 253.872Z" fill="#E98862"/>
<path d="M230.429 199.314C232.217 199.314 233.666 197.865 233.666 196.077C233.666 194.29 232.217 192.84 230.429 192.84C228.642 192.84 227.192 194.29 227.192 196.077C227.192 197.865 228.642 199.314 230.429 199.314Z" fill="#0C0C0C"/>
<path d="M200.705 199.517C202.493 199.517 203.942 198.068 203.942 196.28C203.942 194.492 202.493 193.043 200.705 193.043C198.918 193.043 197.468 194.492 197.468 196.28C197.468 198.068 198.918 199.517 200.705 199.517Z" fill="#0C0C0C"/>
<path d="M155.911 222.611C147.949 223.247 140.811 215.244 140.18 207.282C139.549 199.32 145.649 194.414 153.611 193.782L158.139 198.789L162.757 222.068L155.911 222.611Z" fill="#E98862"/>
<path d="M162.981 209.275C162.981 209.275 163.031 169.688 174.817 166.454C182.667 164.3 202.723 174.295 220.37 169.688C228.091 167.672 235.645 169.11 236.648 172.754C237.048 174.197 240.508 152.854 227.192 137.72C216.592 125.672 184.441 124.22 170.203 129.362C130.779 143.587 152.084 195.625 152.084 195.625L154.784 209.091L162.981 209.275Z" fill="#0C0C0C"/>
<g opacity="0.52">
<path d="M214.42 218.825H214.471C217.037 218.625 221.32 218.009 221.171 216.089C221.046 214.498 215.371 197.664 214.72 195.75C214.66 195.591 214.54 195.462 214.387 195.39C214.233 195.317 214.057 195.307 213.897 195.362C213.736 195.416 213.602 195.531 213.524 195.681C213.446 195.832 213.43 196.007 213.478 196.17C215.999 203.625 219.778 215.109 219.863 216.19C219.646 216.663 217.025 217.312 214.363 217.518C214.191 217.526 214.029 217.602 213.912 217.729C213.796 217.857 213.734 218.024 213.74 218.197C213.747 218.369 213.821 218.532 213.947 218.65C214.072 218.768 214.239 218.832 214.412 218.827L214.42 218.825Z" fill="#0C0C0C"/>
</g>
<path d="M220.16 179.345C222.776 178.428 225.591 178.232 228.309 178.779C229.645 179.04 230.936 179.5 232.136 180.143C233.324 180.774 234.427 181.552 235.421 182.459C235.584 182.601 235.685 182.8 235.704 183.016C235.722 183.231 235.657 183.445 235.521 183.612C235.385 183.78 235.189 183.888 234.975 183.914C234.76 183.941 234.544 183.882 234.372 183.752L234.319 183.712C233.398 182.96 232.386 182.326 231.307 181.825C230.244 181.326 229.112 180.991 227.949 180.831C225.65 180.497 223.305 180.776 221.149 181.64L221.067 181.674C220.915 181.746 220.749 181.786 220.581 181.792C220.413 181.798 220.246 181.771 220.088 181.711C219.931 181.651 219.788 181.559 219.667 181.443C219.546 181.326 219.449 181.186 219.384 181.031C219.318 180.876 219.284 180.71 219.285 180.541C219.285 180.373 219.319 180.207 219.385 180.052C219.451 179.897 219.548 179.757 219.669 179.641C219.791 179.525 219.934 179.434 220.092 179.374L220.16 179.345Z" fill="#0C0C0C"/>
<path d="M201.159 181.91C199.003 181.047 196.657 180.768 194.359 181.103C193.196 181.263 192.064 181.598 191.001 182.097C189.922 182.597 188.91 183.231 187.989 183.984L187.938 184.023C187.766 184.152 187.55 184.21 187.337 184.184C187.123 184.158 186.928 184.05 186.792 183.883C186.656 183.716 186.59 183.503 186.608 183.288C186.626 183.074 186.726 182.874 186.887 182.732C187.88 181.825 188.984 181.046 190.172 180.415C191.373 179.771 192.663 179.311 194 179.05C196.718 178.503 199.532 178.699 202.148 179.616C202.453 179.733 202.701 179.966 202.837 180.263C202.973 180.56 202.987 180.899 202.877 181.207C202.766 181.515 202.539 181.767 202.245 181.91C201.951 182.052 201.612 182.074 201.302 181.97L201.241 181.947L201.159 181.91Z" fill="#0C0C0C"/>
<path d="M217.563 225.344C210.097 226.206 202.558 224.556 196.135 220.654C195.912 220.52 195.656 220.452 195.396 220.458C195.136 220.464 194.883 220.544 194.667 220.689C194.45 220.834 194.28 221.037 194.175 221.275C194.07 221.513 194.036 221.776 194.075 222.033C194.79 226.433 197.375 234.462 206.705 235.046C212.731 235.423 216.849 230.609 218.889 227.446C219.031 227.227 219.107 226.971 219.109 226.71C219.11 226.448 219.037 226.192 218.898 225.971C218.758 225.75 218.558 225.573 218.322 225.462C218.085 225.351 217.822 225.31 217.563 225.344Z" fill="white"/>
<path d="M214.43 152.305C220.246 150.677 223.019 142.418 220.623 133.858C218.227 125.298 211.571 119.678 205.755 121.306C199.939 122.933 197.167 131.192 199.562 139.752C201.958 148.312 208.615 153.932 214.43 152.305Z" fill="#0C0C0C"/>
<path d="M179.193 306.594C145.101 304.987 143.666 276.05 143.666 276.05C143.666 276.05 126.774 277.142 115.545 278.661C97.1611 281.148 85.0331 287.382 75.3821 297.034C66.4031 306.012 60.9371 315.726 66.7221 377.744C70.9101 422.65 67.9621 521.424 67.9621 521.424H273.712C273.712 521.424 286.051 391.959 287.77 371.744C291.053 333.155 293.718 299.538 285.706 291.526C269.235 275.055 236.906 276.05 222.748 276.052C222.518 276.052 225.621 308.782 179.193 306.594Z" fill="#571BB1"/>
<path d="M479.471 520.092L330.871 520.826C323.742 520.311 316.908 517.768 311.176 513.498C305.443 509.229 301.05 503.409 298.514 496.726L225.222 334.126C221.694 324.828 222.003 314.508 226.083 305.438C230.163 296.368 237.679 289.29 246.977 285.761C266.343 278.412 285.461 283.353 292.809 302.715L360.144 447.746L482.48 449.731C482.48 449.731 480.391 520.158 479.471 520.092Z" fill="#571BB1"/>
<path d="M284.861 380.766C284.87 380.633 284.93 380.509 285.03 380.422C285.13 380.334 285.26 380.289 285.393 380.297C285.525 380.306 285.649 380.366 285.737 380.466C285.825 380.566 285.87 380.696 285.861 380.829L281.678 447.657C281.671 447.777 281.62 447.891 281.535 447.976C281.451 448.062 281.338 448.114 281.218 448.124C281.195 448.125 281.171 448.125 281.147 448.124C281.082 448.12 281.017 448.103 280.958 448.074C280.899 448.045 280.847 448.005 280.803 447.955C280.76 447.906 280.726 447.849 280.705 447.787C280.684 447.724 280.675 447.658 280.679 447.593" fill="#0C0C0C"/>
<path d="M310.2 452.432L280.065 441.869L284.391 441.569C285.786 441.445 287.081 440.796 288.016 439.753C288.95 438.71 289.454 437.352 289.425 435.952C289.386 435.23 289.199 434.523 288.877 433.875C288.556 433.228 288.105 432.652 287.554 432.184C287.002 431.716 286.361 431.366 285.669 431.154C284.978 430.942 284.25 430.873 283.531 430.952L230.218 436.618L231.602 453.751C232.033 459.072 234.042 464.144 237.374 468.316C240.706 472.487 245.208 475.569 250.302 477.165L273.39 484.357C274.583 484.754 275.876 484.727 277.05 484.28C278.225 483.833 279.209 482.994 279.836 481.905C280.381 480.91 280.594 479.767 280.444 478.642C280.294 477.517 279.788 476.47 279 475.653C279.07 475.602 279.125 475.533 279.159 475.453C279.187 475.378 279.196 475.298 279.185 475.219C279.175 475.14 279.146 475.065 279.1 475L283.356 476.334C284.683 476.78 286.13 476.705 287.405 476.125C288.679 475.545 289.685 474.503 290.22 473.209C290.658 472.036 290.668 470.746 290.249 469.567C289.83 468.387 289.008 467.393 287.928 466.759C287.978 466.732 288.022 466.697 288.058 466.654L289.808 467.202C291.001 467.599 292.294 467.572 293.468 467.125C294.643 466.678 295.627 465.839 296.254 464.75C296.916 463.542 297.085 462.125 296.725 460.796C296.365 459.466 295.504 458.328 294.322 457.62C294.332 457.585 294.337 457.548 294.339 457.512L306.888 461.912C307.513 462.14 308.176 462.241 308.84 462.211C309.504 462.18 310.155 462.018 310.755 461.733C311.356 461.449 311.894 461.049 312.339 460.555C312.784 460.061 313.126 459.484 313.346 458.856C313.565 458.229 313.659 457.565 313.62 456.901C313.581 456.238 313.41 455.589 313.119 454.992C312.827 454.395 312.419 453.862 311.92 453.423C311.421 452.985 310.839 452.65 310.209 452.438L310.2 452.432Z" fill="#E98862"/>
<path opacity="0.2" d="M293.84 458C293.782 458.001 293.724 457.99 293.669 457.97L281.53 453.556C281.466 453.536 281.406 453.503 281.355 453.459C281.303 453.415 281.261 453.361 281.232 453.301C281.202 453.24 281.184 453.174 281.18 453.107C281.177 453.039 281.187 452.972 281.21 452.908C281.233 452.845 281.268 452.787 281.315 452.737C281.361 452.688 281.416 452.649 281.478 452.621C281.54 452.594 281.607 452.58 281.674 452.579C281.742 452.578 281.809 452.591 281.871 452.617L294.011 457.031C294.121 457.072 294.213 457.15 294.272 457.251C294.33 457.353 294.351 457.472 294.33 457.587C294.31 457.702 294.25 457.807 294.16 457.883C294.071 457.958 293.957 458 293.84 458Z" fill="#0A0A0A"/>
<path opacity="0.2" d="M287.7 466.824C287.644 466.824 287.587 466.814 287.533 466.795L277.965 463.395C277.845 463.348 277.747 463.255 277.693 463.137C277.639 463.019 277.633 462.885 277.677 462.763C277.72 462.64 277.809 462.54 277.925 462.482C278.042 462.424 278.176 462.414 278.299 462.453L287.867 465.848C287.978 465.888 288.072 465.965 288.131 466.067C288.191 466.168 288.212 466.288 288.192 466.404C288.172 466.52 288.112 466.625 288.022 466.701C287.932 466.777 287.818 466.819 287.7 466.819V466.824Z" fill="#0A0A0A"/>
<path opacity="0.2" d="M278.694 475.779C278.633 475.779 278.573 475.767 278.515 475.746L274.034 474.037C273.914 473.987 273.819 473.892 273.767 473.773C273.716 473.653 273.713 473.519 273.759 473.397C273.806 473.276 273.897 473.177 274.015 473.122C274.133 473.067 274.268 473.06 274.39 473.103L278.872 474.812C278.982 474.854 279.073 474.932 279.13 475.034C279.187 475.136 279.207 475.254 279.186 475.369C279.164 475.484 279.104 475.588 279.014 475.663C278.924 475.738 278.811 475.779 278.694 475.779Z" fill="#0A0A0A"/>
<path d="M252.557 489.729L65.7191 520.7C59.9591 521.327 54.1322 520.611 48.6956 518.607C43.2589 516.604 38.3604 513.368 34.3844 509.154C30.4085 504.939 27.4632 499.861 25.7796 494.317C24.096 488.773 23.72 482.914 24.6811 477.2L64.5221 317.6C66.1721 307.792 71.6507 299.042 79.7527 293.273C87.8546 287.505 97.9163 285.191 107.724 286.841C117.532 288.491 126.283 293.97 132.051 302.072C137.819 310.174 140.133 320.235 138.483 330.043L107.928 441.278L243.691 422.732L252.557 489.729Z" fill="#571BB1"/>
<path d="M83.573 444.769C83.4475 444.768 83.3269 444.72 83.2353 444.634C83.1437 444.548 83.0877 444.431 83.0785 444.306C83.0693 444.181 83.1075 444.057 83.1856 443.958C83.2637 443.86 83.376 443.795 83.5 443.775L106.788 440.288C106.853 440.278 106.92 440.28 106.984 440.296C107.048 440.311 107.108 440.339 107.161 440.378C107.214 440.417 107.259 440.467 107.292 440.523C107.326 440.58 107.348 440.643 107.357 440.708C107.377 440.839 107.343 440.973 107.264 441.079C107.185 441.186 107.067 441.257 106.936 441.276L83.648 444.763C83.6232 444.767 83.5981 444.769 83.573 444.769Z" fill="#0C0C0C"/>
<path d="M70.9202 521.424C70.7876 521.433 70.6571 521.388 70.5573 521.3C70.4575 521.213 70.3967 521.089 70.3882 520.956C70.3797 520.824 70.4243 520.693 70.512 520.593C70.5998 520.494 70.7236 520.433 70.8562 520.424L251.51 489.35L242.753 423.35L107.928 441.278C107.851 441.288 107.772 441.28 107.698 441.254C107.625 441.228 107.558 441.186 107.503 441.13C107.449 441.074 107.408 441.006 107.385 440.931C107.362 440.856 107.356 440.777 107.369 440.699L121.958 377.758C121.968 377.693 121.991 377.631 122.026 377.574C122.06 377.518 122.106 377.47 122.16 377.431C122.213 377.393 122.274 377.366 122.338 377.351C122.403 377.337 122.469 377.335 122.534 377.347C122.599 377.358 122.661 377.382 122.717 377.417C122.773 377.452 122.821 377.497 122.859 377.551C122.897 377.604 122.924 377.665 122.939 377.729C122.953 377.793 122.955 377.859 122.944 377.924L108.467 440.2L243.128 422.29C243.194 422.281 243.262 422.286 243.326 422.304C243.39 422.321 243.45 422.351 243.503 422.393C243.555 422.434 243.599 422.485 243.631 422.543C243.664 422.602 243.684 422.666 243.691 422.732L252.557 489.732C252.571 489.862 252.534 489.993 252.453 490.095C252.373 490.198 252.255 490.265 252.125 490.282L70.9852 521.42C70.9637 521.423 70.942 521.424 70.9202 521.424Z" fill="#0C0C0C"/>
<path d="M396.161 503.145L445.085 352.756C445.944 350.113 447.619 347.81 449.867 346.177C452.116 344.544 454.824 343.664 457.603 343.664H656.921C658.999 343.664 661.047 344.156 662.898 345.099C664.749 346.043 666.351 347.411 667.572 349.092C668.792 350.774 669.598 352.72 669.922 354.772C670.247 356.824 670.081 358.924 669.438 360.9L620.515 511.289C619.655 513.931 617.982 516.234 615.734 517.867C613.486 519.5 610.778 520.38 608 520.38H408.679C406.601 520.38 404.553 519.888 402.702 518.945C400.85 518.002 399.249 516.634 398.028 514.952C396.807 513.271 396.001 511.325 395.677 509.273C395.352 507.221 395.518 505.121 396.161 503.145Z" fill="#292A2E"/>
<path d="M436.07 508.186H302.648C299.323 508.186 296.628 510.881 296.628 514.206V514.36C296.628 517.685 299.323 520.38 302.648 520.38H436.07C439.395 520.38 442.09 517.685 442.09 514.36V514.206C442.09 510.881 439.395 508.186 436.07 508.186Z" fill="#292A2E"/>
<path d="M532.8 460.264C544.346 460.264 553.705 450.905 553.705 439.359C553.705 427.814 544.346 418.454 532.8 418.454C521.255 418.454 511.895 427.814 511.895 439.359C511.895 450.905 521.255 460.264 532.8 460.264Z" fill="white"/>
<path d="M646.335 505.274C646.193 505.274 646.055 505.235 645.935 505.16C645.814 505.085 645.718 504.978 645.656 504.85L625.748 464.018C625.663 463.839 625.653 463.633 625.719 463.446C625.784 463.259 625.921 463.105 626.1 463.018C626.278 462.931 626.484 462.918 626.672 462.981C626.86 463.044 627.015 463.179 627.105 463.356L647.013 504.188C647.056 504.277 647.082 504.374 647.088 504.473C647.094 504.572 647.081 504.672 647.048 504.765C647.016 504.859 646.965 504.946 646.9 505.02C646.834 505.094 646.754 505.155 646.665 505.198C646.562 505.249 646.449 505.275 646.335 505.274Z" fill="#292A2E"/>
<path d="M679.987 502.9C679.82 502.9 679.658 502.845 679.526 502.743C679.395 502.641 679.3 502.498 679.258 502.337L656.221 414.39C656.192 414.293 656.183 414.191 656.194 414.09C656.205 413.99 656.237 413.892 656.286 413.804C656.336 413.716 656.403 413.638 656.483 413.577C656.564 413.515 656.655 413.47 656.753 413.444C656.851 413.418 656.953 413.413 657.054 413.427C657.154 413.442 657.25 413.477 657.337 413.529C657.423 413.582 657.498 413.651 657.557 413.734C657.617 413.816 657.659 413.909 657.681 414.008L680.718 501.958C680.748 502.07 680.751 502.187 680.728 502.3C680.705 502.413 680.657 502.52 680.586 502.611C680.515 502.703 680.424 502.777 680.32 502.828C680.217 502.878 680.102 502.904 679.987 502.904V502.9Z" fill="#292A2E"/>
<path d="M723.932 506.8C723.831 506.8 723.731 506.78 723.638 506.74C723.547 506.701 723.464 506.645 723.394 506.574C723.325 506.504 723.27 506.42 723.233 506.328C723.196 506.236 723.177 506.138 723.178 506.039C723.179 505.939 723.199 505.841 723.238 505.75L747.052 449.666C747.134 449.489 747.283 449.35 747.466 449.28C747.648 449.21 747.851 449.214 748.031 449.29C748.212 449.367 748.355 449.51 748.431 449.69C748.508 449.871 748.511 450.073 748.441 450.256L724.627 506.34C724.569 506.477 724.472 506.593 724.348 506.675C724.225 506.757 724.08 506.8 723.932 506.8Z" fill="#292A2E"/>
<path d="M680.842 519.792C680.779 519.792 680.718 519.785 680.658 519.769C680.561 519.745 680.471 519.703 680.391 519.644C680.312 519.585 680.244 519.51 680.193 519.425C680.142 519.34 680.109 519.246 680.094 519.148C680.08 519.05 680.084 518.95 680.109 518.854L707.78 408.154C707.828 407.96 707.952 407.793 708.124 407.69C708.296 407.587 708.501 407.556 708.696 407.605C708.89 407.654 709.057 407.778 709.16 407.949C709.263 408.121 709.293 408.327 709.245 408.521L681.573 519.221C681.532 519.384 681.438 519.529 681.305 519.632C681.173 519.736 681.01 519.792 680.842 519.792Z" fill="#292A2E"/>
<path d="M728.786 447.733C742.337 441.287 747.236 423.266 739.728 407.484C732.221 391.701 715.149 384.132 701.598 390.578C688.047 397.024 683.148 415.044 690.656 430.827C698.163 446.61 715.235 454.179 728.786 447.733Z" fill="#65C0A7"/>
<path opacity="0.4" d="M728.786 447.733C742.337 441.287 747.236 423.266 739.728 407.484C732.221 391.701 715.149 384.132 701.598 390.578C688.047 397.024 683.148 415.044 690.656 430.827C698.163 446.61 715.235 454.179 728.786 447.733Z" fill="white"/>
<path d="M759.072 478.93C767.221 475.649 770.651 465.106 766.735 455.383C762.819 445.659 753.039 440.437 744.891 443.719C736.743 447 733.312 457.543 737.228 467.266C741.144 476.99 750.924 482.212 759.072 478.93Z" fill="#65C0A7"/>
<path d="M671.148 434.404C675.649 419.549 669.486 404.532 657.382 400.865C645.278 397.197 631.817 406.266 627.315 421.122C622.813 435.977 628.976 450.993 641.08 454.661C653.184 458.329 666.646 449.26 671.148 434.404Z" fill="#65C0A7"/>
<path d="M635.516 471.243C637.109 461.734 632.923 453.107 626.166 451.976C619.41 450.844 612.642 457.636 611.049 467.145C609.456 476.654 613.642 485.281 620.399 486.412C627.155 487.544 633.923 480.752 635.516 471.243Z" fill="#65C0A7"/>
<path d="M746.143 491.538H628.599V520.83H746.143V491.538Z" fill="#292A2E"/>
<path opacity="0.3" d="M746.143 491.538H628.599V520.83H746.143V491.538Z" fill="white"/>
<path d="M717.657 498.272C727.647 494.246 731.868 481.362 727.086 469.495C722.303 457.628 710.328 451.272 700.338 455.298C690.348 459.325 686.126 472.208 690.909 484.075C695.691 495.942 707.667 502.298 717.657 498.272Z" fill="#65C0A7"/>
<path d="M664.342 495.433C674.288 495.433 682.35 487.371 682.35 477.425C682.35 467.479 674.288 459.417 664.342 459.417C654.396 459.417 646.334 467.479 646.334 477.425C646.334 487.371 654.396 495.433 664.342 495.433Z" fill="#65C0A7"/>
<path opacity="0.68" d="M759.072 478.93C767.221 475.649 770.651 465.106 766.735 455.383C762.819 445.659 753.039 440.437 744.891 443.719C736.743 447 733.312 457.543 737.228 467.266C741.144 476.99 750.924 482.212 759.072 478.93Z" fill="white"/>
<path opacity="0.68" d="M671.148 434.404C675.649 419.549 669.486 404.532 657.382 400.865C645.278 397.197 631.817 406.266 627.315 421.122C622.813 435.977 628.976 450.993 641.08 454.661C653.184 458.329 666.646 449.26 671.148 434.404Z" fill="white"/>
<path opacity="0.68" d="M635.516 471.243C637.109 461.734 632.923 453.107 626.166 451.976C619.41 450.844 612.642 457.636 611.049 467.145C609.456 476.654 613.642 485.281 620.399 486.412C627.155 487.544 633.923 480.752 635.516 471.243Z" fill="white"/>
<path opacity="0.68" d="M717.657 498.272C727.647 494.246 731.868 481.362 727.086 469.495C722.303 457.628 710.328 451.272 700.338 455.298C690.348 459.325 686.126 472.208 690.909 484.075C695.691 495.942 707.667 502.298 717.657 498.272Z" fill="white"/>
<path opacity="0.4" d="M664.342 495.433C674.288 495.433 682.35 487.371 682.35 477.425C682.35 467.479 674.288 459.417 664.342 459.417C654.396 459.417 646.334 467.479 646.334 477.425C646.334 487.371 654.396 495.433 664.342 495.433Z" fill="white"/>
<path d="M722.184 462.264C708.516 466.083 701.323 454.913 701.323 454.913L701.331 454.898C708.622 452.724 716.705 455.781 722.184 462.264Z" fill="#292A2E"/>
<path d="M635.848 466.838C629.12 464.262 623.545 459.35 620.142 453C621.985 452.015 624.099 451.658 626.165 451.981C631.856 452.928 635.72 459.2 635.848 466.838Z" fill="#292A2E"/>
<path d="M667.556 459.706C662.313 464.428 655.764 467.451 648.77 468.378C650.632 465.179 653.434 462.63 656.795 461.079C660.156 459.528 663.913 459.048 667.556 459.706Z" fill="#292A2E"/>
<path d="M767.616 522.424H1.48706C1.22184 522.424 0.96749 522.318 0.779954 522.131C0.592417 521.943 0.487061 521.689 0.487061 521.424C0.487061 521.159 0.592417 520.904 0.779954 520.717C0.96749 520.529 1.22184 520.424 1.48706 520.424H767.616C767.881 520.424 768.136 520.529 768.323 520.717C768.511 520.904 768.616 521.159 768.616 521.424C768.616 521.689 768.511 521.943 768.323 522.131C768.136 522.318 767.881 522.424 767.616 522.424Z" fill="#292A2E"/>
<path d="M718.913 90H463V282.844H718.913V90Z" fill="#65C0A7"/>
<g opacity="0.61">
<path d="M525.727 179.454C544.354 179.454 559.454 164.354 559.454 145.727C559.454 127.1 544.354 112 525.727 112C507.1 112 492 127.1 492 145.727C492 164.354 507.1 179.454 525.727 179.454Z" fill="white"/>
<path d="M690.491 234.761H492V251.978H690.491V234.761Z" fill="white"/>
<path d="M690.491 198.168H492V215.385H690.491V198.168Z" fill="white"/>
<path d="M690.492 155.415H570.105V172.632H690.492V155.415Z" fill="white"/>
<path d="M690.492 118.822H570.105V136.039H690.492V118.822Z" fill="white"/>
</g>
</svg>
