<svg width="965" height="802" viewBox="0 0 965 802" fill="none" xmlns="http://www.w3.org/2000/svg">
<g clip-path="url(#clip0_23_2933)">
<path d="M820.436 486.279C825.21 472.338 821.71 458.513 812.619 455.4C803.529 452.287 792.289 461.065 787.515 475.006C782.741 488.946 786.241 502.771 795.332 505.884C804.423 508.997 815.663 500.22 820.436 486.279Z" fill="#F4F4F4"/>
<path d="M788.063 474.971C794.538 472.053 796.17 461.665 791.709 451.769C787.248 441.873 778.383 436.218 771.909 439.136C765.435 442.055 763.802 452.443 768.263 462.338C772.724 472.234 781.589 477.89 788.063 474.971Z" fill="#F4F4F4"/>
<path d="M775.819 497.964H810.451C813.497 497.964 816.418 499.174 818.572 501.328C820.726 503.482 821.936 506.403 821.936 509.449V525.206C821.936 528.252 820.726 531.173 818.572 533.327C816.418 535.481 813.497 536.691 810.451 536.691H775.819V497.964Z" fill="#F4F4F4"/>
<g opacity="0.05">
<path d="M775.819 497.964H810.451C813.497 497.964 816.418 499.174 818.572 501.328C820.726 503.482 821.936 506.403 821.936 509.449V525.206C821.936 528.252 820.726 531.173 818.572 533.327C816.418 535.481 813.497 536.691 810.451 536.691H775.819V497.964Z" fill="#292A2E"/>
</g>
<g opacity="0.05">
<path d="M817.513 471.229H817.469C817.399 471.222 817.332 471.197 817.274 471.158C817.216 471.119 817.168 471.066 817.135 471.004C817.007 470.694 816.998 470.348 817.111 470.032C817.31 469.195 817.26 468.318 816.968 467.509C816.928 467.403 816.932 467.285 816.979 467.182C817.026 467.079 817.112 466.999 817.218 466.959C817.324 466.919 817.442 466.923 817.545 466.97C817.648 467.017 817.728 467.103 817.768 467.209C818.048 467.981 818.144 468.808 818.049 469.624C818.545 469.173 819.099 468.79 819.696 468.486C819.746 468.461 819.801 468.446 819.857 468.441C819.913 468.437 819.969 468.444 820.022 468.462C820.075 468.479 820.125 468.507 820.167 468.544C820.21 468.581 820.244 468.625 820.27 468.675C820.295 468.725 820.31 468.78 820.314 468.836C820.318 468.892 820.311 468.948 820.294 469.001C820.276 469.055 820.248 469.104 820.211 469.146C820.175 469.189 820.13 469.224 820.08 469.249C819.216 469.697 818.454 470.319 817.841 471.075C817.801 471.123 817.751 471.161 817.694 471.188C817.637 471.215 817.576 471.229 817.513 471.229Z" fill="#292A2E"/>
<path d="M804.56 461.057C804.504 461.057 804.449 461.046 804.398 461.025C804.102 460.868 803.877 460.605 803.767 460.289C803.405 459.52 802.821 458.878 802.091 458.444C801.993 458.387 801.921 458.294 801.891 458.185C801.862 458.075 801.877 457.959 801.933 457.86C801.99 457.762 802.083 457.69 802.192 457.661C802.302 457.631 802.419 457.646 802.517 457.703C803.214 458.113 803.802 458.684 804.234 459.368C804.335 458.695 804.523 458.039 804.792 457.414C804.837 457.31 804.922 457.229 805.027 457.187C805.133 457.146 805.25 457.148 805.354 457.193C805.458 457.239 805.54 457.324 805.581 457.429C805.622 457.534 805.62 457.652 805.575 457.756C805.189 458.666 804.989 459.645 804.988 460.634C804.987 460.747 804.941 460.854 804.861 460.934C804.781 461.013 804.673 461.057 804.56 461.057Z" fill="#292A2E"/>
<path d="M793.64 474.835C793.584 474.835 793.529 474.825 793.478 474.804C793.184 474.649 792.959 474.388 792.85 474.074C792.487 473.303 791.902 472.658 791.17 472.222C791.072 472.165 791 472.072 790.97 471.963C790.941 471.853 790.956 471.737 791.012 471.638C791.069 471.54 791.162 471.468 791.272 471.439C791.381 471.409 791.498 471.424 791.596 471.481C792.293 471.892 792.882 472.463 793.314 473.147C793.414 472.474 793.601 471.817 793.871 471.192C793.893 471.141 793.926 471.094 793.966 471.055C794.007 471.016 794.055 470.986 794.107 470.965C794.159 470.945 794.215 470.935 794.271 470.936C794.327 470.937 794.383 470.949 794.434 470.972C794.485 470.994 794.532 471.027 794.571 471.067C794.61 471.108 794.64 471.156 794.661 471.208C794.681 471.26 794.691 471.316 794.69 471.372C794.689 471.428 794.676 471.484 794.654 471.535C794.268 472.445 794.068 473.423 794.067 474.412C794.066 474.525 794.02 474.632 793.94 474.711C793.861 474.791 793.753 474.835 793.64 474.835Z" fill="#292A2E"/>
<path d="M805.233 472.752C805.178 472.752 805.123 472.741 805.071 472.72C804.776 472.564 804.55 472.302 804.441 471.986C804.078 471.217 803.494 470.574 802.763 470.139C802.67 470.08 802.603 469.987 802.577 469.88C802.55 469.772 802.567 469.659 802.622 469.564C802.677 469.468 802.767 469.397 802.873 469.366C802.979 469.336 803.092 469.347 803.19 469.398C803.887 469.809 804.475 470.379 804.907 471.063C805.007 470.39 805.195 469.733 805.464 469.109C805.51 469.005 805.594 468.923 805.7 468.882C805.805 468.841 805.923 468.843 806.027 468.888C806.131 468.934 806.212 469.018 806.253 469.124C806.295 469.229 806.293 469.347 806.247 469.451C805.86 470.361 805.661 471.339 805.66 472.328C805.659 472.44 805.613 472.548 805.534 472.627C805.454 472.706 805.346 472.751 805.233 472.752Z" fill="#292A2E"/>
<path d="M812.606 484.8C812.538 484.8 812.472 484.784 812.412 484.754C812.349 484.722 812.296 484.675 812.256 484.618C812.216 484.56 812.191 484.494 812.183 484.424C812.173 484.091 812.288 483.766 812.506 483.513C812.992 482.806 813.259 481.971 813.276 481.113C813.276 481.057 813.287 481.002 813.309 480.95C813.33 480.899 813.362 480.852 813.401 480.812C813.441 480.773 813.488 480.742 813.54 480.721C813.591 480.699 813.647 480.689 813.703 480.689C813.759 480.689 813.814 480.701 813.866 480.722C813.918 480.744 813.965 480.776 814.004 480.816C814.043 480.856 814.075 480.903 814.096 480.955C814.117 481.007 814.127 481.063 814.127 481.119C814.113 481.945 813.904 482.756 813.519 483.486C814.146 483.25 814.802 483.1 815.47 483.041C815.582 483.032 815.694 483.068 815.781 483.141C815.867 483.214 815.921 483.318 815.932 483.431C815.937 483.487 815.93 483.543 815.913 483.597C815.896 483.65 815.869 483.7 815.833 483.742C815.796 483.785 815.752 483.821 815.702 483.846C815.652 483.872 815.598 483.887 815.542 483.892C814.581 483.984 813.651 484.276 812.81 484.749C812.747 484.783 812.677 484.8 812.606 484.8Z" fill="#292A2E"/>
<path d="M794.618 492.219C794.558 492.219 794.498 492.206 794.443 492.181C794.152 492.015 793.935 491.745 793.835 491.425C793.496 490.645 792.933 489.983 792.216 489.525C792.166 489.497 792.122 489.459 792.087 489.413C792.052 489.367 792.026 489.315 792.012 489.259C791.997 489.203 791.994 489.145 792.003 489.088C792.011 489.031 792.031 488.977 792.062 488.928C792.092 488.878 792.132 488.836 792.179 488.803C792.226 488.769 792.279 488.746 792.336 488.734C792.392 488.722 792.45 488.721 792.507 488.732C792.563 488.743 792.617 488.765 792.665 488.797C793.348 489.23 793.919 489.819 794.33 490.516C794.451 489.847 794.659 489.196 794.947 488.58C794.999 488.483 795.086 488.409 795.191 488.374C795.296 488.34 795.41 488.347 795.509 488.394C795.609 488.442 795.686 488.526 795.725 488.629C795.765 488.732 795.762 488.847 795.719 488.948C795.305 489.845 795.076 490.817 795.045 491.804C795.041 491.915 794.994 492.019 794.914 492.096C794.835 492.172 794.728 492.215 794.618 492.215V492.219Z" fill="#292A2E"/>
<path d="M805.321 496.186C805.306 496.187 805.291 496.187 805.277 496.186C805.207 496.179 805.14 496.155 805.081 496.116C805.023 496.076 804.975 496.023 804.943 495.961C804.815 495.653 804.806 495.308 804.918 494.994C805.117 494.155 805.067 493.277 804.776 492.466C804.736 492.36 804.74 492.242 804.787 492.139C804.834 492.036 804.92 491.956 805.026 491.916C805.132 491.876 805.249 491.88 805.353 491.927C805.456 491.974 805.536 492.06 805.576 492.166C805.857 492.938 805.954 493.766 805.858 494.582C806.353 494.131 806.907 493.748 807.505 493.444C807.555 493.416 807.61 493.398 807.668 493.392C807.725 493.386 807.783 493.392 807.838 493.409C807.893 493.426 807.944 493.454 807.988 493.491C808.032 493.528 808.068 493.573 808.094 493.625C808.119 493.676 808.135 493.732 808.138 493.79C808.142 493.847 808.134 493.905 808.115 493.959C808.096 494.013 808.066 494.063 808.027 494.106C807.988 494.148 807.941 494.182 807.889 494.206C807.025 494.655 806.264 495.277 805.651 496.033C805.61 496.081 805.56 496.12 805.503 496.146C805.446 496.173 805.384 496.186 805.321 496.186Z" fill="#292A2E"/>
</g>
<g opacity="0.05">
<path d="M786.133 455.42H786.09C786.02 455.413 785.953 455.389 785.895 455.349C785.837 455.31 785.789 455.257 785.756 455.195C785.627 454.886 785.619 454.539 785.732 454.223C785.931 453.386 785.881 452.509 785.588 451.7C785.548 451.594 785.552 451.477 785.599 451.373C785.646 451.27 785.732 451.19 785.838 451.15C785.944 451.11 786.062 451.114 786.165 451.161C786.268 451.208 786.348 451.294 786.388 451.4C786.669 452.172 786.765 452.999 786.669 453.815C787.165 453.364 787.719 452.981 788.316 452.677C788.366 452.649 788.422 452.632 788.479 452.626C788.536 452.62 788.594 452.625 788.649 452.642C788.704 452.659 788.755 452.687 788.799 452.724C788.843 452.761 788.879 452.807 788.905 452.858C788.931 452.91 788.946 452.966 788.95 453.023C788.953 453.081 788.945 453.138 788.926 453.192C788.907 453.247 788.877 453.297 788.838 453.339C788.799 453.381 788.752 453.415 788.7 453.439C787.836 453.888 787.075 454.51 786.462 455.266C786.422 455.314 786.371 455.353 786.314 455.38C786.258 455.406 786.196 455.42 786.133 455.42Z" fill="#292A2E"/>
<path d="M777.153 445.856C777.098 445.856 777.043 445.846 776.991 445.825C776.695 445.67 776.469 445.407 776.361 445.09C775.998 444.321 775.414 443.678 774.683 443.243C774.59 443.184 774.523 443.091 774.497 442.984C774.47 442.877 774.486 442.764 774.542 442.668C774.597 442.572 774.687 442.502 774.793 442.471C774.898 442.44 775.012 442.451 775.11 442.502C775.806 442.913 776.394 443.484 776.826 444.168C776.927 443.495 777.114 442.838 777.384 442.213C777.406 442.161 777.438 442.114 777.479 442.074C777.519 442.035 777.567 442.003 777.619 441.982C777.672 441.962 777.728 441.951 777.785 441.952C777.841 441.953 777.897 441.965 777.949 441.988C778.001 442.011 778.048 442.044 778.087 442.085C778.126 442.126 778.156 442.174 778.176 442.227C778.197 442.28 778.206 442.336 778.204 442.392C778.203 442.449 778.19 442.505 778.166 442.556C777.78 443.466 777.581 444.444 777.58 445.432C777.579 445.545 777.534 445.653 777.454 445.732C777.374 445.812 777.266 445.856 777.153 445.856Z" fill="#292A2E"/>
<path d="M775.712 456.031C775.656 456.031 775.601 456.02 775.55 455.998C775.254 455.842 775.028 455.579 774.919 455.262C774.557 454.494 773.973 453.852 773.243 453.418C773.195 453.39 773.152 453.353 773.118 453.308C773.083 453.264 773.058 453.213 773.044 453.159C773.014 453.049 773.029 452.933 773.086 452.835C773.142 452.736 773.235 452.665 773.345 452.635C773.454 452.605 773.571 452.621 773.669 452.677C774.366 453.087 774.955 453.658 775.386 454.342C775.488 453.669 775.675 453.013 775.944 452.388C775.989 452.284 776.074 452.203 776.18 452.161C776.285 452.12 776.403 452.122 776.507 452.168C776.61 452.213 776.692 452.298 776.733 452.403C776.775 452.509 776.773 452.626 776.727 452.73C776.341 453.641 776.142 454.619 776.14 455.608C776.139 455.721 776.094 455.829 776.013 455.908C775.933 455.987 775.825 456.031 775.712 456.031Z" fill="#292A2E"/>
<path d="M783.086 468.075C782.981 468.075 782.88 468.037 782.802 467.967C782.723 467.897 782.673 467.801 782.661 467.697C782.654 467.365 782.769 467.041 782.985 466.788C783.47 466.08 783.738 465.246 783.756 464.388C783.757 464.276 783.802 464.168 783.882 464.089C783.962 464.01 784.07 463.965 784.183 463.965C784.239 463.966 784.295 463.977 784.346 463.999C784.398 464.021 784.445 464.053 784.484 464.093C784.523 464.133 784.554 464.18 784.575 464.232C784.596 464.285 784.607 464.34 784.606 464.396C784.592 465.222 784.383 466.032 783.997 466.762C784.624 466.525 785.282 466.375 785.95 466.317C786.062 466.311 786.172 466.348 786.258 466.42C786.344 466.493 786.398 466.596 786.41 466.707C786.415 466.763 786.408 466.82 786.391 466.873C786.374 466.926 786.347 466.976 786.311 467.019C786.274 467.062 786.23 467.097 786.18 467.123C786.13 467.148 786.076 467.164 786.02 467.168C785.059 467.26 784.129 467.552 783.288 468.025C783.226 468.059 783.156 468.076 783.086 468.075Z" fill="#292A2E"/>
<path d="M774.151 465.422C773.849 465.395 773.565 465.27 773.342 465.064C772.674 464.554 771.866 464.26 771.026 464.222C770.97 464.221 770.915 464.208 770.863 464.185C770.812 464.162 770.766 464.129 770.728 464.088C770.689 464.047 770.659 463.999 770.639 463.946C770.619 463.893 770.61 463.837 770.612 463.781C770.613 463.725 770.625 463.669 770.648 463.618C770.671 463.566 770.704 463.52 770.745 463.482C770.786 463.443 770.834 463.413 770.887 463.394C770.94 463.374 770.996 463.366 771.052 463.368C771.857 463.402 772.642 463.631 773.338 464.036C773.12 463.385 772.988 462.707 772.946 462.021C772.939 461.908 772.978 461.798 773.053 461.713C773.128 461.629 773.233 461.577 773.346 461.57C773.402 461.564 773.46 461.57 773.514 461.587C773.568 461.604 773.617 461.633 773.66 461.67C773.702 461.708 773.736 461.754 773.76 461.806C773.783 461.858 773.796 461.914 773.796 461.97C773.864 462.956 774.128 463.918 774.573 464.799C774.604 464.861 774.62 464.929 774.618 464.998C774.617 465.067 774.599 465.135 774.566 465.196C774.532 465.256 774.485 465.308 774.427 465.346C774.37 465.384 774.304 465.407 774.235 465.414C774.207 465.418 774.179 465.421 774.151 465.422Z" fill="#292A2E"/>
</g>
<path d="M738.889 512.619H658.563V535.991H738.889V512.619Z" fill="#F4F4F4"/>
<path opacity="0.05" d="M728.102 512.619H717.577V535.991H728.102V512.619Z" fill="#292A2E"/>
<path d="M712.591 517.699H668.827V531.549H712.591V517.699Z" fill="white"/>
<path d="M669.13 483.072L594.494 515.67L603.848 537.089L678.485 504.49L669.13 483.072Z" fill="#F4F4F4"/>
<path opacity="0.05" d="M669.13 483.072L594.494 515.67L603.848 537.089L678.485 504.49L669.13 483.072Z" fill="#292A2E"/>
<path d="M614.296 507.021L604.516 511.292L613.871 532.711L623.651 528.439L614.296 507.021Z" fill="white"/>
<path d="M661.625 491.892L620.961 509.652L626.504 522.345L667.168 504.584L661.625 491.892Z" fill="white"/>
<path opacity="0.05" d="M614.538 741.712H594.352V755.193H614.538V741.712Z" fill="#292A2E"/>
<path opacity="0.05" d="M910.918 741.712H890.732V755.193H910.918V741.712Z" fill="#292A2E"/>
<path d="M929.422 536.317H575.848V741.712H929.422V536.317Z" fill="#F4F4F4"/>
<path opacity="0.03" d="M929.422 536.317H575.848V741.712H929.422V536.317Z" fill="#292A2E"/>
<path d="M880.578 536.317H527.004V741.712H880.578V536.317Z" fill="#F4F4F4"/>
<path opacity="0.05" d="M565.694 741.712H545.508V755.193H565.694V741.712Z" fill="#292A2E"/>
<path opacity="0.05" d="M862.074 741.712H841.888V755.193H862.074V741.712Z" fill="#292A2E"/>
<path opacity="0.7" d="M870.683 549.016H536.897V601.11H870.683V549.016Z" fill="white"/>
<path opacity="0.7" d="M870.683 613.861H536.897V665.955H870.683V613.861Z" fill="white"/>
<path opacity="0.7" d="M870.683 678.704H536.897V730.798H870.683V678.704Z" fill="white"/>
<path opacity="0.05" d="M595.934 582.352C599.96 582.352 603.223 579.089 603.223 575.063C603.223 571.037 599.96 567.774 595.934 567.774C591.908 567.774 588.645 571.037 588.645 575.063C588.645 579.089 591.908 582.352 595.934 582.352Z" fill="#292A2E"/>
<path opacity="0.05" d="M811.647 582.352C815.673 582.352 818.936 579.089 818.936 575.063C818.936 571.037 815.673 567.774 811.647 567.774C807.621 567.774 804.358 571.037 804.358 575.063C804.358 579.089 807.621 582.352 811.647 582.352Z" fill="#292A2E"/>
<path opacity="0.05" d="M595.934 647.197C599.96 647.197 603.223 643.934 603.223 639.908C603.223 635.883 599.96 632.619 595.934 632.619C591.908 632.619 588.645 635.883 588.645 639.908C588.645 643.934 591.908 647.197 595.934 647.197Z" fill="#292A2E"/>
<path opacity="0.05" d="M811.647 647.197C815.673 647.197 818.936 643.934 818.936 639.908C818.936 635.883 815.673 632.619 811.647 632.619C807.621 632.619 804.358 635.883 804.358 639.908C804.358 643.934 807.621 647.197 811.647 647.197Z" fill="#292A2E"/>
<path opacity="0.05" d="M595.934 712.041C599.96 712.041 603.223 708.777 603.223 704.752C603.223 700.726 599.96 697.463 595.934 697.463C591.908 697.463 588.645 700.726 588.645 704.752C588.645 708.777 591.908 712.041 595.934 712.041Z" fill="#292A2E"/>
<path opacity="0.05" d="M811.647 712.041C815.673 712.041 818.936 708.777 818.936 704.752C818.936 700.726 815.673 697.463 811.647 697.463C807.621 697.463 804.358 700.726 804.358 704.752C804.358 708.777 807.621 712.041 811.647 712.041Z" fill="#292A2E"/>
<path d="M829.188 45.48H673.335V248.341H829.188V45.48Z" fill="#F4F4F4"/>
<path d="M829.187 248.341H834.243V45.4798H829.187V248.341Z" fill="#F4F4F4"/>
<path opacity="0.05" d="M829.187 248.341H834.243V45.4798H829.187V248.341Z" fill="#292A2E"/>
<path opacity="0.05" d="M800.796 82.4341H701.725V211.388H800.796V82.4341Z" fill="#292A2E"/>
<path opacity="0.03" d="M800.796 82.4341H795.633V211.388H800.796V82.4341Z" fill="#292A2E"/>
<path d="M956.649 298.227H829.187V426.86H956.649V298.227Z" fill="#F4F4F4"/>
<path opacity="0.05" d="M933.43 321.659H852.406V403.427H933.43V321.659Z" fill="#292A2E"/>
<path d="M956.649 426.86H961.705V298.227H956.649V426.86Z" fill="#F4F4F4"/>
<path opacity="0.05" d="M956.649 426.86H961.705V298.227H956.649V426.86Z" fill="#292A2E"/>
<path opacity="0.03" d="M933.43 321.659H928.267V403.427H933.43V321.659Z" fill="#292A2E"/>
<path d="M338.196 87.2749H12.9561V412.515H338.196V87.2749Z" fill="#F4F4F4"/>
<path d="M341.925 87.2749H338.197V412.515H341.925V87.2749Z" fill="#F4F4F4"/>
<path opacity="0.05" d="M341.925 87.2749H338.197V412.515H341.925V87.2749Z" fill="#292A2E"/>
<path opacity="0.05" d="M259.406 311.392V226.299H189.702V275.736H81.7301V363.272H35.8401V412.515H81.7301H90.5701H322.551V311.392H259.406Z" fill="#292A2E"/>
<path opacity="0.34" d="M249.408 235.538H198.649V244.777H249.408V235.538Z" fill="#FFFFFA"/>
<path opacity="0.34" d="M249.408 254.684H198.649V263.923H249.408V254.684Z" fill="#FFFFFA"/>
<path opacity="0.34" d="M249.408 273.829H198.649V283.068H249.408V273.829Z" fill="#FFFFFA"/>
<path opacity="0.34" d="M313.551 320.361H304.195V329.6H313.551V320.361Z" fill="#FFFFFA"/>
<path opacity="0.34" d="M313.551 339.506H304.195V348.745H313.551V339.506Z" fill="#FFFFFA"/>
<path opacity="0.34" d="M313.551 358.652H304.195V367.891H313.551V358.652Z" fill="#FFFFFA"/>
<path opacity="0.34" d="M296.243 320.361H286.887V329.6H296.243V320.361Z" fill="#FFFFFA"/>
<path opacity="0.34" d="M296.243 339.506H286.887V348.745H296.243V339.506Z" fill="#FFFFFA"/>
<path opacity="0.34" d="M296.243 358.652H286.887V367.891H296.243V358.652Z" fill="#FFFFFA"/>
<path opacity="0.34" d="M279.403 320.361H270.047V329.6H279.403V320.361Z" fill="#FFFFFA"/>
<path opacity="0.34" d="M279.403 339.506H270.047V348.745H279.403V339.506Z" fill="#FFFFFA"/>
<path opacity="0.34" d="M279.403 358.652H270.047V367.891H279.403V358.652Z" fill="#FFFFFA"/>
<path d="M338.197 248.071H272.753V87.2749H267.341V248.071H90.5701V87.2749H85.1581V248.071H12.9561V253.483H85.1581V412.515H90.5701V253.483H267.341V412.515H272.753V253.483H338.197V248.071Z" fill="white"/>
<path d="M351.153 412.123H0V422.939H351.153V412.123Z" fill="#F4F4F4"/>
<path opacity="0.1" d="M351.153 412.123H0V422.939H351.153V412.123Z" fill="#292A2E"/>
<path opacity="0.1" d="M356.223 412.123H351.153V422.939H356.223V412.123Z" fill="#292A2E"/>
<path opacity="0.1" d="M356.223 412.123H351.153V422.939H356.223V412.123Z" fill="#292A2E"/>
<path d="M140.902 473.707L716.793 473.707C730.935 473.707 742.4 462.242 742.4 448.1V26.46C742.4 12.3177 730.935 0.853027 716.793 0.853027L140.902 0.853027C126.76 0.853027 115.295 12.3177 115.295 26.46V448.1C115.295 462.242 126.76 473.707 140.902 473.707Z" fill="white"/>
<path d="M114.441 448.1V26.461C114.449 19.4458 117.239 12.7201 122.199 7.75943C127.159 2.79875 133.885 0.00820535 140.9 0L716.793 0C723.808 0.00794073 730.534 2.79837 735.495 7.75908C740.455 12.7198 743.245 19.4456 743.253 26.461V448.1C743.245 455.115 740.455 461.841 735.494 466.801C730.534 471.762 723.808 474.552 716.793 474.56H140.9C133.885 474.552 127.16 471.761 122.199 466.801C117.239 461.84 114.449 455.115 114.441 448.1ZM140.9 1.707C134.337 1.71468 128.045 4.32518 123.405 8.96582C118.765 13.6065 116.154 19.8983 116.147 26.461V448.1C116.154 454.663 118.764 460.955 123.405 465.595C128.045 470.236 134.337 472.847 140.9 472.854H716.793C723.356 472.847 729.648 470.236 734.288 465.595C738.929 460.955 741.539 454.663 741.546 448.1V26.461C741.539 19.8982 738.929 13.6062 734.288 8.96552C729.648 4.32483 723.356 1.71441 716.793 1.707H140.9Z" fill="#292A2E"/>
<path d="M115.3 26.4571V52.2241H742.4V26.4571C742.4 23.0941 741.737 19.764 740.45 16.657C739.163 13.5501 737.277 10.727 734.899 8.34915C732.52 5.97128 729.697 4.08515 726.59 2.79845C723.483 1.51176 720.153 0.849704 716.79 0.850098H140.9C134.11 0.851954 127.598 3.55065 122.797 8.35269C117.997 13.1547 115.3 19.6669 115.3 26.4571Z" fill="#292A2E"/>
<path d="M539.524 356.952H683.487L705.226 373.235V288.264C705.226 286.62 704.902 284.992 704.273 283.473C703.644 281.954 702.722 280.574 701.559 279.411C700.397 278.248 699.016 277.326 697.497 276.697C695.978 276.068 694.35 275.744 692.706 275.744H539.524C537.879 275.743 536.251 276.067 534.731 276.696C533.212 277.325 531.831 278.247 530.668 279.409C529.505 280.572 528.583 281.953 527.953 283.472C527.324 284.991 527 286.62 527 288.264V344.432C527 346.077 527.324 347.705 527.953 349.224C528.583 350.744 529.505 352.124 530.668 353.287C531.831 354.45 533.212 355.372 534.731 356.001C536.251 356.629 537.879 356.953 539.524 356.952Z" fill="#571BB1"/>
<path opacity="0.11" d="M539.524 356.952H683.487L705.226 373.235V288.264C705.226 286.62 704.902 284.992 704.273 283.473C703.644 281.954 702.722 280.574 701.559 279.411C700.397 278.248 699.016 277.326 697.497 276.697C695.978 276.068 694.35 275.744 692.706 275.744H539.524C537.879 275.743 536.251 276.067 534.731 276.696C533.212 277.325 531.831 278.247 530.668 279.409C529.505 280.572 528.583 281.953 527.953 283.472C527.324 284.991 527 286.62 527 288.264V344.432C527 346.077 527.324 347.705 527.953 349.224C528.583 350.744 529.505 352.124 530.668 353.287C531.831 354.45 533.212 355.372 534.731 356.001C536.251 356.629 537.879 356.953 539.524 356.952Z" fill="white"/>
<path opacity="0.49" d="M539.524 356.952H683.487L705.226 373.235V288.264C705.226 286.62 704.902 284.992 704.273 283.473C703.644 281.954 702.722 280.574 701.559 279.411C700.397 278.248 699.016 277.326 697.497 276.697C695.978 276.068 694.35 275.744 692.706 275.744H539.524C537.879 275.743 536.251 276.067 534.731 276.696C533.212 277.325 531.831 278.247 530.668 279.409C529.505 280.572 528.583 281.953 527.953 283.472C527.324 284.991 527 286.62 527 288.264V344.432C527 346.077 527.324 347.705 527.953 349.224C528.583 350.744 529.505 352.124 530.668 353.287C531.831 354.45 533.212 355.372 534.731 356.001C536.251 356.629 537.879 356.953 539.524 356.952Z" fill="white"/>
<path d="M542.349 309.541H689.881C689.955 309.544 690.028 309.533 690.097 309.507C690.166 309.481 690.228 309.441 690.281 309.39C690.335 309.339 690.377 309.278 690.406 309.211C690.435 309.143 690.449 309.07 690.449 308.997C690.449 308.923 690.435 308.85 690.406 308.783C690.377 308.715 690.335 308.654 690.281 308.603C690.228 308.552 690.166 308.513 690.097 308.487C690.028 308.461 689.955 308.449 689.881 308.452H542.349C542.276 308.449 542.202 308.461 542.133 308.487C542.065 308.513 542.002 308.552 541.949 308.603C541.896 308.654 541.853 308.715 541.825 308.783C541.796 308.85 541.781 308.923 541.781 308.997C541.781 309.07 541.796 309.143 541.825 309.211C541.853 309.278 541.896 309.339 541.949 309.39C542.002 309.441 542.065 309.481 542.133 309.507C542.202 309.533 542.276 309.544 542.349 309.541Z" fill="white"/>
<path d="M542.349 294.042H689.881C689.955 294.045 690.028 294.034 690.097 294.008C690.166 293.982 690.228 293.942 690.281 293.891C690.335 293.84 690.377 293.779 690.406 293.712C690.435 293.644 690.449 293.571 690.449 293.498C690.449 293.424 690.435 293.351 690.406 293.284C690.377 293.216 690.335 293.155 690.281 293.104C690.228 293.053 690.166 293.014 690.097 292.988C690.028 292.962 689.955 292.95 689.881 292.953H542.349C542.276 292.95 542.202 292.962 542.133 292.988C542.065 293.014 542.002 293.053 541.949 293.104C541.896 293.155 541.853 293.216 541.825 293.284C541.796 293.351 541.781 293.424 541.781 293.498C541.781 293.571 541.796 293.644 541.825 293.712C541.853 293.779 541.896 293.84 541.949 293.891C542.002 293.942 542.065 293.982 542.133 294.008C542.202 294.034 542.276 294.045 542.349 294.042Z" fill="white"/>
<path d="M542.349 325.881H689.881C689.955 325.884 690.028 325.872 690.097 325.846C690.166 325.821 690.228 325.781 690.281 325.73C690.335 325.679 690.377 325.618 690.406 325.55C690.435 325.483 690.449 325.41 690.449 325.336C690.449 325.263 690.435 325.19 690.406 325.123C690.377 325.055 690.335 324.994 690.281 324.943C690.228 324.892 690.166 324.852 690.097 324.827C690.028 324.801 689.955 324.789 689.881 324.792H542.349C542.276 324.789 542.202 324.801 542.133 324.827C542.065 324.852 542.002 324.892 541.949 324.943C541.896 324.994 541.853 325.055 541.825 325.123C541.796 325.19 541.781 325.263 541.781 325.336C541.781 325.41 541.796 325.483 541.825 325.55C541.853 325.618 541.896 325.679 541.949 325.73C542.002 325.781 542.065 325.821 542.133 325.846C542.202 325.872 542.276 325.884 542.349 325.881Z" fill="white"/>
<path d="M542.349 342.221H629.969C630.109 342.215 630.242 342.155 630.339 342.054C630.436 341.952 630.491 341.817 630.491 341.677C630.491 341.536 630.436 341.401 630.339 341.3C630.242 341.198 630.109 341.138 629.969 341.132H542.349C542.276 341.129 542.202 341.141 542.133 341.167C542.065 341.193 542.002 341.232 541.949 341.283C541.896 341.334 541.853 341.395 541.825 341.463C541.796 341.531 541.781 341.603 541.781 341.677C541.781 341.75 541.796 341.823 541.825 341.891C541.853 341.958 541.896 342.02 541.949 342.07C542.002 342.121 542.065 342.161 542.133 342.187C542.202 342.213 542.276 342.225 542.349 342.221Z" fill="white"/>
<path d="M530.758 234.647H684.958L705.223 249.826V185.615C705.223 182.52 703.993 179.551 701.805 177.362C699.616 175.173 696.647 173.944 693.552 173.944H530.752C527.657 173.944 524.688 175.173 522.499 177.362C520.311 179.551 519.081 182.52 519.081 185.615V222.976C519.081 224.509 519.383 226.027 519.97 227.444C520.557 228.86 521.417 230.147 522.502 231.231C523.586 232.314 524.873 233.174 526.29 233.76C527.707 234.346 529.225 234.648 530.758 234.647Z" fill="#571BB1"/>
<path opacity="0.11" d="M530.758 234.647H684.958L705.223 249.826V185.615C705.223 182.52 703.993 179.551 701.805 177.362C699.616 175.173 696.647 173.944 693.552 173.944H530.752C527.657 173.944 524.688 175.173 522.499 177.362C520.311 179.551 519.081 182.52 519.081 185.615V222.976C519.081 224.509 519.383 226.027 519.97 227.444C520.557 228.86 521.417 230.147 522.502 231.231C523.586 232.314 524.873 233.174 526.29 233.76C527.707 234.346 529.225 234.648 530.758 234.647Z" fill="white"/>
<path opacity="0.49" d="M530.758 234.647H684.958L705.223 249.826V185.615C705.223 182.52 703.993 179.551 701.805 177.362C699.616 175.173 696.647 173.944 693.552 173.944H530.752C527.657 173.944 524.688 175.173 522.499 177.362C520.311 179.551 519.081 182.52 519.081 185.615V222.976C519.081 224.509 519.383 226.027 519.97 227.444C520.557 228.86 521.417 230.147 522.502 231.231C523.586 232.314 524.873 233.174 526.29 233.76C527.707 234.346 529.225 234.648 530.758 234.647Z" fill="white"/>
<path d="M533.391 190.45H690.922C691.053 190.444 691.176 190.388 691.267 190.294C691.357 190.199 691.407 190.073 691.407 189.943C691.407 189.812 691.357 189.686 691.267 189.591C691.176 189.497 691.053 189.441 690.922 189.435H533.391C533.26 189.441 533.137 189.497 533.046 189.591C532.956 189.686 532.906 189.812 532.906 189.943C532.906 190.073 532.956 190.199 533.046 190.294C533.137 190.388 533.26 190.444 533.391 190.45Z" fill="white"/>
<path d="M533.391 205.682H690.922C691.053 205.676 691.176 205.62 691.267 205.526C691.357 205.431 691.407 205.305 691.407 205.174C691.407 205.044 691.357 204.918 691.267 204.823C691.176 204.729 691.053 204.673 690.922 204.667H533.391C533.26 204.673 533.137 204.729 533.046 204.823C532.956 204.918 532.906 205.044 532.906 205.174C532.906 205.305 532.956 205.431 533.046 205.526C533.137 205.62 533.26 205.676 533.391 205.682Z" fill="white"/>
<path d="M533.391 220.914H635.071C635.14 220.917 635.208 220.906 635.272 220.882C635.336 220.858 635.395 220.821 635.445 220.774C635.494 220.726 635.534 220.669 635.561 220.606C635.588 220.543 635.602 220.475 635.602 220.406C635.602 220.338 635.588 220.27 635.561 220.207C635.534 220.144 635.494 220.087 635.445 220.039C635.395 219.992 635.336 219.955 635.272 219.931C635.208 219.907 635.14 219.896 635.071 219.899H533.391C533.26 219.905 533.137 219.961 533.046 220.055C532.956 220.15 532.906 220.276 532.906 220.406C532.906 220.537 532.956 220.663 533.046 220.758C533.137 220.852 533.26 220.908 533.391 220.914Z" fill="white"/>
<path d="M883.109 757.69C883.109 757.69 878.594 781.09 856.681 782.399C834.768 783.708 839.519 801.16 839.519 801.16H923.259V759.322L883.109 757.69Z" fill="#571BB1"/>
<path d="M928.938 330.76C928.938 330.76 928.675 323.724 928.73 339.684C928.938 399.213 926.954 772.627 926.954 772.627L871.929 772.164L838.6 328.341L928.938 330.76Z" fill="#262626"/>
<path d="M789.147 757.69C789.147 757.69 784.632 781.09 762.719 782.399C740.806 783.708 745.558 801.16 745.558 801.16H829.3V759.322L789.147 757.69Z" fill="#571BB1"/>
<path d="M778.5 335.382C778.5 335.382 771.626 538.838 772.341 548.782L778.804 771.082L832.921 772.082L841.647 540.739C841.647 540.739 847.367 476.923 862.786 417.666C870.675 387.253 875.422 356.11 876.954 324.728L778.5 335.382Z" fill="#262626"/>
<path d="M849.9 479.632L845.387 410.623C845.387 410.623 840.752 439.313 840.752 464.04C840.752 476.127 843.242 523.982 843.242 523.982L849.9 479.632Z" fill="#0A0A0A"/>
<path d="M929.535 330.754L929.716 330.764C929.716 330.764 929.586 327.294 929.535 330.754Z" fill="#333333"/>
<path d="M929.309 330.754L929.489 330.764C929.489 330.764 929.359 327.294 929.309 330.754Z" fill="#333333"/>
<path d="M627.783 165.616C628.114 164.959 628.641 164.422 629.291 164.078C629.941 163.734 630.682 163.6 631.411 163.695C631.405 163.63 631.419 163.565 631.451 163.509C631.485 163.465 631.53 163.431 631.581 163.41C631.632 163.389 631.688 163.382 631.743 163.39L629.282 161.626C628.545 161.122 628.016 160.368 627.792 159.504C627.568 158.64 627.665 157.724 628.064 156.926C628.483 156.15 629.176 155.557 630.007 155.263C630.839 154.969 631.75 154.995 632.564 155.335C632.558 155.3 632.581 155.267 632.586 155.235L631.575 154.51C630.883 154.032 630.378 153.33 630.144 152.523C629.911 151.716 629.963 150.852 630.293 150.079C630.51 149.598 630.831 149.172 631.232 148.831C631.634 148.489 632.106 148.241 632.615 148.104C633.125 147.967 633.658 147.945 634.176 148.039C634.695 148.133 635.186 148.341 635.615 148.648L637.948 150.32C637.955 150.306 637.948 150.29 637.957 150.277C637.966 150.264 637.992 150.26 638.005 150.246C637.47 149.643 637.155 148.876 637.112 148.071C637.07 147.266 637.302 146.47 637.771 145.814C638.871 144.042 641.415 144.404 642.923 145.485L656.655 154.971L654.201 150.839C653.708 150.044 653.534 149.091 653.715 148.172C653.897 147.254 654.419 146.438 655.178 145.89C655.58 145.621 656.032 145.437 656.508 145.349C656.983 145.26 657.472 145.27 657.943 145.377C658.415 145.483 658.86 145.685 659.251 145.969C659.642 146.253 659.971 146.614 660.218 147.03L673.618 169.593C675.19 172.24 675.668 175.396 674.951 178.389C674.234 181.383 672.378 183.98 669.777 185.627C666.76 187.537 663.242 188.503 659.673 188.4C656.104 188.298 652.647 187.132 649.745 185.052L629.007 170.187C628.318 169.674 627.822 168.944 627.6 168.114C627.377 167.285 627.442 166.404 627.783 165.616Z" fill="#E98862"/>
<g opacity="0.25">
<path d="M651.538 159.694C651.487 159.763 651.412 159.81 651.327 159.825C651.242 159.839 651.156 159.82 651.085 159.771L638.037 150.733C637.999 150.709 637.967 150.678 637.942 150.642C637.917 150.605 637.9 150.564 637.891 150.521C637.882 150.477 637.882 150.432 637.891 150.389C637.9 150.345 637.918 150.304 637.943 150.268C637.968 150.231 638.001 150.2 638.038 150.177C638.076 150.153 638.118 150.138 638.162 150.131C638.205 150.124 638.25 150.126 638.293 150.136C638.336 150.147 638.377 150.166 638.412 150.193L651.459 159.231C651.53 159.281 651.579 159.357 651.595 159.443C651.61 159.528 651.591 159.617 651.542 159.688L651.538 159.694Z" fill="#0C0C0C"/>
</g>
<g opacity="0.25">
<path d="M647.711 165.558C647.661 165.627 647.585 165.674 647.5 165.689C647.416 165.703 647.329 165.684 647.258 165.635L632.7 155.549C632.629 155.499 632.58 155.423 632.564 155.338C632.549 155.252 632.568 155.164 632.617 155.092C632.669 155.023 632.744 154.976 632.829 154.961C632.914 154.945 633.001 154.962 633.074 155.009L647.632 165.1C647.704 165.15 647.752 165.226 647.768 165.311C647.784 165.397 647.765 165.485 647.715 165.557L647.711 165.558Z" fill="#0C0C0C"/>
</g>
<g opacity="0.25">
<path d="M643.6 171.934C643.55 172.004 643.474 172.051 643.39 172.065C643.305 172.08 643.218 172.06 643.148 172.011L631.532 163.966C631.497 163.942 631.466 163.91 631.443 163.874C631.42 163.838 631.404 163.797 631.396 163.755C631.388 163.712 631.389 163.669 631.398 163.627C631.407 163.585 631.424 163.545 631.449 163.509C631.474 163.474 631.505 163.443 631.541 163.42C631.577 163.397 631.618 163.381 631.66 163.373C631.703 163.365 631.746 163.366 631.788 163.375C631.831 163.384 631.871 163.402 631.906 163.426L643.522 171.471C643.593 171.521 643.642 171.597 643.658 171.682C643.673 171.768 643.654 171.856 643.605 171.928L643.6 171.934Z" fill="#0C0C0C"/>
</g>
<path d="M681.526 164.453L720.885 231.486L768.91 168.494L808.793 204.451L740.682 292.661L740.236 293.289C737.51 297.023 733.878 300.002 729.682 301.944C725.486 303.887 720.865 304.729 716.254 304.391C711.643 304.054 707.194 302.548 703.325 300.016C699.457 297.483 696.297 294.007 694.144 289.916L638.176 188.562L681.526 164.453Z" fill="#571BB1"/>
<path d="M724.743 239.546C724.822 239.546 724.901 239.527 724.971 239.491C725.089 239.431 725.178 239.326 725.219 239.2C725.26 239.074 725.249 238.937 725.189 238.819L721.33 231.258C721.301 231.197 721.261 231.143 721.211 231.099C721.161 231.054 721.103 231.02 721.039 230.999C720.976 230.977 720.909 230.969 720.842 230.973C720.775 230.978 720.71 230.997 720.651 231.027C720.591 231.057 720.538 231.1 720.495 231.151C720.452 231.202 720.42 231.261 720.4 231.325C720.381 231.389 720.374 231.457 720.381 231.523C720.388 231.59 720.408 231.654 720.44 231.713L724.298 239.274C724.34 239.356 724.404 239.424 724.482 239.472C724.561 239.52 724.651 239.546 724.743 239.546Z" fill="#0C0C0C"/>
<path d="M898.5 77.8789C898.5 77.8789 900.344 101.445 905.749 109.941C921.31 134.397 926.056 162.058 910.927 176.712C895.798 191.366 798.227 192.697 790.454 159.483C783.907 131.52 797.226 128.351 800.208 105.183C801.557 94.7009 805.347 72.7119 805.347 72.7119" fill="#0A0A0A"/>
<path d="M815.3 154.174C815.469 154.152 817.338 185.165 853.366 182.461C878.309 180.593 887.202 154.13 887.773 154.13C885.084 153.558 880.556 152.73 879.361 152.09C875.434 149.979 870.574 147.784 869.308 140.156C868.579 135.756 869.816 113.271 869.435 108.823L831.149 117.369C831.684 126.762 835.428 148.539 822.305 152.393C820.117 153.031 817.764 153.617 815.3 154.174Z" fill="#E98862"/>
<path opacity="0.52" d="M830.607 143.493C831.207 141.56 831.593 139.568 831.759 137.551C832.18 132.949 832.096 128.314 831.509 123.73C839.291 122.68 846.622 119.469 852.669 114.46C853.38 117.085 857.29 128.56 856.207 131.053C854.161 135.77 844.546 143.493 830.607 143.493Z" fill="#0C0C0C"/>
<path d="M835.682 133.732C850.792 135.018 870.252 128.755 874.065 108.607L877.505 90.4282C881.318 70.2812 873.827 51.9462 854.858 48.3562C835.889 44.7662 818.619 58.4152 814.806 78.5622L813.283 86.6112C811.819 94.3412 808.722 131.438 835.682 133.732Z" fill="#E98862"/>
<path d="M818.689 87.4879C820.002 87.4879 821.067 86.4233 821.067 85.1099C821.067 83.7966 820.002 82.7319 818.689 82.7319C817.376 82.7319 816.311 83.7966 816.311 85.1099C816.311 86.4233 817.376 87.4879 818.689 87.4879Z" fill="#0C0C0C"/>
<path d="M843.05 90.7418C844.363 90.7418 845.428 89.6772 845.428 88.3638C845.428 87.0505 844.363 85.9858 843.05 85.9858C841.737 85.9858 840.672 87.0505 840.672 88.3638C840.672 89.6772 841.737 90.7418 843.05 90.7418Z" fill="#0C0C0C"/>
<path opacity="0.52" d="M829.681 105.8L829.644 105.794C828.876 105.643 828.116 105.449 827.369 105.215C826.254 104.856 824.793 104.262 824.983 103.255C825.2 102.107 830.689 90.316 831.314 88.975C831.341 88.9171 831.379 88.865 831.427 88.8218C831.474 88.7786 831.529 88.7451 831.589 88.7232C831.649 88.7013 831.713 88.6915 831.777 88.6943C831.841 88.6971 831.904 88.7125 831.962 88.7395C832.02 88.7666 832.072 88.8048 832.115 88.852C832.158 88.8992 832.192 88.9544 832.214 89.0145C832.235 89.0746 832.245 89.1385 832.242 89.2024C832.24 89.2663 832.224 89.3291 832.197 89.387C829.856 94.408 826.087 102.663 825.941 103.436C826.066 103.794 827.918 104.475 829.825 104.836C829.95 104.858 830.062 104.928 830.136 105.031C830.211 105.134 830.242 105.262 830.223 105.388C830.204 105.513 830.137 105.627 830.036 105.704C829.934 105.781 829.807 105.816 829.681 105.8Z" fill="#0C0C0C"/>
<path opacity="0.52" d="M832.49 114.5C829.396 114.098 826.439 112.975 823.859 111.221C823.805 111.186 823.759 111.141 823.723 111.088C823.687 111.036 823.661 110.976 823.648 110.914C823.635 110.851 823.634 110.786 823.646 110.724C823.658 110.661 823.682 110.601 823.717 110.547C823.752 110.494 823.797 110.447 823.85 110.411C823.902 110.375 823.962 110.35 824.024 110.337C824.087 110.323 824.151 110.323 824.214 110.334C824.277 110.346 824.337 110.37 824.391 110.405C829.975 114.043 835.524 114.631 840.437 112.105C840.536 112.051 840.638 112.003 840.743 111.959C840.864 111.915 840.998 111.922 841.115 111.976C841.232 112.031 841.323 112.131 841.367 112.252C841.411 112.374 841.404 112.508 841.349 112.625C841.295 112.742 841.195 112.832 841.074 112.876C841.036 112.892 840.974 112.926 840.883 112.976C838.299 114.308 835.377 114.839 832.49 114.5Z" fill="#0C0C0C"/>
<path d="M892.681 96.764L875.681 93.646C862.802 88.435 858.908 66.146 858.908 66.146C858.908 66.146 843.264 81.392 805.355 72.721C805.355 72.721 812.955 19.853 868.961 35.221C887.02 40.178 899.981 58.376 898.361 82.698C897.23 99.741 892.681 96.764 892.681 96.764Z" fill="#0A0A0A"/>
<path d="M871.725 114.522C877.49 115.613 883.33 110.33 884.425 104.566C885.52 98.802 881.444 94.737 875.68 93.646L871.98 96.946L866.775 113.583L871.725 114.522Z" fill="#E98862"/>
<path d="M827.841 79.3379C826.159 78.2527 824.216 77.6393 822.216 77.5619C821.231 77.5183 820.245 77.6228 819.292 77.8719C818.347 78.1142 817.437 78.4747 816.583 78.9449C816.467 79.0069 816.38 79.1112 816.339 79.236C816.299 79.3608 816.308 79.4964 816.365 79.6146C816.422 79.7328 816.522 79.8244 816.645 79.8702C816.768 79.9161 816.904 79.9128 817.025 79.8609L817.061 79.8449C817.851 79.457 818.686 79.1694 819.548 78.9889C820.399 78.8066 821.273 78.7544 822.14 78.8339C823.86 78.9777 825.511 79.5743 826.926 80.5629L826.972 80.5959C827.053 80.655 827.145 80.6975 827.243 80.721C827.341 80.7445 827.442 80.7485 827.541 80.7328C827.641 80.7171 827.736 80.682 827.821 80.6295C827.907 80.577 827.982 80.5082 828.041 80.4269C828.1 80.3456 828.142 80.2535 828.166 80.1557C828.189 80.058 828.193 79.9566 828.178 79.8574C828.162 79.7581 828.127 79.6629 828.074 79.5772C828.022 79.4915 827.953 79.417 827.872 79.3579L827.841 79.3379Z" fill="#0C0C0C"/>
<path d="M843.006 82.9088C844.682 82.4983 846.437 82.5383 848.093 83.0249C848.93 83.265 849.726 83.6298 850.455 84.1069C851.193 84.5875 851.868 85.1586 852.464 85.8068L852.491 85.8348C852.584 85.9284 852.71 85.982 852.842 85.9844C852.974 85.9867 853.102 85.9377 853.198 85.8476C853.295 85.7576 853.353 85.6335 853.359 85.5016C853.366 85.3697 853.322 85.2404 853.235 85.1408C852.608 84.3935 851.89 83.7283 851.097 83.1609C850.297 82.5845 849.416 82.1314 848.482 81.8169C846.589 81.1648 844.556 81.0349 842.596 81.4409C842.498 81.4619 842.405 81.5021 842.322 81.5591C842.239 81.6161 842.169 81.6889 842.115 81.7731C842.06 81.8574 842.023 81.9516 842.005 82.0503C841.987 82.149 841.988 82.2503 842.009 82.3484C842.03 82.4465 842.071 82.5394 842.128 82.622C842.185 82.7046 842.257 82.7751 842.342 82.8295C842.426 82.884 842.52 82.9213 842.619 82.9394C842.717 82.9575 842.819 82.9559 842.917 82.9348L842.948 82.9279L843.006 82.9088Z" fill="#0C0C0C"/>
<path opacity="0.52" d="M831.833 119.07C831.272 119.006 830.718 118.895 830.176 118.737C830.114 118.72 830.055 118.691 830.004 118.651C829.953 118.611 829.911 118.562 829.879 118.506C829.847 118.45 829.827 118.388 829.82 118.323C829.812 118.259 829.818 118.194 829.835 118.132C829.853 118.07 829.883 118.012 829.924 117.962C829.964 117.912 830.014 117.87 830.071 117.839C830.128 117.808 830.19 117.789 830.254 117.782C830.318 117.776 830.383 117.782 830.445 117.801C833.706 118.739 835.56 117.496 835.638 117.443C835.744 117.368 835.875 117.339 836.003 117.362C836.13 117.384 836.244 117.457 836.318 117.563C836.392 117.669 836.421 117.8 836.399 117.928C836.376 118.055 836.304 118.168 836.198 118.243C834.882 119.015 833.34 119.307 831.833 119.07Z" fill="#0C0C0C"/>
<path d="M875.639 93.4312L875.807 92.9602C854.262 85.2262 859.531 64.0832 859.586 63.8702L859.103 63.7432C859.046 63.9602 853.657 85.5402 875.639 93.4312Z" fill="#0C0C0C"/>
<path opacity="0.1" d="M849.826 104.46C850.023 102.635 848.165 100.939 845.678 100.672C843.19 100.404 841.015 101.666 840.818 103.491C840.622 105.316 842.479 107.012 844.967 107.28C847.454 107.547 849.63 106.285 849.826 104.46Z" fill="#0C0C0C"/>
<path opacity="0.1" d="M818.64 100.3C818.44 102.122 816.264 103.383 813.776 103.118C813.346 103.072 812.922 102.981 812.511 102.847C812.371 100.679 812.34 98.5921 812.381 96.6601C813.069 96.4792 813.784 96.429 814.49 96.5121C816.978 96.7771 818.835 98.4721 818.64 100.3Z" fill="#0C0C0C"/>
<path d="M770.532 222.451C771.667 235.783 777.187 318.961 778.278 335.382H928.65C929.5 320.571 933.314 255.807 936.536 226.844C939.61 199.206 945.643 185.368 941.221 177.198C934 163.844 914.249 156.127 900.785 154.3C892.564 153.187 880.198 152.389 880.198 152.389C880.198 152.389 879.151 173.57 854.185 174.748C820.2 176.348 822.469 152.389 822.301 152.389C816.795 152.389 785.343 155.874 777.648 160.435C756.68 172.856 768.123 194.2 770.532 222.451Z" fill="#571BB1"/>
<path d="M769.331 287.9C769.378 287.166 769.652 286.465 770.114 285.894C770.577 285.322 771.205 284.909 771.913 284.71C771.89 284.672 771.876 284.629 771.874 284.585C771.871 284.54 771.879 284.496 771.897 284.456C771.915 284.415 771.943 284.38 771.978 284.352C772.013 284.325 772.054 284.307 772.098 284.299L769.143 283.643C768.269 283.467 767.488 282.982 766.943 282.276C766.398 281.57 766.126 280.691 766.178 279.801C766.259 278.923 766.663 278.107 767.312 277.511C767.961 276.914 768.808 276.579 769.689 276.572C769.67 276.542 769.678 276.503 769.669 276.472L768.455 276.202C767.631 276.034 766.891 275.587 766.359 274.936C765.827 274.285 765.536 273.471 765.536 272.63C765.547 272.103 765.674 271.585 765.91 271.113C766.145 270.641 766.482 270.228 766.896 269.902C767.311 269.576 767.792 269.346 768.306 269.229C768.82 269.112 769.353 269.11 769.868 269.224L772.668 269.846C772.668 269.831 772.656 269.819 772.659 269.803C772.662 269.787 772.684 269.774 772.691 269.755C771.962 269.411 771.371 268.83 771.016 268.106C770.66 267.382 770.561 266.559 770.735 265.772C771.052 263.71 773.535 263.044 775.345 263.447L791.7 266.78L787.82 263.943C787.053 263.406 786.518 262.597 786.325 261.681C786.131 260.765 786.292 259.81 786.776 259.008C787.04 258.603 787.384 258.256 787.786 257.988C788.189 257.72 788.641 257.537 789.117 257.45C789.593 257.363 790.081 257.373 790.552 257.481C791.024 257.589 791.468 257.792 791.858 258.078L813.043 273.566C815.528 275.383 817.207 278.097 817.723 281.133C818.239 284.168 817.552 287.285 815.806 289.821C813.782 292.762 810.925 295.031 807.603 296.338C804.28 297.645 800.643 297.93 797.157 297.157L772.248 291.629C771.413 291.427 770.67 290.949 770.141 290.272C769.611 289.595 769.326 288.759 769.331 287.9Z" fill="#E98862"/>
<g opacity="0.25">
<path d="M788.853 273.132C788.834 273.215 788.782 273.288 788.71 273.335C788.638 273.381 788.55 273.398 788.466 273.381L772.918 270.192C772.833 270.174 772.758 270.124 772.71 270.051C772.662 269.978 772.645 269.889 772.662 269.804C772.68 269.719 772.731 269.644 772.803 269.596C772.876 269.548 772.965 269.531 773.05 269.549L788.599 272.737C788.641 272.745 788.681 272.762 788.717 272.787C788.753 272.811 788.783 272.842 788.807 272.878C788.831 272.914 788.847 272.954 788.855 272.997C788.863 273.039 788.863 273.082 788.854 273.125L788.853 273.132Z" fill="#0C0C0C"/>
</g>
<g opacity="0.25">
<path d="M787.636 280.029C787.616 280.112 787.565 280.185 787.493 280.231C787.421 280.277 787.333 280.294 787.249 280.277L769.9 276.718C769.858 276.709 769.818 276.692 769.782 276.668C769.746 276.644 769.716 276.613 769.692 276.577C769.668 276.541 769.652 276.5 769.644 276.458C769.636 276.415 769.636 276.372 769.645 276.33C769.665 276.246 769.716 276.173 769.788 276.126C769.86 276.078 769.947 276.06 770.032 276.075L787.385 279.633C787.427 279.641 787.467 279.658 787.503 279.683C787.539 279.707 787.569 279.738 787.593 279.774C787.617 279.81 787.633 279.85 787.641 279.893C787.649 279.935 787.649 279.978 787.64 280.021L787.636 280.029Z" fill="#0C0C0C"/>
</g>
<g opacity="0.25">
<path d="M786.36 287.505C786.341 287.588 786.29 287.661 786.218 287.708C786.145 287.754 786.058 287.77 785.974 287.753L772.133 284.915C772.091 284.906 772.051 284.889 772.015 284.865C771.979 284.841 771.949 284.81 771.925 284.774C771.901 284.738 771.885 284.698 771.877 284.655C771.869 284.613 771.869 284.57 771.878 284.527C771.886 284.485 771.903 284.445 771.927 284.409C771.951 284.374 771.982 284.343 772.018 284.319C772.054 284.296 772.095 284.279 772.137 284.271C772.179 284.263 772.223 284.263 772.265 284.272L786.106 287.11C786.191 287.127 786.266 287.178 786.314 287.251C786.362 287.324 786.379 287.412 786.362 287.498L786.36 287.505Z" fill="#0C0C0C"/>
</g>
<path d="M798.7 307.016L933.845 331.439C938.062 331.898 942.329 331.374 946.309 329.907C950.29 328.44 953.876 326.071 956.787 322.985C959.698 319.9 961.854 316.181 963.087 312.122C964.319 308.063 964.594 303.773 963.89 299.59L944.969 187.132C944.371 183.577 943.078 180.174 941.165 177.118C939.252 174.062 936.755 171.413 933.818 169.322C930.881 167.231 927.561 165.739 924.047 164.931C920.533 164.123 916.895 164.015 913.339 164.613C909.784 165.211 906.381 166.504 903.325 168.417C900.269 170.331 897.62 172.827 895.529 175.764C893.438 178.701 891.946 182.022 891.138 185.535C890.33 189.049 890.222 192.688 890.82 196.243L903.72 273.658L804.64 261.214L798.7 307.016Z" fill="#571BB1"/>
<path d="M933.844 331.939C933.969 331.939 934.089 331.892 934.181 331.807C934.273 331.723 934.33 331.607 934.341 331.483C934.352 331.359 934.316 331.235 934.24 331.136C934.165 331.036 934.055 330.969 933.932 330.947L799.255 306.609L805.072 261.773L903.658 274.154C903.735 274.164 903.814 274.155 903.888 274.129C903.961 274.103 904.028 274.06 904.082 274.004C904.136 273.948 904.176 273.88 904.199 273.805C904.222 273.731 904.227 273.652 904.214 273.575L896.014 224.098C896.004 224.033 895.981 223.97 895.946 223.914C895.912 223.858 895.867 223.81 895.813 223.771C895.759 223.733 895.699 223.706 895.635 223.691C895.57 223.677 895.504 223.675 895.439 223.687C895.308 223.709 895.192 223.782 895.115 223.889C895.037 223.997 895.006 224.131 895.028 224.262L903.119 273.077L804.7 260.718C804.569 260.701 804.436 260.738 804.332 260.819C804.227 260.9 804.159 261.019 804.142 261.15L798.2 306.95C798.183 307.077 798.216 307.206 798.292 307.31C798.368 307.414 798.481 307.484 798.608 307.507L933.752 331.93C933.782 331.935 933.813 331.938 933.844 331.939Z" fill="#0C0C0C"/>
<path d="M903.623 273.537L903.465 274.525L912.155 275.916L912.313 274.928L903.623 273.537Z" fill="#0C0C0C"/>
<path d="M771.68 231.107L770.682 231.164L771.883 252.336L772.882 252.279L771.68 231.107Z" fill="#0C0C0C"/>
<path d="M647.83 135.227H442.23L411.184 158.481V37.131C411.184 32.3887 413.068 27.8406 416.421 24.4872C419.775 21.1339 424.323 19.25 429.065 19.25H647.83C652.572 19.2503 657.12 21.1343 660.473 24.4876C663.826 27.8409 665.71 32.3888 665.71 37.131V117.347C665.71 122.089 663.826 126.637 660.473 129.99C657.12 133.343 652.572 135.227 647.83 135.227Z" fill="#571BB1"/>
<path opacity="0.11" d="M647.83 135.227H442.23L411.184 158.481V37.131C411.184 32.3887 413.068 27.8406 416.421 24.4872C419.775 21.1339 424.323 19.25 429.065 19.25H647.83C652.572 19.2503 657.12 21.1343 660.473 24.4876C663.826 27.8409 665.71 32.3888 665.71 37.131V117.347C665.71 122.089 663.826 126.637 660.473 129.99C657.12 133.343 652.572 135.227 647.83 135.227Z" fill="white"/>
<path d="M433.1 67.5179H643.8C644.006 67.5179 644.204 67.436 644.35 67.29C644.496 67.1441 644.578 66.9463 644.578 66.7399C644.578 66.5336 644.496 66.3357 644.35 66.1898C644.204 66.0439 644.006 65.9619 643.8 65.9619H433.1C432.894 65.9619 432.696 66.0439 432.55 66.1898C432.404 66.3357 432.322 66.5336 432.322 66.7399C432.322 66.9463 432.404 67.1441 432.55 67.29C432.696 67.436 432.894 67.5179 433.1 67.5179Z" fill="white"/>
<path d="M433.1 45.3831H643.8C644.006 45.3831 644.204 45.3012 644.35 45.1553C644.496 45.0094 644.578 44.8115 644.578 44.6051C644.578 44.3988 644.496 44.2009 644.35 44.055C644.204 43.9091 644.006 43.8271 643.8 43.8271H433.1C432.894 43.8271 432.696 43.9091 432.55 44.055C432.404 44.2009 432.322 44.3988 432.322 44.6051C432.322 44.8115 432.404 45.0094 432.55 45.1553C432.696 45.3012 432.894 45.3831 433.1 45.3831Z" fill="white"/>
<path d="M433.1 90.8529H643.8C644.006 90.8529 644.204 90.7709 644.35 90.625C644.496 90.4791 644.578 90.2812 644.578 90.0749C644.578 89.8685 644.496 89.6707 644.35 89.5247C644.204 89.3788 644.006 89.2969 643.8 89.2969H433.1C432.894 89.2969 432.696 89.3788 432.55 89.5247C432.404 89.6707 432.322 89.8685 432.322 90.0749C432.322 90.2812 432.404 90.4791 432.55 90.625C432.696 90.7709 432.894 90.8529 433.1 90.8529Z" fill="white"/>
<path d="M433.1 114.189H558.232C558.438 114.189 558.636 114.107 558.782 113.961C558.928 113.815 559.01 113.617 559.01 113.411C559.01 113.204 558.928 113.007 558.782 112.861C558.636 112.715 558.438 112.633 558.232 112.633H433.1C432.894 112.633 432.696 112.715 432.55 112.861C432.404 113.007 432.322 113.204 432.322 113.411C432.322 113.617 432.404 113.815 432.55 113.961C432.696 114.107 432.894 114.189 433.1 114.189Z" fill="white"/>
<path d="M125.749 670.4C125.484 670.4 125.23 670.295 125.042 670.107C123.632 668.698 121.336 642.848 115.15 565.883C112.619 534.391 110.228 504.646 108.483 486.568C108.359 485.277 107.858 485.127 107.693 485.078C105.305 484.357 98.0421 490.085 93.9861 495.1C93.9035 495.202 93.8016 495.287 93.6862 495.35C93.5708 495.412 93.4442 495.452 93.3136 495.466C93.183 495.479 93.0509 495.467 92.925 495.43C92.7991 495.393 92.6817 495.331 92.5796 495.248C92.4775 495.166 92.3926 495.064 92.3299 494.949C92.2672 494.833 92.2278 494.707 92.214 494.576C92.2002 494.445 92.2123 494.313 92.2495 494.187C92.2868 494.061 92.3485 493.944 92.4311 493.842C95.1131 490.526 103.853 481.833 108.269 483.162C109.159 483.43 110.264 484.204 110.469 486.376C112.215 504.469 114.606 534.223 117.139 565.723C120.898 612.493 125.156 665.479 126.556 668.816C126.664 668.965 126.728 669.142 126.742 669.325C126.755 669.509 126.718 669.692 126.634 669.856C126.55 670.02 126.423 670.157 126.266 670.253C126.109 670.349 125.928 670.4 125.744 670.4H125.749Z" fill="#494949"/>
<path d="M105.915 519.739C122.509 506.438 128.009 485.734 118.2 473.497C108.39 461.259 86.9862 462.121 70.3924 475.423C53.7986 488.724 48.2988 509.427 58.1081 521.665C67.9175 533.902 89.3215 533.04 105.915 519.739Z" fill="#3FB091"/>
<path opacity="0.2" d="M105.915 519.739C122.509 506.438 128.009 485.734 118.2 473.497C108.39 461.259 86.9862 462.121 70.3924 475.423C53.7986 488.724 48.2988 509.427 58.1081 521.665C67.9175 533.902 89.3215 533.04 105.915 519.739Z" fill="white"/>
<path d="M62.758 524.775C62.6418 524.775 62.5291 524.734 62.44 524.66C62.3391 524.575 62.2756 524.454 62.2632 524.323C62.2508 524.192 62.2907 524.062 62.374 523.96L109.665 466.931C109.75 466.829 109.872 466.764 110.004 466.752C110.136 466.74 110.267 466.781 110.37 466.865C110.472 466.95 110.536 467.072 110.548 467.204C110.56 467.336 110.52 467.468 110.435 467.57L63.144 524.6C63.0964 524.655 63.0372 524.7 62.9705 524.73C62.9038 524.76 62.8312 524.776 62.758 524.775Z" fill="white"/>
<path d="M136.063 658.171C135.951 658.171 135.84 658.152 135.735 658.115C135.484 658.028 135.279 657.845 135.163 657.606C135.048 657.367 135.032 657.092 135.119 656.842L152.882 605.755C153.405 604.254 154.296 602.908 155.474 601.841C156.652 600.773 158.079 600.018 159.624 599.646C161.169 599.273 162.784 599.293 164.319 599.706C165.854 600.118 167.261 600.91 168.411 602.007L177.802 610.979C177.9 611.069 177.98 611.177 178.035 611.298C178.091 611.419 178.122 611.55 178.127 611.683C178.131 611.816 178.109 611.949 178.062 612.073C178.014 612.198 177.942 612.311 177.85 612.408C177.759 612.504 177.648 612.581 177.526 612.634C177.404 612.687 177.272 612.715 177.139 612.717C177.006 612.719 176.874 612.694 176.751 612.643C176.627 612.593 176.515 612.519 176.421 612.425L167.029 603.454C166.121 602.588 165.01 601.964 163.799 601.638C162.587 601.313 161.313 601.296 160.093 601.591C158.874 601.885 157.747 602.48 156.818 603.323C155.888 604.165 155.184 605.227 154.771 606.412L137.007 657.5C136.939 657.696 136.811 657.866 136.642 657.986C136.473 658.106 136.27 658.171 136.063 658.171Z" fill="#494949"/>
<path d="M204.039 639.261C216.337 629.527 215.606 608.118 202.407 591.443C189.208 574.767 168.539 569.141 156.241 578.875C143.944 588.609 144.675 610.017 157.874 626.693C171.073 643.368 191.742 648.995 204.039 639.261Z" fill="#3FB091"/>
<path d="M117.678 667.139C117.453 667.139 117.235 667.063 117.059 666.923C116.883 666.784 116.759 666.59 116.707 666.371L86.8999 541.727C86.6963 540.878 86.2623 540.101 85.6456 539.482C85.029 538.863 84.2536 538.426 83.4047 538.219C82.5559 538.012 81.6664 538.044 80.8343 538.31C80.0021 538.576 79.2594 539.066 78.6879 539.727L69.4979 550.346C69.4124 550.447 69.3078 550.53 69.1901 550.59C69.0724 550.65 68.9439 550.686 68.8122 550.696C68.6804 550.706 68.548 550.69 68.4225 550.649C68.297 550.607 68.181 550.541 68.0811 550.455C67.9812 550.368 67.8994 550.263 67.8405 550.145C67.7816 550.027 67.7467 549.898 67.7378 549.766C67.729 549.634 67.7464 549.502 67.7889 549.377C67.8315 549.252 67.8985 549.136 67.9859 549.037L77.1749 538.418C77.9874 537.479 79.0433 536.782 80.2263 536.404C81.4093 536.027 82.6736 535.983 83.88 536.277C85.0864 536.571 86.1883 537.193 87.0642 538.073C87.9402 538.953 88.5564 540.058 88.8449 541.266L118.656 665.91C118.718 666.168 118.674 666.44 118.535 666.666C118.397 666.892 118.174 667.053 117.916 667.115C117.838 667.133 117.758 667.141 117.678 667.139Z" fill="#494949"/>
<path d="M106.68 578.035C110.304 557.079 100.713 537.925 85.2586 535.252C69.8042 532.58 54.3382 547.401 50.7144 568.357C47.0905 589.313 56.6811 608.467 72.1355 611.14C87.5899 613.812 103.056 598.991 106.68 578.035Z" fill="#3FB091"/>
<path d="M125.75 670.4C125.709 670.4 125.668 670.397 125.627 670.392C125.497 670.376 125.371 670.335 125.256 670.27C125.142 670.205 125.041 670.119 124.96 670.015C124.88 669.912 124.82 669.793 124.785 669.666C124.75 669.54 124.74 669.407 124.756 669.277L143.792 514.72C143.999 513.036 144.688 511.448 145.777 510.147C146.865 508.846 148.306 507.886 149.926 507.384C151.546 506.882 153.277 506.859 154.911 507.317C156.544 507.775 158.01 508.696 159.133 509.967L180.892 534.61C181.068 534.809 181.157 535.07 181.141 535.334C181.124 535.599 181.003 535.847 180.805 536.023C180.606 536.198 180.345 536.288 180.08 536.271C179.815 536.255 179.568 536.134 179.392 535.935L157.633 511.292C156.765 510.309 155.632 509.598 154.37 509.244C153.108 508.889 151.77 508.907 150.518 509.295C149.265 509.683 148.151 510.424 147.31 511.43C146.469 512.436 145.936 513.663 145.776 514.964L126.741 669.519C126.712 669.762 126.595 669.985 126.413 670.147C126.23 670.31 125.994 670.4 125.75 670.4Z" fill="#494949"/>
<path d="M203.207 548.302C210.799 534.578 201.867 515.108 183.257 504.814C164.648 494.52 143.408 497.301 135.816 511.025C128.225 524.749 137.157 544.22 155.766 554.514C174.376 564.807 195.616 562.027 203.207 548.302Z" fill="#3FB091"/>
<path opacity="0.2" d="M204.039 639.261C216.337 629.527 215.606 608.118 202.407 591.443C189.208 574.767 168.539 569.141 156.241 578.875C143.944 588.609 144.675 610.017 157.874 626.693C171.073 643.368 191.742 648.995 204.039 639.261Z" fill="white"/>
<path opacity="0.5" d="M106.68 578.035C110.304 557.079 100.713 537.925 85.2586 535.252C69.8042 532.58 54.3382 547.401 50.7144 568.357C47.0905 589.313 56.6811 608.467 72.1355 611.14C87.5899 613.812 103.056 598.991 106.68 578.035Z" fill="white"/>
<path opacity="0.5" d="M203.207 548.302C210.799 534.578 201.867 515.108 183.257 504.814C164.648 494.52 143.408 497.301 135.816 511.025C128.225 524.749 137.157 544.22 155.766 554.514C174.376 564.807 195.616 562.027 203.207 548.302Z" fill="white"/>
<path d="M150.097 801.538H101.4L93.3311 645.734H158.166L150.097 801.538Z" fill="#292A2E"/>
<path opacity="0.3" d="M150.097 801.538H101.4L93.3311 645.734H158.166L150.097 801.538Z" fill="white"/>
<path d="M204.042 639.758C203.967 639.758 203.892 639.741 203.824 639.708C203.756 639.675 203.697 639.627 203.65 639.568L155.85 579.182C155.768 579.078 155.73 578.945 155.745 578.814C155.761 578.682 155.828 578.562 155.932 578.479C156.035 578.397 156.168 578.359 156.3 578.374C156.431 578.39 156.552 578.457 156.634 578.561L204.434 638.947C204.516 639.051 204.553 639.182 204.537 639.314C204.522 639.445 204.455 639.564 204.352 639.647C204.264 639.718 204.155 639.757 204.042 639.758Z" fill="white"/>
<path d="M200.028 553.141C199.922 553.139 199.819 553.104 199.734 553.041L138.568 508.379C138.463 508.3 138.393 508.183 138.374 508.053C138.354 507.923 138.387 507.791 138.464 507.684C138.542 507.578 138.658 507.507 138.787 507.486C138.917 507.464 139.05 507.495 139.157 507.571L200.324 552.234C200.408 552.297 200.47 552.384 200.501 552.485C200.533 552.585 200.532 552.692 200.498 552.792C200.465 552.891 200.401 552.978 200.316 553.039C200.231 553.101 200.129 553.134 200.024 553.134L200.028 553.141Z" fill="white"/>
<path d="M69.654 610.489C69.6104 610.489 69.5671 610.483 69.525 610.472C69.3969 610.438 69.2876 610.354 69.2212 610.239C69.1549 610.124 69.1368 609.988 69.171 609.86L88.642 536.907C88.658 536.842 88.6867 536.782 88.7264 536.729C88.7661 536.676 88.816 536.631 88.8732 536.597C88.9303 536.563 88.9936 536.541 89.0594 536.532C89.1251 536.523 89.192 536.528 89.2561 536.545C89.3203 536.562 89.3803 536.592 89.4328 536.632C89.4854 536.673 89.5293 536.723 89.562 536.781C89.5948 536.839 89.6157 536.903 89.6236 536.968C89.6315 537.034 89.6262 537.101 89.608 537.165L70.136 610.118C70.1076 610.224 70.045 610.318 69.9579 610.385C69.8707 610.452 69.7639 610.489 69.654 610.489Z" fill="white"/>
<path opacity="0.2" d="M279.543 381.494C347.372 381.494 402.359 326.507 402.359 258.678C402.359 190.848 347.372 135.862 279.543 135.862C211.714 135.862 156.727 190.848 156.727 258.678C156.727 326.507 211.714 381.494 279.543 381.494Z" fill="#571BB1"/>
<path d="M161.726 386.417C155.859 373.772 152.817 360.001 152.811 346.062C152.805 332.122 155.836 318.349 161.692 305.699C167.548 293.049 176.089 281.827 186.722 272.813C197.354 263.798 209.823 257.208 223.26 253.5L231.42 283C222.266 285.523 213.772 290.01 206.529 296.148C199.285 302.287 193.465 309.93 189.475 318.545C185.484 327.161 183.418 336.543 183.421 346.037C183.424 355.532 185.495 364.913 189.491 373.526L161.726 386.417Z" fill="#571BB1"/>
<path d="M163.327 426.86C161.632 426.861 159.969 426.393 158.523 425.507C157.077 424.621 155.905 423.353 155.136 421.842C152.987 417.622 151.691 413.021 151.321 408.3C150.951 403.579 151.514 398.832 152.978 394.329C155.936 385.235 162.385 377.688 170.907 373.349C175.127 371.2 179.728 369.904 184.449 369.534C189.169 369.163 193.917 369.727 198.42 371.191C207.514 374.149 215.061 380.598 219.4 389.12C220.477 391.287 220.655 393.792 219.895 396.09C219.136 398.388 217.5 400.293 215.343 401.391C213.187 402.489 210.684 402.692 208.379 401.955C206.073 401.218 204.152 399.601 203.033 397.455C200.904 393.273 197.202 390.109 192.74 388.657C188.277 387.206 183.422 387.586 179.24 389.715C175.058 391.844 171.894 395.546 170.442 400.008C168.991 404.47 169.371 409.326 171.5 413.508C172.212 414.908 172.554 416.466 172.492 418.036C172.43 419.605 171.967 421.132 171.147 422.471C170.327 423.811 169.177 424.917 167.807 425.686C166.437 426.454 164.893 426.858 163.323 426.86H163.327Z" fill="#292A2E"/>
<path d="M399.416 297.955C382.452 297.967 365.793 293.449 351.161 284.866L366.613 258.441C379.649 266.041 394.913 268.897 409.816 266.525C424.718 264.153 438.341 256.699 448.373 245.427L471.245 265.771C454.93 284.17 432.151 295.572 407.645 297.606C404.896 297.839 402.153 297.955 399.416 297.955Z" fill="#571BB1"/>
<path d="M478.507 270.813C471.672 270.8 464.982 268.845 459.216 265.176C453.449 261.506 448.845 256.273 445.939 250.087C443.032 243.901 441.944 237.016 442.801 230.236C443.657 223.455 446.424 217.057 450.777 211.788C451.545 210.858 452.489 210.089 453.555 209.524C454.62 208.959 455.787 208.61 456.987 208.495C458.188 208.381 459.399 208.505 460.552 208.859C461.705 209.213 462.777 209.79 463.707 210.558C464.636 211.327 465.405 212.27 465.97 213.336C466.535 214.401 466.885 215.568 466.999 216.768C467.113 217.969 466.99 219.18 466.636 220.333C466.282 221.486 465.704 222.558 464.936 223.488C461.967 227.106 460.553 231.754 461.004 236.414C461.455 241.073 463.735 245.363 467.343 248.345C470.951 251.326 475.595 252.756 480.255 252.321C484.916 251.886 489.214 249.621 492.208 246.023C492.976 245.093 493.92 244.324 494.986 243.759C496.051 243.194 497.218 242.845 498.418 242.73C499.619 242.616 500.83 242.74 501.983 243.094C503.136 243.448 504.208 244.025 505.138 244.793C506.067 245.562 506.836 246.505 507.401 247.571C507.966 248.637 508.316 249.803 508.43 251.003C508.544 252.204 508.421 253.415 508.067 254.568C507.713 255.721 507.135 256.793 506.367 257.723C503.36 261.383 499.656 264.409 495.471 266.628C491.286 268.847 486.703 270.214 481.986 270.65C480.822 270.76 479.662 270.814 478.507 270.813Z" fill="#292A2E"/>
<path d="M202.705 255.107L223 369.875C225.623 384.711 233.388 398.149 244.932 407.831C256.476 417.513 271.061 422.82 286.127 422.82C300.815 422.82 315.058 417.776 326.473 408.532C337.887 399.287 345.781 386.404 348.833 372.036L373.675 255.107H202.705Z" fill="#571BB1"/>
<path d="M288.188 280.381C335.4 280.381 373.672 269.065 373.672 255.107C373.672 241.149 335.4 229.833 288.188 229.833C240.977 229.833 202.704 241.149 202.704 255.107C202.704 269.065 240.977 280.381 288.188 280.381Z" fill="#292A2E"/>
<path d="M371.716 187.27C371.716 224.43 334.316 242.309 288.188 242.309C242.06 242.309 204.661 224.43 204.661 187.27C204.661 150.11 242.061 107.741 288.188 107.741C334.315 107.741 371.716 150.11 371.716 187.27Z" fill="#571BB1"/>
<path d="M333.838 142.176H286.326C271.434 142.176 259.361 154.248 259.361 169.141V169.142C259.361 184.034 271.434 196.107 286.326 196.107H333.838C348.73 196.107 360.803 184.034 360.803 169.142V169.141C360.803 154.248 348.73 142.176 333.838 142.176Z" fill="white"/>
<path d="M308.666 178.944C307.854 178.944 307.076 178.621 306.502 178.047C305.928 177.473 305.605 176.694 305.605 175.883C305.619 174.505 305.359 173.139 304.841 171.863C304.324 170.587 303.558 169.426 302.589 168.447C301.62 167.469 300.467 166.692 299.196 166.162C297.924 165.631 296.561 165.359 295.184 165.359C293.806 165.359 292.443 165.631 291.172 166.162C289.901 166.692 288.747 167.469 287.778 168.447C286.809 169.426 286.044 170.587 285.526 171.863C285.008 173.139 284.749 174.505 284.762 175.883C284.762 176.694 284.44 177.473 283.866 178.047C283.292 178.621 282.513 178.944 281.701 178.944C280.889 178.944 280.111 178.621 279.537 178.047C278.963 177.473 278.64 176.694 278.64 175.883C278.623 173.699 279.039 171.534 279.862 169.512C280.686 167.49 281.902 165.651 283.44 164.101C284.978 162.551 286.807 161.321 288.823 160.482C290.838 159.642 293 159.21 295.184 159.21C297.367 159.21 299.529 159.642 301.544 160.482C303.56 161.321 305.39 162.551 306.927 164.101C308.465 165.651 309.681 167.49 310.505 169.512C311.329 171.534 311.744 173.699 311.727 175.883C311.727 176.285 311.648 176.683 311.494 177.054C311.341 177.426 311.115 177.763 310.831 178.047C310.547 178.332 310.209 178.557 309.838 178.711C309.466 178.865 309.068 178.944 308.666 178.944Z" fill="#292A2E"/>
<path d="M350.3 178.944C349.488 178.944 348.71 178.621 348.136 178.047C347.562 177.473 347.239 176.694 347.239 175.883C347.253 174.505 346.993 173.139 346.475 171.863C345.958 170.587 345.192 169.426 344.223 168.447C343.254 167.469 342.101 166.692 340.83 166.162C339.559 165.631 338.195 165.359 336.818 165.359C335.44 165.359 334.077 165.631 332.806 166.162C331.535 166.692 330.381 167.469 329.412 168.447C328.443 169.426 327.678 170.587 327.16 171.863C326.642 173.139 326.383 174.505 326.396 175.883C326.396 176.694 326.074 177.473 325.5 178.047C324.926 178.621 324.147 178.944 323.335 178.944C322.523 178.944 321.745 178.621 321.171 178.047C320.597 177.473 320.274 176.694 320.274 175.883C320.257 173.699 320.673 171.534 321.496 169.512C322.32 167.49 323.536 165.651 325.074 164.101C326.612 162.551 328.441 161.321 330.457 160.482C332.472 159.642 334.634 159.21 336.818 159.21C339.001 159.21 341.163 159.642 343.179 160.482C345.194 161.321 347.024 162.551 348.561 164.101C350.099 165.651 351.315 167.49 352.139 169.512C352.963 171.534 353.378 173.699 353.361 175.883C353.361 176.285 353.282 176.683 353.128 177.054C352.975 177.426 352.749 177.763 352.465 178.047C352.181 178.332 351.843 178.557 351.472 178.711C351.1 178.865 350.702 178.944 350.3 178.944Z" fill="#292A2E"/>
<path d="M288.169 78.9806L284.459 79.1621L286.289 116.543L289.998 116.362L288.169 78.9806Z" fill="#571BB1"/>
<path d="M286.449 88.6268C290.198 88.6268 293.237 85.5877 293.237 81.8388C293.237 78.0899 290.198 75.0508 286.449 75.0508C282.7 75.0508 279.661 78.0899 279.661 81.8388C279.661 85.5877 282.7 88.6268 286.449 88.6268Z" fill="#292A2E"/>
<path d="M693.995 400.637H457.702C446.725 400.637 437.826 409.536 437.826 420.513C437.826 431.49 446.725 440.388 457.702 440.388H693.995C704.972 440.388 713.871 431.49 713.871 420.513C713.871 409.536 704.972 400.637 693.995 400.637Z" fill="white"/>
<path d="M694 441.138H457.7C454.979 441.157 452.282 440.638 449.763 439.61C447.244 438.582 444.953 437.065 443.022 435.148C441.092 433.231 439.56 430.951 438.514 428.439C437.469 425.927 436.93 423.233 436.93 420.513C436.93 417.792 437.469 415.098 438.514 412.586C439.56 410.075 441.092 407.794 443.022 405.877C444.953 403.96 447.244 402.444 449.763 401.416C452.282 400.388 454.979 399.868 457.7 399.887H694C699.445 399.925 704.655 402.115 708.492 405.979C712.329 409.843 714.482 415.067 714.482 420.513C714.482 425.958 712.329 431.183 708.492 435.047C704.655 438.911 699.445 441.1 694 441.138ZM457.7 401.387C455.177 401.369 452.675 401.85 450.338 402.803C448.002 403.756 445.877 405.162 444.087 406.94C442.296 408.718 440.875 410.832 439.905 413.162C438.935 415.491 438.436 417.989 438.436 420.513C438.436 423.036 438.935 425.534 439.905 427.864C440.875 430.193 442.296 432.308 444.087 434.086C445.877 435.863 448.002 437.269 450.338 438.222C452.675 439.175 455.177 439.656 457.7 439.638H694C699.048 439.602 703.878 437.571 707.435 433.988C710.992 430.405 712.988 425.561 712.988 420.513C712.988 415.464 710.992 410.62 707.435 407.038C703.878 403.455 699.048 401.424 694 401.387H457.7Z" fill="#292A2E"/>
<path d="M947.214 801.862H86.794C86.7021 801.862 86.611 801.844 86.5261 801.809C86.4412 801.773 86.364 801.722 86.299 801.657C86.234 801.592 86.1825 801.515 86.1473 801.43C86.1121 801.345 86.094 801.254 86.094 801.162C86.094 801.07 86.1121 800.979 86.1473 800.894C86.1825 800.809 86.234 800.732 86.299 800.667C86.364 800.602 86.4412 800.55 86.5261 800.515C86.611 800.48 86.7021 800.462 86.794 800.462H947.214C947.4 800.462 947.578 800.536 947.709 800.667C947.84 800.798 947.914 800.976 947.914 801.162C947.914 801.348 947.84 801.526 947.709 801.657C947.578 801.788 947.4 801.862 947.214 801.862Z" fill="#292A2E"/>
</g>
<defs>
<clipPath id="clip0_23_2933">
<rect width="964.269" height="801.862" fill="white"/>
</clipPath>
</defs>
</svg>
