<svg width="828" height="551" viewBox="0 0 828 551" fill="none" xmlns="http://www.w3.org/2000/svg">
<g clip-path="url(#clip0_23_3248)">
<path d="M580.172 262.585L820.603 262.949V171.814H580.172V262.585Z" fill="#EFE5FF"/>
<path d="M799.902 197.091H600.873C600.775 197.094 600.676 197.077 600.585 197.041C600.493 197.004 600.409 196.949 600.338 196.879C600.267 196.809 600.211 196.725 600.172 196.632C600.134 196.539 600.114 196.439 600.114 196.339C600.114 196.238 600.134 196.138 600.172 196.045C600.211 195.952 600.267 195.868 600.338 195.798C600.409 195.728 600.493 195.673 600.585 195.636C600.676 195.6 600.775 195.583 600.873 195.586H799.902C800 195.583 800.098 195.6 800.19 195.636C800.282 195.673 800.366 195.728 800.437 195.798C800.508 195.868 800.564 195.952 800.602 196.045C800.641 196.138 800.661 196.238 800.661 196.339C800.661 196.439 800.641 196.539 800.602 196.632C800.564 196.725 800.508 196.809 800.437 196.879C800.366 196.949 800.282 197.004 800.19 197.041C800.098 197.077 800 197.094 799.902 197.091Z" fill="white"/>
<path d="M799.902 219.663H600.873C600.775 219.666 600.676 219.649 600.585 219.613C600.493 219.577 600.409 219.522 600.338 219.452C600.267 219.381 600.211 219.297 600.172 219.204C600.134 219.112 600.114 219.012 600.114 218.911C600.114 218.81 600.134 218.71 600.172 218.617C600.211 218.524 600.267 218.44 600.338 218.37C600.409 218.3 600.493 218.245 600.585 218.209C600.676 218.172 600.775 218.155 600.873 218.159H799.902C800 218.155 800.098 218.172 800.19 218.209C800.282 218.245 800.366 218.3 800.437 218.37C800.508 218.44 800.564 218.524 800.602 218.617C800.641 218.71 800.661 218.81 800.661 218.911C800.661 219.012 800.641 219.112 800.602 219.204C800.564 219.297 800.508 219.381 800.437 219.452C800.366 219.522 800.282 219.577 800.19 219.613C800.098 219.649 800 219.666 799.902 219.663Z" fill="white"/>
<path d="M799.902 242.235H681.698C681.503 242.235 681.316 242.155 681.178 242.014C681.04 241.873 680.963 241.682 680.963 241.482C680.963 241.282 681.04 241.091 681.178 240.95C681.316 240.809 681.503 240.729 681.698 240.729H799.902C800.096 240.729 800.283 240.809 800.421 240.95C800.559 241.091 800.637 241.282 800.637 241.482C800.637 241.682 800.559 241.873 800.421 242.014C800.283 242.155 800.096 242.235 799.902 242.235Z" fill="white"/>
<path d="M293.303 118.973L2.34499 119.046L2.3669 0H293.303V118.973Z" fill="#EFE5FF"/>
<path d="M271.574 26.3414H24.0964C23.9414 26.3414 23.7926 26.2784 23.683 26.1661C23.5734 26.0538 23.5117 25.9015 23.5117 25.7427C23.5117 25.584 23.5734 25.4317 23.683 25.3194C23.7926 25.2071 23.9414 25.144 24.0964 25.144H271.574C271.729 25.144 271.878 25.2071 271.987 25.3194C272.097 25.4317 272.158 25.584 272.158 25.7427C272.158 25.9015 272.097 26.0538 271.987 26.1661C271.878 26.2784 271.729 26.3414 271.574 26.3414Z" fill="white"/>
<path d="M271.574 50.0343H24.0964C23.9414 50.0343 23.7926 49.9712 23.683 49.859C23.5734 49.7467 23.5117 49.5944 23.5117 49.4356C23.5117 49.2768 23.5734 49.1245 23.683 49.0123C23.7926 48.9 23.9414 48.8369 24.0964 48.8369H271.574C271.729 48.8369 271.878 48.9 271.987 49.0123C272.097 49.1245 272.158 49.2768 272.158 49.4356C272.158 49.5944 272.097 49.7467 271.987 49.859C271.878 49.9712 271.729 50.0343 271.574 50.0343Z" fill="white"/>
<path d="M271.574 73.7267H24.0964C23.9414 73.7267 23.7926 73.6636 23.683 73.5513C23.5734 73.4391 23.5117 73.2868 23.5117 73.128C23.5117 72.9692 23.5734 72.8169 23.683 72.7047C23.7926 72.5924 23.9414 72.5293 24.0964 72.5293H271.574C271.729 72.5293 271.878 72.5924 271.987 72.7047C272.097 72.8169 272.158 72.9692 272.158 73.128C272.158 73.2868 272.097 73.4391 271.987 73.5513C271.878 73.6636 271.729 73.7267 271.574 73.7267Z" fill="white"/>
<path d="M148.17 97.4201H24.0964C23.9414 97.4201 23.7926 97.357 23.683 97.2447C23.5734 97.1324 23.5117 96.9801 23.5117 96.8214C23.5117 96.6626 23.5734 96.5103 23.683 96.398C23.7926 96.2857 23.9414 96.2227 24.0964 96.2227H148.17C148.326 96.2227 148.474 96.2857 148.584 96.398C148.694 96.5103 148.755 96.6626 148.755 96.8214C148.755 96.9801 148.694 97.1324 148.584 97.2447C148.474 97.357 148.326 97.4201 148.17 97.4201Z" fill="white"/>
<path d="M688.393 55.9438H160.31C147.341 55.9438 136.828 66.7088 136.828 79.9881V475.897C136.828 489.176 147.341 499.941 160.31 499.941H688.393C701.361 499.941 711.874 489.176 711.874 475.897V79.9881C711.874 66.7088 701.361 55.9438 688.393 55.9438Z" fill="white"/>
<path d="M688.392 500.742H160.31C153.877 500.735 147.709 498.115 143.16 493.457C138.612 488.799 136.053 482.483 136.046 475.896V79.9873C136.053 73.4002 138.612 67.085 143.161 62.4272C147.709 57.7694 153.877 55.1492 160.31 55.1416H688.392C694.825 55.149 700.992 57.7691 705.541 62.427C710.09 67.0848 712.648 73.4001 712.656 79.9873V475.896C712.648 482.484 710.09 488.799 705.541 493.457C700.992 498.115 694.825 500.735 688.392 500.742ZM160.31 56.7446C154.292 56.7513 148.522 59.2023 144.267 63.5597C140.011 67.9171 137.618 73.8251 137.611 79.9873V475.896C137.618 482.059 140.011 487.966 144.267 492.324C148.522 496.681 154.292 499.132 160.31 499.139H688.392C694.41 499.132 700.179 496.681 704.434 492.324C708.69 487.966 711.083 482.059 711.09 475.896V79.9873C711.083 73.8251 708.69 67.9171 704.434 63.5597C700.179 59.2023 694.41 56.7513 688.392 56.7446H160.31Z" fill="#292A2E"/>
<path d="M711.873 79.9871V104.182H136.831V79.9871C136.831 73.6102 139.305 67.4944 143.708 62.9853C148.112 58.4761 154.084 55.9429 160.312 55.9429H688.392C694.619 55.9429 700.592 58.4761 704.995 62.9853C709.399 67.4944 711.873 73.6102 711.873 79.9871Z" fill="#292A2E"/>
<path opacity="0.2" d="M384.634 299.657H299.588C288.858 299.657 280.159 308.565 280.159 319.552C280.159 330.54 288.858 339.447 299.588 339.447H384.634C395.364 339.447 404.063 330.54 404.063 319.552C404.063 308.565 395.364 299.657 384.634 299.657Z" fill="#571BB1"/>
<path opacity="0.2" d="M547.981 299.657H462.936C452.205 299.657 443.507 308.565 443.507 319.552C443.507 330.54 452.205 339.447 462.936 339.447H547.981C558.711 339.447 567.41 330.54 567.41 319.552C567.41 308.565 558.711 299.657 547.981 299.657Z" fill="#571BB1"/>
<path opacity="0.1" d="M655.075 210.761C655.076 215.778 654.111 220.746 652.237 225.381C650.363 230.016 647.615 234.228 644.151 237.776C640.687 241.324 636.574 244.138 632.048 246.058C627.522 247.979 622.67 248.967 617.771 248.967H245.703C240.804 248.967 235.952 247.979 231.426 246.059C226.9 244.139 222.787 241.325 219.322 237.778C215.858 234.231 213.11 230.019 211.235 225.384C209.36 220.749 208.395 215.782 208.395 210.765C208.395 205.748 209.36 200.78 211.235 196.145C213.11 191.511 215.858 187.299 219.322 183.752C222.787 180.204 226.9 177.39 231.426 175.47C235.952 173.551 240.804 172.562 245.703 172.562H617.771C627.664 172.563 637.153 176.588 644.148 183.751C651.144 190.914 655.074 200.63 655.075 210.761Z" fill="#571BB1"/>
<path d="M655.075 210.761C655.076 215.778 654.111 220.746 652.237 225.381C650.363 230.016 647.615 234.228 644.151 237.776C640.687 241.324 636.574 244.138 632.048 246.058C627.522 247.979 622.67 248.967 617.771 248.967H559.976V172.562H617.771C627.664 172.563 637.153 176.588 644.148 183.751C651.144 190.914 655.074 200.63 655.075 210.761Z" fill="#571BB1"/>
<path d="M260.383 222.762L256.596 210.356C256.357 209.597 255.912 207.873 255.258 205.185H255.107C254.605 207.436 254.165 209.172 253.788 210.394L249.888 222.762H246.27L240.635 201.616H243.913C245.244 206.928 246.258 210.973 246.956 213.752C247.461 215.596 247.861 217.47 248.153 219.362H248.303C248.442 218.629 248.665 217.68 248.972 216.516C249.28 215.352 249.547 214.429 249.773 213.748L253.561 201.612H256.952L260.646 213.748C261.25 215.57 261.728 217.433 262.077 219.324H262.228C262.326 218.603 262.461 217.888 262.634 217.182C262.853 216.217 264.162 211.027 266.562 201.612H269.803L264.09 222.758L260.383 222.762Z" fill="#0A0A0A"/>
<path d="M291.943 222.762L288.155 210.356C287.917 209.597 287.471 207.873 286.818 205.185H286.668C286.165 207.436 285.725 209.172 285.349 210.394L281.448 222.762H277.83L272.195 201.616H275.473C276.804 206.928 277.819 210.973 278.516 213.752C279.022 215.596 279.421 217.47 279.712 219.362H279.863C280.002 218.629 280.225 217.68 280.533 216.516C280.84 215.352 281.107 214.429 281.333 213.748L285.121 201.612H288.512L292.205 213.748C292.81 215.57 293.289 217.433 293.638 219.324H293.789C293.886 218.603 294.021 217.888 294.193 217.182C294.413 216.217 295.722 211.027 298.122 201.612H301.363L295.654 222.758L291.943 222.762Z" fill="#0A0A0A"/>
<path d="M323.503 222.762L319.716 210.356C319.477 209.597 319.031 207.873 318.378 205.185H318.227C317.725 207.436 317.285 209.172 316.908 210.394L313.005 222.762H309.386L303.751 201.616H307.03C308.361 206.928 309.376 210.973 310.073 213.752C310.578 215.596 310.978 217.47 311.27 219.362H311.42C311.559 218.629 311.782 217.68 312.089 216.516C312.396 215.352 312.663 214.429 312.89 213.748L316.677 201.612H320.069L323.767 213.753C324.371 215.575 324.85 217.439 325.199 219.329H325.35C325.447 218.608 325.582 217.894 325.755 217.188C325.974 216.223 327.284 211.033 329.684 201.617H332.925L327.211 222.764L323.503 222.762Z" fill="#0A0A0A"/>
<path d="M598.531 221.388C594.146 221.392 589.905 219.785 586.579 216.859C583.254 213.932 581.063 209.881 580.407 205.441C579.75 201.002 580.671 196.468 583.002 192.665C585.333 188.862 588.919 186.041 593.109 184.715C597.298 183.39 601.813 183.647 605.833 185.441C609.853 187.235 613.111 190.446 615.015 194.491C616.919 198.536 617.342 203.146 616.208 207.484C615.074 211.821 612.458 215.598 608.836 218.128C605.798 220.249 602.208 221.385 598.531 221.388ZM598.474 187.866C594.759 187.868 591.188 189.335 588.501 191.963C585.814 194.59 584.219 198.176 584.047 201.976C583.874 205.776 585.137 209.498 587.574 212.37C590.011 215.241 593.434 217.041 597.132 217.397C600.831 217.752 604.522 216.635 607.437 214.277C610.353 211.92 612.27 208.503 612.791 204.737C613.311 200.97 612.395 197.143 610.233 194.05C608.07 190.957 604.827 188.835 601.178 188.126C600.286 187.953 599.381 187.866 598.474 187.866Z" fill="white"/>
<path d="M625.535 237.665C625.249 237.666 624.967 237.602 624.707 237.478C624.448 237.354 624.218 237.174 624.035 236.949L607.716 217.011C607.383 216.603 607.221 216.077 607.267 215.548C607.312 215.018 607.561 214.529 607.959 214.188C608.357 213.846 608.871 213.681 609.388 213.727C609.905 213.774 610.382 214.029 610.716 214.436L627.034 234.375C627.274 234.667 627.426 235.023 627.475 235.401C627.523 235.779 627.465 236.163 627.308 236.509C627.151 236.854 626.9 237.147 626.586 237.352C626.272 237.556 625.908 237.665 625.535 237.665Z" fill="white"/>
<path d="M29.3476 507.655C24.6185 507.654 19.9596 506.484 15.7674 504.243C11.5752 502.002 7.97386 498.757 5.26995 494.784C2.56605 490.811 0.83964 486.228 0.237697 481.425C-0.364247 476.622 0.176097 471.741 1.81273 467.198C3.47285 462.586 42.5707 354.012 49.9837 334.447L104.712 356.189C100.544 367.189 85.4427 408.882 73.3107 442.469L93.4663 440.224L99.8101 499.982L32.5238 507.473C31.4691 507.592 30.4088 507.653 29.3476 507.655Z" fill="#571BB1"/>
<path d="M64.5225 504.581L55.5723 550.199H229.411L219.398 503.713L64.5225 504.581Z" fill="#262626"/>
<path d="M102.109 300.714C87.585 301.817 72.7754 306.65 61.8699 316.534C45.4213 331.442 46.885 340.763 55.0964 382.05C62.1611 417.576 59.359 433.099 64.085 498.654C64.2243 500.585 64.5225 504.58 64.5225 504.58L219.89 504.315C219.89 504.315 234.448 417.342 242.486 377.227C248.598 346.73 264.653 309.708 196.961 302.246C196.782 302.228 142.491 297.648 102.109 300.714Z" fill="#571BB1"/>
<path d="M420.32 267.829C413.001 267.826 405.868 265.468 399.93 261.086C393.993 256.705 389.551 250.523 387.232 243.415C384.914 236.307 384.837 228.632 387.012 221.476C389.188 214.321 393.505 208.047 399.353 203.542C405.202 199.036 412.286 196.528 419.603 196.372C426.92 196.216 434.1 198.419 440.127 202.671C446.154 206.922 450.723 213.006 453.188 220.063C455.653 227.119 455.888 234.79 453.862 241.991C451.756 249.436 447.347 255.979 441.299 260.638C435.25 265.297 427.888 267.821 420.32 267.829ZM420.295 204.369C413.426 204.364 406.81 207.027 401.782 211.82C396.754 216.613 393.687 223.179 393.2 230.196C392.713 237.213 394.842 244.157 399.158 249.63C403.474 255.103 409.656 258.697 416.457 259.687C423.258 260.677 430.173 258.99 435.807 254.967C441.442 250.943 445.377 244.881 446.82 238.004C448.263 231.126 447.105 223.945 443.581 217.906C440.057 211.868 434.429 207.423 427.83 205.466C425.381 204.74 422.845 204.371 420.295 204.369Z" fill="#0A0A0A"/>
<path d="M390.852 311.866C390.213 311.865 389.584 311.705 389.019 311.398C388.455 311.092 387.972 310.648 387.613 310.106C387.255 309.564 387.031 308.941 386.963 308.29C386.894 307.64 386.981 306.982 387.218 306.374L405.018 260.644C405.413 259.673 406.166 258.9 407.112 258.492C408.059 258.084 409.125 258.073 410.079 258.462C411.034 258.851 411.8 259.609 412.214 260.572C412.627 261.535 412.654 262.626 412.289 263.61L394.489 309.34C394.199 310.085 393.698 310.725 393.049 311.175C392.401 311.625 391.636 311.866 390.852 311.866Z" fill="#0A0A0A"/>
<path d="M377.224 306.849L388.14 281.777C388.38 281.226 388.729 280.732 389.166 280.327C389.602 279.922 390.116 279.614 390.675 279.424C391.234 279.233 391.826 279.164 392.412 279.221C392.999 279.277 393.567 279.458 394.082 279.752C395.016 280.325 395.709 281.232 396.026 282.299C396.343 283.365 396.262 284.514 395.799 285.523L393.459 290.899L408.397 277.452C410.032 275.929 412.992 275.127 414.542 277.118C415.187 277.845 415.572 278.773 415.636 279.753C415.699 280.733 415.436 281.705 414.89 282.512C414.908 282.524 414.924 282.538 414.939 282.554C414.949 282.568 414.957 282.583 414.964 282.598L417.486 280.246C417.954 279.811 418.51 279.488 419.114 279.301C419.719 279.114 420.357 279.067 420.981 279.165C421.606 279.262 422.201 279.5 422.724 279.863C423.247 280.226 423.685 280.703 424.005 281.261C424.491 282.15 424.665 283.183 424.497 284.187C424.329 285.192 423.829 286.106 423.081 286.779L422.008 287.78C422.021 287.824 422.027 287.871 422.025 287.918C422.903 287.415 423.928 287.247 424.916 287.446C425.903 287.645 426.79 288.198 427.416 289.004C428.077 289.908 428.38 291.033 428.266 292.155C428.151 293.277 427.628 294.314 426.8 295.059L424.135 297.543C424.197 297.535 424.26 297.542 424.318 297.564C424.377 297.586 424.43 297.622 424.472 297.669C424.519 297.727 424.549 297.798 424.559 297.873C425.462 297.647 426.414 297.732 427.266 298.113C428.118 298.494 428.825 299.152 429.277 299.984C429.734 300.869 429.887 301.886 429.709 302.871C429.532 303.855 429.035 304.75 428.299 305.409L405.808 326.376C402.662 329.309 398.731 331.214 394.521 331.845C390.311 332.476 386.012 331.805 382.177 329.919C378.869 328.292 376.312 325.409 375.047 321.882C373.783 318.355 373.912 314.462 375.405 311.03L377.224 306.849Z" fill="#E98862"/>
<g opacity="0.2">
<path d="M400.167 295.894C400.237 295.972 400.333 296.018 400.435 296.024C400.538 296.029 400.638 295.993 400.715 295.923L414.906 283.116C414.945 283.082 414.976 283.039 414.999 282.992C415.022 282.945 415.035 282.893 415.038 282.841C415.041 282.788 415.034 282.736 415.018 282.686C415.001 282.636 414.975 282.59 414.941 282.551C414.907 282.511 414.866 282.479 414.819 282.456C414.773 282.433 414.723 282.419 414.672 282.416C414.62 282.413 414.569 282.42 414.52 282.437C414.472 282.454 414.427 282.481 414.388 282.515L400.199 295.322C400.16 295.357 400.128 295.399 400.106 295.447C400.083 295.494 400.07 295.545 400.067 295.598C400.064 295.65 400.071 295.703 400.087 295.753C400.104 295.803 400.13 295.849 400.164 295.888L400.167 295.894Z" fill="#0C0C0C"/>
</g>
<g opacity="0.2">
<path d="M405.511 302.459C405.58 302.537 405.676 302.583 405.779 302.588C405.881 302.594 405.982 302.558 406.059 302.488L421.896 288.195C421.935 288.161 421.966 288.118 421.989 288.071C422.011 288.024 422.024 287.972 422.028 287.92C422.031 287.867 422.024 287.815 422.007 287.765C421.991 287.715 421.964 287.669 421.93 287.63C421.86 287.553 421.763 287.507 421.661 287.5C421.558 287.494 421.457 287.527 421.378 287.594L405.54 301.886C405.502 301.921 405.47 301.963 405.448 302.011C405.425 302.058 405.412 302.109 405.409 302.162C405.406 302.214 405.413 302.267 405.429 302.317C405.446 302.367 405.472 302.413 405.506 302.452L405.511 302.459Z" fill="#0C0C0C"/>
</g>
<g opacity="0.2">
<path d="M411.258 309.603C411.328 309.68 411.424 309.727 411.526 309.732C411.629 309.738 411.729 309.702 411.806 309.632L424.439 298.232C424.478 298.197 424.509 298.155 424.532 298.107C424.554 298.06 424.567 298.009 424.571 297.956C424.574 297.904 424.567 297.851 424.55 297.801C424.534 297.751 424.507 297.705 424.473 297.666C424.439 297.626 424.398 297.594 424.352 297.571C424.306 297.548 424.256 297.534 424.204 297.531C424.153 297.528 424.102 297.535 424.053 297.552C424.004 297.569 423.959 297.596 423.921 297.631L411.288 309.031C411.249 309.066 411.218 309.108 411.195 309.155C411.173 309.202 411.159 309.254 411.156 309.306C411.153 309.359 411.16 309.412 411.177 309.461C411.193 309.511 411.219 309.557 411.254 309.597L411.258 309.603Z" fill="#0C0C0C"/>
</g>
<path d="M370.402 298.71L304.218 375.027L237.342 315.781L198.934 361.24L287.716 439.894L288.315 440.424C288.524 440.605 288.734 440.785 288.945 440.961C294.863 445.864 302.44 448.159 310.009 447.341C317.579 446.523 324.522 442.66 329.309 436.601L410.654 333.654L370.402 298.71Z" fill="#571BB1"/>
<path d="M196.961 302.25C196.781 302.226 191.85 321.229 153.364 318.272C126.72 316.228 120.224 297.658 119.613 297.658C122.486 297.032 127.151 296.383 128.427 295.686C132.622 293.378 135.678 290.568 137.217 284.537C138.42 279.822 139.032 261.667 139.032 252.559L180.031 261.992C179.459 272.267 175.46 296.087 189.478 300.302C191.81 301 194.323 301.641 196.961 302.25Z" fill="#E98862"/>
<path d="M178.614 282.193C162.452 283.499 141.69 276.511 137.746 254.43L134.187 234.507C130.243 212.426 138.373 192.405 158.676 188.603C178.979 184.801 197.352 199.859 201.295 221.94L202.871 230.756C204.381 239.232 207.449 279.863 178.614 282.193Z" fill="#E98862"/>
<path d="M193.598 261.922C190.697 246.996 189.367 237.037 189.521 226.531C193.607 219.191 192.533 210.767 191.604 207.127C195.609 209.365 197.284 209.612 201.053 209.612C201.053 209.612 194.295 181.84 171.326 174.367C167.1 172.684 156.319 170.557 142 172.568C129.821 174.279 99.7992 183.604 95.5068 218.212V218.232C95.3644 219.38 92.4824 251.268 86.7358 266.567C79.0097 287.134 68.1645 293.524 68.4392 317.253C68.793 347.777 123.593 351.84 156.65 349.557C189.707 347.273 208.153 336.144 208.394 314.147C208.66 289.493 199.403 291.784 193.598 261.922Z" fill="#0A0A0A"/>
<path d="M193.607 249.408C187.437 250.563 181.228 244.741 180.1 238.423C178.972 232.105 183.351 227.683 189.521 226.528L193.607 249.408Z" fill="#E98862"/>
<path d="M238.774 396.933C238.749 396.933 238.725 396.931 238.701 396.926C238.65 396.916 238.602 396.897 238.559 396.868C238.516 396.839 238.479 396.802 238.449 396.758C238.42 396.715 238.4 396.666 238.389 396.615C238.379 396.563 238.378 396.51 238.388 396.458L242.326 375.091C242.334 375.037 242.352 374.986 242.38 374.94C242.407 374.894 242.444 374.854 242.487 374.823C242.529 374.792 242.578 374.77 242.63 374.758C242.681 374.747 242.734 374.746 242.786 374.756C242.838 374.766 242.887 374.786 242.931 374.816C242.974 374.846 243.012 374.885 243.041 374.93C243.07 374.975 243.089 375.026 243.099 375.079C243.108 375.132 243.107 375.186 243.095 375.239L239.157 396.608C239.14 396.699 239.092 396.782 239.022 396.841C238.953 396.9 238.865 396.933 238.774 396.933Z" fill="#0C0C0C"/>
<path d="M64.5225 504.982C64.4214 504.982 64.3241 504.942 64.2512 504.87C64.1782 504.799 64.1352 504.701 64.1312 504.597L59.2627 375.179C59.2606 375.126 59.2687 375.074 59.2864 375.024C59.3042 374.975 59.3313 374.93 59.3662 374.891C59.4011 374.852 59.4431 374.821 59.4898 374.799C59.5365 374.777 59.587 374.764 59.6384 374.762C59.7409 374.763 59.8393 374.803 59.9145 374.874C59.9896 374.946 60.0361 375.043 60.0446 375.148L64.9139 504.566C64.9159 504.619 64.9077 504.671 64.8898 504.721C64.872 504.77 64.8448 504.815 64.8098 504.854C64.7749 504.893 64.7328 504.924 64.6861 504.946C64.6393 504.968 64.5888 504.98 64.5374 504.982H64.5225Z" fill="#0C0C0C"/>
<path d="M299.777 381.601C299.704 381.601 299.633 381.58 299.571 381.541C299.51 381.502 299.46 381.446 299.427 381.38C299.395 381.313 299.381 381.239 299.387 381.164C299.394 381.09 299.42 381.02 299.464 380.96L303.907 374.789C303.97 374.705 304.062 374.65 304.163 374.635C304.265 374.621 304.368 374.647 304.45 374.709C304.533 374.772 304.588 374.865 304.605 374.968C304.621 375.072 304.597 375.178 304.538 375.264L300.09 381.438C300.054 381.489 300.007 381.53 299.952 381.558C299.898 381.586 299.838 381.601 299.777 381.601Z" fill="#0C0C0C"/>
<path d="M17.8184 551H800.245C800.453 551 800.652 550.915 800.799 550.765C800.945 550.615 801.028 550.411 801.028 550.198C801.028 549.986 800.945 549.782 800.799 549.632C800.652 549.481 800.453 549.397 800.245 549.397H17.8184C17.6108 549.397 17.4117 549.481 17.2649 549.632C17.1181 549.782 17.0356 549.986 17.0356 550.198C17.0356 550.411 17.1181 550.615 17.2649 550.765C17.4117 550.915 17.6108 551 17.8184 551Z" fill="#292A2E"/>
</g>
<defs>
<clipPath id="clip0_23_3248">
<rect width="828" height="551" fill="white"/>
</clipPath>
</defs>
</svg>
