<svg width="953" height="843" viewBox="0 0 953 843" fill="none" xmlns="http://www.w3.org/2000/svg">
<path d="M759.96 237.453L551.23 237.453C547.262 237.453 543.457 235.877 540.652 233.071C537.847 230.266 536.271 226.461 536.271 222.494V70.5416C536.271 66.5761 537.846 62.773 540.65 59.969C543.454 57.1649 547.257 55.5896 551.223 55.5896L759.967 55.5896C763.932 55.5896 767.735 57.1649 770.539 59.969C773.343 62.773 774.919 66.5761 774.919 70.5416V222.494C774.919 226.461 773.343 230.266 770.537 233.071C767.732 235.877 763.927 237.453 759.96 237.453Z" fill="white"/>
<path d="M535.646 222.493V70.5409C535.646 66.4096 537.287 62.4475 540.208 59.5263C543.129 56.605 547.091 54.9639 551.223 54.9639H759.967C764.098 54.9639 768.06 56.605 770.981 59.5263C773.903 62.4475 775.544 66.4096 775.544 70.5409V222.493C775.544 224.539 775.141 226.566 774.357 228.457C773.574 230.347 772.426 232.065 770.979 233.512C769.532 234.96 767.814 236.107 765.924 236.891C764.033 237.674 762.006 238.077 759.96 238.077H551.23C549.183 238.077 547.157 237.674 545.266 236.891C543.375 236.107 541.657 234.96 540.21 233.512C538.763 232.065 537.615 230.347 536.832 228.457C536.049 226.566 535.646 224.539 535.646 222.493ZM551.223 56.2139C547.424 56.2149 543.781 57.7248 541.095 60.4116C538.409 63.0983 536.9 66.7418 536.9 70.5409V222.493C536.9 226.294 538.41 229.94 541.098 232.629C543.786 235.317 547.432 236.827 551.234 236.827H759.96C763.761 236.827 767.407 235.317 770.095 232.629C772.784 229.94 774.294 226.294 774.294 222.493V70.5409C774.294 66.7411 772.784 63.097 770.097 60.4101C767.411 57.7233 763.766 56.2139 759.967 56.2139H551.223Z" fill="#292A2E"/>
<path d="M536.272 70.5389V83.1999H774.917V70.5389C774.917 66.5734 773.341 62.7703 770.537 59.9663C767.733 57.1622 763.93 55.5869 759.965 55.5869H551.223C549.259 55.5869 547.315 55.9737 545.501 56.7251C543.687 57.4765 542.039 58.5779 540.65 59.9663C539.262 61.3547 538.161 63.003 537.41 64.8171C536.658 66.6312 536.272 68.5754 536.272 70.5389Z" fill="#292A2E"/>
<path d="M617.773 103.666H606.512C606.379 103.666 606.252 103.613 606.158 103.52C606.064 103.426 606.012 103.299 606.012 103.166C606.012 103.033 606.064 102.906 606.158 102.812C606.252 102.719 606.379 102.666 606.512 102.666H617.773C617.905 102.666 618.032 102.719 618.126 102.812C618.22 102.906 618.273 103.033 618.273 103.166C618.273 103.299 618.22 103.426 618.126 103.52C618.032 103.613 617.905 103.666 617.773 103.666Z" fill="#292A2E"/>
<path d="M598.391 103.666H594.13C593.997 103.666 593.87 103.613 593.776 103.52C593.683 103.426 593.63 103.299 593.63 103.166C593.63 103.033 593.683 102.906 593.776 102.812C593.87 102.719 593.997 102.666 594.13 102.666H598.391C598.523 102.666 598.651 102.719 598.744 102.812C598.838 102.906 598.891 103.033 598.891 103.166C598.891 103.299 598.838 103.426 598.744 103.52C598.651 103.613 598.523 103.666 598.391 103.666Z" fill="#571BB1"/>
<path d="M598.391 112.686H594.13C593.997 112.686 593.87 112.633 593.776 112.54C593.683 112.446 593.63 112.319 593.63 112.186C593.63 112.053 593.683 111.926 593.776 111.832C593.87 111.739 593.997 111.686 594.13 111.686H598.391C598.523 111.686 598.651 111.739 598.744 111.832C598.838 111.926 598.891 112.053 598.891 112.186C598.891 112.319 598.838 112.446 598.744 112.54C598.651 112.633 598.523 112.686 598.391 112.686Z" fill="#571BB1"/>
<path d="M598.391 121.706H594.13C593.997 121.706 593.87 121.653 593.776 121.56C593.683 121.466 593.63 121.339 593.63 121.206C593.63 121.073 593.683 120.946 593.776 120.853C593.87 120.759 593.997 120.706 594.13 120.706H598.391C598.523 120.706 598.651 120.759 598.744 120.853C598.838 120.946 598.891 121.073 598.891 121.206C598.891 121.339 598.838 121.466 598.744 121.56C598.651 121.653 598.523 121.706 598.391 121.706Z" fill="#571BB1"/>
<path d="M598.391 130.726H594.13C593.997 130.726 593.87 130.673 593.776 130.58C593.683 130.486 593.63 130.359 593.63 130.226C593.63 130.093 593.683 129.966 593.776 129.873C593.87 129.779 593.997 129.726 594.13 129.726H598.391C598.523 129.726 598.651 129.779 598.744 129.873C598.838 129.966 598.891 130.093 598.891 130.226C598.891 130.359 598.838 130.486 598.744 130.58C598.651 130.673 598.523 130.726 598.391 130.726Z" fill="#571BB1"/>
<path d="M598.391 139.746H594.13C593.997 139.746 593.87 139.693 593.776 139.6C593.683 139.506 593.63 139.379 593.63 139.246C593.63 139.113 593.683 138.986 593.776 138.893C593.87 138.799 593.997 138.746 594.13 138.746H598.391C598.523 138.746 598.651 138.799 598.744 138.893C598.838 138.986 598.891 139.113 598.891 139.246C598.891 139.379 598.838 139.506 598.744 139.6C598.651 139.693 598.523 139.746 598.391 139.746Z" fill="#571BB1"/>
<path d="M598.391 148.766H594.13C593.997 148.766 593.87 148.713 593.776 148.62C593.683 148.526 593.63 148.399 593.63 148.266C593.63 148.134 593.683 148.006 593.776 147.913C593.87 147.819 593.997 147.766 594.13 147.766H598.391C598.523 147.766 598.651 147.819 598.744 147.913C598.838 148.006 598.891 148.134 598.891 148.266C598.891 148.399 598.838 148.526 598.744 148.62C598.651 148.713 598.523 148.766 598.391 148.766Z" fill="#571BB1"/>
<path d="M598.391 157.786H594.13C593.997 157.786 593.87 157.733 593.776 157.64C593.683 157.546 593.63 157.419 593.63 157.286C593.63 157.154 593.683 157.026 593.776 156.933C593.87 156.839 593.997 156.786 594.13 156.786H598.391C598.523 156.786 598.651 156.839 598.744 156.933C598.838 157.026 598.891 157.154 598.891 157.286C598.891 157.419 598.838 157.546 598.744 157.64C598.651 157.733 598.523 157.786 598.391 157.786Z" fill="#571BB1"/>
<path d="M598.391 166.806H594.13C593.997 166.806 593.87 166.753 593.776 166.66C593.683 166.566 593.63 166.439 593.63 166.306C593.63 166.174 593.683 166.046 593.776 165.953C593.87 165.859 593.997 165.806 594.13 165.806H598.391C598.523 165.806 598.651 165.859 598.744 165.953C598.838 166.046 598.891 166.174 598.891 166.306C598.891 166.439 598.838 166.566 598.744 166.66C598.651 166.753 598.523 166.806 598.391 166.806Z" fill="#571BB1"/>
<path d="M598.391 175.826H594.13C593.997 175.826 593.87 175.773 593.776 175.68C593.683 175.586 593.63 175.459 593.63 175.326C593.63 175.194 593.683 175.066 593.776 174.973C593.87 174.879 593.997 174.826 594.13 174.826H598.391C598.523 174.826 598.651 174.879 598.744 174.973C598.838 175.066 598.891 175.194 598.891 175.326C598.891 175.459 598.838 175.586 598.744 175.68C598.651 175.773 598.523 175.826 598.391 175.826Z" fill="#571BB1"/>
<path d="M598.391 184.846H594.13C593.997 184.846 593.87 184.794 593.776 184.7C593.683 184.606 593.63 184.479 593.63 184.346C593.63 184.214 593.683 184.086 593.776 183.993C593.87 183.899 593.997 183.846 594.13 183.846H598.391C598.523 183.846 598.651 183.899 598.744 183.993C598.838 184.086 598.891 184.214 598.891 184.346C598.891 184.479 598.838 184.606 598.744 184.7C598.651 184.794 598.523 184.846 598.391 184.846Z" fill="#571BB1"/>
<path d="M598.391 193.866H594.13C593.997 193.866 593.87 193.814 593.776 193.72C593.683 193.626 593.63 193.499 593.63 193.366C593.63 193.234 593.683 193.106 593.776 193.013C593.87 192.919 593.997 192.866 594.13 192.866H598.391C598.523 192.866 598.651 192.919 598.744 193.013C598.838 193.106 598.891 193.234 598.891 193.366C598.891 193.499 598.838 193.626 598.744 193.72C598.651 193.814 598.523 193.866 598.391 193.866Z" fill="#571BB1"/>
<path d="M598.391 202.886H594.13C593.997 202.886 593.87 202.834 593.776 202.74C593.683 202.646 593.63 202.519 593.63 202.386C593.63 202.254 593.683 202.126 593.776 202.033C593.87 201.939 593.997 201.886 594.13 201.886H598.391C598.523 201.886 598.651 201.939 598.744 202.033C598.838 202.126 598.891 202.254 598.891 202.386C598.891 202.519 598.838 202.646 598.744 202.74C598.651 202.834 598.523 202.886 598.391 202.886Z" fill="#571BB1"/>
<path d="M598.391 211.906H594.13C593.997 211.906 593.87 211.854 593.776 211.76C593.683 211.666 593.63 211.539 593.63 211.406C593.63 211.274 593.683 211.146 593.776 211.053C593.87 210.959 593.997 210.906 594.13 210.906H598.391C598.523 210.906 598.651 210.959 598.744 211.053C598.838 211.146 598.891 211.274 598.891 211.406C598.891 211.539 598.838 211.666 598.744 211.76C598.651 211.854 598.523 211.906 598.391 211.906Z" fill="#571BB1"/>
<path d="M598.391 220.927H594.13C593.997 220.927 593.87 220.875 593.776 220.781C593.683 220.687 593.63 220.56 593.63 220.427C593.63 220.295 593.683 220.167 593.776 220.074C593.87 219.98 593.997 219.927 594.13 219.927H598.391C598.523 219.927 598.651 219.98 598.744 220.074C598.838 220.167 598.891 220.295 598.891 220.427C598.891 220.56 598.838 220.687 598.744 220.781C598.651 220.875 598.523 220.927 598.391 220.927Z" fill="#571BB1"/>
<path d="M626.773 112.686H616.512C616.379 112.686 616.252 112.633 616.158 112.54C616.064 112.446 616.012 112.319 616.012 112.186C616.012 112.053 616.064 111.926 616.158 111.832C616.252 111.739 616.379 111.686 616.512 111.686H626.773C626.905 111.686 627.032 111.739 627.126 111.832C627.22 111.926 627.273 112.053 627.273 112.186C627.273 112.319 627.22 112.446 627.126 112.54C627.032 112.633 626.905 112.686 626.773 112.686Z" fill="#292A2E"/>
<path d="M617.773 166.806H606.512C606.379 166.806 606.252 166.753 606.158 166.659C606.064 166.565 606.012 166.438 606.012 166.306C606.012 166.173 606.064 166.046 606.158 165.952C606.252 165.858 606.379 165.806 606.512 165.806H617.773C617.905 165.806 618.032 165.858 618.126 165.952C618.22 166.046 618.273 166.173 618.273 166.306C618.273 166.438 618.22 166.565 618.126 166.659C618.032 166.753 617.905 166.806 617.773 166.806Z" fill="#292A2E"/>
<path d="M626.773 175.826H616.512C616.379 175.826 616.252 175.773 616.158 175.679C616.064 175.585 616.012 175.458 616.012 175.326C616.012 175.193 616.064 175.066 616.158 174.972C616.252 174.878 616.379 174.826 616.512 174.826H626.773C626.905 174.826 627.032 174.878 627.126 174.972C627.22 175.066 627.273 175.193 627.273 175.326C627.273 175.458 627.22 175.585 627.126 175.679C627.032 175.773 626.905 175.826 626.773 175.826Z" fill="#292A2E"/>
<path d="M684.773 121.706H623.512C623.379 121.706 623.252 121.653 623.158 121.56C623.064 121.466 623.012 121.339 623.012 121.206C623.012 121.073 623.064 120.946 623.158 120.853C623.252 120.759 623.379 120.706 623.512 120.706H684.773C684.905 120.706 685.032 120.759 685.126 120.853C685.22 120.946 685.273 121.073 685.273 121.206C685.273 121.339 685.22 121.466 685.126 121.56C685.032 121.653 684.905 121.706 684.773 121.706Z" fill="#292A2E"/>
<path d="M738.86 121.706H695.6C695.467 121.706 695.34 121.653 695.246 121.56C695.152 121.466 695.1 121.339 695.1 121.206C695.1 121.073 695.152 120.946 695.246 120.853C695.34 120.759 695.467 120.706 695.6 120.706H738.86C738.992 120.706 739.119 120.759 739.213 120.853C739.307 120.946 739.36 121.073 739.36 121.206C739.36 121.339 739.307 121.466 739.213 121.56C739.119 121.653 738.992 121.706 738.86 121.706Z" fill="#0F9C75"/>
<path d="M762.076 121.706H748.816C748.683 121.706 748.556 121.653 748.462 121.56C748.368 121.466 748.316 121.339 748.316 121.206C748.316 121.073 748.368 120.946 748.462 120.853C748.556 120.759 748.683 120.706 748.816 120.706H762.076C762.208 120.706 762.335 120.759 762.429 120.853C762.523 120.946 762.576 121.073 762.576 121.206C762.576 121.339 762.523 121.466 762.429 121.56C762.335 121.653 762.208 121.706 762.076 121.706Z" fill="#292A2E"/>
<path d="M714.773 139.746H623.512C623.379 139.746 623.252 139.693 623.158 139.6C623.064 139.506 623.012 139.379 623.012 139.246C623.012 139.113 623.064 138.986 623.158 138.893C623.252 138.799 623.379 138.746 623.512 138.746H714.773C714.905 138.746 715.032 138.799 715.126 138.893C715.22 138.986 715.273 139.113 715.273 139.246C715.273 139.379 715.22 139.506 715.126 139.6C715.032 139.693 714.905 139.746 714.773 139.746Z" fill="#292A2E"/>
<path d="M738.86 139.746H725.6C725.467 139.746 725.34 139.693 725.246 139.6C725.152 139.506 725.1 139.379 725.1 139.246C725.1 139.113 725.152 138.986 725.246 138.893C725.34 138.799 725.467 138.746 725.6 138.746H738.86C738.992 138.746 739.119 138.799 739.213 138.893C739.307 138.986 739.36 139.113 739.36 139.246C739.36 139.379 739.307 139.506 739.213 139.6C739.119 139.693 738.992 139.746 738.86 139.746Z" fill="#571BB1"/>
<path d="M634.773 130.726H623.512C623.379 130.726 623.252 130.673 623.158 130.58C623.064 130.486 623.012 130.359 623.012 130.226C623.012 130.093 623.064 129.966 623.158 129.873C623.252 129.779 623.379 129.726 623.512 129.726H634.773C634.905 129.726 635.032 129.779 635.126 129.873C635.22 129.966 635.273 130.093 635.273 130.226C635.273 130.359 635.22 130.486 635.126 130.58C635.032 130.673 634.905 130.726 634.773 130.726Z" fill="#0F9C75"/>
<path d="M708.86 130.726H645.6C645.467 130.726 645.34 130.673 645.246 130.58C645.152 130.486 645.1 130.359 645.1 130.226C645.1 130.093 645.152 129.966 645.246 129.873C645.34 129.779 645.467 129.726 645.6 129.726H708.86C708.992 129.726 709.119 129.779 709.213 129.873C709.307 129.966 709.36 130.093 709.36 130.226C709.36 130.359 709.307 130.486 709.213 130.58C709.119 130.673 708.992 130.726 708.86 130.726Z" fill="#571BB1"/>
<path d="M762.163 130.726H720.9C720.767 130.726 720.64 130.673 720.546 130.58C720.452 130.486 720.4 130.359 720.4 130.226C720.4 130.093 720.452 129.966 720.546 129.873C720.64 129.779 720.767 129.726 720.9 129.726H762.161C762.293 129.726 762.42 129.779 762.514 129.873C762.608 129.966 762.661 130.093 762.661 130.226C762.661 130.359 762.608 130.486 762.514 130.58C762.42 130.673 762.293 130.726 762.161 130.726H762.163Z" fill="#292A2E"/>
<path d="M684.773 148.766H623.512C623.379 148.766 623.252 148.713 623.158 148.619C623.064 148.525 623.012 148.398 623.012 148.266C623.012 148.133 623.064 148.006 623.158 147.912C623.252 147.818 623.379 147.766 623.512 147.766H684.773C684.905 147.766 685.032 147.818 685.126 147.912C685.22 148.006 685.273 148.133 685.273 148.266C685.273 148.398 685.22 148.525 685.126 148.619C685.032 148.713 684.905 148.766 684.773 148.766Z" fill="#292A2E"/>
<path d="M718.86 148.766H695.6C695.467 148.766 695.34 148.713 695.246 148.619C695.152 148.525 695.1 148.398 695.1 148.266C695.1 148.133 695.152 148.006 695.246 147.912C695.34 147.818 695.467 147.766 695.6 147.766H718.86C718.992 147.766 719.119 147.818 719.213 147.912C719.307 148.006 719.36 148.133 719.36 148.266C719.36 148.398 719.307 148.525 719.213 148.619C719.119 148.713 718.992 148.766 718.86 148.766Z" fill="#0F9C75"/>
<path d="M762.076 148.766H728.816C728.683 148.766 728.556 148.713 728.462 148.619C728.368 148.525 728.316 148.398 728.316 148.266C728.316 148.133 728.368 148.006 728.462 147.912C728.556 147.818 728.683 147.766 728.816 147.766H762.076C762.208 147.766 762.335 147.818 762.429 147.912C762.523 148.006 762.576 148.133 762.576 148.266C762.576 148.398 762.523 148.525 762.429 148.619C762.335 148.713 762.208 148.766 762.076 148.766Z" fill="#292A2E"/>
<path d="M634.773 157.786H623.512C623.379 157.786 623.252 157.733 623.158 157.639C623.064 157.545 623.012 157.418 623.012 157.286C623.012 157.153 623.064 157.026 623.158 156.932C623.252 156.838 623.379 156.786 623.512 156.786H634.773C634.905 156.786 635.032 156.838 635.126 156.932C635.22 157.026 635.273 157.153 635.273 157.286C635.273 157.418 635.22 157.545 635.126 157.639C635.032 157.733 634.905 157.786 634.773 157.786Z" fill="#571BB1"/>
<path d="M708.86 157.786H645.6C645.467 157.786 645.34 157.733 645.246 157.639C645.152 157.545 645.1 157.418 645.1 157.286C645.1 157.153 645.152 157.026 645.246 156.932C645.34 156.838 645.467 156.786 645.6 156.786H708.86C708.992 156.786 709.119 156.838 709.213 156.932C709.307 157.026 709.36 157.153 709.36 157.286C709.36 157.418 709.307 157.545 709.213 157.639C709.119 157.733 708.992 157.786 708.86 157.786Z" fill="#0F9C75"/>
<path d="M682.773 193.866H621.512C621.379 193.866 621.252 193.813 621.158 193.719C621.064 193.626 621.012 193.498 621.012 193.366C621.012 193.233 621.064 193.106 621.158 193.012C621.252 192.918 621.379 192.866 621.512 192.866H682.773C682.905 192.866 683.032 192.918 683.126 193.012C683.22 193.106 683.273 193.233 683.273 193.366C683.273 193.498 683.22 193.626 683.126 193.719C683.032 193.813 682.905 193.866 682.773 193.866Z" fill="#292A2E"/>
<path d="M736.86 193.866H693.6C693.467 193.866 693.34 193.813 693.246 193.719C693.152 193.626 693.1 193.498 693.1 193.366C693.1 193.233 693.152 193.106 693.246 193.012C693.34 192.918 693.467 192.866 693.6 192.866H736.86C736.992 192.866 737.119 192.918 737.213 193.012C737.307 193.106 737.36 193.233 737.36 193.366C737.36 193.498 737.307 193.626 737.213 193.719C737.119 193.813 736.992 193.866 736.86 193.866Z" fill="#571BB1"/>
<path d="M652.773 184.846H621.512C621.379 184.846 621.252 184.793 621.158 184.699C621.064 184.605 621.012 184.478 621.012 184.346C621.012 184.213 621.064 184.086 621.158 183.992C621.252 183.898 621.379 183.846 621.512 183.846H652.773C652.905 183.846 653.032 183.898 653.126 183.992C653.22 184.086 653.273 184.213 653.273 184.346C653.273 184.478 653.22 184.605 653.126 184.699C653.032 184.793 652.905 184.846 652.773 184.846Z" fill="#0F9C75"/>
<path d="M706.86 184.846H663.6C663.467 184.846 663.34 184.793 663.246 184.699C663.152 184.605 663.1 184.478 663.1 184.346C663.1 184.213 663.152 184.086 663.246 183.992C663.34 183.898 663.467 183.846 663.6 183.846H706.86C706.992 183.846 707.119 183.898 707.213 183.992C707.307 184.086 707.36 184.213 707.36 184.346C707.36 184.478 707.307 184.605 707.213 184.699C707.119 184.793 706.992 184.846 706.86 184.846Z" fill="#571BB1"/>
<path d="M760.163 184.846H718.9C718.767 184.846 718.64 184.793 718.546 184.699C718.452 184.605 718.4 184.478 718.4 184.346C718.4 184.213 718.452 184.086 718.546 183.992C718.64 183.898 718.767 183.846 718.9 183.846H760.161C760.293 183.846 760.42 183.898 760.514 183.992C760.608 184.086 760.661 184.213 760.661 184.346C760.661 184.478 760.608 184.605 760.514 184.699C760.42 184.793 760.293 184.846 760.161 184.846H760.163Z" fill="#292A2E"/>
<path d="M712.773 211.907H621.512C621.379 211.907 621.252 211.854 621.158 211.76C621.064 211.667 621.012 211.539 621.012 211.407C621.012 211.274 621.064 211.147 621.158 211.053C621.252 210.959 621.379 210.907 621.512 210.907H712.773C712.905 210.907 713.032 210.959 713.126 211.053C713.22 211.147 713.273 211.274 713.273 211.407C713.273 211.539 713.22 211.667 713.126 211.76C713.032 211.854 712.905 211.907 712.773 211.907Z" fill="#571BB1"/>
<path d="M736.86 211.907H723.6C723.467 211.907 723.34 211.854 723.246 211.76C723.152 211.667 723.1 211.539 723.1 211.407C723.1 211.274 723.152 211.147 723.246 211.053C723.34 210.959 723.467 210.907 723.6 210.907H736.86C736.992 210.907 737.119 210.959 737.213 211.053C737.307 211.147 737.36 211.274 737.36 211.407C737.36 211.539 737.307 211.667 737.213 211.76C737.119 211.854 736.992 211.907 736.86 211.907Z" fill="#292A2E"/>
<path d="M632.773 202.887H621.512C621.379 202.887 621.252 202.834 621.158 202.74C621.064 202.647 621.012 202.519 621.012 202.387C621.012 202.254 621.064 202.127 621.158 202.033C621.252 201.939 621.379 201.887 621.512 201.887H632.773C632.905 201.887 633.032 201.939 633.126 202.033C633.22 202.127 633.273 202.254 633.273 202.387C633.273 202.519 633.22 202.647 633.126 202.74C633.032 202.834 632.905 202.887 632.773 202.887Z" fill="#571BB1"/>
<path d="M706.86 202.887H643.6C643.467 202.887 643.34 202.834 643.246 202.74C643.152 202.647 643.1 202.519 643.1 202.387C643.1 202.254 643.152 202.127 643.246 202.033C643.34 201.939 643.467 201.887 643.6 201.887H706.86C706.992 201.887 707.119 201.939 707.213 202.033C707.307 202.127 707.36 202.254 707.36 202.387C707.36 202.519 707.307 202.647 707.213 202.74C707.119 202.834 706.992 202.887 706.86 202.887Z" fill="#292A2E"/>
<path d="M760.163 202.887H718.9C718.767 202.887 718.64 202.834 718.546 202.74C718.452 202.647 718.4 202.519 718.4 202.387C718.4 202.254 718.452 202.127 718.546 202.033C718.64 201.939 718.767 201.887 718.9 201.887H760.161C760.293 201.887 760.42 201.939 760.514 202.033C760.608 202.127 760.661 202.254 760.661 202.387C760.661 202.519 760.608 202.647 760.514 202.74C760.42 202.834 760.293 202.887 760.161 202.887H760.163Z" fill="#0F9C75"/>
<path d="M682.773 220.927H621.512C621.379 220.927 621.252 220.874 621.158 220.78C621.064 220.687 621.012 220.559 621.012 220.427C621.012 220.294 621.064 220.167 621.158 220.073C621.252 219.979 621.379 219.927 621.512 219.927H682.773C682.905 219.927 683.032 219.979 683.126 220.073C683.22 220.167 683.273 220.294 683.273 220.427C683.273 220.559 683.22 220.687 683.126 220.78C683.032 220.874 682.905 220.927 682.773 220.927Z" fill="#0F9C75"/>
<path d="M716.86 220.927H693.6C693.467 220.927 693.34 220.874 693.246 220.78C693.152 220.687 693.1 220.559 693.1 220.427C693.1 220.294 693.152 220.167 693.246 220.073C693.34 219.979 693.467 219.927 693.6 219.927H716.86C716.992 219.927 717.119 219.979 717.213 220.073C717.307 220.167 717.36 220.294 717.36 220.427C717.36 220.559 717.307 220.687 717.213 220.78C717.119 220.874 716.992 220.927 716.86 220.927Z" fill="#292A2E"/>
<path d="M760.076 220.927H726.816C726.683 220.927 726.556 220.874 726.462 220.78C726.368 220.687 726.316 220.559 726.316 220.427C726.316 220.294 726.368 220.167 726.462 220.073C726.556 219.979 726.683 219.927 726.816 219.927H760.076C760.208 219.927 760.335 219.979 760.429 220.073C760.523 220.167 760.576 220.294 760.576 220.427C760.576 220.559 760.523 220.687 760.429 220.78C760.335 220.874 760.208 220.927 760.076 220.927Z" fill="#571BB1"/>
<path d="M589.381 230.579C589.248 230.579 589.121 230.526 589.027 230.432C588.934 230.339 588.881 230.212 588.881 230.079V87.9199C588.881 87.7873 588.934 87.6601 589.027 87.5664C589.121 87.4726 589.248 87.4199 589.381 87.4199C589.513 87.4199 589.641 87.4726 589.734 87.5664C589.828 87.6601 589.881 87.7873 589.881 87.9199V230.079C589.881 230.212 589.828 230.339 589.734 230.432C589.641 230.526 589.513 230.579 589.381 230.579Z" fill="#292A2E"/>
<path d="M756.838 78.417C761.268 78.417 764.86 74.8255 764.86 70.395C764.86 65.9646 761.268 62.373 756.838 62.373C752.407 62.373 748.816 65.9646 748.816 70.395C748.816 74.8255 752.407 78.417 756.838 78.417Z" fill="white"/>
<path d="M566.512 94.166H544.86C544.727 94.166 544.6 94.1133 544.506 94.0196C544.413 93.9258 544.36 93.7986 544.36 93.666C544.36 93.5334 544.413 93.4062 544.506 93.3125C544.6 93.2187 544.727 93.166 544.86 93.166H566.512C566.644 93.166 566.772 93.2187 566.865 93.3125C566.959 93.4062 567.012 93.5334 567.012 93.666C567.012 93.7986 566.959 93.9258 566.865 94.0196C566.772 94.1133 566.644 94.166 566.512 94.166Z" fill="#292A2E"/>
<path d="M559.989 104.028H544.86C544.727 104.028 544.6 103.975 544.506 103.881C544.413 103.788 544.36 103.66 544.36 103.528C544.36 103.395 544.413 103.268 544.506 103.174C544.6 103.081 544.727 103.028 544.86 103.028H559.989C560.122 103.028 560.249 103.081 560.342 103.174C560.436 103.268 560.489 103.395 560.489 103.528C560.489 103.66 560.436 103.788 560.342 103.881C560.249 103.975 560.122 104.028 559.989 104.028Z" fill="#292A2E"/>
<path d="M573.294 113.89H544.86C544.727 113.89 544.6 113.837 544.506 113.744C544.413 113.65 544.36 113.523 544.36 113.39C544.36 113.258 544.413 113.13 544.506 113.037C544.6 112.943 544.727 112.89 544.86 112.89H573.294C573.426 112.89 573.554 112.943 573.647 113.037C573.741 113.13 573.794 113.258 573.794 113.39C573.794 113.523 573.741 113.65 573.647 113.744C573.554 113.837 573.426 113.89 573.294 113.89Z" fill="#292A2E"/>
<path d="M578.6 123.752H554.86C554.727 123.752 554.6 123.699 554.506 123.606C554.413 123.512 554.36 123.385 554.36 123.252C554.36 123.119 554.413 122.992 554.506 122.898C554.6 122.805 554.727 122.752 554.86 122.752H578.6C578.732 122.752 578.86 122.805 578.953 122.898C579.047 122.992 579.1 123.119 579.1 123.252C579.1 123.385 579.047 123.512 578.953 123.606C578.86 123.699 578.732 123.752 578.6 123.752Z" fill="#292A2E"/>
<path d="M567.12 133.615H554.86C554.727 133.615 554.6 133.563 554.506 133.469C554.413 133.375 554.36 133.248 554.36 133.115C554.36 132.983 554.413 132.855 554.506 132.762C554.6 132.668 554.727 132.615 554.86 132.615H567.12C567.252 132.615 567.38 132.668 567.473 132.762C567.567 132.855 567.62 132.983 567.62 133.115C567.62 133.248 567.567 133.375 567.473 133.469C567.38 133.563 567.252 133.615 567.12 133.615Z" fill="#292A2E"/>
<path d="M576.512 143.477H554.86C554.727 143.477 554.6 143.424 554.506 143.331C554.413 143.237 554.36 143.11 554.36 142.977C554.36 142.844 554.413 142.717 554.506 142.623C554.6 142.53 554.727 142.477 554.86 142.477H576.512C576.645 142.477 576.772 142.53 576.865 142.623C576.959 142.717 577.012 142.844 577.012 142.977C577.012 143.11 576.959 143.237 576.865 143.331C576.772 143.424 576.645 143.477 576.512 143.477Z" fill="#292A2E"/>
<path d="M561.555 153.339H544.86C544.727 153.339 544.6 153.286 544.506 153.192C544.413 153.099 544.36 152.971 544.36 152.839C544.36 152.706 544.413 152.579 544.506 152.485C544.6 152.392 544.727 152.339 544.86 152.339H561.555C561.687 152.339 561.815 152.392 561.908 152.485C562.002 152.579 562.055 152.706 562.055 152.839C562.055 152.971 562.002 153.099 561.908 153.192C561.815 153.286 561.687 153.339 561.555 153.339Z" fill="#292A2E"/>
<path d="M555.816 163.2H544.86C544.727 163.2 544.6 163.148 544.506 163.054C544.413 162.96 544.36 162.833 544.36 162.7C544.36 162.568 544.413 162.44 544.506 162.347C544.6 162.253 544.727 162.2 544.86 162.2H555.816C555.948 162.2 556.076 162.253 556.169 162.347C556.263 162.44 556.316 162.568 556.316 162.7C556.316 162.833 556.263 162.96 556.169 163.054C556.076 163.148 555.948 163.2 555.816 163.2Z" fill="#292A2E"/>
<path d="M597.711 92.0499V92.2299L603.961 94.5499C604.05 94.5863 604.126 94.6486 604.18 94.7289C604.233 94.8091 604.261 94.9035 604.261 94.9999V95.1699C604.262 95.245 604.245 95.3193 604.21 95.3858C604.175 95.4522 604.124 95.5087 604.061 95.5499C603.997 95.5946 603.924 95.6226 603.847 95.6313C603.77 95.6401 603.692 95.6293 603.62 95.5999L596.561 92.8399C596.473 92.8047 596.397 92.744 596.344 92.6657C596.29 92.5873 596.261 92.4948 596.261 92.3999V91.8899C596.26 91.7947 596.288 91.7016 596.342 91.6229C596.396 91.5443 596.472 91.4839 596.561 91.4499L603.62 88.6799C603.678 88.6602 603.739 88.6501 603.8 88.6499C603.892 88.6518 603.983 88.6795 604.061 88.7299C604.124 88.7732 604.175 88.8315 604.21 88.8996C604.245 88.9677 604.262 89.0434 604.261 89.1199V89.2899C604.263 89.3854 604.235 89.4791 604.181 89.558C604.128 89.6369 604.05 89.697 603.961 89.7299L597.711 92.0499Z" fill="#571BB1"/>
<path d="M610.1 86.6398L606.36 98.0898C606.329 98.1853 606.269 98.2687 606.189 98.328C606.108 98.3873 606.01 98.4194 605.91 98.4198C605.837 98.4209 605.766 98.4042 605.701 98.371C605.637 98.3379 605.581 98.2894 605.54 98.2298C605.495 98.1707 605.465 98.102 605.451 98.0291C605.437 97.9562 605.441 97.8811 605.461 97.8098L609.2 86.3698C609.232 86.2724 609.293 86.1874 609.376 86.1264C609.458 86.0655 609.557 86.0317 609.66 86.0298C609.732 86.0295 609.804 86.0466 609.868 86.0797C609.932 86.1128 609.988 86.1608 610.03 86.2198C610.075 86.2789 610.104 86.348 610.117 86.4212C610.129 86.4943 610.123 86.5693 610.1 86.6398Z" fill="#571BB1"/>
<path d="M619.284 91.8899V92.3999C619.285 92.4939 619.258 92.5861 619.207 92.6646C619.155 92.7431 619.081 92.8042 618.994 92.8399L611.924 95.5999C611.854 95.629 611.778 95.6396 611.702 95.6309C611.627 95.6221 611.555 95.5943 611.494 95.5499C611.43 95.5092 611.377 95.4531 611.34 95.3867C611.304 95.3203 611.284 95.2458 611.284 95.1699V94.9999C611.283 94.9022 611.312 94.8065 611.368 94.726C611.423 94.6455 611.502 94.584 611.594 94.5499L617.844 92.2299V92.0499L611.594 89.7299C611.502 89.6994 611.422 89.6402 611.366 89.561C611.311 89.4818 611.282 89.3868 611.284 89.2899V89.1199C611.284 89.0427 611.303 88.9667 611.34 88.8987C611.377 88.8307 611.43 88.7727 611.494 88.7299C611.571 88.6798 611.661 88.6521 611.754 88.6499C611.812 88.6493 611.87 88.6595 611.924 88.6799L618.994 91.4499C619.082 91.4846 619.156 91.5454 619.208 91.6242C619.26 91.7029 619.287 91.7957 619.284 91.8899Z" fill="#571BB1"/>
<path d="M477.9 0H125.675V352.225H477.9V0Z" fill="#F4F4F4"/>
<path d="M125.675 0H121.638V352.225H125.675V0Z" fill="#F4F4F4"/>
<path opacity="0.05" d="M125.675 0H121.638V352.225H125.675V0Z" fill="#292A2E"/>
<path opacity="0.05" d="M211.003 242.712V150.558H286.491V204.098H403.421V298.895H453.118V352.225H403.421H393.847H142.619V242.712H211.003Z" fill="#292A2E"/>
<path opacity="0.34" d="M276.801 160.564H221.83V170.57H276.801V160.564Z" fill="#FFFFFA"/>
<path opacity="0.34" d="M276.801 181.298H221.83V191.304H276.801V181.298Z" fill="#FFFFFA"/>
<path opacity="0.34" d="M276.801 202.032H221.83V212.038H276.801V202.032Z" fill="#FFFFFA"/>
<path opacity="0.34" d="M162.498 252.424H152.366V262.43H162.498V252.424Z" fill="#FFFFFA"/>
<path opacity="0.34" d="M162.498 273.158H152.366V283.164H162.498V273.158Z" fill="#FFFFFA"/>
<path opacity="0.34" d="M162.498 293.893H152.366V303.899H162.498V293.893Z" fill="#FFFFFA"/>
<path opacity="0.34" d="M181.242 252.424H171.11V262.43H181.242V252.424Z" fill="#FFFFFA"/>
<path opacity="0.34" d="M181.242 273.158H171.11V283.164H181.242V273.158Z" fill="#FFFFFA"/>
<path opacity="0.34" d="M181.242 293.893H171.11V303.899H181.242V293.893Z" fill="#FFFFFA"/>
<path opacity="0.34" d="M199.48 252.424H189.348V262.43H199.48V252.424Z" fill="#FFFFFA"/>
<path opacity="0.34" d="M199.48 273.158H189.348V283.164H199.48V273.158Z" fill="#FFFFFA"/>
<path opacity="0.34" d="M199.48 293.893H189.348V303.899H199.48V293.893Z" fill="#FFFFFA"/>
<path d="M125.675 174.137H196.549V0H202.41V174.137H393.847V0H399.708V174.137H477.9V179.998H399.708V352.225H393.847V179.998H202.41V352.225H196.549V179.998H125.675V174.137Z" fill="white"/>
<path d="M491.932 351.8H111.644V363.514H491.932V351.8Z" fill="#F4F4F4"/>
<path opacity="0.1" d="M491.932 351.8H111.644V363.514H491.932V351.8Z" fill="#292A2E"/>
<path opacity="0.1" d="M111.644 351.8H106.153V363.514H111.644V351.8Z" fill="#292A2E"/>
<path opacity="0.1" d="M111.644 351.8H106.153V363.514H111.644V351.8Z" fill="#292A2E"/>
<path d="M121.638 14.9961L477.9 14.9961V6.28709L121.638 6.28709V14.9961Z" fill="white"/>
<path d="M121.638 31.2642L477.9 31.2642V22.5552L121.638 22.5552V31.2642Z" fill="white"/>
<path d="M121.638 47.5312L477.9 47.5312V38.8223L121.638 38.8223V47.5312Z" fill="white"/>
<path d="M121.638 63.7983L477.9 63.7983V55.0893L121.638 55.0893V63.7983Z" fill="white"/>
<path d="M121.638 80.064L477.9 80.064V71.355L121.638 71.355V80.064Z" fill="white"/>
<path d="M159.477 89.8872H164.816V0.000205994H159.477V89.8872Z" fill="white"/>
<path d="M161.694 102.796C165.745 102.796 169.029 99.512 169.029 95.461C169.029 91.41 165.745 88.126 161.694 88.126C157.643 88.126 154.359 91.41 154.359 95.461C154.359 99.512 157.643 102.796 161.694 102.796Z" fill="white"/>
<path d="M124.748 841.816L122.784 841.438L153.48 536.407L155.444 536.785L124.748 841.816Z" fill="#494949"/>
<path d="M239.046 841.816L237.082 841.438L267.777 536.407L269.741 536.785L239.046 841.816Z" fill="#494949"/>
<path d="M491.694 841.816L493.658 841.438L462.962 536.407L460.998 536.785L491.694 841.816Z" fill="#494949"/>
<path d="M377.396 841.816L379.36 841.438L348.665 536.407L346.701 536.785L377.396 841.816Z" fill="#494949"/>
<path d="M336.689 402.163L334.706 402.427L352.638 536.731L354.621 536.467L336.689 402.163Z" fill="#494949"/>
<path d="M130.864 402.161L128.882 402.425L146.814 536.729L148.796 536.465L130.864 402.161Z" fill="#494949"/>
<path d="M354.448 526.761H153.128C147.696 526.761 143.293 531.165 143.293 536.596V536.597C143.293 542.029 147.696 546.432 153.128 546.432H354.448C359.879 546.432 364.283 542.029 364.283 536.597V536.596C364.283 531.165 359.879 526.761 354.448 526.761Z" fill="#292A2E"/>
<path opacity="0.8" d="M354.448 526.761H153.128C147.696 526.761 143.293 531.165 143.293 536.596V536.597C143.293 542.029 147.696 546.432 153.128 546.432H354.448C359.879 546.432 364.283 542.029 364.283 536.597V536.596C364.283 531.165 359.879 526.761 354.448 526.761Z" fill="white"/>
<path d="M354.448 547.431H153.129C151.706 547.431 150.297 547.151 148.982 546.607C147.668 546.062 146.473 545.264 145.467 544.258C144.461 543.252 143.663 542.057 143.118 540.743C142.574 539.428 142.294 538.019 142.294 536.596C142.294 535.173 142.574 533.764 143.118 532.45C143.663 531.135 144.461 529.941 145.467 528.935C146.473 527.929 147.668 527.131 148.982 526.586C150.297 526.041 151.706 525.761 153.129 525.761H354.448C355.871 525.761 357.279 526.041 358.594 526.586C359.909 527.131 361.103 527.929 362.109 528.935C363.115 529.941 363.913 531.135 364.458 532.45C365.002 533.764 365.283 535.173 365.283 536.596C365.283 538.019 365.002 539.428 364.458 540.743C363.913 542.057 363.115 543.252 362.109 544.258C361.103 545.264 359.909 546.062 358.594 546.607C357.279 547.151 355.871 547.431 354.448 547.431ZM153.129 527.761C151.968 527.761 150.82 527.99 149.748 528.434C148.676 528.878 147.702 529.529 146.881 530.349C146.061 531.169 145.41 532.143 144.966 533.215C144.522 534.287 144.294 535.436 144.294 536.596C144.294 537.756 144.522 538.905 144.966 539.977C145.41 541.049 146.061 542.023 146.881 542.844C147.702 543.664 148.676 544.315 149.748 544.759C150.82 545.203 151.968 545.431 153.129 545.431H354.448C355.608 545.431 356.757 545.203 357.829 544.759C358.901 544.315 359.875 543.664 360.695 542.844C361.515 542.023 362.166 541.049 362.61 539.977C363.054 538.905 363.283 537.756 363.283 536.596C363.283 535.436 363.054 534.287 362.61 533.215C362.166 532.143 361.515 531.169 360.695 530.349C359.875 529.529 358.901 528.878 357.829 528.434C356.757 527.99 355.608 527.761 354.448 527.761H153.129Z" fill="#292A2E"/>
<path d="M464.944 526.761H263.624C258.192 526.761 253.789 531.165 253.789 536.596V536.597C253.789 542.029 258.192 546.432 263.624 546.432H464.944C470.375 546.432 474.779 542.029 474.779 536.597V536.596C474.779 531.165 470.375 526.761 464.944 526.761Z" fill="white"/>
<path d="M464.944 547.431H263.624C262.201 547.431 260.792 547.151 259.477 546.607C258.163 546.062 256.968 545.264 255.962 544.258C254.956 543.252 254.158 542.057 253.613 540.743C253.069 539.428 252.789 538.019 252.789 536.596C252.789 535.173 253.069 533.764 253.613 532.45C254.158 531.135 254.956 529.941 255.962 528.935C256.968 527.929 258.163 527.131 259.477 526.586C260.792 526.041 262.201 525.761 263.624 525.761H464.944C466.366 525.761 467.775 526.041 469.09 526.586C470.404 527.131 471.599 527.929 472.605 528.935C473.611 529.941 474.409 531.135 474.954 532.45C475.498 533.764 475.779 535.173 475.779 536.596C475.779 538.019 475.498 539.428 474.954 540.743C474.409 542.057 473.611 543.252 472.605 544.258C471.599 545.264 470.404 546.062 469.09 546.607C467.775 547.151 466.366 547.431 464.944 547.431ZM263.624 527.761C262.463 527.761 261.314 527.99 260.243 528.434C259.171 528.878 258.197 529.529 257.376 530.349C256.556 531.169 255.905 532.143 255.461 533.215C255.017 534.287 254.789 535.436 254.789 536.596C254.789 537.756 255.017 538.905 255.461 539.977C255.905 541.049 256.556 542.023 257.376 542.844C258.197 543.664 259.171 544.315 260.243 544.759C261.314 545.203 262.463 545.431 263.624 545.431H464.944C466.104 545.431 467.253 545.203 468.325 544.759C469.396 544.315 470.37 543.664 471.191 542.844C472.011 542.023 472.662 541.049 473.106 539.977C473.55 538.905 473.779 537.756 473.779 536.596C473.779 535.436 473.55 534.287 473.106 533.215C472.662 532.143 472.011 531.169 471.191 530.349C470.37 529.529 469.396 528.878 468.325 528.434C467.253 527.99 466.104 527.761 464.944 527.761H263.624Z" fill="#292A2E"/>
<path d="M325.66 402.292H130.413C127.22 402.292 124.137 401.13 121.739 399.024C119.34 396.917 117.79 394.01 117.378 390.844L104.463 291.665C104.221 289.811 104.378 287.927 104.923 286.138C105.468 284.35 106.388 282.698 107.622 281.293C108.855 279.889 110.375 278.763 112.078 277.992C113.782 277.222 115.63 276.823 117.5 276.823H312.745C315.937 276.823 319.02 277.985 321.418 280.091C323.817 282.198 325.367 285.105 325.78 288.27L338.694 387.45C338.935 389.304 338.778 391.188 338.234 392.977C337.689 394.765 336.77 396.417 335.536 397.821C334.302 399.226 332.783 400.352 331.08 401.123C329.377 401.893 327.529 402.292 325.66 402.292Z" fill="#292A2E"/>
<path opacity="0.8" d="M325.66 402.292H130.413C127.22 402.292 124.137 401.13 121.739 399.024C119.34 396.917 117.79 394.01 117.378 390.844L104.463 291.665C104.221 289.811 104.378 287.927 104.923 286.138C105.468 284.35 106.388 282.698 107.622 281.293C108.855 279.889 110.375 278.763 112.078 277.992C113.782 277.222 115.63 276.823 117.5 276.823H312.745C315.937 276.823 319.02 277.985 321.418 280.091C323.817 282.198 325.367 285.105 325.78 288.27L338.694 387.45C338.935 389.304 338.778 391.188 338.234 392.977C337.689 394.765 336.77 396.417 335.536 397.821C334.302 399.226 332.783 400.352 331.08 401.123C329.377 401.893 327.529 402.292 325.66 402.292Z" fill="white"/>
<path d="M325.66 403.292H130.413C126.98 403.284 123.666 402.032 121.086 399.766C118.507 397.501 116.837 394.377 116.386 390.973L103.472 291.794C103.212 289.799 103.38 287.771 103.966 285.847C104.552 283.922 105.542 282.144 106.87 280.633C108.198 279.121 109.833 277.91 111.666 277.08C113.499 276.251 115.488 275.822 117.5 275.822H312.745C316.178 275.83 319.491 277.083 322.071 279.348C324.65 281.614 326.32 284.738 326.771 288.141L339.686 387.321C339.946 389.316 339.777 391.344 339.191 393.268C338.605 395.193 337.615 396.97 336.288 398.482C334.96 399.993 333.325 401.204 331.493 402.034C329.66 402.863 327.671 403.292 325.66 403.292ZM117.5 277.822C115.772 277.822 114.065 278.191 112.491 278.903C110.918 279.615 109.514 280.655 108.375 281.953C107.235 283.251 106.385 284.777 105.882 286.429C105.379 288.082 105.234 289.822 105.457 291.535L118.372 390.715C118.759 393.637 120.192 396.32 122.407 398.265C124.622 400.21 127.467 401.286 130.415 401.292H325.66C327.387 401.292 329.094 400.923 330.667 400.21C332.24 399.498 333.643 398.458 334.783 397.16C335.922 395.863 336.772 394.337 337.275 392.684C337.778 391.032 337.923 389.292 337.7 387.579L324.788 288.4C324.401 285.478 322.967 282.796 320.752 280.851C318.537 278.906 315.692 277.83 312.745 277.823L117.5 277.822Z" fill="#292A2E"/>
<path d="M336.7 402.292H141.453C138.26 402.292 135.177 401.13 132.779 399.024C130.381 396.917 128.831 394.01 128.419 390.844L115.5 291.665C115.258 289.811 115.415 287.927 115.96 286.139C116.504 284.35 117.424 282.699 118.658 281.294C119.892 279.889 121.411 278.764 123.114 277.993C124.817 277.222 126.665 276.823 128.535 276.823H323.786C326.978 276.823 330.061 277.985 332.459 280.091C334.858 282.198 336.408 285.105 336.82 288.27L349.735 387.45C349.976 389.304 349.819 391.188 349.274 392.977C348.73 394.765 347.81 396.417 346.576 397.821C345.343 399.226 343.824 400.352 342.12 401.122C340.417 401.893 338.569 402.292 336.7 402.292Z" fill="white"/>
<path d="M336.7 403.292H141.453C138.02 403.284 134.706 402.032 132.127 399.766C129.547 397.501 127.877 394.377 127.427 390.973L114.512 291.794C114.252 289.799 114.421 287.772 115.007 285.847C115.593 283.923 116.583 282.145 117.91 280.634C119.238 279.122 120.873 277.911 122.705 277.081C124.538 276.252 126.527 275.822 128.539 275.822H323.785C327.218 275.83 330.531 277.083 333.111 279.348C335.69 281.614 337.361 284.738 337.812 288.141L350.727 387.321C350.986 389.316 350.817 391.344 350.231 393.268C349.645 395.192 348.655 396.97 347.328 398.481C346 399.993 344.365 401.204 342.533 402.033C340.7 402.863 338.711 403.292 336.7 403.292ZM128.539 277.822C126.812 277.823 125.105 278.192 123.532 278.905C121.959 279.617 120.556 280.657 119.416 281.955C118.277 283.253 117.427 284.779 116.924 286.431C116.422 288.083 116.277 289.824 116.5 291.536L129.41 390.715C129.797 393.637 131.231 396.32 133.446 398.265C135.66 400.21 138.505 401.285 141.453 401.292H336.7C338.427 401.292 340.134 400.924 341.708 400.211C343.281 399.499 344.685 398.459 345.825 397.161C346.965 395.864 347.814 394.338 348.318 392.685C348.821 391.033 348.966 389.292 348.743 387.579L335.828 288.4C335.441 285.478 334.007 282.796 331.792 280.85C329.577 278.905 326.732 277.83 323.785 277.823L128.539 277.822Z" fill="#292A2E"/>
<path d="M488.471 424.937L486.481 425.138L528.638 842.487L530.628 842.286L488.471 424.937Z" fill="#494949"/>
<path d="M315.659 124.563C315.659 124.563 328.633 114.77 331.848 92.2284C334.337 74.7754 318.237 86.0824 318.237 86.0824C318.237 86.0824 319.907 73.4974 310.737 74.7464C301.567 75.9954 296.437 89.2154 296.437 89.2154" fill="#0C0C0C"/>
<path d="M263.348 76.2192C263.348 76.2192 217.853 81.1002 234.3 142.744L238.326 143.014L246.498 143.562" fill="#0C0C0C"/>
<path d="M308.039 207.126C307.839 207.1 305.619 243.926 262.833 240.719C233.213 238.5 222.652 207.074 221.973 207.074C225.167 206.396 229.113 205.365 230.682 205.012C234.1 204.218 237.195 202.403 239.557 199.807C241.918 197.211 243.433 193.958 243.9 190.48C244.767 185.26 243.3 158.552 243.749 153.27L289.216 163.418C288.581 174.574 284.134 200.435 299.716 205.012C302.313 205.769 305.106 206.465 308.039 207.126Z" fill="#E98862"/>
<path opacity="0.52" d="M289.855 194.443C289.143 192.148 288.684 189.782 288.487 187.386C287.988 181.921 288.088 176.417 288.787 170.973C279.545 169.726 270.839 165.912 263.658 159.964C262.814 163.082 258.171 176.706 259.458 179.669C261.883 185.271 273.3 194.443 289.855 194.443Z" fill="#0C0C0C"/>
<path d="M280.471 187.154C262.533 185.545 241.064 174.212 240.755 149.863L240.475 127.893C240.166 103.545 252.703 83.6443 275.629 83.3523C298.554 83.0613 315.941 102.581 316.25 126.93L316.374 136.656C316.358 139.997 316.114 143.332 315.645 146.639C314.469 155.389 312.645 168.692 306.708 177.691C301.1 186.187 291.93 188.181 280.471 187.154Z" fill="#E98862"/>
<path d="M288.793 164.9C292.494 165.068 296.184 164.364 299.563 162.843C299.633 162.814 299.696 162.77 299.749 162.716C299.802 162.662 299.844 162.598 299.872 162.527C299.901 162.457 299.915 162.381 299.914 162.305C299.913 162.229 299.898 162.154 299.868 162.084C299.838 162.015 299.795 161.951 299.74 161.898C299.686 161.845 299.622 161.803 299.551 161.775C299.481 161.746 299.406 161.732 299.33 161.733C299.254 161.734 299.179 161.75 299.109 161.779C291.829 164.884 285.218 164.429 279.992 160.464C279.886 160.381 279.777 160.303 279.663 160.231C279.531 160.171 279.382 160.161 279.244 160.205C279.106 160.249 278.99 160.343 278.917 160.468C278.845 160.594 278.823 160.742 278.854 160.883C278.886 161.024 278.969 161.148 279.088 161.231C279.13 161.257 279.197 161.31 279.288 161.383C282.035 163.476 285.345 164.7 288.793 164.9Z" fill="#0C0C0C"/>
<path d="M288.62 170.383C289.288 170.424 289.959 170.408 290.626 170.335C290.778 170.319 290.918 170.243 291.014 170.124C291.111 170.004 291.156 169.852 291.14 169.699C291.123 169.547 291.047 169.407 290.928 169.311C290.809 169.214 290.656 169.169 290.504 169.185C286.497 169.611 284.585 167.775 284.504 167.696C284.395 167.588 284.248 167.527 284.095 167.526C283.941 167.526 283.794 167.587 283.686 167.695C283.577 167.804 283.516 167.951 283.516 168.104C283.515 168.257 283.576 168.405 283.685 168.513C285.064 169.688 286.808 170.349 288.62 170.383Z" fill="#0C0C0C"/>
<path d="M308.679 141.338C310.238 141.338 311.503 140.074 311.503 138.514C311.503 136.954 310.238 135.69 308.679 135.69C307.119 135.69 305.855 136.954 305.855 138.514C305.855 140.074 307.119 141.338 308.679 141.338Z" fill="#0C0C0C"/>
<path d="M281.091 139.607C282.65 139.607 283.915 138.343 283.915 136.783C283.915 135.223 282.65 133.959 281.091 133.959C279.531 133.959 278.267 135.223 278.267 136.783C278.267 138.343 279.531 139.607 281.091 139.607Z" fill="#0C0C0C"/>
<path d="M242.273 157.263C235.306 157.352 229.564 149.97 229.473 143.003C229.382 136.036 234.983 132.122 241.95 132.034L245.599 136.656L248.261 157.187L242.273 157.263Z" fill="#E98862"/>
<path d="M249.2 146.068C249.2 146.068 251.553 111.615 262 109.487C268.958 108.07 285.831 117.94 301.459 114.959C308.297 113.659 314.788 115.347 315.448 118.577C315.709 119.856 319.969 101.477 309.262 87.5331C300.737 76.4281 272.839 73.2931 260.147 76.9331C225.004 87.0151 240.512 133.55 240.512 133.55L242.079 145.428L249.2 146.068Z" fill="#0C0C0C"/>
<path d="M293 156.767H293.045C295.29 156.744 299.053 156.456 299.038 154.776C299.023 153.384 295.063 138.401 294.61 136.697C294.566 136.556 294.47 136.436 294.341 136.365C294.211 136.293 294.059 136.274 293.916 136.312C293.773 136.35 293.65 136.441 293.574 136.568C293.497 136.694 293.472 136.846 293.505 136.99C295.264 143.626 297.884 153.842 297.895 154.79C297.678 155.19 295.359 155.602 293.034 155.626C292.887 155.629 292.747 155.689 292.643 155.792C292.539 155.895 292.478 156.034 292.474 156.181C292.47 156.328 292.522 156.47 292.62 156.579C292.717 156.689 292.854 156.756 293 156.768V156.767Z" fill="#0C0C0C"/>
<path d="M300.664 123.2C303.023 122.551 305.514 122.551 307.874 123.2C309.033 123.511 310.138 123.996 311.154 124.636C312.157 125.263 313.077 126.014 313.893 126.872C314.049 127.023 314.14 127.23 314.145 127.447C314.151 127.665 314.072 127.876 313.924 128.035C313.776 128.195 313.572 128.29 313.354 128.301C313.137 128.311 312.924 128.236 312.762 128.092L312.711 128.048C311.955 127.349 311.116 126.748 310.211 126.259C309.323 125.773 308.366 125.423 307.374 125.223C305.42 124.813 303.392 124.927 301.497 125.552L301.417 125.58C301.104 125.691 300.76 125.672 300.46 125.529C300.161 125.386 299.931 125.13 299.82 124.817C299.709 124.505 299.728 124.161 299.871 123.861C300.014 123.562 300.27 123.332 300.583 123.221L300.664 123.2Z" fill="#0C0C0C"/>
<path d="M283.956 124.619C282.16 123.746 280.167 123.364 278.176 123.51C277.165 123.576 276.171 123.794 275.226 124.158C274.265 124.523 273.354 125.007 272.514 125.598L272.46 125.634C272.279 125.75 272.061 125.791 271.851 125.75C271.641 125.709 271.454 125.589 271.331 125.414C271.207 125.239 271.155 125.024 271.186 124.812C271.217 124.6 271.329 124.408 271.498 124.276C272.42 123.534 273.433 122.912 274.511 122.424C275.603 121.925 276.763 121.593 277.953 121.438C280.378 121.107 282.847 121.438 285.1 122.396C285.405 122.529 285.645 122.777 285.767 123.086C285.888 123.396 285.882 123.741 285.75 124.046C285.617 124.351 285.369 124.591 285.059 124.713C284.75 124.835 284.405 124.829 284.1 124.696L284.031 124.663L283.956 124.619Z" fill="#0C0C0C"/>
<path d="M297.305 99.4844C302.462 98.407 305.357 91.3805 303.771 83.7903C302.186 76.2001 296.72 70.9205 291.563 71.9979C286.406 73.0753 283.511 80.1018 285.097 87.692C286.683 95.2822 292.149 100.562 297.305 99.4844Z" fill="#0C0C0C"/>
<path d="M584.921 789.739C584.921 789.739 590.283 817.532 616.305 819.081C642.327 820.63 636.685 841.361 636.685 841.361H537.241V791.677L584.921 789.739Z" fill="#571BB1"/>
<path d="M395.733 772.191C395.733 772.191 388.276 799.497 410.943 812.373C433.61 825.249 419.395 841.361 419.395 841.361L330.163 797.461L352.094 752.879L395.733 772.191Z" fill="#571BB1"/>
<path d="M340.466 764.478L415.715 527.088H279.315C251.915 527.088 240.493 503.853 240.493 476.455C240.493 449.057 267.429 425.039 294.827 425.039H478.917C495.628 425.039 514.366 435.259 523.538 449.229C532.71 463.199 530.23 484.846 523.585 500.18L403.085 792.846" fill="#262626"/>
<path opacity="0.8" d="M340.466 764.478L415.715 527.088H279.315C251.915 527.088 240.493 503.853 240.493 476.455C240.493 449.057 267.429 425.039 294.827 425.039H478.917C495.628 425.039 514.366 435.259 523.538 449.229C532.71 463.199 530.23 484.846 523.585 500.18L403.085 792.846" fill="#0A0A0A"/>
<path d="M531.522 815.55L405.7 527.088L240.491 527.077C201.78 524.042 184.051 502.827 184.615 475.435C185.171 448.39 198.865 421.677 225.788 421.677H448.46C468.38 422.086 484.052 444.1 491.442 462.602L596.042 797.89" fill="#262626"/>
<path d="M173.347 422.008C173.347 422.008 166.01 469.854 177.64 496.455C192.159 529.665 246.587 527.077 246.587 527.077L243.52 421.677L173.347 422.008Z" fill="#262626"/>
<path d="M496.176 421.067L379.476 396.885C374.613 395.877 370.083 393.659 366.305 390.437C362.526 387.214 359.622 383.09 357.86 378.447L311.96 257.494C310.562 253.864 309.895 249.994 309.998 246.105C310.101 242.217 310.97 238.387 312.558 234.836C314.145 231.284 316.418 228.082 319.246 225.412C322.075 222.741 325.403 220.656 329.04 219.276C332.676 217.896 336.55 217.248 340.438 217.369C344.326 217.491 348.151 218.379 351.695 219.983C355.238 221.587 358.43 223.876 361.087 226.717C363.743 229.559 365.812 232.897 367.175 236.54L407.327 342.34L508.162 363.234C508.162 363.234 498.2 421.486 496.176 421.067Z" fill="#571BB1"/>
<path d="M361.2 288.209C359.853 304.042 350.3 402.819 349 422.321H173.424C172.415 404.732 169.14 330.055 165.314 295.66C161.663 262.838 160.338 244.108 164.544 233.909C171.962 215.919 190.525 209.446 206.515 207.281C216.278 205.96 230.963 205.012 230.963 205.012C230.963 205.012 232.207 230.165 261.855 231.565C302.214 233.465 299.519 205.012 299.719 205.012C306.257 205.012 341.847 209.767 350.746 215.567C363.316 223.76 367.03 234.924 367.177 245.181C367.346 256.992 362.728 270.253 361.2 288.209Z" fill="#571BB1"/>
<path d="M354.3 368.921H354.258C354.192 368.916 354.129 368.898 354.07 368.868C354.012 368.837 353.96 368.796 353.917 368.746C353.875 368.696 353.843 368.638 353.823 368.575C353.803 368.513 353.795 368.447 353.801 368.381L358.359 313.627C358.363 313.561 358.38 313.497 358.409 313.438C358.438 313.378 358.48 313.326 358.53 313.283C358.581 313.24 358.639 313.208 358.702 313.189C358.766 313.169 358.832 313.163 358.898 313.17C358.963 313.176 359.027 313.194 359.085 313.224C359.144 313.254 359.196 313.295 359.238 313.346C359.281 313.396 359.313 313.454 359.333 313.516C359.353 313.579 359.36 313.645 359.355 313.71L354.797 368.464C354.786 368.589 354.729 368.705 354.637 368.789C354.545 368.874 354.425 368.921 354.3 368.921Z" fill="#0C0C0C"/>
<path d="M437.919 401.783L476.443 283.359C477.12 281.278 478.438 279.465 480.209 278.179C481.979 276.893 484.111 276.2 486.3 276.2H653.252C654.888 276.2 656.501 276.587 657.959 277.33C659.416 278.073 660.678 279.15 661.639 280.474C662.6 281.798 663.235 283.331 663.49 284.947C663.746 286.563 663.615 288.216 663.109 289.772L614.585 408.2C613.908 410.281 612.59 412.094 610.819 413.38C609.048 414.666 606.916 415.359 604.728 415.359H447.776C446.139 415.359 444.526 414.972 443.068 414.229C441.61 413.486 440.348 412.408 439.387 411.084C438.425 409.76 437.791 408.226 437.536 406.61C437.281 404.993 437.412 403.339 437.919 401.783Z" fill="#292A2E"/>
<path d="M437.919 401.783L476.443 283.359C477.12 281.278 478.438 279.465 480.209 278.179C481.979 276.893 484.111 276.2 486.3 276.2H653.252C654.888 276.2 656.501 276.587 657.959 277.33C659.416 278.073 660.678 279.15 661.639 280.474C662.6 281.798 663.235 283.331 663.49 284.947C663.746 286.563 663.615 288.216 663.109 289.772L614.585 408.2C613.908 410.281 612.59 412.094 610.819 413.38C609.048 414.666 606.916 415.359 604.728 415.359H447.776C446.139 415.359 444.526 414.972 443.068 414.229C441.61 413.486 440.348 412.408 439.387 411.084C438.425 409.76 437.791 408.226 437.536 406.61C437.281 404.993 437.412 403.339 437.919 401.783Z" fill="#292A2E"/>
<path d="M469.345 405.752H364.281C361.663 405.752 359.541 407.874 359.541 410.492V410.614C359.541 413.232 361.663 415.354 364.281 415.354H469.345C471.963 415.354 474.085 413.232 474.085 410.614V410.492C474.085 407.874 471.963 405.752 469.345 405.752Z" fill="#292A2E"/>
<path d="M469.345 405.752H364.281C361.663 405.752 359.541 407.874 359.541 410.492V410.614C359.541 413.232 361.663 415.354 364.281 415.354H469.345C471.963 415.354 474.085 413.232 474.085 410.614V410.492C474.085 407.874 471.963 405.752 469.345 405.752Z" fill="#292A2E"/>
<path d="M545.514 368.016C554.605 368.016 561.975 360.646 561.975 351.555C561.975 342.464 554.605 335.094 545.514 335.094C536.423 335.094 529.053 342.464 529.053 351.555C529.053 360.646 536.423 368.016 545.514 368.016Z" fill="white"/>
<path d="M429.137 374.042L402.916 364.851L406.68 364.591C407.893 364.483 409.021 363.918 409.834 363.011C410.647 362.104 411.085 360.921 411.06 359.703C411.025 359.075 410.862 358.461 410.582 357.897C410.302 357.334 409.91 356.834 409.43 356.427C408.951 356.02 408.393 355.716 407.791 355.531C407.19 355.347 406.557 355.288 405.932 355.356L359.541 360.286L360.741 375.194C361.115 379.824 362.864 384.237 365.763 387.867C368.661 391.497 372.578 394.179 377.011 395.568L397.101 401.826C398.138 402.172 399.263 402.148 400.285 401.759C401.308 401.371 402.164 400.641 402.71 399.693C403.184 398.827 403.369 397.832 403.238 396.853C403.107 395.874 402.667 394.963 401.982 394.252C402.026 394.221 402.064 394.18 402.092 394.134C402.12 394.087 402.139 394.036 402.146 393.982C402.154 393.928 402.151 393.873 402.136 393.82C402.122 393.768 402.097 393.719 402.063 393.676L405.763 394.837C406.918 395.225 408.177 395.16 409.285 394.655C410.394 394.15 411.269 393.243 411.735 392.117C412.115 391.096 412.123 389.974 411.758 388.947C411.392 387.921 410.675 387.056 409.735 386.506C409.778 386.483 409.817 386.452 409.849 386.414L411.371 386.891C412.408 387.237 413.534 387.213 414.556 386.824C415.578 386.435 416.434 385.705 416.98 384.757C417.555 383.707 417.701 382.475 417.388 381.319C417.075 380.163 416.326 379.173 415.3 378.557C415.308 378.527 415.313 378.495 415.314 378.463L426.234 382.29C426.777 382.487 427.353 382.573 427.93 382.546C428.506 382.518 429.072 382.376 429.593 382.129C430.115 381.881 430.582 381.532 430.968 381.103C431.354 380.674 431.651 380.172 431.842 379.627C432.033 379.083 432.114 378.505 432.081 377.929C432.047 377.352 431.9 376.788 431.647 376.269C431.394 375.75 431.041 375.287 430.607 374.905C430.174 374.524 429.67 374.232 429.123 374.046L429.137 374.042Z" fill="#E98862"/>
<path opacity="0.2" d="M414.9 378.886C414.849 378.886 414.799 378.877 414.751 378.86L404.189 375.019C404.08 374.979 403.992 374.898 403.943 374.793C403.895 374.688 403.89 374.568 403.93 374.46C403.969 374.351 404.051 374.263 404.156 374.215C404.26 374.166 404.38 374.161 404.489 374.201L415.052 378.042C415.148 378.077 415.229 378.145 415.28 378.233C415.331 378.322 415.35 378.426 415.332 378.527C415.314 378.627 415.261 378.719 415.183 378.785C415.104 378.85 415.005 378.886 414.903 378.886H414.9Z" fill="#0A0A0A"/>
<path opacity="0.2" d="M409.559 386.565C409.509 386.565 409.46 386.557 409.413 386.54L401.088 383.586C401.033 383.568 400.982 383.539 400.938 383.501C400.894 383.463 400.859 383.417 400.833 383.365C400.807 383.313 400.792 383.256 400.789 383.198C400.786 383.14 400.794 383.082 400.813 383.028C400.833 382.973 400.863 382.923 400.902 382.88C400.941 382.837 400.988 382.802 401.04 382.778C401.093 382.754 401.15 382.74 401.208 382.738C401.266 382.736 401.324 382.746 401.378 382.766L409.704 385.72C409.8 385.754 409.882 385.822 409.934 385.91C409.986 385.999 410.005 386.103 409.987 386.204C409.97 386.305 409.917 386.396 409.839 386.463C409.761 386.529 409.661 386.565 409.559 386.565Z" fill="#0A0A0A"/>
<path opacity="0.2" d="M401.719 394.358C401.666 394.358 401.613 394.348 401.564 394.329L397.664 392.842C397.556 392.801 397.469 392.719 397.422 392.613C397.375 392.508 397.372 392.388 397.413 392.28C397.454 392.172 397.536 392.085 397.642 392.038C397.747 391.991 397.867 391.988 397.975 392.029L401.875 393.516C401.97 393.552 402.05 393.621 402.1 393.709C402.15 393.798 402.167 393.902 402.149 394.002C402.131 394.102 402.077 394.193 401.999 394.258C401.921 394.323 401.822 394.359 401.72 394.358H401.719Z" fill="#0A0A0A"/>
<path d="M380.074 351.463L270.074 351.389L228.46 249.877L166.382 275.977L218.3 396.456L218.807 397.656C221.347 403.512 225.626 408.446 231.063 411.789C236.501 415.132 242.835 416.723 249.207 416.347L381.735 408.518L380.074 351.463Z" fill="#571BB1"/>
<path d="M247.386 416.9C241.219 416.889 235.189 415.082 230.033 411.7C224.876 408.317 220.817 403.506 218.351 397.854L217.843 396.654L173.6 294L174.518 293.6L219.268 397.461C221.779 403.214 225.991 408.059 231.339 411.346C236.686 414.634 242.911 416.204 249.178 415.848L381.221 408.048L379.585 351.965L269.737 351.891L237.737 273.838L238.663 273.46L270.406 350.891L380.556 350.966L382.249 408.989L381.764 409.018L249.24 416.845C248.621 416.882 248 416.9 247.386 416.9Z" fill="#0C0C0C"/>
<path d="M125.035 424.943L82.8486 842.29L84.8385 842.491L127.025 425.144L125.035 424.943Z" fill="#494949"/>
<path d="M299.333 424.943L257.147 842.289L259.137 842.49L301.323 425.144L299.333 424.943Z" fill="#494949"/>
<path d="M662.768 424.937L660.779 425.138L702.936 842.487L704.926 842.286L662.768 424.937Z" fill="#494949"/>
<path d="M700.784 416.845H89.7807C85.2552 416.845 81.5867 420.514 81.5867 425.039C81.5867 429.564 85.2552 433.232 89.7807 433.232H700.784C705.309 433.232 708.978 429.564 708.978 425.039C708.978 420.514 705.309 416.845 700.784 416.845Z" fill="#292A2E"/>
<path opacity="0.8" d="M700.784 416.845H89.7807C85.2552 416.845 81.5867 420.514 81.5867 425.039C81.5867 429.564 85.2552 433.232 89.7807 433.232H700.784C705.309 433.232 708.978 429.564 708.978 425.039C708.978 420.514 705.309 416.845 700.784 416.845Z" fill="white"/>
<path d="M700.785 434.232H89.7848C88.5694 434.245 87.3636 434.016 86.237 433.56C85.1105 433.104 84.0856 432.429 83.2217 431.574C82.3578 430.719 81.672 429.701 81.2039 428.579C80.7359 427.458 80.4949 426.254 80.4949 425.039C80.4949 423.823 80.7359 422.62 81.2039 421.498C81.672 420.377 82.3578 419.359 83.2217 418.504C84.0856 417.649 85.1105 416.974 86.237 416.517C87.3636 416.061 88.5694 415.833 89.7848 415.845H700.785C702 415.833 703.206 416.061 704.332 416.517C705.459 416.974 706.484 417.649 707.348 418.504C708.212 419.359 708.898 420.377 709.366 421.498C709.834 422.62 710.075 423.823 710.075 425.039C710.075 426.254 709.834 427.458 709.366 428.579C708.898 429.701 708.212 430.719 707.348 431.574C706.484 432.429 705.459 433.104 704.332 433.56C703.206 434.016 702 434.245 700.785 434.232ZM89.7848 417.845C88.833 417.834 87.8884 418.012 87.0058 418.368C86.1232 418.725 85.3201 419.253 84.6431 419.922C83.9661 420.591 83.4285 421.388 83.0617 422.266C82.6948 423.144 82.5059 424.087 82.5059 425.039C82.5059 425.991 82.6948 426.933 83.0617 427.811C83.4285 428.69 83.9661 429.486 84.6431 430.156C85.3201 430.825 86.1232 431.353 87.0058 431.709C87.8884 432.066 88.833 432.243 89.7848 432.232H700.785C701.737 432.243 702.681 432.066 703.564 431.709C704.446 431.353 705.249 430.825 705.926 430.156C706.603 429.486 707.141 428.69 707.508 427.811C707.875 426.933 708.064 425.991 708.064 425.039C708.064 424.087 707.875 423.144 707.508 422.266C707.141 421.388 706.603 420.591 705.926 419.922C705.249 419.253 704.446 418.725 703.564 418.368C702.681 418.012 701.737 417.834 700.785 417.845H89.7848Z" fill="#292A2E"/>
<path d="M700.784 416.845H270.742C266.216 416.845 262.548 420.514 262.548 425.039C262.548 429.564 266.216 433.232 270.742 433.232H700.784C705.309 433.232 708.978 429.564 708.978 425.039C708.978 420.514 705.309 416.845 700.784 416.845Z" fill="white"/>
<path d="M700.785 434.232H270.742C268.32 434.207 266.006 433.227 264.303 431.506C262.599 429.784 261.644 427.461 261.644 425.039C261.644 422.617 262.599 420.293 264.303 418.572C266.006 416.85 268.32 415.87 270.742 415.845H700.785C702 415.833 703.206 416.061 704.332 416.517C705.459 416.974 706.484 417.649 707.348 418.504C708.212 419.359 708.897 420.377 709.366 421.498C709.834 422.62 710.075 423.823 710.075 425.039C710.075 426.254 709.834 427.458 709.366 428.579C708.897 429.701 708.212 430.719 707.348 431.574C706.484 432.429 705.459 433.104 704.332 433.56C703.206 434.016 702 434.245 700.785 434.232ZM270.742 417.845C268.849 417.868 267.04 418.635 265.71 419.982C264.379 421.329 263.632 423.145 263.632 425.039C263.632 426.932 264.379 428.749 265.71 430.096C267.04 431.442 268.849 432.21 270.742 432.232H700.785C701.736 432.243 702.681 432.066 703.564 431.709C704.446 431.353 705.249 430.825 705.926 430.156C706.603 429.486 707.141 428.69 707.508 427.811C707.875 426.933 708.064 425.991 708.064 425.039C708.064 424.087 707.875 423.144 707.508 422.266C707.141 421.388 706.603 420.591 705.926 419.922C705.249 419.253 704.446 418.725 703.564 418.368C702.681 418.012 701.736 417.834 700.785 417.845H270.742Z" fill="#292A2E"/>
<path d="M717.265 709.44C717.133 709.441 717.003 709.415 716.882 709.365C716.76 709.314 716.65 709.241 716.558 709.147C715.149 707.739 712.852 681.889 706.666 604.924C704.135 573.432 701.744 543.686 699.999 525.609C699.875 524.318 699.374 524.168 699.21 524.119C696.821 523.398 689.558 529.125 685.503 534.141C685.336 534.348 685.094 534.479 684.83 534.507C684.566 534.535 684.302 534.457 684.096 534.29C683.889 534.124 683.758 533.882 683.73 533.618C683.702 533.354 683.78 533.09 683.947 532.883C686.629 529.567 695.369 520.874 699.785 522.203C700.675 522.471 701.785 523.245 701.99 525.417C703.737 543.51 706.128 573.264 708.66 604.764C712.419 651.534 716.677 704.52 718.077 707.857C718.184 708.007 718.248 708.183 718.261 708.366C718.275 708.55 718.238 708.733 718.154 708.897C718.07 709.06 717.943 709.198 717.786 709.294C717.629 709.39 717.448 709.44 717.265 709.44Z" fill="#494949"/>
<path d="M697.429 558.781C714.023 545.479 719.523 524.776 709.714 512.539C699.904 500.301 678.5 501.163 661.907 514.465C645.313 527.766 639.813 548.469 649.622 560.707C659.432 572.944 680.836 572.082 697.429 558.781Z" fill="#0F9C75"/>
<path opacity="0.2" d="M697.429 558.781C714.023 545.479 719.523 524.776 709.714 512.539C699.904 500.301 678.5 501.163 661.907 514.465C645.313 527.766 639.813 548.469 649.622 560.707C659.432 572.944 680.836 572.082 697.429 558.781Z" fill="white"/>
<path d="M654.275 563.819C654.18 563.819 654.087 563.792 654.007 563.741C653.927 563.691 653.863 563.618 653.822 563.532C653.782 563.446 653.767 563.351 653.779 563.256C653.791 563.162 653.829 563.073 653.89 563L701.181 505.971C701.265 505.869 701.387 505.805 701.519 505.793C701.651 505.78 701.783 505.821 701.885 505.906C701.987 505.991 702.052 506.112 702.064 506.244C702.076 506.377 702.035 506.508 701.951 506.61L654.66 563.639C654.613 563.696 654.554 563.741 654.487 563.772C654.421 563.803 654.348 563.819 654.275 563.819Z" fill="white"/>
<path d="M727.579 697.215C727.419 697.215 727.262 697.177 727.12 697.104C726.978 697.03 726.856 696.924 726.764 696.794C726.671 696.664 726.612 696.514 726.589 696.356C726.567 696.198 726.582 696.037 726.635 695.886L744.4 644.8C744.923 643.299 745.814 641.953 746.992 640.886C748.17 639.819 749.597 639.064 751.142 638.691C752.687 638.319 754.301 638.339 755.836 638.752C757.371 639.164 758.778 639.955 759.928 641.052L769.32 650.023C769.512 650.206 769.623 650.458 769.629 650.724C769.635 650.989 769.536 651.246 769.352 651.438C769.169 651.629 768.917 651.741 768.652 651.747C768.386 651.753 768.13 651.653 767.938 651.47L758.547 642.498C757.639 641.632 756.528 641.007 755.316 640.682C754.104 640.356 752.83 640.34 751.61 640.634C750.39 640.929 749.264 641.525 748.334 642.367C747.404 643.21 746.701 644.272 746.288 645.457L728.525 696.544C728.456 696.74 728.329 696.91 728.159 697.031C727.989 697.151 727.787 697.215 727.579 697.215Z" fill="#494949"/>
<path d="M795.556 678.307C807.854 668.573 807.123 647.164 793.924 630.489C780.725 613.814 760.056 608.187 747.758 617.921C735.461 627.655 736.191 649.064 749.39 665.739C762.59 682.414 783.259 688.041 795.556 678.307Z" fill="#0F9C75"/>
<path d="M709.2 706.182C708.975 706.182 708.757 706.107 708.581 705.967C708.404 705.828 708.28 705.634 708.228 705.415L678.412 580.77C678.208 579.921 677.774 579.144 677.157 578.526C676.54 577.907 675.765 577.47 674.916 577.264C674.067 577.057 673.178 577.088 672.346 577.354C671.514 577.62 670.771 578.11 670.2 578.77L661.01 589.39C660.924 589.491 660.82 589.574 660.702 589.634C660.584 589.694 660.456 589.73 660.324 589.74C660.192 589.75 660.06 589.734 659.934 589.693C659.809 589.652 659.693 589.586 659.593 589.499C659.493 589.413 659.411 589.307 659.352 589.189C659.293 589.071 659.258 588.942 659.25 588.81C659.241 588.678 659.258 588.546 659.301 588.421C659.343 588.296 659.41 588.18 659.498 588.081L668.687 577.462C669.499 576.523 670.555 575.826 671.738 575.449C672.921 575.071 674.186 575.027 675.392 575.321C676.599 575.616 677.701 576.237 678.577 577.117C679.453 577.998 680.069 579.102 680.358 580.31L710.168 704.954C710.228 705.212 710.184 705.482 710.045 705.707C709.906 705.932 709.684 706.093 709.428 706.154C709.353 706.173 709.277 706.182 709.2 706.182Z" fill="#494949"/>
<path d="M698.199 617.08C701.823 596.124 692.233 576.97 676.778 574.298C661.324 571.625 645.858 586.447 642.234 607.402C638.61 628.358 648.201 647.513 663.655 650.185C679.11 652.858 694.576 638.036 698.199 617.08Z" fill="#0F9C75"/>
<path d="M717.266 709.44C717.225 709.44 717.184 709.438 717.143 709.433C717.012 709.417 716.886 709.376 716.772 709.311C716.658 709.246 716.557 709.16 716.476 709.056C716.395 708.953 716.336 708.834 716.3 708.708C716.265 708.581 716.256 708.449 716.272 708.318L735.308 553.761C735.515 552.078 736.204 550.49 737.293 549.188C738.381 547.887 739.822 546.928 741.442 546.426C743.063 545.924 744.794 545.9 746.427 546.358C748.06 546.817 749.527 547.737 750.65 549.008L772.408 573.651C772.583 573.85 772.673 574.111 772.656 574.376C772.64 574.64 772.519 574.888 772.32 575.063C772.121 575.239 771.86 575.328 771.595 575.312C771.331 575.295 771.083 575.174 770.908 574.975L749.15 550.332C748.282 549.349 747.149 548.638 745.886 548.284C744.624 547.93 743.286 547.948 742.034 548.336C740.781 548.724 739.668 549.465 738.827 550.471C737.986 551.477 737.453 552.704 737.293 554.005L718.258 708.562C718.228 708.804 718.111 709.027 717.928 709.189C717.745 709.351 717.51 709.44 717.266 709.44Z" fill="#494949"/>
<path d="M794.724 587.346C802.315 573.622 793.383 554.151 774.774 543.858C756.164 533.564 734.924 536.345 727.333 550.069C719.741 563.793 728.673 583.263 747.283 593.557C765.892 603.851 787.132 601.07 794.724 587.346Z" fill="#0F9C75"/>
<path opacity="0.2" d="M795.556 678.307C807.854 668.573 807.123 647.164 793.924 630.489C780.725 613.814 760.056 608.187 747.758 617.921C735.461 627.655 736.191 649.064 749.39 665.739C762.59 682.414 783.259 688.041 795.556 678.307Z" fill="white"/>
<path opacity="0.5" d="M698.199 617.08C701.823 596.124 692.233 576.97 676.778 574.298C661.324 571.625 645.858 586.447 642.234 607.402C638.61 628.358 648.201 647.513 663.655 650.185C679.11 652.858 694.576 638.036 698.199 617.08Z" fill="white"/>
<path opacity="0.5" d="M794.724 587.346C802.315 573.622 793.383 554.151 774.774 543.858C756.164 533.564 734.924 536.345 727.333 550.069C719.741 563.793 728.673 583.263 747.283 593.557C765.892 603.851 787.132 601.07 794.724 587.346Z" fill="white"/>
<path d="M741.613 840.582H692.917L684.847 684.778H749.682L741.613 840.582Z" fill="#292A2E"/>
<path opacity="0.3" d="M741.613 840.582H692.917L684.847 684.778H749.682L741.613 840.582Z" fill="white"/>
<path d="M795.558 678.8C795.482 678.8 795.408 678.783 795.34 678.75C795.272 678.717 795.212 678.669 795.166 678.61L747.366 618.224C747.283 618.12 747.246 617.988 747.261 617.856C747.276 617.724 747.343 617.604 747.447 617.522C747.551 617.439 747.684 617.402 747.815 617.417C747.947 617.432 748.067 617.499 748.15 617.603L795.95 677.989C796.008 678.063 796.045 678.152 796.055 678.245C796.065 678.339 796.049 678.433 796.008 678.518C795.967 678.602 795.903 678.674 795.824 678.724C795.744 678.774 795.652 678.8 795.558 678.8Z" fill="white"/>
<path d="M791.545 592.184C791.438 592.183 791.335 592.148 791.25 592.084L730.084 547.422C729.977 547.344 729.905 547.226 729.884 547.095C729.864 546.964 729.896 546.83 729.975 546.723C730.053 546.616 730.171 546.544 730.302 546.524C730.433 546.504 730.567 546.536 730.674 546.614L791.84 591.277C791.924 591.34 791.986 591.428 792.017 591.528C792.048 591.628 792.047 591.736 792.014 591.835C791.981 591.935 791.917 592.022 791.832 592.083C791.747 592.144 791.645 592.177 791.54 592.177L791.545 592.184Z" fill="white"/>
<path d="M661.17 649.533C661.126 649.533 661.083 649.527 661.041 649.515C660.913 649.481 660.804 649.397 660.737 649.283C660.671 649.168 660.653 649.032 660.687 648.904L680.158 575.951C680.195 575.826 680.279 575.721 680.392 575.657C680.506 575.594 680.64 575.577 680.766 575.61C680.891 575.644 680.999 575.725 681.066 575.836C681.133 575.948 681.154 576.081 681.124 576.208L661.653 649.161C661.624 649.268 661.562 649.362 661.474 649.429C661.387 649.497 661.28 649.533 661.17 649.533Z" fill="white"/>
<path d="M765.122 841.986H64.6998C64.5141 841.986 64.3361 841.912 64.2048 841.781C64.0735 841.65 63.9998 841.472 63.9998 841.286C63.9998 841.1 64.0735 840.922 64.2048 840.791C64.3361 840.66 64.5141 840.586 64.6998 840.586H765.12C765.305 840.586 765.483 840.66 765.615 840.791C765.746 840.922 765.82 841.1 765.82 841.286C765.82 841.472 765.746 841.65 765.615 841.781C765.483 841.912 765.305 841.986 765.12 841.986H765.122Z" fill="#292A2E"/>
<g opacity="0.65">
<path d="M765.122 841.986H64.6998C64.5141 841.986 64.3361 841.912 64.2048 841.781C64.0735 841.65 63.9998 841.472 63.9998 841.286C63.9998 841.1 64.0735 840.922 64.2048 840.791C64.3361 840.66 64.5141 840.586 64.6998 840.586H765.12C765.305 840.586 765.483 840.66 765.615 840.791C765.746 840.922 765.82 841.1 765.82 841.286C765.82 841.472 765.746 841.65 765.615 841.781C765.483 841.912 765.305 841.986 765.12 841.986H765.122Z" fill="#292A2E"/>
</g>
<path opacity="0.1" d="M952 356.5C919.736 216.322 684.127 258.081 589 219.5C456.634 157.447 328.167 26.7605 180 42C-101.742 70.9839 4.65056 434.268 123 579.5C326.096 828.729 491.733 767.56 729 622.5C857.397 543.996 959.091 409.432 952 356.5Z" fill="#571BB1"/>
</svg>
